%TF.GenerationSoftware,KiCad,Pcbnew,5.1.10-88a1d61d58~90~ubuntu20.10.1*%
%TF.CreationDate,2021-10-06T21:45:22-04:00*%
%TF.ProjectId,vco,76636f2e-6b69-4636-9164-5f7063625858,rev?*%
%TF.SameCoordinates,Original*%
%TF.FileFunction,Copper,L4,Bot*%
%TF.FilePolarity,Positive*%
%FSLAX46Y46*%
G04 Gerber Fmt 4.6, Leading zero omitted, Abs format (unit mm)*
G04 Created by KiCad (PCBNEW 5.1.10-88a1d61d58~90~ubuntu20.10.1) date 2021-10-06 21:45:22*
%MOMM*%
%LPD*%
G01*
G04 APERTURE LIST*
%TA.AperFunction,SMDPad,CuDef*%
%ADD10R,2.000000X2.000000*%
%TD*%
%TA.AperFunction,SMDPad,CuDef*%
%ADD11R,1.300000X2.000000*%
%TD*%
%TA.AperFunction,ComponentPad*%
%ADD12O,1.700000X1.700000*%
%TD*%
%TA.AperFunction,ComponentPad*%
%ADD13R,1.700000X1.700000*%
%TD*%
%TA.AperFunction,ViaPad*%
%ADD14C,2.700000*%
%TD*%
%TA.AperFunction,ViaPad*%
%ADD15C,0.800000*%
%TD*%
%TA.AperFunction,Conductor*%
%ADD16C,0.250000*%
%TD*%
G04 APERTURE END LIST*
D10*
%TO.P,RV1,2*%
%TO.N,Net-(R1-Pad2)*%
X137160000Y-101155000D03*
D11*
%TO.P,RV1,3*%
%TO.N,GND*%
X136010000Y-97155000D03*
%TO.P,RV1,1*%
%TO.N,-12V*%
X138310000Y-97155000D03*
%TD*%
D10*
%TO.P,RV12,2*%
%TO.N,Net-(R18-Pad2)*%
X166250000Y-108775000D03*
D11*
%TO.P,RV12,3*%
%TO.N,GND*%
X165100000Y-104775000D03*
%TO.P,RV12,1*%
%TO.N,Net-(R18-Pad2)*%
X167400000Y-104775000D03*
%TD*%
D10*
%TO.P,RV11,2*%
%TO.N,Net-(R16-Pad2)*%
X161170000Y-108775000D03*
D11*
%TO.P,RV11,3*%
%TO.N,GND*%
X160020000Y-104775000D03*
%TO.P,RV11,1*%
%TO.N,-12V*%
X162320000Y-104775000D03*
%TD*%
D10*
%TO.P,RV10,2*%
%TO.N,Net-(R15-Pad2)*%
X163710000Y-121475000D03*
D11*
%TO.P,RV10,3*%
%TO.N,GND*%
X162560000Y-117475000D03*
%TO.P,RV10,1*%
%TO.N,Net-(R15-Pad2)*%
X164860000Y-117475000D03*
%TD*%
D10*
%TO.P,RV9,2*%
%TO.N,Net-(R13-Pad2)*%
X158630000Y-121920000D03*
D11*
%TO.P,RV9,3*%
%TO.N,GND*%
X157480000Y-117920000D03*
%TO.P,RV9,1*%
%TO.N,-12V*%
X159780000Y-117920000D03*
%TD*%
D10*
%TO.P,RV8,2*%
%TO.N,Net-(R12-Pad2)*%
X164980000Y-98615000D03*
D11*
%TO.P,RV8,3*%
%TO.N,GND*%
X163830000Y-94615000D03*
%TO.P,RV8,1*%
%TO.N,Net-(R12-Pad2)*%
X166130000Y-94615000D03*
%TD*%
D10*
%TO.P,RV7,2*%
%TO.N,Net-(R10-Pad2)*%
X159900000Y-98615000D03*
D11*
%TO.P,RV7,3*%
%TO.N,GND*%
X158750000Y-94615000D03*
%TO.P,RV7,1*%
%TO.N,-12V*%
X161050000Y-94615000D03*
%TD*%
D10*
%TO.P,RV6,2*%
%TO.N,Net-(R9-Pad2)*%
X142120000Y-131635000D03*
D11*
%TO.P,RV6,3*%
%TO.N,GND*%
X140970000Y-127635000D03*
%TO.P,RV6,1*%
%TO.N,Net-(R9-Pad2)*%
X143270000Y-127635000D03*
%TD*%
D10*
%TO.P,RV5,2*%
%TO.N,Net-(R7-Pad2)*%
X137160000Y-131635000D03*
D11*
%TO.P,RV5,3*%
%TO.N,GND*%
X136010000Y-127635000D03*
%TO.P,RV5,1*%
%TO.N,-12V*%
X138310000Y-127635000D03*
%TD*%
D10*
%TO.P,RV4,2*%
%TO.N,Net-(R6-Pad2)*%
X142120000Y-116395000D03*
D11*
%TO.P,RV4,3*%
%TO.N,GND*%
X140970000Y-112395000D03*
%TO.P,RV4,1*%
%TO.N,Net-(R6-Pad2)*%
X143270000Y-112395000D03*
%TD*%
D10*
%TO.P,RV3,2*%
%TO.N,Net-(R4-Pad2)*%
X137040000Y-116395000D03*
D11*
%TO.P,RV3,3*%
%TO.N,GND*%
X135890000Y-112395000D03*
%TO.P,RV3,1*%
%TO.N,-12V*%
X138190000Y-112395000D03*
%TD*%
D10*
%TO.P,RV2,2*%
%TO.N,Net-(R3-Pad2)*%
X143510000Y-101155000D03*
D11*
%TO.P,RV2,3*%
%TO.N,GND*%
X142360000Y-97155000D03*
%TO.P,RV2,1*%
%TO.N,Net-(R3-Pad2)*%
X144660000Y-97155000D03*
%TD*%
D12*
%TO.P,J1,10*%
%TO.N,-12V*%
X165735000Y-135255000D03*
%TO.P,J1,9*%
X165735000Y-137795000D03*
%TO.P,J1,8*%
%TO.N,GND*%
X163195000Y-135255000D03*
%TO.P,J1,7*%
X163195000Y-137795000D03*
%TO.P,J1,6*%
X160655000Y-135255000D03*
%TO.P,J1,5*%
X160655000Y-137795000D03*
%TO.P,J1,4*%
X158115000Y-135255000D03*
%TO.P,J1,3*%
X158115000Y-137795000D03*
%TO.P,J1,2*%
%TO.N,+12V*%
X155575000Y-135255000D03*
D13*
%TO.P,J1,1*%
X155575000Y-137795000D03*
%TD*%
D12*
%TO.P,J2,12*%
%TO.N,GND*%
X165735000Y-76835000D03*
%TO.P,J2,11*%
%TO.N,CV6*%
X165735000Y-79375000D03*
%TO.P,J2,10*%
%TO.N,GND*%
X163195000Y-76835000D03*
%TO.P,J2,9*%
%TO.N,CV5*%
X163195000Y-79375000D03*
%TO.P,J2,8*%
%TO.N,GND*%
X160655000Y-76835000D03*
%TO.P,J2,7*%
%TO.N,CV4*%
X160655000Y-79375000D03*
%TO.P,J2,6*%
%TO.N,GND*%
X158115000Y-76835000D03*
%TO.P,J2,5*%
%TO.N,CV3*%
X158115000Y-79375000D03*
%TO.P,J2,4*%
%TO.N,GND*%
X155575000Y-76835000D03*
%TO.P,J2,3*%
%TO.N,CV2*%
X155575000Y-79375000D03*
%TO.P,J2,2*%
%TO.N,GND*%
X153035000Y-76835000D03*
D13*
%TO.P,J2,1*%
%TO.N,CV1*%
X153035000Y-79375000D03*
%TD*%
D12*
%TO.P,J3,12*%
%TO.N,GND*%
X147955000Y-76835000D03*
%TO.P,J3,11*%
%TO.N,OUT6*%
X147955000Y-79375000D03*
%TO.P,J3,10*%
%TO.N,GND*%
X145415000Y-76835000D03*
%TO.P,J3,9*%
%TO.N,OUT5*%
X145415000Y-79375000D03*
%TO.P,J3,8*%
%TO.N,GND*%
X142875000Y-76835000D03*
%TO.P,J3,7*%
%TO.N,OUT4*%
X142875000Y-79375000D03*
%TO.P,J3,6*%
%TO.N,GND*%
X140335000Y-76835000D03*
%TO.P,J3,5*%
%TO.N,OUT3*%
X140335000Y-79375000D03*
%TO.P,J3,4*%
%TO.N,GND*%
X137795000Y-76835000D03*
%TO.P,J3,3*%
%TO.N,OUT2*%
X137795000Y-79375000D03*
%TO.P,J3,2*%
%TO.N,GND*%
X135255000Y-76835000D03*
D13*
%TO.P,J3,1*%
%TO.N,OUT1*%
X135255000Y-79375000D03*
%TD*%
D14*
%TO.N,GND*%
X132080000Y-74295000D03*
X132080000Y-140335000D03*
X168910000Y-140335000D03*
X168910000Y-74295000D03*
D15*
X162560000Y-98425000D03*
X156210000Y-83185000D03*
X147320000Y-84455000D03*
X151130000Y-109855000D03*
X137160000Y-84455000D03*
X140970000Y-120015000D03*
X139700000Y-113665000D03*
X140970000Y-97155000D03*
X134620000Y-97155000D03*
X143510000Y-104775000D03*
X138430000Y-125095000D03*
X157480000Y-93345000D03*
X139700000Y-131445000D03*
X157480000Y-108585000D03*
X163830000Y-106045000D03*
X134620000Y-126365000D03*
X156210000Y-118745000D03*
X163830000Y-112395000D03*
X148590000Y-128905000D03*
X156210000Y-128905000D03*
%TO.N,/Sheet614BBE23/4A*%
X153670000Y-94615000D03*
X153889900Y-108585000D03*
%TO.N,/Sheet614BBE23/5A*%
X152400000Y-116205000D03*
X156210000Y-120015000D03*
X157480000Y-109855000D03*
%TO.N,/Sheet614BBE23/6A*%
X157480000Y-114935000D03*
X162560000Y-111125000D03*
%TO.N,-12V*%
X157480000Y-98425000D03*
X168910000Y-112395000D03*
X168910000Y-99695000D03*
X143510000Y-95415000D03*
X142240000Y-110715000D03*
X139700000Y-112395000D03*
X139700000Y-126365000D03*
X161290000Y-93345000D03*
X149860000Y-117475000D03*
%TO.N,+12V*%
X152400000Y-98425000D03*
X156210000Y-102235000D03*
X163830000Y-109855000D03*
X144780000Y-116205000D03*
X140970000Y-99695000D03*
X154940000Y-111125000D03*
X162560000Y-95885000D03*
X144780000Y-127635000D03*
X161060000Y-120245000D03*
%TO.N,Net-(R1-Pad2)*%
X137160000Y-93345000D03*
%TO.N,CV1*%
X146050000Y-93345000D03*
X147955000Y-89535000D03*
%TO.N,Net-(R4-Pad2)*%
X134620000Y-116205000D03*
%TO.N,Net-(R6-Pad2)*%
X143510000Y-107315000D03*
%TO.N,Net-(R7-Pad2)*%
X135890000Y-123825000D03*
%TO.N,CV2*%
X146050000Y-107315000D03*
%TO.N,Net-(R10-Pad2)*%
X158750000Y-90805000D03*
%TO.N,CV5*%
X167005000Y-113665000D03*
X167640000Y-116840000D03*
%TO.N,Net-(R12-Pad2)*%
X163830000Y-88265000D03*
%TO.N,Net-(R13-Pad2)*%
X158750000Y-114935000D03*
%TO.N,CV3*%
X150495000Y-84455000D03*
X132900990Y-95699010D03*
%TO.N,Net-(R16-Pad2)*%
X161925000Y-101600000D03*
%TO.N,CV6*%
X167005000Y-99060000D03*
%TO.N,Net-(R18-Pad2)*%
X167400000Y-103745000D03*
%TO.N,OUT6*%
X153670000Y-132715000D03*
%TO.N,OUT4*%
X164210000Y-83185000D03*
%TO.N,OUT3*%
X156210000Y-86995000D03*
%TO.N,Net-(R3-Pad2)*%
X142240000Y-90805000D03*
%TO.N,Net-(R9-Pad2)*%
X142240000Y-122555000D03*
%TO.N,Net-(R15-Pad2)*%
X165100000Y-113665000D03*
%TD*%
D16*
%TO.N,GND*%
X136010000Y-97155000D02*
X134620000Y-97155000D01*
X142360000Y-97155000D02*
X140970000Y-97155000D01*
X139300001Y-114064999D02*
X139700000Y-113665000D01*
X137559999Y-114064999D02*
X139300001Y-114064999D01*
X135890000Y-112395000D02*
X137559999Y-114064999D01*
X157480000Y-93345000D02*
X158750000Y-94615000D01*
X163830000Y-94615000D02*
X163830000Y-97155000D01*
X163830000Y-97155000D02*
X162560000Y-98425000D01*
X140970000Y-127635000D02*
X139700000Y-128905000D01*
X139700000Y-128905000D02*
X139700000Y-131445000D01*
X138430000Y-125095000D02*
X140970000Y-125095000D01*
X140970000Y-125095000D02*
X140970000Y-127635000D01*
X160020000Y-106045000D02*
X157480000Y-108585000D01*
X160020000Y-104775000D02*
X160020000Y-106045000D01*
X165100000Y-104775000D02*
X163830000Y-106045000D01*
X134740000Y-126365000D02*
X136010000Y-127635000D01*
X134620000Y-126365000D02*
X134740000Y-126365000D01*
X140970000Y-112395000D02*
X139700000Y-113665000D01*
X163830000Y-116205000D02*
X162560000Y-117475000D01*
X163830000Y-112395000D02*
X163830000Y-116205000D01*
X156655000Y-118745000D02*
X157480000Y-117920000D01*
X156210000Y-118745000D02*
X156655000Y-118745000D01*
%TO.N,/Sheet614BBE23/4A*%
X153670000Y-108365100D02*
X153889900Y-108585000D01*
X153670000Y-94615000D02*
X153670000Y-108365100D01*
%TO.N,/Sheet614BBE23/5A*%
X154743002Y-118548002D02*
X156210000Y-120015000D01*
X154743002Y-114935000D02*
X154743002Y-118548002D01*
X153473002Y-116205000D02*
X154743002Y-114935000D01*
X152400000Y-116205000D02*
X153473002Y-116205000D01*
X157480000Y-112198002D02*
X154743002Y-114935000D01*
X157480000Y-109855000D02*
X157480000Y-112198002D01*
%TO.N,/Sheet614BBE23/6A*%
X161290000Y-111125000D02*
X157480000Y-114935000D01*
X162560000Y-111125000D02*
X161290000Y-111125000D01*
%TO.N,-12V*%
X138310000Y-97155000D02*
X138485001Y-97330001D01*
X161050000Y-94615000D02*
X161050000Y-93585000D01*
X161050000Y-93585000D02*
X161290000Y-93345000D01*
X161290000Y-93345000D02*
X161290000Y-93345000D01*
X138310000Y-127635000D02*
X138430000Y-127635000D01*
X139580000Y-126365000D02*
X138310000Y-127635000D01*
X139700000Y-126365000D02*
X139580000Y-126365000D01*
X138190000Y-112395000D02*
X139700000Y-112395000D01*
X168510001Y-100094999D02*
X168910000Y-99695000D01*
X157480000Y-98990685D02*
X158584314Y-100094999D01*
X157480000Y-98425000D02*
X157480000Y-98990685D01*
X168910000Y-99695000D02*
X168910000Y-112395000D01*
X162320000Y-103274998D02*
X165499999Y-100094999D01*
X162320000Y-104775000D02*
X162320000Y-103274998D01*
X165499999Y-100094999D02*
X168510001Y-100094999D01*
X158584314Y-100094999D02*
X165499999Y-100094999D01*
X159955001Y-117650001D02*
X159955001Y-121220001D01*
X159780000Y-117475000D02*
X159955001Y-117650001D01*
X168910000Y-118860002D02*
X168910000Y-112395000D01*
X164970001Y-122800001D02*
X168910000Y-118860002D01*
X161535001Y-122800001D02*
X164970001Y-122800001D01*
X138430000Y-97155000D02*
X138310000Y-97155000D01*
X139700000Y-112395000D02*
X139700000Y-111125000D01*
X143094001Y-95830999D02*
X143510000Y-95415000D01*
X139634001Y-95830999D02*
X143094001Y-95830999D01*
X138310000Y-97155000D02*
X139634001Y-95830999D01*
X140110000Y-110715000D02*
X139700000Y-111125000D01*
X142240000Y-110715000D02*
X140110000Y-110715000D01*
X138484001Y-98579001D02*
X138484001Y-107260999D01*
X138310000Y-98405000D02*
X138484001Y-98579001D01*
X138310000Y-97155000D02*
X138310000Y-98405000D01*
X139700000Y-108476998D02*
X139700000Y-112395000D01*
X138484001Y-107260999D02*
X139700000Y-108476998D01*
X161535001Y-122800001D02*
X159955001Y-121220001D01*
%TO.N,+12V*%
X144780000Y-105010002D02*
X144780000Y-116205000D01*
X140970000Y-101200002D02*
X144780000Y-105010002D01*
X140970000Y-99695000D02*
X140970000Y-101200002D01*
X144780000Y-116205000D02*
X144780000Y-127635000D01*
X144780000Y-127635000D02*
X144780000Y-127635000D01*
X163830000Y-111323478D02*
X163830000Y-109855000D01*
X161893482Y-113259996D02*
X163830000Y-111323478D01*
X161060000Y-113259996D02*
X161893482Y-113259996D01*
X161060000Y-120245000D02*
X161060000Y-113259996D01*
X155575000Y-111125000D02*
X154940000Y-111125000D01*
X156210000Y-110490000D02*
X155575000Y-111125000D01*
X156210000Y-102235000D02*
X156210000Y-110490000D01*
%TO.N,Net-(R1-Pad2)*%
X137160000Y-93345000D02*
X137160000Y-101155000D01*
%TO.N,CV1*%
X146050000Y-93345000D02*
X146050000Y-92075000D01*
X146050000Y-92075000D02*
X147955000Y-90170000D01*
X147955000Y-90170000D02*
X147955000Y-89535000D01*
X147955000Y-89535000D02*
X147955000Y-89535000D01*
%TO.N,Net-(R4-Pad2)*%
X134810000Y-116395000D02*
X134620000Y-116205000D01*
X137040000Y-116395000D02*
X134810000Y-116395000D01*
%TO.N,Net-(R6-Pad2)*%
X143270000Y-115245000D02*
X142120000Y-116395000D01*
X143270000Y-112395000D02*
X143270000Y-115245000D01*
X143270000Y-107555000D02*
X143510000Y-107315000D01*
X143270000Y-112395000D02*
X143270000Y-107555000D01*
%TO.N,Net-(R7-Pad2)*%
X136984001Y-131459001D02*
X137160000Y-131635000D01*
X136984001Y-124919001D02*
X136984001Y-131459001D01*
X135890000Y-123825000D02*
X136984001Y-124919001D01*
%TO.N,CV2*%
X146050000Y-107315000D02*
X146685000Y-107315000D01*
X146685000Y-107315000D02*
X148679001Y-105320999D01*
X164934001Y-82837479D02*
X164557521Y-82460999D01*
X164934001Y-83532521D02*
X164934001Y-82837479D01*
X164108511Y-84358011D02*
X164934001Y-83532521D01*
X162855467Y-84358011D02*
X164108511Y-84358011D01*
X148679001Y-98534477D02*
X162855467Y-84358011D01*
X148679001Y-105320999D02*
X148679001Y-98534477D01*
X164557521Y-82460999D02*
X156755999Y-82460999D01*
X155575000Y-81280000D02*
X155575000Y-79375000D01*
X156755999Y-82460999D02*
X155575000Y-81280000D01*
%TO.N,Net-(R10-Pad2)*%
X160020000Y-98495000D02*
X159900000Y-98615000D01*
X159900000Y-91955000D02*
X159900000Y-98615000D01*
X158750000Y-90805000D02*
X159900000Y-91955000D01*
%TO.N,CV5*%
X167005000Y-116205000D02*
X167640000Y-116840000D01*
X167005000Y-113665000D02*
X167005000Y-116205000D01*
%TO.N,Net-(R12-Pad2)*%
X163830000Y-88265000D02*
X165100000Y-88265000D01*
X166130000Y-89295000D02*
X166130000Y-94615000D01*
X165100000Y-88265000D02*
X166130000Y-89295000D01*
X166130000Y-97465000D02*
X164980000Y-98615000D01*
X166130000Y-94615000D02*
X166130000Y-97465000D01*
%TO.N,Net-(R13-Pad2)*%
X158630000Y-121475000D02*
X158630000Y-115055000D01*
%TO.N,CV3*%
X142240000Y-86360000D02*
X132900990Y-95699010D01*
X147955000Y-86360000D02*
X142240000Y-86360000D01*
X149860000Y-84455000D02*
X147955000Y-86360000D01*
X150495000Y-84455000D02*
X149860000Y-84455000D01*
%TO.N,Net-(R16-Pad2)*%
X161290000Y-108655000D02*
X161170000Y-108775000D01*
X161345999Y-102179001D02*
X161925000Y-101600000D01*
X161345999Y-108599001D02*
X161345999Y-102179001D01*
X161170000Y-108775000D02*
X161345999Y-108599001D01*
%TO.N,CV6*%
X167404999Y-81044999D02*
X165735000Y-79375000D01*
X167404999Y-98660001D02*
X167404999Y-81044999D01*
X167005000Y-99060000D02*
X167404999Y-98660001D01*
%TO.N,Net-(R18-Pad2)*%
X167400000Y-104775000D02*
X167400000Y-103745000D01*
X167400000Y-103745000D02*
X167400000Y-103745000D01*
X167400000Y-107625000D02*
X166250000Y-108775000D01*
X167400000Y-104775000D02*
X167400000Y-107625000D01*
%TO.N,OUT6*%
X155479001Y-130905999D02*
X158019001Y-130905999D01*
X153670000Y-132715000D02*
X155479001Y-130905999D01*
X158019001Y-130905999D02*
X169545000Y-119380000D01*
X169634001Y-112742521D02*
X169634001Y-77559001D01*
X169545000Y-112831522D02*
X169634001Y-112742521D01*
X169545000Y-119380000D02*
X169545000Y-112831522D01*
X169634001Y-77559001D02*
X166370000Y-74295000D01*
X166370000Y-74295000D02*
X151130000Y-74295000D01*
X151130000Y-74295000D02*
X149860000Y-75565000D01*
X149860000Y-77470000D02*
X147955000Y-79375000D01*
X149860000Y-75565000D02*
X149860000Y-77470000D01*
%TO.N,OUT4*%
X163485999Y-83909001D02*
X164210000Y-83185000D01*
X153759001Y-83909001D02*
X163485999Y-83909001D01*
X151950990Y-82100990D02*
X153759001Y-83909001D01*
X143695990Y-82100990D02*
X151950990Y-82100990D01*
X142875000Y-81280000D02*
X143695990Y-82100990D01*
X142875000Y-79375000D02*
X142875000Y-81280000D01*
%TO.N,OUT3*%
X140335000Y-81280000D02*
X140335000Y-79375000D01*
X141605000Y-82550000D02*
X140335000Y-81280000D01*
X151765000Y-82550000D02*
X141605000Y-82550000D01*
X156210000Y-86995000D02*
X151765000Y-82550000D01*
%TO.N,Net-(R3-Pad2)*%
X144660000Y-100005000D02*
X143510000Y-101155000D01*
X144660000Y-97155000D02*
X144660000Y-100005000D01*
X144660000Y-93225000D02*
X142240000Y-90805000D01*
X144660000Y-97155000D02*
X144660000Y-93225000D01*
%TO.N,Net-(R9-Pad2)*%
X143270000Y-130485000D02*
X142120000Y-131635000D01*
X143270000Y-127635000D02*
X143270000Y-130485000D01*
X143270000Y-127635000D02*
X143270000Y-127395000D01*
X142240000Y-126605000D02*
X143270000Y-127635000D01*
X142240000Y-122555000D02*
X142240000Y-126605000D01*
%TO.N,Net-(R15-Pad2)*%
X164860000Y-120325000D02*
X163710000Y-121475000D01*
X164860000Y-117475000D02*
X164860000Y-120325000D01*
X164860000Y-113905000D02*
X165100000Y-113665000D01*
X164860000Y-117475000D02*
X164860000Y-113905000D01*
%TD*%
M02*
