%TF.GenerationSoftware,KiCad,Pcbnew,5.1.10-88a1d61d58~90~ubuntu20.10.1*%
%TF.CreationDate,2021-11-01T20:20:40-04:00*%
%TF.ProjectId,vco,76636f2e-6b69-4636-9164-5f7063625858,rev?*%
%TF.SameCoordinates,Original*%
%TF.FileFunction,Soldermask,Bot*%
%TF.FilePolarity,Negative*%
%FSLAX46Y46*%
G04 Gerber Fmt 4.6, Leading zero omitted, Abs format (unit mm)*
G04 Created by KiCad (PCBNEW 5.1.10-88a1d61d58~90~ubuntu20.10.1) date 2021-11-01 20:20:40*
%MOMM*%
%LPD*%
G01*
G04 APERTURE LIST*
%ADD10R,2.000000X2.000000*%
%ADD11R,1.300000X2.000000*%
%ADD12O,1.700000X1.700000*%
%ADD13R,1.700000X1.700000*%
G04 APERTURE END LIST*
D10*
%TO.C,RV7*%
X159900000Y-98615000D03*
D11*
X158750000Y-94615000D03*
X161050000Y-94615000D03*
%TD*%
D10*
%TO.C,RV11*%
X162440000Y-113855000D03*
D11*
X161290000Y-109855000D03*
X163590000Y-109855000D03*
%TD*%
D10*
%TO.C,RV1*%
X137160000Y-101155000D03*
D11*
X136010000Y-97155000D03*
X138310000Y-97155000D03*
%TD*%
D10*
%TO.C,RV12*%
X167520000Y-113855000D03*
D11*
X166370000Y-109855000D03*
X168670000Y-109855000D03*
%TD*%
D10*
%TO.C,RV10*%
X164980000Y-129095000D03*
D11*
X163830000Y-125095000D03*
X166130000Y-125095000D03*
%TD*%
D10*
%TO.C,RV9*%
X159900000Y-129540000D03*
D11*
X158750000Y-125540000D03*
X161050000Y-125540000D03*
%TD*%
D10*
%TO.C,RV8*%
X164980000Y-98615000D03*
D11*
X163830000Y-94615000D03*
X166130000Y-94615000D03*
%TD*%
D10*
%TO.C,RV6*%
X142120000Y-131635000D03*
D11*
X140970000Y-127635000D03*
X143270000Y-127635000D03*
%TD*%
D10*
%TO.C,RV5*%
X137160000Y-131635000D03*
D11*
X136010000Y-127635000D03*
X138310000Y-127635000D03*
%TD*%
D10*
%TO.C,RV4*%
X142120000Y-116395000D03*
D11*
X140970000Y-112395000D03*
X143270000Y-112395000D03*
%TD*%
D10*
%TO.C,RV3*%
X137040000Y-116395000D03*
D11*
X135890000Y-112395000D03*
X138190000Y-112395000D03*
%TD*%
D10*
%TO.C,RV2*%
X143510000Y-101155000D03*
D11*
X142360000Y-97155000D03*
X144660000Y-97155000D03*
%TD*%
D12*
%TO.C,J1*%
X165735000Y-135255000D03*
X165735000Y-137795000D03*
X163195000Y-135255000D03*
X163195000Y-137795000D03*
X160655000Y-135255000D03*
X160655000Y-137795000D03*
X158115000Y-135255000D03*
X158115000Y-137795000D03*
X155575000Y-135255000D03*
D13*
X155575000Y-137795000D03*
%TD*%
D12*
%TO.C,J2*%
X165735000Y-76835000D03*
X165735000Y-79375000D03*
X163195000Y-76835000D03*
X163195000Y-79375000D03*
X160655000Y-76835000D03*
X160655000Y-79375000D03*
X158115000Y-76835000D03*
X158115000Y-79375000D03*
X155575000Y-76835000D03*
X155575000Y-79375000D03*
X153035000Y-76835000D03*
D13*
X153035000Y-79375000D03*
%TD*%
D12*
%TO.C,J3*%
X147955000Y-76835000D03*
X147955000Y-79375000D03*
X145415000Y-76835000D03*
X145415000Y-79375000D03*
X142875000Y-76835000D03*
X142875000Y-79375000D03*
X140335000Y-76835000D03*
X140335000Y-79375000D03*
X137795000Y-76835000D03*
X137795000Y-79375000D03*
X135255000Y-76835000D03*
D13*
X135255000Y-79375000D03*
%TD*%
M02*
