M48
; DRILL file {KiCad 5.1.10-88a1d61d58~90~ubuntu20.10.1} date Mon Nov  1 20:20:44 2021
; FORMAT={-:-/ absolute / inch / decimal}
; #@! TF.CreationDate,2021-11-01T20:20:44-04:00
; #@! TF.GenerationSoftware,Kicad,Pcbnew,5.1.10-88a1d61d58~90~ubuntu20.10.1
; #@! TF.FileFunction,Plated,1,4,PTH
FMAT,2
INCH
T1C0.0157
T2C0.0394
T3C0.0984
%
G90
G05
T1
X5.2323Y-3.7677
X5.3Y-3.825
X5.3Y-4.575
X5.3Y-4.975
X5.35Y-4.875
X5.4Y-3.325
X5.4Y-3.675
X5.45Y-4.925
X5.5Y-4.35
X5.5Y-4.475
X5.5Y-4.6
X5.5Y-4.975
X5.5Y-5.175
X5.55Y-3.85
X5.55Y-4.725
X5.6Y-3.575
X5.6Y-4.825
X5.65Y-3.75
X5.65Y-4.125
X5.65Y-4.225
X5.7Y-4.575
X5.7Y-5.025
X5.75Y-3.675
X5.75Y-3.95
X5.75Y-4.225
X5.8Y-3.325
X5.825Y-3.525
X5.85Y-5.075
X5.9Y-4.625
X5.925Y-3.325
X5.95Y-4.325
X5.9512Y-3.8378
X5.9512Y-4.1152
X6.0Y-3.875
X6.0Y-4.575
X6.05Y-3.725
X6.05Y-5.225
X6.0587Y-4.275
X6.1Y-4.375
X6.15Y-3.275
X6.15Y-3.425
X6.15Y-4.025
X6.15Y-5.075
X6.1538Y-4.3918
X6.2Y-3.6
X6.2Y-3.75
X6.2Y-3.85
X6.2Y-3.925
X6.2Y-4.25
X6.2Y-4.4
X6.2Y-4.65
X6.258Y-4.758
X6.3Y-4.8
X6.35Y-3.65
X6.35Y-4.2
X6.4Y-3.8
X6.4Y-4.2
X6.4Y-4.9
X6.4Y-5.05
X6.45Y-3.475
X6.45Y-3.65
X6.45Y-4.2
X6.45Y-4.7
X6.465Y-3.275
X6.5Y-4.4
X6.5Y-4.45
X6.55Y-4.2
X6.55Y-4.75
X6.6Y-4.6
X6.6374Y-4.9126
X6.6425Y-4.2425
T2
X5.325Y-3.025
X5.325Y-3.125
X5.425Y-3.025
X5.425Y-3.125
X5.525Y-3.025
X5.525Y-3.125
X5.625Y-3.025
X5.625Y-3.125
X5.725Y-3.025
X5.725Y-3.125
X5.825Y-3.025
X5.825Y-3.125
X6.025Y-3.025
X6.025Y-3.125
X6.125Y-3.025
X6.125Y-3.125
X6.125Y-5.325
X6.125Y-5.425
X6.225Y-3.025
X6.225Y-3.125
X6.225Y-5.325
X6.225Y-5.425
X6.325Y-3.025
X6.325Y-3.125
X6.325Y-5.325
X6.325Y-5.425
X6.425Y-3.025
X6.425Y-3.125
X6.425Y-5.325
X6.425Y-5.425
X6.525Y-3.025
X6.525Y-3.125
X6.525Y-5.325
X6.525Y-5.425
T3
X5.2Y-2.925
X5.2Y-5.525
X6.65Y-2.925
X6.65Y-5.525
T0
M30
