%TF.GenerationSoftware,KiCad,Pcbnew,5.1.10-88a1d61d58~90~ubuntu20.10.1*%
%TF.CreationDate,2021-11-01T20:20:40-04:00*%
%TF.ProjectId,vco,76636f2e-6b69-4636-9164-5f7063625858,rev?*%
%TF.SameCoordinates,Original*%
%TF.FileFunction,Copper,L1,Top*%
%TF.FilePolarity,Positive*%
%FSLAX46Y46*%
G04 Gerber Fmt 4.6, Leading zero omitted, Abs format (unit mm)*
G04 Created by KiCad (PCBNEW 5.1.10-88a1d61d58~90~ubuntu20.10.1) date 2021-11-01 20:20:40*
%MOMM*%
%LPD*%
G01*
G04 APERTURE LIST*
%TA.AperFunction,SMDPad,CuDef*%
%ADD10R,0.800000X1.900000*%
%TD*%
%TA.AperFunction,SMDPad,CuDef*%
%ADD11R,0.800000X1.800000*%
%TD*%
%TA.AperFunction,ComponentPad*%
%ADD12O,1.700000X1.700000*%
%TD*%
%TA.AperFunction,ComponentPad*%
%ADD13R,1.700000X1.700000*%
%TD*%
%TA.AperFunction,ViaPad*%
%ADD14C,0.800000*%
%TD*%
%TA.AperFunction,ViaPad*%
%ADD15C,2.700000*%
%TD*%
%TA.AperFunction,Conductor*%
%ADD16C,0.250000*%
%TD*%
G04 APERTURE END LIST*
%TO.P,U1,14*%
%TO.N,+12V*%
%TA.AperFunction,SMDPad,CuDef*%
G36*
G01*
X153900000Y-102385000D02*
X153900000Y-102085000D01*
G75*
G02*
X154050000Y-101935000I150000J0D01*
G01*
X155700000Y-101935000D01*
G75*
G02*
X155850000Y-102085000I0J-150000D01*
G01*
X155850000Y-102385000D01*
G75*
G02*
X155700000Y-102535000I-150000J0D01*
G01*
X154050000Y-102535000D01*
G75*
G02*
X153900000Y-102385000I0J150000D01*
G01*
G37*
%TD.AperFunction*%
%TO.P,U1,13*%
%TO.N,/Sheet614BBE23/6A*%
%TA.AperFunction,SMDPad,CuDef*%
G36*
G01*
X153900000Y-103655000D02*
X153900000Y-103355000D01*
G75*
G02*
X154050000Y-103205000I150000J0D01*
G01*
X155700000Y-103205000D01*
G75*
G02*
X155850000Y-103355000I0J-150000D01*
G01*
X155850000Y-103655000D01*
G75*
G02*
X155700000Y-103805000I-150000J0D01*
G01*
X154050000Y-103805000D01*
G75*
G02*
X153900000Y-103655000I0J150000D01*
G01*
G37*
%TD.AperFunction*%
%TO.P,U1,12*%
%TO.N,/Sheet614BBE23/6Y*%
%TA.AperFunction,SMDPad,CuDef*%
G36*
G01*
X153900000Y-104925000D02*
X153900000Y-104625000D01*
G75*
G02*
X154050000Y-104475000I150000J0D01*
G01*
X155700000Y-104475000D01*
G75*
G02*
X155850000Y-104625000I0J-150000D01*
G01*
X155850000Y-104925000D01*
G75*
G02*
X155700000Y-105075000I-150000J0D01*
G01*
X154050000Y-105075000D01*
G75*
G02*
X153900000Y-104925000I0J150000D01*
G01*
G37*
%TD.AperFunction*%
%TO.P,U1,11*%
%TO.N,/Sheet614BBE23/5A*%
%TA.AperFunction,SMDPad,CuDef*%
G36*
G01*
X153900000Y-106195000D02*
X153900000Y-105895000D01*
G75*
G02*
X154050000Y-105745000I150000J0D01*
G01*
X155700000Y-105745000D01*
G75*
G02*
X155850000Y-105895000I0J-150000D01*
G01*
X155850000Y-106195000D01*
G75*
G02*
X155700000Y-106345000I-150000J0D01*
G01*
X154050000Y-106345000D01*
G75*
G02*
X153900000Y-106195000I0J150000D01*
G01*
G37*
%TD.AperFunction*%
%TO.P,U1,10*%
%TO.N,/Sheet614BBE23/5Y*%
%TA.AperFunction,SMDPad,CuDef*%
G36*
G01*
X153900000Y-107465000D02*
X153900000Y-107165000D01*
G75*
G02*
X154050000Y-107015000I150000J0D01*
G01*
X155700000Y-107015000D01*
G75*
G02*
X155850000Y-107165000I0J-150000D01*
G01*
X155850000Y-107465000D01*
G75*
G02*
X155700000Y-107615000I-150000J0D01*
G01*
X154050000Y-107615000D01*
G75*
G02*
X153900000Y-107465000I0J150000D01*
G01*
G37*
%TD.AperFunction*%
%TO.P,U1,9*%
%TO.N,/Sheet614BBE23/4A*%
%TA.AperFunction,SMDPad,CuDef*%
G36*
G01*
X153900000Y-108735000D02*
X153900000Y-108435000D01*
G75*
G02*
X154050000Y-108285000I150000J0D01*
G01*
X155700000Y-108285000D01*
G75*
G02*
X155850000Y-108435000I0J-150000D01*
G01*
X155850000Y-108735000D01*
G75*
G02*
X155700000Y-108885000I-150000J0D01*
G01*
X154050000Y-108885000D01*
G75*
G02*
X153900000Y-108735000I0J150000D01*
G01*
G37*
%TD.AperFunction*%
%TO.P,U1,8*%
%TO.N,/Sheet614BBE23/4Y*%
%TA.AperFunction,SMDPad,CuDef*%
G36*
G01*
X153900000Y-110005000D02*
X153900000Y-109705000D01*
G75*
G02*
X154050000Y-109555000I150000J0D01*
G01*
X155700000Y-109555000D01*
G75*
G02*
X155850000Y-109705000I0J-150000D01*
G01*
X155850000Y-110005000D01*
G75*
G02*
X155700000Y-110155000I-150000J0D01*
G01*
X154050000Y-110155000D01*
G75*
G02*
X153900000Y-110005000I0J150000D01*
G01*
G37*
%TD.AperFunction*%
%TO.P,U1,7*%
%TO.N,GND*%
%TA.AperFunction,SMDPad,CuDef*%
G36*
G01*
X148950000Y-110005000D02*
X148950000Y-109705000D01*
G75*
G02*
X149100000Y-109555000I150000J0D01*
G01*
X150750000Y-109555000D01*
G75*
G02*
X150900000Y-109705000I0J-150000D01*
G01*
X150900000Y-110005000D01*
G75*
G02*
X150750000Y-110155000I-150000J0D01*
G01*
X149100000Y-110155000D01*
G75*
G02*
X148950000Y-110005000I0J150000D01*
G01*
G37*
%TD.AperFunction*%
%TO.P,U1,6*%
%TO.N,/Sheet614BBE23/3Y*%
%TA.AperFunction,SMDPad,CuDef*%
G36*
G01*
X148950000Y-108735000D02*
X148950000Y-108435000D01*
G75*
G02*
X149100000Y-108285000I150000J0D01*
G01*
X150750000Y-108285000D01*
G75*
G02*
X150900000Y-108435000I0J-150000D01*
G01*
X150900000Y-108735000D01*
G75*
G02*
X150750000Y-108885000I-150000J0D01*
G01*
X149100000Y-108885000D01*
G75*
G02*
X148950000Y-108735000I0J150000D01*
G01*
G37*
%TD.AperFunction*%
%TO.P,U1,5*%
%TO.N,/Sheet614BBE23/3A*%
%TA.AperFunction,SMDPad,CuDef*%
G36*
G01*
X148950000Y-107465000D02*
X148950000Y-107165000D01*
G75*
G02*
X149100000Y-107015000I150000J0D01*
G01*
X150750000Y-107015000D01*
G75*
G02*
X150900000Y-107165000I0J-150000D01*
G01*
X150900000Y-107465000D01*
G75*
G02*
X150750000Y-107615000I-150000J0D01*
G01*
X149100000Y-107615000D01*
G75*
G02*
X148950000Y-107465000I0J150000D01*
G01*
G37*
%TD.AperFunction*%
%TO.P,U1,4*%
%TO.N,/Sheet614BBE23/2Y*%
%TA.AperFunction,SMDPad,CuDef*%
G36*
G01*
X148950000Y-106195000D02*
X148950000Y-105895000D01*
G75*
G02*
X149100000Y-105745000I150000J0D01*
G01*
X150750000Y-105745000D01*
G75*
G02*
X150900000Y-105895000I0J-150000D01*
G01*
X150900000Y-106195000D01*
G75*
G02*
X150750000Y-106345000I-150000J0D01*
G01*
X149100000Y-106345000D01*
G75*
G02*
X148950000Y-106195000I0J150000D01*
G01*
G37*
%TD.AperFunction*%
%TO.P,U1,3*%
%TO.N,/Sheet614BBE23/2A*%
%TA.AperFunction,SMDPad,CuDef*%
G36*
G01*
X148950000Y-104925000D02*
X148950000Y-104625000D01*
G75*
G02*
X149100000Y-104475000I150000J0D01*
G01*
X150750000Y-104475000D01*
G75*
G02*
X150900000Y-104625000I0J-150000D01*
G01*
X150900000Y-104925000D01*
G75*
G02*
X150750000Y-105075000I-150000J0D01*
G01*
X149100000Y-105075000D01*
G75*
G02*
X148950000Y-104925000I0J150000D01*
G01*
G37*
%TD.AperFunction*%
%TO.P,U1,2*%
%TO.N,/Sheet614BBE23/1Y*%
%TA.AperFunction,SMDPad,CuDef*%
G36*
G01*
X148950000Y-103655000D02*
X148950000Y-103355000D01*
G75*
G02*
X149100000Y-103205000I150000J0D01*
G01*
X150750000Y-103205000D01*
G75*
G02*
X150900000Y-103355000I0J-150000D01*
G01*
X150900000Y-103655000D01*
G75*
G02*
X150750000Y-103805000I-150000J0D01*
G01*
X149100000Y-103805000D01*
G75*
G02*
X148950000Y-103655000I0J150000D01*
G01*
G37*
%TD.AperFunction*%
%TO.P,U1,1*%
%TO.N,/Sheet614BBE23/1A*%
%TA.AperFunction,SMDPad,CuDef*%
G36*
G01*
X148950000Y-102385000D02*
X148950000Y-102085000D01*
G75*
G02*
X149100000Y-101935000I150000J0D01*
G01*
X150750000Y-101935000D01*
G75*
G02*
X150900000Y-102085000I0J-150000D01*
G01*
X150900000Y-102385000D01*
G75*
G02*
X150750000Y-102535000I-150000J0D01*
G01*
X149100000Y-102535000D01*
G75*
G02*
X148950000Y-102385000I0J150000D01*
G01*
G37*
%TD.AperFunction*%
%TD*%
%TO.P,U2,14*%
%TO.N,Net-(C8-Pad1)*%
%TA.AperFunction,SMDPad,CuDef*%
G36*
G01*
X153835000Y-92225000D02*
X153835000Y-91925000D01*
G75*
G02*
X153985000Y-91775000I150000J0D01*
G01*
X155635000Y-91775000D01*
G75*
G02*
X155785000Y-91925000I0J-150000D01*
G01*
X155785000Y-92225000D01*
G75*
G02*
X155635000Y-92375000I-150000J0D01*
G01*
X153985000Y-92375000D01*
G75*
G02*
X153835000Y-92225000I0J150000D01*
G01*
G37*
%TD.AperFunction*%
%TO.P,U2,13*%
%TA.AperFunction,SMDPad,CuDef*%
G36*
G01*
X153835000Y-93495000D02*
X153835000Y-93195000D01*
G75*
G02*
X153985000Y-93045000I150000J0D01*
G01*
X155635000Y-93045000D01*
G75*
G02*
X155785000Y-93195000I0J-150000D01*
G01*
X155785000Y-93495000D01*
G75*
G02*
X155635000Y-93645000I-150000J0D01*
G01*
X153985000Y-93645000D01*
G75*
G02*
X153835000Y-93495000I0J150000D01*
G01*
G37*
%TD.AperFunction*%
%TO.P,U2,12*%
%TO.N,/Sheet614BBE23/4A*%
%TA.AperFunction,SMDPad,CuDef*%
G36*
G01*
X153835000Y-94765000D02*
X153835000Y-94465000D01*
G75*
G02*
X153985000Y-94315000I150000J0D01*
G01*
X155635000Y-94315000D01*
G75*
G02*
X155785000Y-94465000I0J-150000D01*
G01*
X155785000Y-94765000D01*
G75*
G02*
X155635000Y-94915000I-150000J0D01*
G01*
X153985000Y-94915000D01*
G75*
G02*
X153835000Y-94765000I0J150000D01*
G01*
G37*
%TD.AperFunction*%
%TO.P,U2,11*%
%TO.N,-12V*%
%TA.AperFunction,SMDPad,CuDef*%
G36*
G01*
X153835000Y-96035000D02*
X153835000Y-95735000D01*
G75*
G02*
X153985000Y-95585000I150000J0D01*
G01*
X155635000Y-95585000D01*
G75*
G02*
X155785000Y-95735000I0J-150000D01*
G01*
X155785000Y-96035000D01*
G75*
G02*
X155635000Y-96185000I-150000J0D01*
G01*
X153985000Y-96185000D01*
G75*
G02*
X153835000Y-96035000I0J150000D01*
G01*
G37*
%TD.AperFunction*%
%TO.P,U2,10*%
%TO.N,/Sheet614BBE23/3A*%
%TA.AperFunction,SMDPad,CuDef*%
G36*
G01*
X153835000Y-97305000D02*
X153835000Y-97005000D01*
G75*
G02*
X153985000Y-96855000I150000J0D01*
G01*
X155635000Y-96855000D01*
G75*
G02*
X155785000Y-97005000I0J-150000D01*
G01*
X155785000Y-97305000D01*
G75*
G02*
X155635000Y-97455000I-150000J0D01*
G01*
X153985000Y-97455000D01*
G75*
G02*
X153835000Y-97305000I0J150000D01*
G01*
G37*
%TD.AperFunction*%
%TO.P,U2,9*%
%TO.N,Net-(C11-Pad1)*%
%TA.AperFunction,SMDPad,CuDef*%
G36*
G01*
X153835000Y-98575000D02*
X153835000Y-98275000D01*
G75*
G02*
X153985000Y-98125000I150000J0D01*
G01*
X155635000Y-98125000D01*
G75*
G02*
X155785000Y-98275000I0J-150000D01*
G01*
X155785000Y-98575000D01*
G75*
G02*
X155635000Y-98725000I-150000J0D01*
G01*
X153985000Y-98725000D01*
G75*
G02*
X153835000Y-98575000I0J150000D01*
G01*
G37*
%TD.AperFunction*%
%TO.P,U2,8*%
%TA.AperFunction,SMDPad,CuDef*%
G36*
G01*
X153835000Y-99845000D02*
X153835000Y-99545000D01*
G75*
G02*
X153985000Y-99395000I150000J0D01*
G01*
X155635000Y-99395000D01*
G75*
G02*
X155785000Y-99545000I0J-150000D01*
G01*
X155785000Y-99845000D01*
G75*
G02*
X155635000Y-99995000I-150000J0D01*
G01*
X153985000Y-99995000D01*
G75*
G02*
X153835000Y-99845000I0J150000D01*
G01*
G37*
%TD.AperFunction*%
%TO.P,U2,7*%
%TO.N,Net-(C7-Pad1)*%
%TA.AperFunction,SMDPad,CuDef*%
G36*
G01*
X148885000Y-99845000D02*
X148885000Y-99545000D01*
G75*
G02*
X149035000Y-99395000I150000J0D01*
G01*
X150685000Y-99395000D01*
G75*
G02*
X150835000Y-99545000I0J-150000D01*
G01*
X150835000Y-99845000D01*
G75*
G02*
X150685000Y-99995000I-150000J0D01*
G01*
X149035000Y-99995000D01*
G75*
G02*
X148885000Y-99845000I0J150000D01*
G01*
G37*
%TD.AperFunction*%
%TO.P,U2,6*%
%TA.AperFunction,SMDPad,CuDef*%
G36*
G01*
X148885000Y-98575000D02*
X148885000Y-98275000D01*
G75*
G02*
X149035000Y-98125000I150000J0D01*
G01*
X150685000Y-98125000D01*
G75*
G02*
X150835000Y-98275000I0J-150000D01*
G01*
X150835000Y-98575000D01*
G75*
G02*
X150685000Y-98725000I-150000J0D01*
G01*
X149035000Y-98725000D01*
G75*
G02*
X148885000Y-98575000I0J150000D01*
G01*
G37*
%TD.AperFunction*%
%TO.P,U2,5*%
%TO.N,/Sheet614BBE23/2A*%
%TA.AperFunction,SMDPad,CuDef*%
G36*
G01*
X148885000Y-97305000D02*
X148885000Y-97005000D01*
G75*
G02*
X149035000Y-96855000I150000J0D01*
G01*
X150685000Y-96855000D01*
G75*
G02*
X150835000Y-97005000I0J-150000D01*
G01*
X150835000Y-97305000D01*
G75*
G02*
X150685000Y-97455000I-150000J0D01*
G01*
X149035000Y-97455000D01*
G75*
G02*
X148885000Y-97305000I0J150000D01*
G01*
G37*
%TD.AperFunction*%
%TO.P,U2,4*%
%TO.N,+12V*%
%TA.AperFunction,SMDPad,CuDef*%
G36*
G01*
X148885000Y-96035000D02*
X148885000Y-95735000D01*
G75*
G02*
X149035000Y-95585000I150000J0D01*
G01*
X150685000Y-95585000D01*
G75*
G02*
X150835000Y-95735000I0J-150000D01*
G01*
X150835000Y-96035000D01*
G75*
G02*
X150685000Y-96185000I-150000J0D01*
G01*
X149035000Y-96185000D01*
G75*
G02*
X148885000Y-96035000I0J150000D01*
G01*
G37*
%TD.AperFunction*%
%TO.P,U2,3*%
%TO.N,/Sheet614BBE23/1A*%
%TA.AperFunction,SMDPad,CuDef*%
G36*
G01*
X148885000Y-94765000D02*
X148885000Y-94465000D01*
G75*
G02*
X149035000Y-94315000I150000J0D01*
G01*
X150685000Y-94315000D01*
G75*
G02*
X150835000Y-94465000I0J-150000D01*
G01*
X150835000Y-94765000D01*
G75*
G02*
X150685000Y-94915000I-150000J0D01*
G01*
X149035000Y-94915000D01*
G75*
G02*
X148885000Y-94765000I0J150000D01*
G01*
G37*
%TD.AperFunction*%
%TO.P,U2,2*%
%TO.N,Net-(C10-Pad1)*%
%TA.AperFunction,SMDPad,CuDef*%
G36*
G01*
X148885000Y-93495000D02*
X148885000Y-93195000D01*
G75*
G02*
X149035000Y-93045000I150000J0D01*
G01*
X150685000Y-93045000D01*
G75*
G02*
X150835000Y-93195000I0J-150000D01*
G01*
X150835000Y-93495000D01*
G75*
G02*
X150685000Y-93645000I-150000J0D01*
G01*
X149035000Y-93645000D01*
G75*
G02*
X148885000Y-93495000I0J150000D01*
G01*
G37*
%TD.AperFunction*%
%TO.P,U2,1*%
%TA.AperFunction,SMDPad,CuDef*%
G36*
G01*
X148885000Y-92225000D02*
X148885000Y-91925000D01*
G75*
G02*
X149035000Y-91775000I150000J0D01*
G01*
X150685000Y-91775000D01*
G75*
G02*
X150835000Y-91925000I0J-150000D01*
G01*
X150835000Y-92225000D01*
G75*
G02*
X150685000Y-92375000I-150000J0D01*
G01*
X149035000Y-92375000D01*
G75*
G02*
X148885000Y-92225000I0J150000D01*
G01*
G37*
%TD.AperFunction*%
%TD*%
D10*
%TO.P,Q12,3*%
%TO.N,/Sheet614BBE23/6A*%
X162560000Y-114300000D03*
%TO.P,Q12,2*%
%TO.N,GND*%
X161610000Y-111300000D03*
%TO.P,Q12,1*%
%TO.N,+12V*%
X163510000Y-111300000D03*
%TD*%
D11*
%TO.P,Q11,1*%
%TO.N,Net-(Q11-Pad1)*%
X166690000Y-115060000D03*
%TO.P,Q11,2*%
%TO.N,+12V*%
X168590000Y-115060000D03*
%TO.P,Q11,3*%
%TO.N,-12V*%
X167640000Y-111760000D03*
%TD*%
D10*
%TO.P,Q10,3*%
%TO.N,/Sheet614BBE23/5A*%
X160020000Y-125270000D03*
%TO.P,Q10,2*%
%TO.N,GND*%
X160970000Y-128270000D03*
%TO.P,Q10,1*%
%TO.N,+12V*%
X159070000Y-128270000D03*
%TD*%
D11*
%TO.P,Q9,3*%
%TO.N,-12V*%
X165100000Y-128905000D03*
%TO.P,Q9,2*%
%TO.N,+12V*%
X164150000Y-125605000D03*
%TO.P,Q9,1*%
%TO.N,Net-(Q9-Pad1)*%
X166050000Y-125605000D03*
%TD*%
D10*
%TO.P,Q8,3*%
%TO.N,/Sheet614BBE23/4A*%
X160020000Y-94385000D03*
%TO.P,Q8,2*%
%TO.N,GND*%
X160970000Y-97385000D03*
%TO.P,Q8,1*%
%TO.N,+12V*%
X159070000Y-97385000D03*
%TD*%
D11*
%TO.P,Q7,3*%
%TO.N,-12V*%
X165100000Y-97535000D03*
%TO.P,Q7,2*%
%TO.N,+12V*%
X164150000Y-94235000D03*
%TO.P,Q7,1*%
%TO.N,Net-(Q7-Pad1)*%
X166050000Y-94235000D03*
%TD*%
D10*
%TO.P,Q6,3*%
%TO.N,/Sheet614BBE23/3A*%
X137160000Y-130405000D03*
%TO.P,Q6,2*%
%TO.N,GND*%
X136210000Y-127405000D03*
%TO.P,Q6,1*%
%TO.N,+12V*%
X138110000Y-127405000D03*
%TD*%
D11*
%TO.P,Q5,3*%
%TO.N,-12V*%
X142240000Y-128525000D03*
%TO.P,Q5,2*%
%TO.N,+12V*%
X143190000Y-131825000D03*
%TO.P,Q5,1*%
%TO.N,Net-(Q5-Pad1)*%
X141290000Y-131825000D03*
%TD*%
D10*
%TO.P,Q4,3*%
%TO.N,/Sheet614BBE23/2A*%
X137160000Y-113435000D03*
%TO.P,Q4,2*%
%TO.N,GND*%
X138110000Y-116435000D03*
%TO.P,Q4,1*%
%TO.N,+12V*%
X136210000Y-116435000D03*
%TD*%
D11*
%TO.P,Q3,3*%
%TO.N,-12V*%
X141920000Y-115695000D03*
%TO.P,Q3,2*%
%TO.N,+12V*%
X140970000Y-112395000D03*
%TO.P,Q3,1*%
%TO.N,Net-(Q3-Pad1)*%
X142870000Y-112395000D03*
%TD*%
D10*
%TO.P,Q2,3*%
%TO.N,/Sheet614BBE23/1A*%
X138430000Y-100155000D03*
%TO.P,Q2,2*%
%TO.N,GND*%
X137480000Y-97155000D03*
%TO.P,Q2,1*%
%TO.N,+12V*%
X139380000Y-97155000D03*
%TD*%
D11*
%TO.P,Q1,3*%
%TO.N,-12V*%
X143190000Y-97155000D03*
%TO.P,Q1,2*%
%TO.N,+12V*%
X144140000Y-100455000D03*
%TO.P,Q1,1*%
%TO.N,Net-(Q1-Pad1)*%
X142240000Y-100455000D03*
%TD*%
%TO.P,D6,2*%
%TO.N,/Sheet614BBE23/6Y*%
%TA.AperFunction,SMDPad,CuDef*%
G36*
G01*
X159763750Y-107817500D02*
X160276250Y-107817500D01*
G75*
G02*
X160495000Y-108036250I0J-218750D01*
G01*
X160495000Y-108473750D01*
G75*
G02*
X160276250Y-108692500I-218750J0D01*
G01*
X159763750Y-108692500D01*
G75*
G02*
X159545000Y-108473750I0J218750D01*
G01*
X159545000Y-108036250D01*
G75*
G02*
X159763750Y-107817500I218750J0D01*
G01*
G37*
%TD.AperFunction*%
%TO.P,D6,1*%
%TO.N,/Sheet614BBE23/6A*%
%TA.AperFunction,SMDPad,CuDef*%
G36*
G01*
X159763750Y-106242500D02*
X160276250Y-106242500D01*
G75*
G02*
X160495000Y-106461250I0J-218750D01*
G01*
X160495000Y-106898750D01*
G75*
G02*
X160276250Y-107117500I-218750J0D01*
G01*
X159763750Y-107117500D01*
G75*
G02*
X159545000Y-106898750I0J218750D01*
G01*
X159545000Y-106461250D01*
G75*
G02*
X159763750Y-106242500I218750J0D01*
G01*
G37*
%TD.AperFunction*%
%TD*%
%TO.P,D5,2*%
%TO.N,/Sheet614BBE23/5Y*%
%TA.AperFunction,SMDPad,CuDef*%
G36*
G01*
X158371250Y-120147500D02*
X157858750Y-120147500D01*
G75*
G02*
X157640000Y-119928750I0J218750D01*
G01*
X157640000Y-119491250D01*
G75*
G02*
X157858750Y-119272500I218750J0D01*
G01*
X158371250Y-119272500D01*
G75*
G02*
X158590000Y-119491250I0J-218750D01*
G01*
X158590000Y-119928750D01*
G75*
G02*
X158371250Y-120147500I-218750J0D01*
G01*
G37*
%TD.AperFunction*%
%TO.P,D5,1*%
%TO.N,/Sheet614BBE23/5A*%
%TA.AperFunction,SMDPad,CuDef*%
G36*
G01*
X158371250Y-121722500D02*
X157858750Y-121722500D01*
G75*
G02*
X157640000Y-121503750I0J218750D01*
G01*
X157640000Y-121066250D01*
G75*
G02*
X157858750Y-120847500I218750J0D01*
G01*
X158371250Y-120847500D01*
G75*
G02*
X158590000Y-121066250I0J-218750D01*
G01*
X158590000Y-121503750D01*
G75*
G02*
X158371250Y-121722500I-218750J0D01*
G01*
G37*
%TD.AperFunction*%
%TD*%
%TO.P,D4,2*%
%TO.N,/Sheet614BBE23/4Y*%
%TA.AperFunction,SMDPad,CuDef*%
G36*
G01*
X159006250Y-100767500D02*
X158493750Y-100767500D01*
G75*
G02*
X158275000Y-100548750I0J218750D01*
G01*
X158275000Y-100111250D01*
G75*
G02*
X158493750Y-99892500I218750J0D01*
G01*
X159006250Y-99892500D01*
G75*
G02*
X159225000Y-100111250I0J-218750D01*
G01*
X159225000Y-100548750D01*
G75*
G02*
X159006250Y-100767500I-218750J0D01*
G01*
G37*
%TD.AperFunction*%
%TO.P,D4,1*%
%TO.N,/Sheet614BBE23/4A*%
%TA.AperFunction,SMDPad,CuDef*%
G36*
G01*
X159006250Y-102342500D02*
X158493750Y-102342500D01*
G75*
G02*
X158275000Y-102123750I0J218750D01*
G01*
X158275000Y-101686250D01*
G75*
G02*
X158493750Y-101467500I218750J0D01*
G01*
X159006250Y-101467500D01*
G75*
G02*
X159225000Y-101686250I0J-218750D01*
G01*
X159225000Y-102123750D01*
G75*
G02*
X159006250Y-102342500I-218750J0D01*
G01*
G37*
%TD.AperFunction*%
%TD*%
%TO.P,D3,2*%
%TO.N,/Sheet614BBE23/3Y*%
%TA.AperFunction,SMDPad,CuDef*%
G36*
G01*
X135540000Y-133728750D02*
X135540000Y-134241250D01*
G75*
G02*
X135321250Y-134460000I-218750J0D01*
G01*
X134883750Y-134460000D01*
G75*
G02*
X134665000Y-134241250I0J218750D01*
G01*
X134665000Y-133728750D01*
G75*
G02*
X134883750Y-133510000I218750J0D01*
G01*
X135321250Y-133510000D01*
G75*
G02*
X135540000Y-133728750I0J-218750D01*
G01*
G37*
%TD.AperFunction*%
%TO.P,D3,1*%
%TO.N,/Sheet614BBE23/3A*%
%TA.AperFunction,SMDPad,CuDef*%
G36*
G01*
X137115000Y-133728750D02*
X137115000Y-134241250D01*
G75*
G02*
X136896250Y-134460000I-218750J0D01*
G01*
X136458750Y-134460000D01*
G75*
G02*
X136240000Y-134241250I0J218750D01*
G01*
X136240000Y-133728750D01*
G75*
G02*
X136458750Y-133510000I218750J0D01*
G01*
X136896250Y-133510000D01*
G75*
G02*
X137115000Y-133728750I0J-218750D01*
G01*
G37*
%TD.AperFunction*%
%TD*%
%TO.P,D2,2*%
%TO.N,/Sheet614BBE23/2Y*%
%TA.AperFunction,SMDPad,CuDef*%
G36*
G01*
X135057500Y-118488750D02*
X135057500Y-119001250D01*
G75*
G02*
X134838750Y-119220000I-218750J0D01*
G01*
X134401250Y-119220000D01*
G75*
G02*
X134182500Y-119001250I0J218750D01*
G01*
X134182500Y-118488750D01*
G75*
G02*
X134401250Y-118270000I218750J0D01*
G01*
X134838750Y-118270000D01*
G75*
G02*
X135057500Y-118488750I0J-218750D01*
G01*
G37*
%TD.AperFunction*%
%TO.P,D2,1*%
%TO.N,/Sheet614BBE23/2A*%
%TA.AperFunction,SMDPad,CuDef*%
G36*
G01*
X136632500Y-118488750D02*
X136632500Y-119001250D01*
G75*
G02*
X136413750Y-119220000I-218750J0D01*
G01*
X135976250Y-119220000D01*
G75*
G02*
X135757500Y-119001250I0J218750D01*
G01*
X135757500Y-118488750D01*
G75*
G02*
X135976250Y-118270000I218750J0D01*
G01*
X136413750Y-118270000D01*
G75*
G02*
X136632500Y-118488750I0J-218750D01*
G01*
G37*
%TD.AperFunction*%
%TD*%
%TO.P,D1,2*%
%TO.N,/Sheet614BBE23/1Y*%
%TA.AperFunction,SMDPad,CuDef*%
G36*
G01*
X146428750Y-103702500D02*
X146941250Y-103702500D01*
G75*
G02*
X147160000Y-103921250I0J-218750D01*
G01*
X147160000Y-104358750D01*
G75*
G02*
X146941250Y-104577500I-218750J0D01*
G01*
X146428750Y-104577500D01*
G75*
G02*
X146210000Y-104358750I0J218750D01*
G01*
X146210000Y-103921250D01*
G75*
G02*
X146428750Y-103702500I218750J0D01*
G01*
G37*
%TD.AperFunction*%
%TO.P,D1,1*%
%TO.N,/Sheet614BBE23/1A*%
%TA.AperFunction,SMDPad,CuDef*%
G36*
G01*
X146428750Y-102127500D02*
X146941250Y-102127500D01*
G75*
G02*
X147160000Y-102346250I0J-218750D01*
G01*
X147160000Y-102783750D01*
G75*
G02*
X146941250Y-103002500I-218750J0D01*
G01*
X146428750Y-103002500D01*
G75*
G02*
X146210000Y-102783750I0J218750D01*
G01*
X146210000Y-102346250D01*
G75*
G02*
X146428750Y-102127500I218750J0D01*
G01*
G37*
%TD.AperFunction*%
%TD*%
%TO.P,C1,2*%
%TO.N,GND*%
%TA.AperFunction,SMDPad,CuDef*%
G36*
G01*
X141067500Y-104377500D02*
X141067500Y-103902500D01*
G75*
G02*
X141305000Y-103665000I237500J0D01*
G01*
X141905000Y-103665000D01*
G75*
G02*
X142142500Y-103902500I0J-237500D01*
G01*
X142142500Y-104377500D01*
G75*
G02*
X141905000Y-104615000I-237500J0D01*
G01*
X141305000Y-104615000D01*
G75*
G02*
X141067500Y-104377500I0J237500D01*
G01*
G37*
%TD.AperFunction*%
%TO.P,C1,1*%
%TO.N,/Sheet614BBE23/1A*%
%TA.AperFunction,SMDPad,CuDef*%
G36*
G01*
X139342500Y-104377500D02*
X139342500Y-103902500D01*
G75*
G02*
X139580000Y-103665000I237500J0D01*
G01*
X140180000Y-103665000D01*
G75*
G02*
X140417500Y-103902500I0J-237500D01*
G01*
X140417500Y-104377500D01*
G75*
G02*
X140180000Y-104615000I-237500J0D01*
G01*
X139580000Y-104615000D01*
G75*
G02*
X139342500Y-104377500I0J237500D01*
G01*
G37*
%TD.AperFunction*%
%TD*%
%TO.P,C2,2*%
%TO.N,GND*%
%TA.AperFunction,SMDPad,CuDef*%
G36*
G01*
X139075000Y-120252500D02*
X139075000Y-119777500D01*
G75*
G02*
X139312500Y-119540000I237500J0D01*
G01*
X139912500Y-119540000D01*
G75*
G02*
X140150000Y-119777500I0J-237500D01*
G01*
X140150000Y-120252500D01*
G75*
G02*
X139912500Y-120490000I-237500J0D01*
G01*
X139312500Y-120490000D01*
G75*
G02*
X139075000Y-120252500I0J237500D01*
G01*
G37*
%TD.AperFunction*%
%TO.P,C2,1*%
%TO.N,/Sheet614BBE23/2A*%
%TA.AperFunction,SMDPad,CuDef*%
G36*
G01*
X137350000Y-120252500D02*
X137350000Y-119777500D01*
G75*
G02*
X137587500Y-119540000I237500J0D01*
G01*
X138187500Y-119540000D01*
G75*
G02*
X138425000Y-119777500I0J-237500D01*
G01*
X138425000Y-120252500D01*
G75*
G02*
X138187500Y-120490000I-237500J0D01*
G01*
X137587500Y-120490000D01*
G75*
G02*
X137350000Y-120252500I0J237500D01*
G01*
G37*
%TD.AperFunction*%
%TD*%
%TO.P,C3,2*%
%TO.N,GND*%
%TA.AperFunction,SMDPad,CuDef*%
G36*
G01*
X140432500Y-134222500D02*
X140432500Y-133747500D01*
G75*
G02*
X140670000Y-133510000I237500J0D01*
G01*
X141270000Y-133510000D01*
G75*
G02*
X141507500Y-133747500I0J-237500D01*
G01*
X141507500Y-134222500D01*
G75*
G02*
X141270000Y-134460000I-237500J0D01*
G01*
X140670000Y-134460000D01*
G75*
G02*
X140432500Y-134222500I0J237500D01*
G01*
G37*
%TD.AperFunction*%
%TO.P,C3,1*%
%TO.N,/Sheet614BBE23/3A*%
%TA.AperFunction,SMDPad,CuDef*%
G36*
G01*
X138707500Y-134222500D02*
X138707500Y-133747500D01*
G75*
G02*
X138945000Y-133510000I237500J0D01*
G01*
X139545000Y-133510000D01*
G75*
G02*
X139782500Y-133747500I0J-237500D01*
G01*
X139782500Y-134222500D01*
G75*
G02*
X139545000Y-134460000I-237500J0D01*
G01*
X138945000Y-134460000D01*
G75*
G02*
X138707500Y-134222500I0J237500D01*
G01*
G37*
%TD.AperFunction*%
%TD*%
%TO.P,C4,2*%
%TO.N,GND*%
%TA.AperFunction,SMDPad,CuDef*%
G36*
G01*
X162885000Y-99932500D02*
X162885000Y-99457500D01*
G75*
G02*
X163122500Y-99220000I237500J0D01*
G01*
X163722500Y-99220000D01*
G75*
G02*
X163960000Y-99457500I0J-237500D01*
G01*
X163960000Y-99932500D01*
G75*
G02*
X163722500Y-100170000I-237500J0D01*
G01*
X163122500Y-100170000D01*
G75*
G02*
X162885000Y-99932500I0J237500D01*
G01*
G37*
%TD.AperFunction*%
%TO.P,C4,1*%
%TO.N,/Sheet614BBE23/4A*%
%TA.AperFunction,SMDPad,CuDef*%
G36*
G01*
X161160000Y-99932500D02*
X161160000Y-99457500D01*
G75*
G02*
X161397500Y-99220000I237500J0D01*
G01*
X161997500Y-99220000D01*
G75*
G02*
X162235000Y-99457500I0J-237500D01*
G01*
X162235000Y-99932500D01*
G75*
G02*
X161997500Y-100170000I-237500J0D01*
G01*
X161397500Y-100170000D01*
G75*
G02*
X161160000Y-99932500I0J237500D01*
G01*
G37*
%TD.AperFunction*%
%TD*%
%TO.P,C5,2*%
%TO.N,GND*%
%TA.AperFunction,SMDPad,CuDef*%
G36*
G01*
X161615000Y-119617500D02*
X161615000Y-119142500D01*
G75*
G02*
X161852500Y-118905000I237500J0D01*
G01*
X162452500Y-118905000D01*
G75*
G02*
X162690000Y-119142500I0J-237500D01*
G01*
X162690000Y-119617500D01*
G75*
G02*
X162452500Y-119855000I-237500J0D01*
G01*
X161852500Y-119855000D01*
G75*
G02*
X161615000Y-119617500I0J237500D01*
G01*
G37*
%TD.AperFunction*%
%TO.P,C5,1*%
%TO.N,/Sheet614BBE23/5A*%
%TA.AperFunction,SMDPad,CuDef*%
G36*
G01*
X159890000Y-119617500D02*
X159890000Y-119142500D01*
G75*
G02*
X160127500Y-118905000I237500J0D01*
G01*
X160727500Y-118905000D01*
G75*
G02*
X160965000Y-119142500I0J-237500D01*
G01*
X160965000Y-119617500D01*
G75*
G02*
X160727500Y-119855000I-237500J0D01*
G01*
X160127500Y-119855000D01*
G75*
G02*
X159890000Y-119617500I0J237500D01*
G01*
G37*
%TD.AperFunction*%
%TD*%
%TO.P,C6,2*%
%TO.N,GND*%
%TA.AperFunction,SMDPad,CuDef*%
G36*
G01*
X157717500Y-113660000D02*
X157242500Y-113660000D01*
G75*
G02*
X157005000Y-113422500I0J237500D01*
G01*
X157005000Y-112822500D01*
G75*
G02*
X157242500Y-112585000I237500J0D01*
G01*
X157717500Y-112585000D01*
G75*
G02*
X157955000Y-112822500I0J-237500D01*
G01*
X157955000Y-113422500D01*
G75*
G02*
X157717500Y-113660000I-237500J0D01*
G01*
G37*
%TD.AperFunction*%
%TO.P,C6,1*%
%TO.N,/Sheet614BBE23/6A*%
%TA.AperFunction,SMDPad,CuDef*%
G36*
G01*
X157717500Y-115385000D02*
X157242500Y-115385000D01*
G75*
G02*
X157005000Y-115147500I0J237500D01*
G01*
X157005000Y-114547500D01*
G75*
G02*
X157242500Y-114310000I237500J0D01*
G01*
X157717500Y-114310000D01*
G75*
G02*
X157955000Y-114547500I0J-237500D01*
G01*
X157955000Y-115147500D01*
G75*
G02*
X157717500Y-115385000I-237500J0D01*
G01*
G37*
%TD.AperFunction*%
%TD*%
%TO.P,C7,2*%
%TO.N,Net-(C7-Pad2)*%
%TA.AperFunction,SMDPad,CuDef*%
G36*
G01*
X143760000Y-87620000D02*
X143260000Y-87620000D01*
G75*
G02*
X143035000Y-87395000I0J225000D01*
G01*
X143035000Y-86945000D01*
G75*
G02*
X143260000Y-86720000I225000J0D01*
G01*
X143760000Y-86720000D01*
G75*
G02*
X143985000Y-86945000I0J-225000D01*
G01*
X143985000Y-87395000D01*
G75*
G02*
X143760000Y-87620000I-225000J0D01*
G01*
G37*
%TD.AperFunction*%
%TO.P,C7,1*%
%TO.N,Net-(C7-Pad1)*%
%TA.AperFunction,SMDPad,CuDef*%
G36*
G01*
X143760000Y-89170000D02*
X143260000Y-89170000D01*
G75*
G02*
X143035000Y-88945000I0J225000D01*
G01*
X143035000Y-88495000D01*
G75*
G02*
X143260000Y-88270000I225000J0D01*
G01*
X143760000Y-88270000D01*
G75*
G02*
X143985000Y-88495000I0J-225000D01*
G01*
X143985000Y-88945000D01*
G75*
G02*
X143760000Y-89170000I-225000J0D01*
G01*
G37*
%TD.AperFunction*%
%TD*%
%TO.P,C8,2*%
%TO.N,Net-(C8-Pad2)*%
%TA.AperFunction,SMDPad,CuDef*%
G36*
G01*
X160270000Y-87940000D02*
X159770000Y-87940000D01*
G75*
G02*
X159545000Y-87715000I0J225000D01*
G01*
X159545000Y-87265000D01*
G75*
G02*
X159770000Y-87040000I225000J0D01*
G01*
X160270000Y-87040000D01*
G75*
G02*
X160495000Y-87265000I0J-225000D01*
G01*
X160495000Y-87715000D01*
G75*
G02*
X160270000Y-87940000I-225000J0D01*
G01*
G37*
%TD.AperFunction*%
%TO.P,C8,1*%
%TO.N,Net-(C8-Pad1)*%
%TA.AperFunction,SMDPad,CuDef*%
G36*
G01*
X160270000Y-89490000D02*
X159770000Y-89490000D01*
G75*
G02*
X159545000Y-89265000I0J225000D01*
G01*
X159545000Y-88815000D01*
G75*
G02*
X159770000Y-88590000I225000J0D01*
G01*
X160270000Y-88590000D01*
G75*
G02*
X160495000Y-88815000I0J-225000D01*
G01*
X160495000Y-89265000D01*
G75*
G02*
X160270000Y-89490000I-225000J0D01*
G01*
G37*
%TD.AperFunction*%
%TD*%
%TO.P,C9,2*%
%TO.N,Net-(C9-Pad2)*%
%TA.AperFunction,SMDPad,CuDef*%
G36*
G01*
X150185000Y-120265000D02*
X150185000Y-119765000D01*
G75*
G02*
X150410000Y-119540000I225000J0D01*
G01*
X150860000Y-119540000D01*
G75*
G02*
X151085000Y-119765000I0J-225000D01*
G01*
X151085000Y-120265000D01*
G75*
G02*
X150860000Y-120490000I-225000J0D01*
G01*
X150410000Y-120490000D01*
G75*
G02*
X150185000Y-120265000I0J225000D01*
G01*
G37*
%TD.AperFunction*%
%TO.P,C9,1*%
%TO.N,Net-(C9-Pad1)*%
%TA.AperFunction,SMDPad,CuDef*%
G36*
G01*
X148635000Y-120265000D02*
X148635000Y-119765000D01*
G75*
G02*
X148860000Y-119540000I225000J0D01*
G01*
X149310000Y-119540000D01*
G75*
G02*
X149535000Y-119765000I0J-225000D01*
G01*
X149535000Y-120265000D01*
G75*
G02*
X149310000Y-120490000I-225000J0D01*
G01*
X148860000Y-120490000D01*
G75*
G02*
X148635000Y-120265000I0J225000D01*
G01*
G37*
%TD.AperFunction*%
%TD*%
%TO.P,C10,2*%
%TO.N,Net-(C10-Pad2)*%
%TA.AperFunction,SMDPad,CuDef*%
G36*
G01*
X133600000Y-87940000D02*
X133100000Y-87940000D01*
G75*
G02*
X132875000Y-87715000I0J225000D01*
G01*
X132875000Y-87265000D01*
G75*
G02*
X133100000Y-87040000I225000J0D01*
G01*
X133600000Y-87040000D01*
G75*
G02*
X133825000Y-87265000I0J-225000D01*
G01*
X133825000Y-87715000D01*
G75*
G02*
X133600000Y-87940000I-225000J0D01*
G01*
G37*
%TD.AperFunction*%
%TO.P,C10,1*%
%TO.N,Net-(C10-Pad1)*%
%TA.AperFunction,SMDPad,CuDef*%
G36*
G01*
X133600000Y-89490000D02*
X133100000Y-89490000D01*
G75*
G02*
X132875000Y-89265000I0J225000D01*
G01*
X132875000Y-88815000D01*
G75*
G02*
X133100000Y-88590000I225000J0D01*
G01*
X133600000Y-88590000D01*
G75*
G02*
X133825000Y-88815000I0J-225000D01*
G01*
X133825000Y-89265000D01*
G75*
G02*
X133600000Y-89490000I-225000J0D01*
G01*
G37*
%TD.AperFunction*%
%TD*%
%TO.P,C11,2*%
%TO.N,Net-(C11-Pad2)*%
%TA.AperFunction,SMDPad,CuDef*%
G36*
G01*
X152650000Y-87940000D02*
X152150000Y-87940000D01*
G75*
G02*
X151925000Y-87715000I0J225000D01*
G01*
X151925000Y-87265000D01*
G75*
G02*
X152150000Y-87040000I225000J0D01*
G01*
X152650000Y-87040000D01*
G75*
G02*
X152875000Y-87265000I0J-225000D01*
G01*
X152875000Y-87715000D01*
G75*
G02*
X152650000Y-87940000I-225000J0D01*
G01*
G37*
%TD.AperFunction*%
%TO.P,C11,1*%
%TO.N,Net-(C11-Pad1)*%
%TA.AperFunction,SMDPad,CuDef*%
G36*
G01*
X152650000Y-89490000D02*
X152150000Y-89490000D01*
G75*
G02*
X151925000Y-89265000I0J225000D01*
G01*
X151925000Y-88815000D01*
G75*
G02*
X152150000Y-88590000I225000J0D01*
G01*
X152650000Y-88590000D01*
G75*
G02*
X152875000Y-88815000I0J-225000D01*
G01*
X152875000Y-89265000D01*
G75*
G02*
X152650000Y-89490000I-225000J0D01*
G01*
G37*
%TD.AperFunction*%
%TD*%
%TO.P,C12,2*%
%TO.N,Net-(C12-Pad2)*%
%TA.AperFunction,SMDPad,CuDef*%
G36*
G01*
X154315000Y-120265000D02*
X154315000Y-119765000D01*
G75*
G02*
X154540000Y-119540000I225000J0D01*
G01*
X154990000Y-119540000D01*
G75*
G02*
X155215000Y-119765000I0J-225000D01*
G01*
X155215000Y-120265000D01*
G75*
G02*
X154990000Y-120490000I-225000J0D01*
G01*
X154540000Y-120490000D01*
G75*
G02*
X154315000Y-120265000I0J225000D01*
G01*
G37*
%TD.AperFunction*%
%TO.P,C12,1*%
%TO.N,Net-(C12-Pad1)*%
%TA.AperFunction,SMDPad,CuDef*%
G36*
G01*
X152765000Y-120265000D02*
X152765000Y-119765000D01*
G75*
G02*
X152990000Y-119540000I225000J0D01*
G01*
X153440000Y-119540000D01*
G75*
G02*
X153665000Y-119765000I0J-225000D01*
G01*
X153665000Y-120265000D01*
G75*
G02*
X153440000Y-120490000I-225000J0D01*
G01*
X152990000Y-120490000D01*
G75*
G02*
X152765000Y-120265000I0J225000D01*
G01*
G37*
%TD.AperFunction*%
%TD*%
%TO.P,R1,2*%
%TO.N,Net-(R1-Pad2)*%
%TA.AperFunction,SMDPad,CuDef*%
G36*
G01*
X138830000Y-93070000D02*
X138830000Y-93620000D01*
G75*
G02*
X138630000Y-93820000I-200000J0D01*
G01*
X138230000Y-93820000D01*
G75*
G02*
X138030000Y-93620000I0J200000D01*
G01*
X138030000Y-93070000D01*
G75*
G02*
X138230000Y-92870000I200000J0D01*
G01*
X138630000Y-92870000D01*
G75*
G02*
X138830000Y-93070000I0J-200000D01*
G01*
G37*
%TD.AperFunction*%
%TO.P,R1,1*%
%TO.N,Net-(Q1-Pad1)*%
%TA.AperFunction,SMDPad,CuDef*%
G36*
G01*
X140480000Y-93070000D02*
X140480000Y-93620000D01*
G75*
G02*
X140280000Y-93820000I-200000J0D01*
G01*
X139880000Y-93820000D01*
G75*
G02*
X139680000Y-93620000I0J200000D01*
G01*
X139680000Y-93070000D01*
G75*
G02*
X139880000Y-92870000I200000J0D01*
G01*
X140280000Y-92870000D01*
G75*
G02*
X140480000Y-93070000I0J-200000D01*
G01*
G37*
%TD.AperFunction*%
%TD*%
%TO.P,R2,2*%
%TO.N,Net-(Q1-Pad1)*%
%TA.AperFunction,SMDPad,CuDef*%
G36*
G01*
X144505000Y-93770000D02*
X145055000Y-93770000D01*
G75*
G02*
X145255000Y-93970000I0J-200000D01*
G01*
X145255000Y-94370000D01*
G75*
G02*
X145055000Y-94570000I-200000J0D01*
G01*
X144505000Y-94570000D01*
G75*
G02*
X144305000Y-94370000I0J200000D01*
G01*
X144305000Y-93970000D01*
G75*
G02*
X144505000Y-93770000I200000J0D01*
G01*
G37*
%TD.AperFunction*%
%TO.P,R2,1*%
%TO.N,CV1*%
%TA.AperFunction,SMDPad,CuDef*%
G36*
G01*
X144505000Y-92120000D02*
X145055000Y-92120000D01*
G75*
G02*
X145255000Y-92320000I0J-200000D01*
G01*
X145255000Y-92720000D01*
G75*
G02*
X145055000Y-92920000I-200000J0D01*
G01*
X144505000Y-92920000D01*
G75*
G02*
X144305000Y-92720000I0J200000D01*
G01*
X144305000Y-92320000D01*
G75*
G02*
X144505000Y-92120000I200000J0D01*
G01*
G37*
%TD.AperFunction*%
%TD*%
%TO.P,R3,2*%
%TO.N,Net-(R3-Pad2)*%
%TA.AperFunction,SMDPad,CuDef*%
G36*
G01*
X142515000Y-92920000D02*
X141965000Y-92920000D01*
G75*
G02*
X141765000Y-92720000I0J200000D01*
G01*
X141765000Y-92320000D01*
G75*
G02*
X141965000Y-92120000I200000J0D01*
G01*
X142515000Y-92120000D01*
G75*
G02*
X142715000Y-92320000I0J-200000D01*
G01*
X142715000Y-92720000D01*
G75*
G02*
X142515000Y-92920000I-200000J0D01*
G01*
G37*
%TD.AperFunction*%
%TO.P,R3,1*%
%TO.N,Net-(Q1-Pad1)*%
%TA.AperFunction,SMDPad,CuDef*%
G36*
G01*
X142515000Y-94570000D02*
X141965000Y-94570000D01*
G75*
G02*
X141765000Y-94370000I0J200000D01*
G01*
X141765000Y-93970000D01*
G75*
G02*
X141965000Y-93770000I200000J0D01*
G01*
X142515000Y-93770000D01*
G75*
G02*
X142715000Y-93970000I0J-200000D01*
G01*
X142715000Y-94370000D01*
G75*
G02*
X142515000Y-94570000I-200000J0D01*
G01*
G37*
%TD.AperFunction*%
%TD*%
%TO.P,R4,2*%
%TO.N,Net-(R4-Pad2)*%
%TA.AperFunction,SMDPad,CuDef*%
G36*
G01*
X139595000Y-108310000D02*
X139595000Y-108860000D01*
G75*
G02*
X139395000Y-109060000I-200000J0D01*
G01*
X138995000Y-109060000D01*
G75*
G02*
X138795000Y-108860000I0J200000D01*
G01*
X138795000Y-108310000D01*
G75*
G02*
X138995000Y-108110000I200000J0D01*
G01*
X139395000Y-108110000D01*
G75*
G02*
X139595000Y-108310000I0J-200000D01*
G01*
G37*
%TD.AperFunction*%
%TO.P,R4,1*%
%TO.N,Net-(Q3-Pad1)*%
%TA.AperFunction,SMDPad,CuDef*%
G36*
G01*
X141245000Y-108310000D02*
X141245000Y-108860000D01*
G75*
G02*
X141045000Y-109060000I-200000J0D01*
G01*
X140645000Y-109060000D01*
G75*
G02*
X140445000Y-108860000I0J200000D01*
G01*
X140445000Y-108310000D01*
G75*
G02*
X140645000Y-108110000I200000J0D01*
G01*
X141045000Y-108110000D01*
G75*
G02*
X141245000Y-108310000I0J-200000D01*
G01*
G37*
%TD.AperFunction*%
%TD*%
%TO.P,R5,2*%
%TO.N,Net-(Q3-Pad1)*%
%TA.AperFunction,SMDPad,CuDef*%
G36*
G01*
X144505000Y-109010000D02*
X145055000Y-109010000D01*
G75*
G02*
X145255000Y-109210000I0J-200000D01*
G01*
X145255000Y-109610000D01*
G75*
G02*
X145055000Y-109810000I-200000J0D01*
G01*
X144505000Y-109810000D01*
G75*
G02*
X144305000Y-109610000I0J200000D01*
G01*
X144305000Y-109210000D01*
G75*
G02*
X144505000Y-109010000I200000J0D01*
G01*
G37*
%TD.AperFunction*%
%TO.P,R5,1*%
%TO.N,CV2*%
%TA.AperFunction,SMDPad,CuDef*%
G36*
G01*
X144505000Y-107360000D02*
X145055000Y-107360000D01*
G75*
G02*
X145255000Y-107560000I0J-200000D01*
G01*
X145255000Y-107960000D01*
G75*
G02*
X145055000Y-108160000I-200000J0D01*
G01*
X144505000Y-108160000D01*
G75*
G02*
X144305000Y-107960000I0J200000D01*
G01*
X144305000Y-107560000D01*
G75*
G02*
X144505000Y-107360000I200000J0D01*
G01*
G37*
%TD.AperFunction*%
%TD*%
%TO.P,R6,2*%
%TO.N,Net-(R6-Pad2)*%
%TA.AperFunction,SMDPad,CuDef*%
G36*
G01*
X142515000Y-108160000D02*
X141965000Y-108160000D01*
G75*
G02*
X141765000Y-107960000I0J200000D01*
G01*
X141765000Y-107560000D01*
G75*
G02*
X141965000Y-107360000I200000J0D01*
G01*
X142515000Y-107360000D01*
G75*
G02*
X142715000Y-107560000I0J-200000D01*
G01*
X142715000Y-107960000D01*
G75*
G02*
X142515000Y-108160000I-200000J0D01*
G01*
G37*
%TD.AperFunction*%
%TO.P,R6,1*%
%TO.N,Net-(Q3-Pad1)*%
%TA.AperFunction,SMDPad,CuDef*%
G36*
G01*
X142515000Y-109810000D02*
X141965000Y-109810000D01*
G75*
G02*
X141765000Y-109610000I0J200000D01*
G01*
X141765000Y-109210000D01*
G75*
G02*
X141965000Y-109010000I200000J0D01*
G01*
X142515000Y-109010000D01*
G75*
G02*
X142715000Y-109210000I0J-200000D01*
G01*
X142715000Y-109610000D01*
G75*
G02*
X142515000Y-109810000I-200000J0D01*
G01*
G37*
%TD.AperFunction*%
%TD*%
%TO.P,R7,2*%
%TO.N,Net-(R7-Pad2)*%
%TA.AperFunction,SMDPad,CuDef*%
G36*
G01*
X138005000Y-123550000D02*
X138005000Y-124100000D01*
G75*
G02*
X137805000Y-124300000I-200000J0D01*
G01*
X137405000Y-124300000D01*
G75*
G02*
X137205000Y-124100000I0J200000D01*
G01*
X137205000Y-123550000D01*
G75*
G02*
X137405000Y-123350000I200000J0D01*
G01*
X137805000Y-123350000D01*
G75*
G02*
X138005000Y-123550000I0J-200000D01*
G01*
G37*
%TD.AperFunction*%
%TO.P,R7,1*%
%TO.N,Net-(Q5-Pad1)*%
%TA.AperFunction,SMDPad,CuDef*%
G36*
G01*
X139655000Y-123550000D02*
X139655000Y-124100000D01*
G75*
G02*
X139455000Y-124300000I-200000J0D01*
G01*
X139055000Y-124300000D01*
G75*
G02*
X138855000Y-124100000I0J200000D01*
G01*
X138855000Y-123550000D01*
G75*
G02*
X139055000Y-123350000I200000J0D01*
G01*
X139455000Y-123350000D01*
G75*
G02*
X139655000Y-123550000I0J-200000D01*
G01*
G37*
%TD.AperFunction*%
%TD*%
%TO.P,R8,2*%
%TO.N,Net-(Q5-Pad1)*%
%TA.AperFunction,SMDPad,CuDef*%
G36*
G01*
X143235000Y-124570000D02*
X143785000Y-124570000D01*
G75*
G02*
X143985000Y-124770000I0J-200000D01*
G01*
X143985000Y-125170000D01*
G75*
G02*
X143785000Y-125370000I-200000J0D01*
G01*
X143235000Y-125370000D01*
G75*
G02*
X143035000Y-125170000I0J200000D01*
G01*
X143035000Y-124770000D01*
G75*
G02*
X143235000Y-124570000I200000J0D01*
G01*
G37*
%TD.AperFunction*%
%TO.P,R8,1*%
%TO.N,CV3*%
%TA.AperFunction,SMDPad,CuDef*%
G36*
G01*
X143235000Y-122920000D02*
X143785000Y-122920000D01*
G75*
G02*
X143985000Y-123120000I0J-200000D01*
G01*
X143985000Y-123520000D01*
G75*
G02*
X143785000Y-123720000I-200000J0D01*
G01*
X143235000Y-123720000D01*
G75*
G02*
X143035000Y-123520000I0J200000D01*
G01*
X143035000Y-123120000D01*
G75*
G02*
X143235000Y-122920000I200000J0D01*
G01*
G37*
%TD.AperFunction*%
%TD*%
%TO.P,R9,2*%
%TO.N,Net-(R9-Pad2)*%
%TA.AperFunction,SMDPad,CuDef*%
G36*
G01*
X141245000Y-123720000D02*
X140695000Y-123720000D01*
G75*
G02*
X140495000Y-123520000I0J200000D01*
G01*
X140495000Y-123120000D01*
G75*
G02*
X140695000Y-122920000I200000J0D01*
G01*
X141245000Y-122920000D01*
G75*
G02*
X141445000Y-123120000I0J-200000D01*
G01*
X141445000Y-123520000D01*
G75*
G02*
X141245000Y-123720000I-200000J0D01*
G01*
G37*
%TD.AperFunction*%
%TO.P,R9,1*%
%TO.N,Net-(Q5-Pad1)*%
%TA.AperFunction,SMDPad,CuDef*%
G36*
G01*
X141245000Y-125370000D02*
X140695000Y-125370000D01*
G75*
G02*
X140495000Y-125170000I0J200000D01*
G01*
X140495000Y-124770000D01*
G75*
G02*
X140695000Y-124570000I200000J0D01*
G01*
X141245000Y-124570000D01*
G75*
G02*
X141445000Y-124770000I0J-200000D01*
G01*
X141445000Y-125170000D01*
G75*
G02*
X141245000Y-125370000I-200000J0D01*
G01*
G37*
%TD.AperFunction*%
%TD*%
%TO.P,R10,2*%
%TO.N,Net-(R10-Pad2)*%
%TA.AperFunction,SMDPad,CuDef*%
G36*
G01*
X157880000Y-91800000D02*
X157880000Y-92350000D01*
G75*
G02*
X157680000Y-92550000I-200000J0D01*
G01*
X157280000Y-92550000D01*
G75*
G02*
X157080000Y-92350000I0J200000D01*
G01*
X157080000Y-91800000D01*
G75*
G02*
X157280000Y-91600000I200000J0D01*
G01*
X157680000Y-91600000D01*
G75*
G02*
X157880000Y-91800000I0J-200000D01*
G01*
G37*
%TD.AperFunction*%
%TO.P,R10,1*%
%TO.N,Net-(Q7-Pad1)*%
%TA.AperFunction,SMDPad,CuDef*%
G36*
G01*
X159530000Y-91800000D02*
X159530000Y-92350000D01*
G75*
G02*
X159330000Y-92550000I-200000J0D01*
G01*
X158930000Y-92550000D01*
G75*
G02*
X158730000Y-92350000I0J200000D01*
G01*
X158730000Y-91800000D01*
G75*
G02*
X158930000Y-91600000I200000J0D01*
G01*
X159330000Y-91600000D01*
G75*
G02*
X159530000Y-91800000I0J-200000D01*
G01*
G37*
%TD.AperFunction*%
%TD*%
%TO.P,R11,2*%
%TO.N,Net-(Q7-Pad1)*%
%TA.AperFunction,SMDPad,CuDef*%
G36*
G01*
X164825000Y-91550000D02*
X165375000Y-91550000D01*
G75*
G02*
X165575000Y-91750000I0J-200000D01*
G01*
X165575000Y-92150000D01*
G75*
G02*
X165375000Y-92350000I-200000J0D01*
G01*
X164825000Y-92350000D01*
G75*
G02*
X164625000Y-92150000I0J200000D01*
G01*
X164625000Y-91750000D01*
G75*
G02*
X164825000Y-91550000I200000J0D01*
G01*
G37*
%TD.AperFunction*%
%TO.P,R11,1*%
%TO.N,CV4*%
%TA.AperFunction,SMDPad,CuDef*%
G36*
G01*
X164825000Y-89900000D02*
X165375000Y-89900000D01*
G75*
G02*
X165575000Y-90100000I0J-200000D01*
G01*
X165575000Y-90500000D01*
G75*
G02*
X165375000Y-90700000I-200000J0D01*
G01*
X164825000Y-90700000D01*
G75*
G02*
X164625000Y-90500000I0J200000D01*
G01*
X164625000Y-90100000D01*
G75*
G02*
X164825000Y-89900000I200000J0D01*
G01*
G37*
%TD.AperFunction*%
%TD*%
%TO.P,R12,2*%
%TO.N,Net-(R12-Pad2)*%
%TA.AperFunction,SMDPad,CuDef*%
G36*
G01*
X162835000Y-90700000D02*
X162285000Y-90700000D01*
G75*
G02*
X162085000Y-90500000I0J200000D01*
G01*
X162085000Y-90100000D01*
G75*
G02*
X162285000Y-89900000I200000J0D01*
G01*
X162835000Y-89900000D01*
G75*
G02*
X163035000Y-90100000I0J-200000D01*
G01*
X163035000Y-90500000D01*
G75*
G02*
X162835000Y-90700000I-200000J0D01*
G01*
G37*
%TD.AperFunction*%
%TO.P,R12,1*%
%TO.N,Net-(Q7-Pad1)*%
%TA.AperFunction,SMDPad,CuDef*%
G36*
G01*
X162835000Y-92350000D02*
X162285000Y-92350000D01*
G75*
G02*
X162085000Y-92150000I0J200000D01*
G01*
X162085000Y-91750000D01*
G75*
G02*
X162285000Y-91550000I200000J0D01*
G01*
X162835000Y-91550000D01*
G75*
G02*
X163035000Y-91750000I0J-200000D01*
G01*
X163035000Y-92150000D01*
G75*
G02*
X162835000Y-92350000I-200000J0D01*
G01*
G37*
%TD.AperFunction*%
%TD*%
%TO.P,R13,2*%
%TO.N,Net-(R13-Pad2)*%
%TA.AperFunction,SMDPad,CuDef*%
G36*
G01*
X161565000Y-121940000D02*
X161015000Y-121940000D01*
G75*
G02*
X160815000Y-121740000I0J200000D01*
G01*
X160815000Y-121340000D01*
G75*
G02*
X161015000Y-121140000I200000J0D01*
G01*
X161565000Y-121140000D01*
G75*
G02*
X161765000Y-121340000I0J-200000D01*
G01*
X161765000Y-121740000D01*
G75*
G02*
X161565000Y-121940000I-200000J0D01*
G01*
G37*
%TD.AperFunction*%
%TO.P,R13,1*%
%TO.N,Net-(Q9-Pad1)*%
%TA.AperFunction,SMDPad,CuDef*%
G36*
G01*
X161565000Y-123590000D02*
X161015000Y-123590000D01*
G75*
G02*
X160815000Y-123390000I0J200000D01*
G01*
X160815000Y-122990000D01*
G75*
G02*
X161015000Y-122790000I200000J0D01*
G01*
X161565000Y-122790000D01*
G75*
G02*
X161765000Y-122990000I0J-200000D01*
G01*
X161765000Y-123390000D01*
G75*
G02*
X161565000Y-123590000I-200000J0D01*
G01*
G37*
%TD.AperFunction*%
%TD*%
%TO.P,R14,2*%
%TO.N,Net-(Q9-Pad1)*%
%TA.AperFunction,SMDPad,CuDef*%
G36*
G01*
X162895000Y-122980000D02*
X163445000Y-122980000D01*
G75*
G02*
X163645000Y-123180000I0J-200000D01*
G01*
X163645000Y-123580000D01*
G75*
G02*
X163445000Y-123780000I-200000J0D01*
G01*
X162895000Y-123780000D01*
G75*
G02*
X162695000Y-123580000I0J200000D01*
G01*
X162695000Y-123180000D01*
G75*
G02*
X162895000Y-122980000I200000J0D01*
G01*
G37*
%TD.AperFunction*%
%TO.P,R14,1*%
%TO.N,CV5*%
%TA.AperFunction,SMDPad,CuDef*%
G36*
G01*
X162895000Y-121330000D02*
X163445000Y-121330000D01*
G75*
G02*
X163645000Y-121530000I0J-200000D01*
G01*
X163645000Y-121930000D01*
G75*
G02*
X163445000Y-122130000I-200000J0D01*
G01*
X162895000Y-122130000D01*
G75*
G02*
X162695000Y-121930000I0J200000D01*
G01*
X162695000Y-121530000D01*
G75*
G02*
X162895000Y-121330000I200000J0D01*
G01*
G37*
%TD.AperFunction*%
%TD*%
%TO.P,R15,2*%
%TO.N,Net-(R15-Pad2)*%
%TA.AperFunction,SMDPad,CuDef*%
G36*
G01*
X165375000Y-122130000D02*
X164825000Y-122130000D01*
G75*
G02*
X164625000Y-121930000I0J200000D01*
G01*
X164625000Y-121530000D01*
G75*
G02*
X164825000Y-121330000I200000J0D01*
G01*
X165375000Y-121330000D01*
G75*
G02*
X165575000Y-121530000I0J-200000D01*
G01*
X165575000Y-121930000D01*
G75*
G02*
X165375000Y-122130000I-200000J0D01*
G01*
G37*
%TD.AperFunction*%
%TO.P,R15,1*%
%TO.N,Net-(Q9-Pad1)*%
%TA.AperFunction,SMDPad,CuDef*%
G36*
G01*
X165375000Y-123780000D02*
X164825000Y-123780000D01*
G75*
G02*
X164625000Y-123580000I0J200000D01*
G01*
X164625000Y-123180000D01*
G75*
G02*
X164825000Y-122980000I200000J0D01*
G01*
X165375000Y-122980000D01*
G75*
G02*
X165575000Y-123180000I0J-200000D01*
G01*
X165575000Y-123580000D01*
G75*
G02*
X165375000Y-123780000I-200000J0D01*
G01*
G37*
%TD.AperFunction*%
%TD*%
%TO.P,R16,2*%
%TO.N,Net-(R16-Pad2)*%
%TA.AperFunction,SMDPad,CuDef*%
G36*
G01*
X162835000Y-108160000D02*
X162285000Y-108160000D01*
G75*
G02*
X162085000Y-107960000I0J200000D01*
G01*
X162085000Y-107560000D01*
G75*
G02*
X162285000Y-107360000I200000J0D01*
G01*
X162835000Y-107360000D01*
G75*
G02*
X163035000Y-107560000I0J-200000D01*
G01*
X163035000Y-107960000D01*
G75*
G02*
X162835000Y-108160000I-200000J0D01*
G01*
G37*
%TD.AperFunction*%
%TO.P,R16,1*%
%TO.N,Net-(Q11-Pad1)*%
%TA.AperFunction,SMDPad,CuDef*%
G36*
G01*
X162835000Y-109810000D02*
X162285000Y-109810000D01*
G75*
G02*
X162085000Y-109610000I0J200000D01*
G01*
X162085000Y-109210000D01*
G75*
G02*
X162285000Y-109010000I200000J0D01*
G01*
X162835000Y-109010000D01*
G75*
G02*
X163035000Y-109210000I0J-200000D01*
G01*
X163035000Y-109610000D01*
G75*
G02*
X162835000Y-109810000I-200000J0D01*
G01*
G37*
%TD.AperFunction*%
%TD*%
%TO.P,R17,2*%
%TO.N,Net-(Q11-Pad1)*%
%TA.AperFunction,SMDPad,CuDef*%
G36*
G01*
X164825000Y-109010000D02*
X165375000Y-109010000D01*
G75*
G02*
X165575000Y-109210000I0J-200000D01*
G01*
X165575000Y-109610000D01*
G75*
G02*
X165375000Y-109810000I-200000J0D01*
G01*
X164825000Y-109810000D01*
G75*
G02*
X164625000Y-109610000I0J200000D01*
G01*
X164625000Y-109210000D01*
G75*
G02*
X164825000Y-109010000I200000J0D01*
G01*
G37*
%TD.AperFunction*%
%TO.P,R17,1*%
%TO.N,CV6*%
%TA.AperFunction,SMDPad,CuDef*%
G36*
G01*
X164825000Y-107360000D02*
X165375000Y-107360000D01*
G75*
G02*
X165575000Y-107560000I0J-200000D01*
G01*
X165575000Y-107960000D01*
G75*
G02*
X165375000Y-108160000I-200000J0D01*
G01*
X164825000Y-108160000D01*
G75*
G02*
X164625000Y-107960000I0J200000D01*
G01*
X164625000Y-107560000D01*
G75*
G02*
X164825000Y-107360000I200000J0D01*
G01*
G37*
%TD.AperFunction*%
%TD*%
%TO.P,R18,2*%
%TO.N,Net-(R18-Pad2)*%
%TA.AperFunction,SMDPad,CuDef*%
G36*
G01*
X167915000Y-108160000D02*
X167365000Y-108160000D01*
G75*
G02*
X167165000Y-107960000I0J200000D01*
G01*
X167165000Y-107560000D01*
G75*
G02*
X167365000Y-107360000I200000J0D01*
G01*
X167915000Y-107360000D01*
G75*
G02*
X168115000Y-107560000I0J-200000D01*
G01*
X168115000Y-107960000D01*
G75*
G02*
X167915000Y-108160000I-200000J0D01*
G01*
G37*
%TD.AperFunction*%
%TO.P,R18,1*%
%TO.N,Net-(Q11-Pad1)*%
%TA.AperFunction,SMDPad,CuDef*%
G36*
G01*
X167915000Y-109810000D02*
X167365000Y-109810000D01*
G75*
G02*
X167165000Y-109610000I0J200000D01*
G01*
X167165000Y-109210000D01*
G75*
G02*
X167365000Y-109010000I200000J0D01*
G01*
X167915000Y-109010000D01*
G75*
G02*
X168115000Y-109210000I0J-200000D01*
G01*
X168115000Y-109610000D01*
G75*
G02*
X167915000Y-109810000I-200000J0D01*
G01*
G37*
%TD.AperFunction*%
%TD*%
%TO.P,R19,2*%
%TO.N,GND*%
%TA.AperFunction,SMDPad,CuDef*%
G36*
G01*
X143785000Y-84475000D02*
X143235000Y-84475000D01*
G75*
G02*
X143035000Y-84275000I0J200000D01*
G01*
X143035000Y-83875000D01*
G75*
G02*
X143235000Y-83675000I200000J0D01*
G01*
X143785000Y-83675000D01*
G75*
G02*
X143985000Y-83875000I0J-200000D01*
G01*
X143985000Y-84275000D01*
G75*
G02*
X143785000Y-84475000I-200000J0D01*
G01*
G37*
%TD.AperFunction*%
%TO.P,R19,1*%
%TO.N,Net-(C7-Pad2)*%
%TA.AperFunction,SMDPad,CuDef*%
G36*
G01*
X143785000Y-86125000D02*
X143235000Y-86125000D01*
G75*
G02*
X143035000Y-85925000I0J200000D01*
G01*
X143035000Y-85525000D01*
G75*
G02*
X143235000Y-85325000I200000J0D01*
G01*
X143785000Y-85325000D01*
G75*
G02*
X143985000Y-85525000I0J-200000D01*
G01*
X143985000Y-85925000D01*
G75*
G02*
X143785000Y-86125000I-200000J0D01*
G01*
G37*
%TD.AperFunction*%
%TD*%
%TO.P,R20,2*%
%TO.N,GND*%
%TA.AperFunction,SMDPad,CuDef*%
G36*
G01*
X160295000Y-84030000D02*
X159745000Y-84030000D01*
G75*
G02*
X159545000Y-83830000I0J200000D01*
G01*
X159545000Y-83430000D01*
G75*
G02*
X159745000Y-83230000I200000J0D01*
G01*
X160295000Y-83230000D01*
G75*
G02*
X160495000Y-83430000I0J-200000D01*
G01*
X160495000Y-83830000D01*
G75*
G02*
X160295000Y-84030000I-200000J0D01*
G01*
G37*
%TD.AperFunction*%
%TO.P,R20,1*%
%TO.N,Net-(C8-Pad2)*%
%TA.AperFunction,SMDPad,CuDef*%
G36*
G01*
X160295000Y-85680000D02*
X159745000Y-85680000D01*
G75*
G02*
X159545000Y-85480000I0J200000D01*
G01*
X159545000Y-85080000D01*
G75*
G02*
X159745000Y-84880000I200000J0D01*
G01*
X160295000Y-84880000D01*
G75*
G02*
X160495000Y-85080000I0J-200000D01*
G01*
X160495000Y-85480000D01*
G75*
G02*
X160295000Y-85680000I-200000J0D01*
G01*
G37*
%TD.AperFunction*%
%TD*%
%TO.P,R21,2*%
%TO.N,GND*%
%TA.AperFunction,SMDPad,CuDef*%
G36*
G01*
X149435000Y-122280000D02*
X149435000Y-122830000D01*
G75*
G02*
X149235000Y-123030000I-200000J0D01*
G01*
X148835000Y-123030000D01*
G75*
G02*
X148635000Y-122830000I0J200000D01*
G01*
X148635000Y-122280000D01*
G75*
G02*
X148835000Y-122080000I200000J0D01*
G01*
X149235000Y-122080000D01*
G75*
G02*
X149435000Y-122280000I0J-200000D01*
G01*
G37*
%TD.AperFunction*%
%TO.P,R21,1*%
%TO.N,Net-(C9-Pad2)*%
%TA.AperFunction,SMDPad,CuDef*%
G36*
G01*
X151085000Y-122280000D02*
X151085000Y-122830000D01*
G75*
G02*
X150885000Y-123030000I-200000J0D01*
G01*
X150485000Y-123030000D01*
G75*
G02*
X150285000Y-122830000I0J200000D01*
G01*
X150285000Y-122280000D01*
G75*
G02*
X150485000Y-122080000I200000J0D01*
G01*
X150885000Y-122080000D01*
G75*
G02*
X151085000Y-122280000I0J-200000D01*
G01*
G37*
%TD.AperFunction*%
%TD*%
%TO.P,R22,2*%
%TO.N,GND*%
%TA.AperFunction,SMDPad,CuDef*%
G36*
G01*
X133625000Y-84475000D02*
X133075000Y-84475000D01*
G75*
G02*
X132875000Y-84275000I0J200000D01*
G01*
X132875000Y-83875000D01*
G75*
G02*
X133075000Y-83675000I200000J0D01*
G01*
X133625000Y-83675000D01*
G75*
G02*
X133825000Y-83875000I0J-200000D01*
G01*
X133825000Y-84275000D01*
G75*
G02*
X133625000Y-84475000I-200000J0D01*
G01*
G37*
%TD.AperFunction*%
%TO.P,R22,1*%
%TO.N,Net-(C10-Pad2)*%
%TA.AperFunction,SMDPad,CuDef*%
G36*
G01*
X133625000Y-86125000D02*
X133075000Y-86125000D01*
G75*
G02*
X132875000Y-85925000I0J200000D01*
G01*
X132875000Y-85525000D01*
G75*
G02*
X133075000Y-85325000I200000J0D01*
G01*
X133625000Y-85325000D01*
G75*
G02*
X133825000Y-85525000I0J-200000D01*
G01*
X133825000Y-85925000D01*
G75*
G02*
X133625000Y-86125000I-200000J0D01*
G01*
G37*
%TD.AperFunction*%
%TD*%
%TO.P,R23,2*%
%TO.N,GND*%
%TA.AperFunction,SMDPad,CuDef*%
G36*
G01*
X152675000Y-84030000D02*
X152125000Y-84030000D01*
G75*
G02*
X151925000Y-83830000I0J200000D01*
G01*
X151925000Y-83430000D01*
G75*
G02*
X152125000Y-83230000I200000J0D01*
G01*
X152675000Y-83230000D01*
G75*
G02*
X152875000Y-83430000I0J-200000D01*
G01*
X152875000Y-83830000D01*
G75*
G02*
X152675000Y-84030000I-200000J0D01*
G01*
G37*
%TD.AperFunction*%
%TO.P,R23,1*%
%TO.N,Net-(C11-Pad2)*%
%TA.AperFunction,SMDPad,CuDef*%
G36*
G01*
X152675000Y-85680000D02*
X152125000Y-85680000D01*
G75*
G02*
X151925000Y-85480000I0J200000D01*
G01*
X151925000Y-85080000D01*
G75*
G02*
X152125000Y-84880000I200000J0D01*
G01*
X152675000Y-84880000D01*
G75*
G02*
X152875000Y-85080000I0J-200000D01*
G01*
X152875000Y-85480000D01*
G75*
G02*
X152675000Y-85680000I-200000J0D01*
G01*
G37*
%TD.AperFunction*%
%TD*%
%TO.P,R24,2*%
%TO.N,GND*%
%TA.AperFunction,SMDPad,CuDef*%
G36*
G01*
X154415000Y-122830000D02*
X154415000Y-122280000D01*
G75*
G02*
X154615000Y-122080000I200000J0D01*
G01*
X155015000Y-122080000D01*
G75*
G02*
X155215000Y-122280000I0J-200000D01*
G01*
X155215000Y-122830000D01*
G75*
G02*
X155015000Y-123030000I-200000J0D01*
G01*
X154615000Y-123030000D01*
G75*
G02*
X154415000Y-122830000I0J200000D01*
G01*
G37*
%TD.AperFunction*%
%TO.P,R24,1*%
%TO.N,Net-(C12-Pad2)*%
%TA.AperFunction,SMDPad,CuDef*%
G36*
G01*
X152765000Y-122830000D02*
X152765000Y-122280000D01*
G75*
G02*
X152965000Y-122080000I200000J0D01*
G01*
X153365000Y-122080000D01*
G75*
G02*
X153565000Y-122280000I0J-200000D01*
G01*
X153565000Y-122830000D01*
G75*
G02*
X153365000Y-123030000I-200000J0D01*
G01*
X152965000Y-123030000D01*
G75*
G02*
X152765000Y-122830000I0J200000D01*
G01*
G37*
%TD.AperFunction*%
%TD*%
%TO.P,R25,2*%
%TO.N,Net-(C7-Pad2)*%
%TA.AperFunction,SMDPad,CuDef*%
G36*
G01*
X145625000Y-87990000D02*
X145625000Y-88540000D01*
G75*
G02*
X145425000Y-88740000I-200000J0D01*
G01*
X145025000Y-88740000D01*
G75*
G02*
X144825000Y-88540000I0J200000D01*
G01*
X144825000Y-87990000D01*
G75*
G02*
X145025000Y-87790000I200000J0D01*
G01*
X145425000Y-87790000D01*
G75*
G02*
X145625000Y-87990000I0J-200000D01*
G01*
G37*
%TD.AperFunction*%
%TO.P,R25,1*%
%TO.N,OUT2*%
%TA.AperFunction,SMDPad,CuDef*%
G36*
G01*
X147275000Y-87990000D02*
X147275000Y-88540000D01*
G75*
G02*
X147075000Y-88740000I-200000J0D01*
G01*
X146675000Y-88740000D01*
G75*
G02*
X146475000Y-88540000I0J200000D01*
G01*
X146475000Y-87990000D01*
G75*
G02*
X146675000Y-87790000I200000J0D01*
G01*
X147075000Y-87790000D01*
G75*
G02*
X147275000Y-87990000I0J-200000D01*
G01*
G37*
%TD.AperFunction*%
%TD*%
%TO.P,R26,2*%
%TO.N,Net-(C8-Pad2)*%
%TA.AperFunction,SMDPad,CuDef*%
G36*
G01*
X162960000Y-86720000D02*
X162960000Y-87270000D01*
G75*
G02*
X162760000Y-87470000I-200000J0D01*
G01*
X162360000Y-87470000D01*
G75*
G02*
X162160000Y-87270000I0J200000D01*
G01*
X162160000Y-86720000D01*
G75*
G02*
X162360000Y-86520000I200000J0D01*
G01*
X162760000Y-86520000D01*
G75*
G02*
X162960000Y-86720000I0J-200000D01*
G01*
G37*
%TD.AperFunction*%
%TO.P,R26,1*%
%TO.N,OUT4*%
%TA.AperFunction,SMDPad,CuDef*%
G36*
G01*
X164610000Y-86720000D02*
X164610000Y-87270000D01*
G75*
G02*
X164410000Y-87470000I-200000J0D01*
G01*
X164010000Y-87470000D01*
G75*
G02*
X163810000Y-87270000I0J200000D01*
G01*
X163810000Y-86720000D01*
G75*
G02*
X164010000Y-86520000I200000J0D01*
G01*
X164410000Y-86520000D01*
G75*
G02*
X164610000Y-86720000I0J-200000D01*
G01*
G37*
%TD.AperFunction*%
%TD*%
%TO.P,R27,2*%
%TO.N,Net-(C9-Pad2)*%
%TA.AperFunction,SMDPad,CuDef*%
G36*
G01*
X149435000Y-126090000D02*
X149435000Y-126640000D01*
G75*
G02*
X149235000Y-126840000I-200000J0D01*
G01*
X148835000Y-126840000D01*
G75*
G02*
X148635000Y-126640000I0J200000D01*
G01*
X148635000Y-126090000D01*
G75*
G02*
X148835000Y-125890000I200000J0D01*
G01*
X149235000Y-125890000D01*
G75*
G02*
X149435000Y-126090000I0J-200000D01*
G01*
G37*
%TD.AperFunction*%
%TO.P,R27,1*%
%TO.N,OUT5*%
%TA.AperFunction,SMDPad,CuDef*%
G36*
G01*
X151085000Y-126090000D02*
X151085000Y-126640000D01*
G75*
G02*
X150885000Y-126840000I-200000J0D01*
G01*
X150485000Y-126840000D01*
G75*
G02*
X150285000Y-126640000I0J200000D01*
G01*
X150285000Y-126090000D01*
G75*
G02*
X150485000Y-125890000I200000J0D01*
G01*
X150885000Y-125890000D01*
G75*
G02*
X151085000Y-126090000I0J-200000D01*
G01*
G37*
%TD.AperFunction*%
%TD*%
%TO.P,R28,2*%
%TO.N,Net-(C10-Pad2)*%
%TA.AperFunction,SMDPad,CuDef*%
G36*
G01*
X135465000Y-87990000D02*
X135465000Y-88540000D01*
G75*
G02*
X135265000Y-88740000I-200000J0D01*
G01*
X134865000Y-88740000D01*
G75*
G02*
X134665000Y-88540000I0J200000D01*
G01*
X134665000Y-87990000D01*
G75*
G02*
X134865000Y-87790000I200000J0D01*
G01*
X135265000Y-87790000D01*
G75*
G02*
X135465000Y-87990000I0J-200000D01*
G01*
G37*
%TD.AperFunction*%
%TO.P,R28,1*%
%TO.N,OUT1*%
%TA.AperFunction,SMDPad,CuDef*%
G36*
G01*
X137115000Y-87990000D02*
X137115000Y-88540000D01*
G75*
G02*
X136915000Y-88740000I-200000J0D01*
G01*
X136515000Y-88740000D01*
G75*
G02*
X136315000Y-88540000I0J200000D01*
G01*
X136315000Y-87990000D01*
G75*
G02*
X136515000Y-87790000I200000J0D01*
G01*
X136915000Y-87790000D01*
G75*
G02*
X137115000Y-87990000I0J-200000D01*
G01*
G37*
%TD.AperFunction*%
%TD*%
%TO.P,R29,2*%
%TO.N,Net-(C11-Pad2)*%
%TA.AperFunction,SMDPad,CuDef*%
G36*
G01*
X154960000Y-87990000D02*
X154960000Y-88540000D01*
G75*
G02*
X154760000Y-88740000I-200000J0D01*
G01*
X154360000Y-88740000D01*
G75*
G02*
X154160000Y-88540000I0J200000D01*
G01*
X154160000Y-87990000D01*
G75*
G02*
X154360000Y-87790000I200000J0D01*
G01*
X154760000Y-87790000D01*
G75*
G02*
X154960000Y-87990000I0J-200000D01*
G01*
G37*
%TD.AperFunction*%
%TO.P,R29,1*%
%TO.N,OUT3*%
%TA.AperFunction,SMDPad,CuDef*%
G36*
G01*
X156610000Y-87990000D02*
X156610000Y-88540000D01*
G75*
G02*
X156410000Y-88740000I-200000J0D01*
G01*
X156010000Y-88740000D01*
G75*
G02*
X155810000Y-88540000I0J200000D01*
G01*
X155810000Y-87990000D01*
G75*
G02*
X156010000Y-87790000I200000J0D01*
G01*
X156410000Y-87790000D01*
G75*
G02*
X156610000Y-87990000I0J-200000D01*
G01*
G37*
%TD.AperFunction*%
%TD*%
%TO.P,R30,2*%
%TO.N,Net-(C12-Pad2)*%
%TA.AperFunction,SMDPad,CuDef*%
G36*
G01*
X154415000Y-126640000D02*
X154415000Y-126090000D01*
G75*
G02*
X154615000Y-125890000I200000J0D01*
G01*
X155015000Y-125890000D01*
G75*
G02*
X155215000Y-126090000I0J-200000D01*
G01*
X155215000Y-126640000D01*
G75*
G02*
X155015000Y-126840000I-200000J0D01*
G01*
X154615000Y-126840000D01*
G75*
G02*
X154415000Y-126640000I0J200000D01*
G01*
G37*
%TD.AperFunction*%
%TO.P,R30,1*%
%TO.N,OUT6*%
%TA.AperFunction,SMDPad,CuDef*%
G36*
G01*
X152765000Y-126640000D02*
X152765000Y-126090000D01*
G75*
G02*
X152965000Y-125890000I200000J0D01*
G01*
X153365000Y-125890000D01*
G75*
G02*
X153565000Y-126090000I0J-200000D01*
G01*
X153565000Y-126640000D01*
G75*
G02*
X153365000Y-126840000I-200000J0D01*
G01*
X152965000Y-126840000D01*
G75*
G02*
X152765000Y-126640000I0J200000D01*
G01*
G37*
%TD.AperFunction*%
%TD*%
%TO.P,R31,2*%
%TO.N,GND*%
%TA.AperFunction,SMDPad,CuDef*%
G36*
G01*
X145500000Y-84855000D02*
X144950000Y-84855000D01*
G75*
G02*
X144750000Y-84655000I0J200000D01*
G01*
X144750000Y-84255000D01*
G75*
G02*
X144950000Y-84055000I200000J0D01*
G01*
X145500000Y-84055000D01*
G75*
G02*
X145700000Y-84255000I0J-200000D01*
G01*
X145700000Y-84655000D01*
G75*
G02*
X145500000Y-84855000I-200000J0D01*
G01*
G37*
%TD.AperFunction*%
%TO.P,R31,1*%
%TO.N,OUT2*%
%TA.AperFunction,SMDPad,CuDef*%
G36*
G01*
X145500000Y-86505000D02*
X144950000Y-86505000D01*
G75*
G02*
X144750000Y-86305000I0J200000D01*
G01*
X144750000Y-85905000D01*
G75*
G02*
X144950000Y-85705000I200000J0D01*
G01*
X145500000Y-85705000D01*
G75*
G02*
X145700000Y-85905000I0J-200000D01*
G01*
X145700000Y-86305000D01*
G75*
G02*
X145500000Y-86505000I-200000J0D01*
G01*
G37*
%TD.AperFunction*%
%TD*%
%TO.P,R32,2*%
%TO.N,GND*%
%TA.AperFunction,SMDPad,CuDef*%
G36*
G01*
X162960000Y-84180000D02*
X162960000Y-84730000D01*
G75*
G02*
X162760000Y-84930000I-200000J0D01*
G01*
X162360000Y-84930000D01*
G75*
G02*
X162160000Y-84730000I0J200000D01*
G01*
X162160000Y-84180000D01*
G75*
G02*
X162360000Y-83980000I200000J0D01*
G01*
X162760000Y-83980000D01*
G75*
G02*
X162960000Y-84180000I0J-200000D01*
G01*
G37*
%TD.AperFunction*%
%TO.P,R32,1*%
%TO.N,OUT4*%
%TA.AperFunction,SMDPad,CuDef*%
G36*
G01*
X164610000Y-84180000D02*
X164610000Y-84730000D01*
G75*
G02*
X164410000Y-84930000I-200000J0D01*
G01*
X164010000Y-84930000D01*
G75*
G02*
X163810000Y-84730000I0J200000D01*
G01*
X163810000Y-84180000D01*
G75*
G02*
X164010000Y-83980000I200000J0D01*
G01*
X164410000Y-83980000D01*
G75*
G02*
X164610000Y-84180000I0J-200000D01*
G01*
G37*
%TD.AperFunction*%
%TD*%
%TO.P,R33,2*%
%TO.N,GND*%
%TA.AperFunction,SMDPad,CuDef*%
G36*
G01*
X149115000Y-129900000D02*
X149115000Y-130450000D01*
G75*
G02*
X148915000Y-130650000I-200000J0D01*
G01*
X148515000Y-130650000D01*
G75*
G02*
X148315000Y-130450000I0J200000D01*
G01*
X148315000Y-129900000D01*
G75*
G02*
X148515000Y-129700000I200000J0D01*
G01*
X148915000Y-129700000D01*
G75*
G02*
X149115000Y-129900000I0J-200000D01*
G01*
G37*
%TD.AperFunction*%
%TO.P,R33,1*%
%TO.N,OUT5*%
%TA.AperFunction,SMDPad,CuDef*%
G36*
G01*
X150765000Y-129900000D02*
X150765000Y-130450000D01*
G75*
G02*
X150565000Y-130650000I-200000J0D01*
G01*
X150165000Y-130650000D01*
G75*
G02*
X149965000Y-130450000I0J200000D01*
G01*
X149965000Y-129900000D01*
G75*
G02*
X150165000Y-129700000I200000J0D01*
G01*
X150565000Y-129700000D01*
G75*
G02*
X150765000Y-129900000I0J-200000D01*
G01*
G37*
%TD.AperFunction*%
%TD*%
%TO.P,R34,2*%
%TO.N,GND*%
%TA.AperFunction,SMDPad,CuDef*%
G36*
G01*
X136165000Y-84475000D02*
X135615000Y-84475000D01*
G75*
G02*
X135415000Y-84275000I0J200000D01*
G01*
X135415000Y-83875000D01*
G75*
G02*
X135615000Y-83675000I200000J0D01*
G01*
X136165000Y-83675000D01*
G75*
G02*
X136365000Y-83875000I0J-200000D01*
G01*
X136365000Y-84275000D01*
G75*
G02*
X136165000Y-84475000I-200000J0D01*
G01*
G37*
%TD.AperFunction*%
%TO.P,R34,1*%
%TO.N,OUT1*%
%TA.AperFunction,SMDPad,CuDef*%
G36*
G01*
X136165000Y-86125000D02*
X135615000Y-86125000D01*
G75*
G02*
X135415000Y-85925000I0J200000D01*
G01*
X135415000Y-85525000D01*
G75*
G02*
X135615000Y-85325000I200000J0D01*
G01*
X136165000Y-85325000D01*
G75*
G02*
X136365000Y-85525000I0J-200000D01*
G01*
X136365000Y-85925000D01*
G75*
G02*
X136165000Y-86125000I-200000J0D01*
G01*
G37*
%TD.AperFunction*%
%TD*%
%TO.P,R35,2*%
%TO.N,GND*%
%TA.AperFunction,SMDPad,CuDef*%
G36*
G01*
X155215000Y-85300000D02*
X154665000Y-85300000D01*
G75*
G02*
X154465000Y-85100000I0J200000D01*
G01*
X154465000Y-84700000D01*
G75*
G02*
X154665000Y-84500000I200000J0D01*
G01*
X155215000Y-84500000D01*
G75*
G02*
X155415000Y-84700000I0J-200000D01*
G01*
X155415000Y-85100000D01*
G75*
G02*
X155215000Y-85300000I-200000J0D01*
G01*
G37*
%TD.AperFunction*%
%TO.P,R35,1*%
%TO.N,OUT3*%
%TA.AperFunction,SMDPad,CuDef*%
G36*
G01*
X155215000Y-86950000D02*
X154665000Y-86950000D01*
G75*
G02*
X154465000Y-86750000I0J200000D01*
G01*
X154465000Y-86350000D01*
G75*
G02*
X154665000Y-86150000I200000J0D01*
G01*
X155215000Y-86150000D01*
G75*
G02*
X155415000Y-86350000I0J-200000D01*
G01*
X155415000Y-86750000D01*
G75*
G02*
X155215000Y-86950000I-200000J0D01*
G01*
G37*
%TD.AperFunction*%
%TD*%
%TO.P,R36,2*%
%TO.N,GND*%
%TA.AperFunction,SMDPad,CuDef*%
G36*
G01*
X154415000Y-130450000D02*
X154415000Y-129900000D01*
G75*
G02*
X154615000Y-129700000I200000J0D01*
G01*
X155015000Y-129700000D01*
G75*
G02*
X155215000Y-129900000I0J-200000D01*
G01*
X155215000Y-130450000D01*
G75*
G02*
X155015000Y-130650000I-200000J0D01*
G01*
X154615000Y-130650000D01*
G75*
G02*
X154415000Y-130450000I0J200000D01*
G01*
G37*
%TD.AperFunction*%
%TO.P,R36,1*%
%TO.N,OUT6*%
%TA.AperFunction,SMDPad,CuDef*%
G36*
G01*
X152765000Y-130450000D02*
X152765000Y-129900000D01*
G75*
G02*
X152965000Y-129700000I200000J0D01*
G01*
X153365000Y-129700000D01*
G75*
G02*
X153565000Y-129900000I0J-200000D01*
G01*
X153565000Y-130450000D01*
G75*
G02*
X153365000Y-130650000I-200000J0D01*
G01*
X152965000Y-130650000D01*
G75*
G02*
X152765000Y-130450000I0J200000D01*
G01*
G37*
%TD.AperFunction*%
%TD*%
%TO.P,U3,8*%
%TO.N,+12V*%
%TA.AperFunction,SMDPad,CuDef*%
G36*
G01*
X153835000Y-113180000D02*
X153835000Y-112880000D01*
G75*
G02*
X153985000Y-112730000I150000J0D01*
G01*
X155635000Y-112730000D01*
G75*
G02*
X155785000Y-112880000I0J-150000D01*
G01*
X155785000Y-113180000D01*
G75*
G02*
X155635000Y-113330000I-150000J0D01*
G01*
X153985000Y-113330000D01*
G75*
G02*
X153835000Y-113180000I0J150000D01*
G01*
G37*
%TD.AperFunction*%
%TO.P,U3,7*%
%TO.N,Net-(C12-Pad1)*%
%TA.AperFunction,SMDPad,CuDef*%
G36*
G01*
X153835000Y-114450000D02*
X153835000Y-114150000D01*
G75*
G02*
X153985000Y-114000000I150000J0D01*
G01*
X155635000Y-114000000D01*
G75*
G02*
X155785000Y-114150000I0J-150000D01*
G01*
X155785000Y-114450000D01*
G75*
G02*
X155635000Y-114600000I-150000J0D01*
G01*
X153985000Y-114600000D01*
G75*
G02*
X153835000Y-114450000I0J150000D01*
G01*
G37*
%TD.AperFunction*%
%TO.P,U3,6*%
%TA.AperFunction,SMDPad,CuDef*%
G36*
G01*
X153835000Y-115720000D02*
X153835000Y-115420000D01*
G75*
G02*
X153985000Y-115270000I150000J0D01*
G01*
X155635000Y-115270000D01*
G75*
G02*
X155785000Y-115420000I0J-150000D01*
G01*
X155785000Y-115720000D01*
G75*
G02*
X155635000Y-115870000I-150000J0D01*
G01*
X153985000Y-115870000D01*
G75*
G02*
X153835000Y-115720000I0J150000D01*
G01*
G37*
%TD.AperFunction*%
%TO.P,U3,5*%
%TO.N,/Sheet614BBE23/6A*%
%TA.AperFunction,SMDPad,CuDef*%
G36*
G01*
X153835000Y-116990000D02*
X153835000Y-116690000D01*
G75*
G02*
X153985000Y-116540000I150000J0D01*
G01*
X155635000Y-116540000D01*
G75*
G02*
X155785000Y-116690000I0J-150000D01*
G01*
X155785000Y-116990000D01*
G75*
G02*
X155635000Y-117140000I-150000J0D01*
G01*
X153985000Y-117140000D01*
G75*
G02*
X153835000Y-116990000I0J150000D01*
G01*
G37*
%TD.AperFunction*%
%TO.P,U3,4*%
%TO.N,-12V*%
%TA.AperFunction,SMDPad,CuDef*%
G36*
G01*
X148885000Y-116990000D02*
X148885000Y-116690000D01*
G75*
G02*
X149035000Y-116540000I150000J0D01*
G01*
X150685000Y-116540000D01*
G75*
G02*
X150835000Y-116690000I0J-150000D01*
G01*
X150835000Y-116990000D01*
G75*
G02*
X150685000Y-117140000I-150000J0D01*
G01*
X149035000Y-117140000D01*
G75*
G02*
X148885000Y-116990000I0J150000D01*
G01*
G37*
%TD.AperFunction*%
%TO.P,U3,3*%
%TO.N,/Sheet614BBE23/5A*%
%TA.AperFunction,SMDPad,CuDef*%
G36*
G01*
X148885000Y-115720000D02*
X148885000Y-115420000D01*
G75*
G02*
X149035000Y-115270000I150000J0D01*
G01*
X150685000Y-115270000D01*
G75*
G02*
X150835000Y-115420000I0J-150000D01*
G01*
X150835000Y-115720000D01*
G75*
G02*
X150685000Y-115870000I-150000J0D01*
G01*
X149035000Y-115870000D01*
G75*
G02*
X148885000Y-115720000I0J150000D01*
G01*
G37*
%TD.AperFunction*%
%TO.P,U3,2*%
%TO.N,Net-(C9-Pad1)*%
%TA.AperFunction,SMDPad,CuDef*%
G36*
G01*
X148885000Y-114450000D02*
X148885000Y-114150000D01*
G75*
G02*
X149035000Y-114000000I150000J0D01*
G01*
X150685000Y-114000000D01*
G75*
G02*
X150835000Y-114150000I0J-150000D01*
G01*
X150835000Y-114450000D01*
G75*
G02*
X150685000Y-114600000I-150000J0D01*
G01*
X149035000Y-114600000D01*
G75*
G02*
X148885000Y-114450000I0J150000D01*
G01*
G37*
%TD.AperFunction*%
%TO.P,U3,1*%
%TA.AperFunction,SMDPad,CuDef*%
G36*
G01*
X148885000Y-113180000D02*
X148885000Y-112880000D01*
G75*
G02*
X149035000Y-112730000I150000J0D01*
G01*
X150685000Y-112730000D01*
G75*
G02*
X150835000Y-112880000I0J-150000D01*
G01*
X150835000Y-113180000D01*
G75*
G02*
X150685000Y-113330000I-150000J0D01*
G01*
X149035000Y-113330000D01*
G75*
G02*
X148885000Y-113180000I0J150000D01*
G01*
G37*
%TD.AperFunction*%
%TD*%
D12*
%TO.P,J1,10*%
%TO.N,-12V*%
X165735000Y-135255000D03*
%TO.P,J1,9*%
X165735000Y-137795000D03*
%TO.P,J1,8*%
%TO.N,GND*%
X163195000Y-135255000D03*
%TO.P,J1,7*%
X163195000Y-137795000D03*
%TO.P,J1,6*%
X160655000Y-135255000D03*
%TO.P,J1,5*%
X160655000Y-137795000D03*
%TO.P,J1,4*%
X158115000Y-135255000D03*
%TO.P,J1,3*%
X158115000Y-137795000D03*
%TO.P,J1,2*%
%TO.N,+12V*%
X155575000Y-135255000D03*
D13*
%TO.P,J1,1*%
X155575000Y-137795000D03*
%TD*%
D12*
%TO.P,J2,12*%
%TO.N,GND*%
X165735000Y-76835000D03*
%TO.P,J2,11*%
%TO.N,CV6*%
X165735000Y-79375000D03*
%TO.P,J2,10*%
%TO.N,GND*%
X163195000Y-76835000D03*
%TO.P,J2,9*%
%TO.N,CV5*%
X163195000Y-79375000D03*
%TO.P,J2,8*%
%TO.N,GND*%
X160655000Y-76835000D03*
%TO.P,J2,7*%
%TO.N,CV4*%
X160655000Y-79375000D03*
%TO.P,J2,6*%
%TO.N,GND*%
X158115000Y-76835000D03*
%TO.P,J2,5*%
%TO.N,CV3*%
X158115000Y-79375000D03*
%TO.P,J2,4*%
%TO.N,GND*%
X155575000Y-76835000D03*
%TO.P,J2,3*%
%TO.N,CV2*%
X155575000Y-79375000D03*
%TO.P,J2,2*%
%TO.N,GND*%
X153035000Y-76835000D03*
D13*
%TO.P,J2,1*%
%TO.N,CV1*%
X153035000Y-79375000D03*
%TD*%
D12*
%TO.P,J3,12*%
%TO.N,GND*%
X147955000Y-76835000D03*
%TO.P,J3,11*%
%TO.N,OUT6*%
X147955000Y-79375000D03*
%TO.P,J3,10*%
%TO.N,GND*%
X145415000Y-76835000D03*
%TO.P,J3,9*%
%TO.N,OUT5*%
X145415000Y-79375000D03*
%TO.P,J3,8*%
%TO.N,GND*%
X142875000Y-76835000D03*
%TO.P,J3,7*%
%TO.N,OUT4*%
X142875000Y-79375000D03*
%TO.P,J3,6*%
%TO.N,GND*%
X140335000Y-76835000D03*
%TO.P,J3,5*%
%TO.N,OUT3*%
X140335000Y-79375000D03*
%TO.P,J3,4*%
%TO.N,GND*%
X137795000Y-76835000D03*
%TO.P,J3,3*%
%TO.N,OUT2*%
X137795000Y-79375000D03*
%TO.P,J3,2*%
%TO.N,GND*%
X135255000Y-76835000D03*
D13*
%TO.P,J3,1*%
%TO.N,OUT1*%
X135255000Y-79375000D03*
%TD*%
D14*
%TO.N,GND*%
X157480000Y-111760000D03*
X165100000Y-111760000D03*
X161290000Y-106680000D03*
%TO.N,Net-(R16-Pad2)*%
X162560000Y-106680000D03*
%TO.N,/Sheet614BBE23/5A*%
X157480000Y-107950000D03*
%TO.N,GND*%
X162560000Y-128270000D03*
%TO.N,+12V*%
X157480000Y-99695000D03*
%TO.N,GND*%
X140970000Y-97790000D03*
%TO.N,-12V*%
X143510000Y-95250000D03*
%TO.N,+12V*%
X146050000Y-100330000D03*
D15*
%TO.N,GND*%
X132080000Y-74295000D03*
X132080000Y-140335000D03*
X168910000Y-140335000D03*
X168910000Y-74295000D03*
D14*
X156210000Y-83185000D03*
X147320000Y-84455000D03*
X151130000Y-109855000D03*
X137160000Y-84455000D03*
X140970000Y-120015000D03*
X139700000Y-113665000D03*
X134620000Y-97155000D03*
X143510000Y-104775000D03*
X138430000Y-125095000D03*
X139700000Y-131445000D03*
X134620000Y-126365000D03*
X148590000Y-128905000D03*
X156210000Y-128905000D03*
%TO.N,/Sheet614BBE23/4A*%
X153670000Y-94615000D03*
X153889900Y-108585000D03*
%TO.N,/Sheet614BBE23/5A*%
X152400000Y-116205000D03*
%TO.N,-12V*%
X139700000Y-126365000D03*
X139700000Y-110490000D03*
%TO.N,+12V*%
X152400000Y-98425000D03*
X156210000Y-102235000D03*
X144780000Y-116205000D03*
X154940000Y-111125000D03*
%TO.N,/Sheet614BBE23/2A*%
X151160010Y-104525090D03*
X151160010Y-97480010D03*
%TO.N,-12V*%
X149860000Y-117475000D03*
X157480000Y-97790000D03*
%TO.N,+12V*%
X144780000Y-127635000D03*
%TO.N,Net-(R1-Pad2)*%
X137160000Y-93345000D03*
%TO.N,CV1*%
X146050000Y-93345000D03*
X147955000Y-89535000D03*
%TO.N,Net-(R4-Pad2)*%
X134620000Y-116205000D03*
%TO.N,Net-(R6-Pad2)*%
X143510000Y-107315000D03*
%TO.N,Net-(R7-Pad2)*%
X135890000Y-123825000D03*
%TO.N,CV2*%
X146050000Y-107315000D03*
%TO.N,Net-(R12-Pad2)*%
X163830000Y-88265000D03*
%TO.N,CV3*%
X150495000Y-84455000D03*
X132900990Y-95699010D03*
%TO.N,OUT6*%
X153670000Y-132715000D03*
%TO.N,OUT4*%
X164210000Y-83185000D03*
%TO.N,OUT3*%
X156210000Y-86995000D03*
%TO.N,GND*%
X162560000Y-96520000D03*
X157480000Y-95250000D03*
%TO.N,/Sheet614BBE23/5A*%
X158953750Y-120853750D03*
%TO.N,/Sheet614BBE23/5Y*%
X156305989Y-111550989D03*
%TO.N,-12V*%
X161290000Y-92710000D03*
X162560000Y-124460000D03*
%TO.N,/Sheet614BBE23/5Y*%
X157480000Y-118110000D03*
%TO.N,-12V*%
X165100000Y-113030000D03*
%TO.N,GND*%
X163830000Y-119380000D03*
%TO.N,-12V*%
X139700000Y-116840000D03*
X163830000Y-106680000D03*
%TO.N,+12V*%
X167640000Y-116840000D03*
%TO.N,Net-(R15-Pad2)*%
X166370000Y-120650000D03*
%TO.N,+12V*%
X163830000Y-92710000D03*
X168590000Y-124780000D03*
%TO.N,Net-(R10-Pad2)*%
X157480000Y-91440000D03*
%TO.N,Net-(R13-Pad2)*%
X160020000Y-121920000D03*
%TO.N,CV6*%
X166370000Y-106680000D03*
%TO.N,Net-(R18-Pad2)*%
X168720000Y-107760000D03*
%TO.N,Net-(R3-Pad2)*%
X142240000Y-90805000D03*
%TO.N,Net-(R9-Pad2)*%
X142240000Y-122555000D03*
%TD*%
D16*
%TO.N,/Sheet614BBE23/1A*%
X137465000Y-100170000D02*
X137480000Y-100155000D01*
X148590000Y-102235000D02*
X148590000Y-102235000D01*
X148590000Y-102235000D02*
X149809200Y-102235000D01*
X149860000Y-94615000D02*
X148590000Y-94615000D01*
X148590000Y-94615000D02*
X148590000Y-94615000D01*
X148590000Y-94615000D02*
X147320000Y-95885000D01*
X147320000Y-95885000D02*
X147320000Y-100965000D01*
X147320000Y-100965000D02*
X148590000Y-102235000D01*
X149809200Y-102235000D02*
X148708300Y-102235000D01*
X137480000Y-101740000D02*
X139880000Y-104140000D01*
X137480000Y-100155000D02*
X137480000Y-101740000D01*
X147015000Y-102235000D02*
X146685000Y-102565000D01*
X149809200Y-102235000D02*
X147015000Y-102235000D01*
X139880000Y-104140000D02*
X141150000Y-102870000D01*
X146380000Y-102870000D02*
X146685000Y-102565000D01*
X141150000Y-102870000D02*
X146380000Y-102870000D01*
X138430000Y-100155000D02*
X137480000Y-100155000D01*
%TO.N,GND*%
X138430000Y-125095000D02*
X138430000Y-125095000D01*
X149809200Y-109855000D02*
X151130000Y-109855000D01*
X133350000Y-84075000D02*
X135890000Y-84075000D01*
X136270000Y-84455000D02*
X135890000Y-84075000D01*
X137160000Y-84455000D02*
X136270000Y-84455000D01*
X144845000Y-84075000D02*
X145225000Y-84455000D01*
X143510000Y-84075000D02*
X144845000Y-84075000D01*
X145225000Y-84455000D02*
X147320000Y-84455000D01*
X153670000Y-83630000D02*
X154940000Y-84900000D01*
X152400000Y-83630000D02*
X153670000Y-83630000D01*
X160020000Y-83630000D02*
X160020000Y-83185000D01*
X160020000Y-83185000D02*
X156210000Y-83185000D01*
X154940000Y-84455000D02*
X156210000Y-83185000D01*
X154940000Y-84900000D02*
X154940000Y-84455000D01*
X161735000Y-83630000D02*
X162560000Y-84455000D01*
X160020000Y-83630000D02*
X161735000Y-83630000D01*
X139612500Y-120015000D02*
X140970000Y-120015000D01*
X139700000Y-132715000D02*
X140970000Y-133985000D01*
X139700000Y-131445000D02*
X139700000Y-132715000D01*
X148590000Y-130050000D02*
X148715000Y-130175000D01*
X148590000Y-128905000D02*
X148590000Y-130050000D01*
X148190001Y-128505001D02*
X148590000Y-128905000D01*
X148190001Y-123874999D02*
X148190001Y-128505001D01*
X149035000Y-123030000D02*
X148190001Y-123874999D01*
X149035000Y-122555000D02*
X149035000Y-123030000D01*
X156210000Y-123950000D02*
X156210000Y-128905000D01*
X154815000Y-122555000D02*
X156210000Y-123950000D01*
X154940000Y-130175000D02*
X156210000Y-128905000D01*
X154815000Y-130175000D02*
X154940000Y-130175000D01*
X142240000Y-104775000D02*
X141605000Y-104140000D01*
X143510000Y-104775000D02*
X142240000Y-104775000D01*
X137480000Y-97155000D02*
X134620000Y-97155000D01*
X139700000Y-114845000D02*
X138110000Y-116435000D01*
X139700000Y-113665000D02*
X139700000Y-114845000D01*
X135660000Y-127405000D02*
X134620000Y-126365000D01*
X136210000Y-127405000D02*
X135660000Y-127405000D01*
X161112500Y-97385000D02*
X163422500Y-99695000D01*
X160970000Y-97385000D02*
X161112500Y-97385000D01*
%TO.N,/Sheet614BBE23/4A*%
X154990800Y-108585000D02*
X153889900Y-108585000D01*
X154810000Y-94615000D02*
X153670000Y-94615000D01*
X153670000Y-94615000D02*
X153670000Y-94615000D01*
X153889900Y-108585000D02*
X153889900Y-108585000D01*
%TO.N,/Sheet614BBE23/2A*%
X136195000Y-118745000D02*
X137160000Y-118745000D01*
X136210000Y-118730000D02*
X136195000Y-118745000D01*
X151160010Y-97480010D02*
X151160010Y-97480010D01*
X137160000Y-119287500D02*
X137887500Y-120015000D01*
X137160000Y-118745000D02*
X137160000Y-119287500D01*
X133350000Y-111758590D02*
X133445989Y-111758590D01*
X133350000Y-118718994D02*
X133350000Y-111758590D01*
X134646006Y-120015000D02*
X133350000Y-118718994D01*
X133445990Y-111664014D02*
X139514014Y-105595990D01*
X134925000Y-120015000D02*
X134646006Y-120015000D01*
X133445989Y-111758590D02*
X133445990Y-111664014D01*
X136195000Y-118745000D02*
X134925000Y-120015000D01*
X147769010Y-105595990D02*
X146499010Y-105595990D01*
X148590000Y-104775000D02*
X147769010Y-105595990D01*
X149809200Y-104775000D02*
X148590000Y-104775000D01*
X146499010Y-105595990D02*
X146650612Y-105595990D01*
X139514014Y-105595990D02*
X146499010Y-105595990D01*
X137160000Y-113435000D02*
X137160000Y-118745000D01*
%TO.N,/Sheet614BBE23/5A*%
X149860000Y-115570000D02*
X149225000Y-115570000D01*
X151765000Y-115570000D02*
X152400000Y-116205000D01*
X149860000Y-115570000D02*
X151765000Y-115570000D01*
%TO.N,/Sheet614BBE23/3A*%
X154810000Y-97155000D02*
X154433232Y-97155000D01*
X136210000Y-133517500D02*
X136677500Y-133985000D01*
X136210000Y-130405000D02*
X136210000Y-133517500D01*
X139245000Y-133985000D02*
X136677500Y-133985000D01*
X137160000Y-130405000D02*
X136210000Y-130405000D01*
%TO.N,Net-(C7-Pad2)*%
X144130000Y-87170000D02*
X145225000Y-88265000D01*
X143510000Y-87170000D02*
X144130000Y-87170000D01*
X143510000Y-87170000D02*
X143510000Y-85725000D01*
%TO.N,Net-(C7-Pad1)*%
X149860000Y-98425000D02*
X149860000Y-99695000D01*
X151160010Y-91729658D02*
X150235352Y-90805000D01*
X151160010Y-94961758D02*
X151160010Y-91729658D01*
X150881758Y-95240010D02*
X151160010Y-94961758D01*
X144780000Y-90805000D02*
X143510000Y-89535000D01*
X148838242Y-95240010D02*
X150881758Y-95240010D01*
X150235352Y-90805000D02*
X144780000Y-90805000D01*
X148559990Y-95518262D02*
X148838242Y-95240010D01*
X148559990Y-98099990D02*
X148559990Y-95518262D01*
X148885000Y-98425000D02*
X148559990Y-98099990D01*
X143510000Y-89535000D02*
X143510000Y-88720000D01*
X149860000Y-98425000D02*
X148885000Y-98425000D01*
%TO.N,Net-(C8-Pad1)*%
X154810000Y-92075000D02*
X154810000Y-93345000D01*
X160020000Y-89040000D02*
X157975000Y-89040000D01*
X154940000Y-92075000D02*
X154810000Y-92075000D01*
X157975000Y-89040000D02*
X154940000Y-92075000D01*
%TO.N,Net-(C8-Pad2)*%
X160020000Y-85280000D02*
X160020000Y-87490000D01*
X162065000Y-87490000D02*
X162560000Y-86995000D01*
X160020000Y-87490000D02*
X162065000Y-87490000D01*
%TO.N,Net-(C9-Pad1)*%
X149860000Y-113030000D02*
X149860000Y-114300000D01*
X147864999Y-118794999D02*
X149085000Y-120015000D01*
X147864999Y-114050001D02*
X147864999Y-118794999D01*
X148885000Y-113030000D02*
X147864999Y-114050001D01*
X149860000Y-113030000D02*
X148885000Y-113030000D01*
%TO.N,Net-(C9-Pad2)*%
X150635000Y-122505000D02*
X150685000Y-122555000D01*
X150635000Y-120015000D02*
X150635000Y-122505000D01*
X149035000Y-124205000D02*
X150685000Y-122555000D01*
X149035000Y-126365000D02*
X149035000Y-124205000D01*
%TO.N,Net-(C10-Pad1)*%
X149860000Y-92075000D02*
X149860000Y-93345000D01*
X133350000Y-89535000D02*
X133350000Y-89040000D01*
X142240000Y-89535000D02*
X133350000Y-89535000D01*
X143959010Y-91254010D02*
X142240000Y-89535000D01*
X146499010Y-91254010D02*
X143959010Y-91254010D01*
X147320000Y-92075000D02*
X146499010Y-91254010D01*
X149860000Y-92075000D02*
X147320000Y-92075000D01*
%TO.N,Net-(C10-Pad2)*%
X133350000Y-85725000D02*
X133350000Y-87490000D01*
X134125000Y-88265000D02*
X133350000Y-87490000D01*
X135065000Y-88265000D02*
X134125000Y-88265000D01*
%TO.N,Net-(C11-Pad2)*%
X152400000Y-87490000D02*
X152400000Y-85280000D01*
X153175000Y-88265000D02*
X152400000Y-87490000D01*
X154560000Y-88265000D02*
X153175000Y-88265000D01*
%TO.N,Net-(C11-Pad1)*%
X154810000Y-98425000D02*
X154810000Y-99695000D01*
X155186768Y-98425000D02*
X154810000Y-98425000D01*
X152400000Y-96990000D02*
X152400000Y-95141748D01*
X153835000Y-98425000D02*
X152400000Y-96990000D01*
X154810000Y-98425000D02*
X153835000Y-98425000D01*
X152400000Y-95141748D02*
X152400000Y-89040000D01*
%TO.N,Net-(C12-Pad2)*%
X154765000Y-120955000D02*
X153165000Y-122555000D01*
X153165000Y-124715000D02*
X154815000Y-126365000D01*
X153165000Y-122555000D02*
X153165000Y-124715000D01*
%TO.N,/Sheet614BBE23/1Y*%
X149809200Y-103505000D02*
X149225004Y-103505000D01*
X147320000Y-103505000D02*
X146685000Y-104140000D01*
X149809200Y-103505000D02*
X147320000Y-103505000D01*
%TO.N,/Sheet614BBE23/2Y*%
X133894999Y-118019999D02*
X133894999Y-111850001D01*
X134620000Y-118745000D02*
X133894999Y-118019999D01*
X133894999Y-111850001D02*
X139700000Y-106045000D01*
X146836598Y-106045000D02*
X149809200Y-106045000D01*
X139700000Y-106045000D02*
X146836598Y-106045000D01*
%TO.N,/Sheet614BBE23/5Y*%
X156305989Y-107529289D02*
X156305989Y-111550989D01*
X156091700Y-107315000D02*
X156305989Y-107529289D01*
X154990800Y-107315000D02*
X156091700Y-107315000D01*
%TO.N,/Sheet614BBE23/3Y*%
X136077519Y-134960019D02*
X135102500Y-133985000D01*
X136350519Y-135233019D02*
X136077519Y-134960019D01*
X147320000Y-130811410D02*
X142898391Y-135233019D01*
X147320000Y-109973300D02*
X147320000Y-130811410D01*
X148708300Y-108585000D02*
X147320000Y-109973300D01*
X142898391Y-135233019D02*
X136350519Y-135233019D01*
X149809200Y-108585000D02*
X148708300Y-108585000D01*
%TO.N,/Sheet614BBE23/6Y*%
X154990800Y-104775000D02*
X156091700Y-104775000D01*
%TO.N,-12V*%
X165735000Y-135255000D02*
X165735000Y-137795000D01*
X143190000Y-95570000D02*
X143510000Y-95250000D01*
X143190000Y-97155000D02*
X143190000Y-95570000D01*
X141920000Y-111461798D02*
X140948202Y-110490000D01*
X140948202Y-110490000D02*
X139700000Y-110490000D01*
X139700000Y-110490000D02*
X139700000Y-110490000D01*
X141860000Y-128525000D02*
X139700000Y-126365000D01*
X142240000Y-128525000D02*
X141860000Y-128525000D01*
X141920000Y-115695000D02*
X141920000Y-111461798D01*
%TO.N,Net-(Q1-Pad1)*%
X141415000Y-93345000D02*
X142240000Y-94170000D01*
X140080000Y-93345000D02*
X141415000Y-93345000D01*
X143324014Y-94165990D02*
X144775990Y-94165990D01*
X144775990Y-94165990D02*
X144780000Y-94170000D01*
X143320004Y-94170000D02*
X143324014Y-94165990D01*
X142240000Y-94170000D02*
X143320004Y-94170000D01*
%TO.N,+12V*%
X154990800Y-102235000D02*
X156210000Y-102235000D01*
X151949990Y-97974990D02*
X152400000Y-98425000D01*
X151949990Y-96999990D02*
X151949990Y-97974990D01*
X150835000Y-95885000D02*
X151949990Y-96999990D01*
X149860000Y-95885000D02*
X150835000Y-95885000D01*
%TO.N,/Sheet614BBE23/4A*%
X160960000Y-99695000D02*
X158750000Y-101905000D01*
X161697500Y-99695000D02*
X160960000Y-99695000D01*
X160020000Y-98555000D02*
X160020000Y-94385000D01*
X161160000Y-99695000D02*
X160020000Y-98555000D01*
X161697500Y-99695000D02*
X161160000Y-99695000D01*
%TO.N,/Sheet614BBE23/2A*%
X150835000Y-97155000D02*
X149860000Y-97155000D01*
X149809200Y-104775000D02*
X150910100Y-104775000D01*
X150910100Y-104775000D02*
X151160010Y-104525090D01*
X151160010Y-104525090D02*
X151160010Y-104525090D01*
X151160010Y-97480010D02*
X150835000Y-97155000D01*
%TO.N,-12V*%
X149860000Y-116840000D02*
X149860000Y-117475000D01*
X149860000Y-117475000D02*
X149860000Y-117475000D01*
X155575000Y-95885000D02*
X154810000Y-95885000D01*
X157480000Y-97790000D02*
X155575000Y-95885000D01*
%TO.N,+12V*%
X154940000Y-111125000D02*
X154940000Y-112900000D01*
X155575000Y-135255000D02*
X158750000Y-132080000D01*
X155575000Y-135255000D02*
X155575000Y-137795000D01*
X145925000Y-100455000D02*
X146050000Y-100330000D01*
X144140000Y-100455000D02*
X145925000Y-100455000D01*
X142915999Y-101679001D02*
X144140000Y-100455000D01*
X141580799Y-101679001D02*
X142915999Y-101679001D01*
X139380000Y-99478202D02*
X141580799Y-101679001D01*
X139380000Y-97155000D02*
X139380000Y-99478202D01*
%TO.N,Net-(Q5-Pad1)*%
X139825000Y-123825000D02*
X140970000Y-124970000D01*
X139255000Y-123825000D02*
X139825000Y-123825000D01*
X143510000Y-124970000D02*
X140970000Y-124970000D01*
%TO.N,Net-(R1-Pad2)*%
X137160000Y-93345000D02*
X138430000Y-93345000D01*
%TO.N,CV1*%
X153035000Y-80475000D02*
X147955000Y-85555000D01*
X153035000Y-79375000D02*
X153035000Y-80475000D01*
X147955000Y-85555000D02*
X147955000Y-88810999D01*
X144780000Y-92520000D02*
X145225000Y-92520000D01*
X145225000Y-92520000D02*
X146050000Y-93345000D01*
X146050000Y-93345000D02*
X146050000Y-93345000D01*
X147955000Y-88810999D02*
X147955000Y-89535000D01*
%TO.N,Net-(R4-Pad2)*%
X134620000Y-116205000D02*
X134620000Y-113665000D01*
X134620000Y-112395000D02*
X134620000Y-113665000D01*
X138430000Y-108585000D02*
X134620000Y-112395000D01*
X139195000Y-108585000D02*
X138430000Y-108585000D01*
%TO.N,CV4*%
X160655000Y-79375000D02*
X160655000Y-81280000D01*
X160655000Y-81280000D02*
X161290000Y-81915000D01*
X161290000Y-81915000D02*
X164465000Y-81915000D01*
X165100000Y-82550000D02*
X165100000Y-90300000D01*
X164465000Y-81915000D02*
X165100000Y-82550000D01*
%TO.N,Net-(R6-Pad2)*%
X142685000Y-107315000D02*
X142240000Y-107760000D01*
X143510000Y-107315000D02*
X142685000Y-107315000D01*
%TO.N,Net-(R7-Pad2)*%
X137605000Y-123825000D02*
X135890000Y-123825000D01*
%TO.N,CV2*%
X144780000Y-107760000D02*
X145605000Y-107760000D01*
X145605000Y-107760000D02*
X146050000Y-107315000D01*
X146050000Y-107315000D02*
X146050000Y-107315000D01*
%TO.N,Net-(R12-Pad2)*%
X163830000Y-88265000D02*
X163830000Y-88265000D01*
X163830000Y-89030000D02*
X162560000Y-90300000D01*
X163830000Y-88265000D02*
X163830000Y-89030000D01*
%TO.N,CV3*%
X132900990Y-118904980D02*
X132900990Y-95699010D01*
X134810020Y-120814010D02*
X132900990Y-118904980D01*
X141570532Y-120814010D02*
X134810020Y-120814010D01*
X143510000Y-122753478D02*
X141570532Y-120814010D01*
X143510000Y-123320000D02*
X143510000Y-122753478D01*
X132900990Y-95699010D02*
X132900990Y-95699010D01*
X150495000Y-83889315D02*
X153104315Y-81280000D01*
X150495000Y-84455000D02*
X150495000Y-83889315D01*
X156210000Y-81280000D02*
X158115000Y-79375000D01*
X153104315Y-81280000D02*
X156210000Y-81280000D01*
%TO.N,OUT6*%
X153165000Y-126365000D02*
X153165000Y-130175000D01*
X153165000Y-130175000D02*
X153165000Y-132210000D01*
X153165000Y-132210000D02*
X153670000Y-132715000D01*
X153670000Y-132715000D02*
X153670000Y-132715000D01*
%TO.N,OUT5*%
X150685000Y-129855000D02*
X150365000Y-130175000D01*
X150685000Y-126365000D02*
X150685000Y-129855000D01*
X144240999Y-78200999D02*
X145415000Y-79375000D01*
X134145799Y-78200999D02*
X144240999Y-78200999D01*
X132176989Y-80169809D02*
X134145799Y-78200999D01*
X135556946Y-135682028D02*
X132176989Y-132302071D01*
X144857972Y-135682028D02*
X135556946Y-135682028D01*
X132176989Y-132302071D02*
X132176989Y-80169809D01*
X150365000Y-130175000D02*
X144857972Y-135682028D01*
%TO.N,OUT1*%
X135890000Y-86170000D02*
X136715000Y-86995000D01*
X135890000Y-85725000D02*
X135890000Y-86170000D01*
X136715000Y-86995000D02*
X136715000Y-88265000D01*
X136961522Y-85725000D02*
X138430000Y-84256522D01*
X135890000Y-85725000D02*
X136961522Y-85725000D01*
X138430000Y-82550000D02*
X135255000Y-79375000D01*
X138430000Y-84256522D02*
X138430000Y-82550000D01*
%TO.N,OUT4*%
X164210000Y-84455000D02*
X164210000Y-86995000D01*
X164210000Y-83440000D02*
X164210000Y-83440000D01*
X164210000Y-83185000D02*
X164210000Y-84455000D01*
%TO.N,OUT2*%
X145225000Y-86615000D02*
X146875000Y-88265000D01*
X145225000Y-86105000D02*
X145225000Y-86615000D01*
X148044001Y-84107479D02*
X147121522Y-83185000D01*
X148044001Y-84802521D02*
X148044001Y-84107479D01*
X146741522Y-86105000D02*
X148044001Y-84802521D01*
X145225000Y-86105000D02*
X146741522Y-86105000D01*
X147121522Y-83185000D02*
X140335000Y-83185000D01*
X137795000Y-80645000D02*
X137795000Y-79375000D01*
X140335000Y-83185000D02*
X137795000Y-80645000D01*
%TO.N,OUT3*%
X154940000Y-86995000D02*
X156210000Y-88265000D01*
X154940000Y-86550000D02*
X154940000Y-86995000D01*
X154940000Y-86550000D02*
X155765000Y-86550000D01*
X155765000Y-86550000D02*
X156210000Y-86995000D01*
X156210000Y-86995000D02*
X156210000Y-86995000D01*
%TO.N,+12V*%
X140845000Y-112270000D02*
X140970000Y-112395000D01*
X140245999Y-111670999D02*
X140970000Y-112395000D01*
X136990799Y-111670999D02*
X140245999Y-111670999D01*
X136210000Y-112451798D02*
X136990799Y-111670999D01*
X136210000Y-116435000D02*
X136210000Y-112451798D01*
X141260799Y-116919001D02*
X144065999Y-116919001D01*
X140970000Y-116628202D02*
X141260799Y-116919001D01*
X140970000Y-112395000D02*
X140970000Y-116628202D01*
X143190000Y-131825000D02*
X143765000Y-131825000D01*
X144780000Y-130810000D02*
X144780000Y-127635000D01*
X143765000Y-131825000D02*
X144780000Y-130810000D01*
X143180000Y-131825000D02*
X143190000Y-131825000D01*
X138760000Y-127405000D02*
X143180000Y-131825000D01*
X138110000Y-127405000D02*
X138760000Y-127405000D01*
X144065999Y-116919001D02*
X144780000Y-116205000D01*
X159070000Y-98105000D02*
X157480000Y-99695000D01*
X159070000Y-97385000D02*
X159070000Y-98105000D01*
%TO.N,GND*%
X161835000Y-96520000D02*
X160970000Y-97385000D01*
X162560000Y-96520000D02*
X161835000Y-96520000D01*
X160970000Y-128270000D02*
X162560000Y-128270000D01*
%TO.N,/Sheet614BBE23/4A*%
X155040000Y-94385000D02*
X154810000Y-94615000D01*
X160020000Y-94385000D02*
X155040000Y-94385000D01*
%TO.N,/Sheet614BBE23/5A*%
X158522500Y-121285000D02*
X158953750Y-120853750D01*
X158115000Y-121285000D02*
X158522500Y-121285000D01*
X155575000Y-106045000D02*
X154990800Y-106045000D01*
X157480000Y-107950000D02*
X155575000Y-106045000D01*
X158115000Y-123365000D02*
X160020000Y-125270000D01*
X158115000Y-121285000D02*
X158115000Y-123365000D01*
X158953750Y-120853750D02*
X160427500Y-119380000D01*
%TO.N,/Sheet614BBE23/6A*%
X157480000Y-114847500D02*
X155487500Y-116840000D01*
X156091700Y-103505000D02*
X154990800Y-103505000D01*
X159266700Y-106680000D02*
X156091700Y-103505000D01*
X160020000Y-106680000D02*
X159266700Y-106680000D01*
X160819010Y-111508490D02*
X157480000Y-114847500D01*
X160819010Y-107479010D02*
X160819010Y-111508490D01*
X160020000Y-106680000D02*
X160819010Y-107479010D01*
X160819010Y-112559010D02*
X160819010Y-111508490D01*
X162560000Y-114300000D02*
X160819010Y-112559010D01*
%TO.N,Net-(C12-Pad1)*%
X154810000Y-114300000D02*
X154810000Y-115570000D01*
X153215000Y-116190000D02*
X153215000Y-120015000D01*
X153835000Y-115570000D02*
X153215000Y-116190000D01*
X154810000Y-115570000D02*
X153835000Y-115570000D01*
%TO.N,/Sheet614BBE23/5Y*%
X156305989Y-111550989D02*
X156305989Y-111550989D01*
%TO.N,-12V*%
X165100000Y-97085685D02*
X165100000Y-97535000D01*
X161290000Y-93275685D02*
X165100000Y-97085685D01*
X161290000Y-92710000D02*
X161290000Y-93275685D01*
X165100000Y-134620000D02*
X165735000Y-135255000D01*
X165100000Y-128905000D02*
X165100000Y-134620000D01*
X162560000Y-126365000D02*
X162560000Y-124460000D01*
X165100000Y-128905000D02*
X162560000Y-126365000D01*
%TO.N,/Sheet614BBE23/5Y*%
X157480000Y-119075000D02*
X158115000Y-119710000D01*
X157480000Y-118110000D02*
X157480000Y-119075000D01*
%TO.N,/Sheet614BBE23/6Y*%
X159571700Y-108255000D02*
X156091700Y-104775000D01*
X160020000Y-108255000D02*
X159571700Y-108255000D01*
%TO.N,GND*%
X162152500Y-119380000D02*
X163830000Y-119380000D01*
X161290000Y-110980000D02*
X161610000Y-111300000D01*
X161290000Y-106680000D02*
X161290000Y-110980000D01*
X157480000Y-111760000D02*
X157480000Y-113122500D01*
%TO.N,/Sheet614BBE23/3A*%
X155785000Y-97155000D02*
X154810000Y-97155000D01*
X139245000Y-133985000D02*
X140044010Y-134784010D01*
X148020000Y-107315000D02*
X151130000Y-107315000D01*
X142710990Y-134784010D02*
X146050000Y-131445000D01*
X146050000Y-109285000D02*
X148020000Y-107315000D01*
X151130000Y-107315000D02*
X152400000Y-106045000D01*
X152400000Y-106045000D02*
X152400000Y-101600000D01*
X140044010Y-134784010D02*
X142710990Y-134784010D01*
X155186768Y-100965000D02*
X156110010Y-100041758D01*
X146050000Y-131445000D02*
X146050000Y-109285000D01*
X152400000Y-101600000D02*
X153035000Y-100965000D01*
X153035000Y-100965000D02*
X155186768Y-100965000D01*
X156110010Y-100041758D02*
X156110010Y-97480010D01*
X156110010Y-97480010D02*
X155785000Y-97155000D01*
%TO.N,Net-(C12-Pad2)*%
X154765000Y-120015000D02*
X154765000Y-120955000D01*
%TO.N,/Sheet614BBE23/4Y*%
X152849010Y-102049010D02*
X153450520Y-101447500D01*
X152850010Y-102050010D02*
X152849010Y-102049010D01*
X158597500Y-100330000D02*
X158750000Y-100330000D01*
X157480000Y-101447500D02*
X158597500Y-100330000D01*
X152850010Y-108618112D02*
X152850010Y-102050010D01*
X153450520Y-101447500D02*
X157480000Y-101447500D01*
X154086898Y-109855000D02*
X152850010Y-108618112D01*
X154990800Y-109855000D02*
X154086898Y-109855000D01*
%TO.N,-12V*%
X166370000Y-111760000D02*
X165100000Y-113030000D01*
X167640000Y-111760000D02*
X166370000Y-111760000D01*
X165100000Y-99349098D02*
X163830000Y-100619098D01*
X165100000Y-97535000D02*
X165100000Y-99349098D01*
X163830000Y-100619098D02*
X163830000Y-106680000D01*
X163830000Y-106680000D02*
X163830000Y-106680000D01*
%TO.N,+12V*%
X163830000Y-93915000D02*
X164150000Y-94235000D01*
X163830000Y-92710000D02*
X163830000Y-93915000D01*
X166709201Y-126829001D02*
X168590000Y-124948202D01*
X165374001Y-126829001D02*
X166709201Y-126829001D01*
X168590000Y-124948202D02*
X168590000Y-124780000D01*
X164150000Y-125605000D02*
X165374001Y-126829001D01*
X158750000Y-128590000D02*
X159070000Y-128270000D01*
X158750000Y-132080000D02*
X158750000Y-128590000D01*
X168590000Y-115060000D02*
X168590000Y-115890000D01*
X168590000Y-115890000D02*
X167640000Y-116840000D01*
X166586798Y-116840000D02*
X167640000Y-116840000D01*
X163510000Y-113763202D02*
X166586798Y-116840000D01*
X163510000Y-111300000D02*
X163510000Y-113763202D01*
%TO.N,Net-(R10-Pad2)*%
X157480000Y-91440000D02*
X157480000Y-92075000D01*
%TO.N,CV5*%
X170180000Y-86449005D02*
X170180000Y-115899201D01*
X163195000Y-80010004D02*
X169634001Y-86449005D01*
X163195000Y-79375000D02*
X163195000Y-80010004D01*
X166153202Y-119925999D02*
X170180000Y-115899201D01*
X164974001Y-119925999D02*
X166153202Y-119925999D01*
X163170000Y-121730000D02*
X164974001Y-119925999D01*
X170180000Y-86449005D02*
X169634001Y-86449005D01*
%TO.N,Net-(R13-Pad2)*%
X161290000Y-121540000D02*
X160400000Y-121540000D01*
X160400000Y-121540000D02*
X160020000Y-121920000D01*
X160020000Y-121920000D02*
X160020000Y-121920000D01*
%TO.N,Net-(R16-Pad2)*%
X162560000Y-106680000D02*
X162560000Y-107760000D01*
%TO.N,CV6*%
X165290000Y-107760000D02*
X166370000Y-106680000D01*
X165100000Y-107760000D02*
X165290000Y-107760000D01*
%TO.N,Net-(R18-Pad2)*%
X167640000Y-107760000D02*
X168720000Y-107760000D01*
X168720000Y-107760000D02*
X168720000Y-107760000D01*
%TO.N,Net-(Q3-Pad1)*%
X141415000Y-108585000D02*
X142240000Y-109410000D01*
X140845000Y-108585000D02*
X141415000Y-108585000D01*
X144780000Y-109410000D02*
X142240000Y-109410000D01*
%TO.N,Net-(R3-Pad2)*%
X142240000Y-90805000D02*
X142240000Y-92520000D01*
%TO.N,Net-(R9-Pad2)*%
X142240000Y-122555000D02*
X142240000Y-122555000D01*
X141735000Y-122555000D02*
X140970000Y-123320000D01*
X142240000Y-122555000D02*
X141735000Y-122555000D01*
%TO.N,Net-(R15-Pad2)*%
X166180000Y-120650000D02*
X165100000Y-121730000D01*
X166370000Y-120650000D02*
X166180000Y-120650000D01*
%TO.N,Net-(Q1-Pad1)*%
X142240000Y-94170000D02*
X142240000Y-100455000D01*
%TO.N,Net-(Q3-Pad1)*%
X142870000Y-110040000D02*
X142870000Y-112395000D01*
X142240000Y-109410000D02*
X142870000Y-110040000D01*
%TO.N,Net-(Q5-Pad1)*%
X140023478Y-124970000D02*
X140970000Y-124970000D01*
X137762797Y-125819001D02*
X139174477Y-125819001D01*
X137385999Y-126195799D02*
X137762797Y-125819001D01*
X139174477Y-125819001D02*
X140023478Y-124970000D01*
X137385999Y-128614201D02*
X137385999Y-126195799D01*
X137450799Y-128679001D02*
X137385999Y-128614201D01*
X138144001Y-128679001D02*
X137450799Y-128679001D01*
X141290000Y-131825000D02*
X138144001Y-128679001D01*
%TO.N,Net-(Q7-Pad1)*%
X165100000Y-93285000D02*
X166050000Y-94235000D01*
X165100000Y-91950000D02*
X165100000Y-93285000D01*
X162560000Y-91950000D02*
X163320000Y-91950000D01*
X163320000Y-91950000D02*
X165100000Y-91950000D01*
X159130000Y-92075000D02*
X159385000Y-92075000D01*
X159385000Y-92075000D02*
X160020000Y-91440000D01*
X160020000Y-91440000D02*
X162560000Y-91440000D01*
X162560000Y-91440000D02*
X162560000Y-91950000D01*
%TO.N,Net-(Q9-Pad1)*%
X165100000Y-124655000D02*
X166050000Y-125605000D01*
X165100000Y-123380000D02*
X165100000Y-124655000D01*
X163170000Y-123380000D02*
X165100000Y-123380000D01*
X162980000Y-123190000D02*
X163170000Y-123380000D01*
X161290000Y-123190000D02*
X162980000Y-123190000D01*
%TO.N,Net-(Q11-Pad1)*%
X168364001Y-113385999D02*
X166690000Y-115060000D01*
X168364001Y-110134001D02*
X168364001Y-113385999D01*
X167640000Y-109410000D02*
X168364001Y-110134001D01*
X167640000Y-109410000D02*
X165100000Y-109410000D01*
X165100000Y-109410000D02*
X162560000Y-109410000D01*
%TD*%
M02*
