%TF.GenerationSoftware,KiCad,Pcbnew,5.1.10-88a1d61d58~90~ubuntu20.10.1*%
%TF.CreationDate,2021-11-01T20:20:40-04:00*%
%TF.ProjectId,vco,76636f2e-6b69-4636-9164-5f7063625858,rev?*%
%TF.SameCoordinates,Original*%
%TF.FileFunction,Legend,Bot*%
%TF.FilePolarity,Positive*%
%FSLAX46Y46*%
G04 Gerber Fmt 4.6, Leading zero omitted, Abs format (unit mm)*
G04 Created by KiCad (PCBNEW 5.1.10-88a1d61d58~90~ubuntu20.10.1) date 2021-11-01 20:20:40*
%MOMM*%
%LPD*%
G01*
G04 APERTURE LIST*
%ADD10C,0.200000*%
%ADD11C,0.127000*%
%ADD12C,0.050000*%
G04 APERTURE END LIST*
D10*
%TO.C,RV7*%
X161230000Y-93015000D02*
G75*
G03*
X161230000Y-93015000I-50000J0D01*
G01*
D11*
X158585000Y-98865000D02*
X157650000Y-98865000D01*
X157650000Y-98865000D02*
X157650000Y-94365000D01*
X157650000Y-94365000D02*
X157750000Y-94365000D01*
X162050000Y-94365000D02*
X162150000Y-94365000D01*
X162150000Y-94365000D02*
X162150000Y-98865000D01*
X162150000Y-98865000D02*
X161215000Y-98865000D01*
D10*
%TO.C,RV11*%
X163770000Y-108255000D02*
G75*
G03*
X163770000Y-108255000I-50000J0D01*
G01*
D11*
X161125000Y-114105000D02*
X160190000Y-114105000D01*
X160190000Y-114105000D02*
X160190000Y-109605000D01*
X160190000Y-109605000D02*
X160290000Y-109605000D01*
X164590000Y-109605000D02*
X164690000Y-109605000D01*
X164690000Y-109605000D02*
X164690000Y-114105000D01*
X164690000Y-114105000D02*
X163755000Y-114105000D01*
D10*
%TO.C,RV1*%
X138490000Y-95555000D02*
G75*
G03*
X138490000Y-95555000I-50000J0D01*
G01*
D11*
X135845000Y-101405000D02*
X134910000Y-101405000D01*
X134910000Y-101405000D02*
X134910000Y-96905000D01*
X134910000Y-96905000D02*
X135010000Y-96905000D01*
X139310000Y-96905000D02*
X139410000Y-96905000D01*
X139410000Y-96905000D02*
X139410000Y-101405000D01*
X139410000Y-101405000D02*
X138475000Y-101405000D01*
D10*
%TO.C,RV12*%
X168850000Y-108255000D02*
G75*
G03*
X168850000Y-108255000I-50000J0D01*
G01*
D11*
X166205000Y-114105000D02*
X165270000Y-114105000D01*
X165270000Y-114105000D02*
X165270000Y-109605000D01*
X165270000Y-109605000D02*
X165370000Y-109605000D01*
X169670000Y-109605000D02*
X169770000Y-109605000D01*
X169770000Y-109605000D02*
X169770000Y-114105000D01*
X169770000Y-114105000D02*
X168835000Y-114105000D01*
D10*
%TO.C,RV10*%
X166310000Y-123495000D02*
G75*
G03*
X166310000Y-123495000I-50000J0D01*
G01*
D11*
X163665000Y-129345000D02*
X162730000Y-129345000D01*
X162730000Y-129345000D02*
X162730000Y-124845000D01*
X162730000Y-124845000D02*
X162830000Y-124845000D01*
X167130000Y-124845000D02*
X167230000Y-124845000D01*
X167230000Y-124845000D02*
X167230000Y-129345000D01*
X167230000Y-129345000D02*
X166295000Y-129345000D01*
D10*
%TO.C,RV9*%
X161230000Y-123940000D02*
G75*
G03*
X161230000Y-123940000I-50000J0D01*
G01*
D11*
X158585000Y-129790000D02*
X157650000Y-129790000D01*
X157650000Y-129790000D02*
X157650000Y-125290000D01*
X157650000Y-125290000D02*
X157750000Y-125290000D01*
X162050000Y-125290000D02*
X162150000Y-125290000D01*
X162150000Y-125290000D02*
X162150000Y-129790000D01*
X162150000Y-129790000D02*
X161215000Y-129790000D01*
D10*
%TO.C,RV8*%
X166310000Y-93015000D02*
G75*
G03*
X166310000Y-93015000I-50000J0D01*
G01*
D11*
X163665000Y-98865000D02*
X162730000Y-98865000D01*
X162730000Y-98865000D02*
X162730000Y-94365000D01*
X162730000Y-94365000D02*
X162830000Y-94365000D01*
X167130000Y-94365000D02*
X167230000Y-94365000D01*
X167230000Y-94365000D02*
X167230000Y-98865000D01*
X167230000Y-98865000D02*
X166295000Y-98865000D01*
D10*
%TO.C,RV6*%
X143450000Y-126035000D02*
G75*
G03*
X143450000Y-126035000I-50000J0D01*
G01*
D11*
X140805000Y-131885000D02*
X139870000Y-131885000D01*
X139870000Y-131885000D02*
X139870000Y-127385000D01*
X139870000Y-127385000D02*
X139970000Y-127385000D01*
X144270000Y-127385000D02*
X144370000Y-127385000D01*
X144370000Y-127385000D02*
X144370000Y-131885000D01*
X144370000Y-131885000D02*
X143435000Y-131885000D01*
D10*
%TO.C,RV5*%
X138490000Y-126035000D02*
G75*
G03*
X138490000Y-126035000I-50000J0D01*
G01*
D11*
X135845000Y-131885000D02*
X134910000Y-131885000D01*
X134910000Y-131885000D02*
X134910000Y-127385000D01*
X134910000Y-127385000D02*
X135010000Y-127385000D01*
X139310000Y-127385000D02*
X139410000Y-127385000D01*
X139410000Y-127385000D02*
X139410000Y-131885000D01*
X139410000Y-131885000D02*
X138475000Y-131885000D01*
D10*
%TO.C,RV4*%
X143450000Y-110795000D02*
G75*
G03*
X143450000Y-110795000I-50000J0D01*
G01*
D11*
X140805000Y-116645000D02*
X139870000Y-116645000D01*
X139870000Y-116645000D02*
X139870000Y-112145000D01*
X139870000Y-112145000D02*
X139970000Y-112145000D01*
X144270000Y-112145000D02*
X144370000Y-112145000D01*
X144370000Y-112145000D02*
X144370000Y-116645000D01*
X144370000Y-116645000D02*
X143435000Y-116645000D01*
D10*
%TO.C,RV3*%
X138370000Y-110795000D02*
G75*
G03*
X138370000Y-110795000I-50000J0D01*
G01*
D11*
X135725000Y-116645000D02*
X134790000Y-116645000D01*
X134790000Y-116645000D02*
X134790000Y-112145000D01*
X134790000Y-112145000D02*
X134890000Y-112145000D01*
X139190000Y-112145000D02*
X139290000Y-112145000D01*
X139290000Y-112145000D02*
X139290000Y-116645000D01*
X139290000Y-116645000D02*
X138355000Y-116645000D01*
D10*
%TO.C,RV2*%
X144840000Y-95555000D02*
G75*
G03*
X144840000Y-95555000I-50000J0D01*
G01*
D11*
X142195000Y-101405000D02*
X141260000Y-101405000D01*
X141260000Y-101405000D02*
X141260000Y-96905000D01*
X141260000Y-96905000D02*
X141360000Y-96905000D01*
X145660000Y-96905000D02*
X145760000Y-96905000D01*
X145760000Y-96905000D02*
X145760000Y-101405000D01*
X145760000Y-101405000D02*
X144825000Y-101405000D01*
%TO.C,RV7*%
D12*
X160495238Y-101512380D02*
X160828571Y-101036190D01*
X161066666Y-101512380D02*
X161066666Y-100512380D01*
X160685714Y-100512380D01*
X160590476Y-100560000D01*
X160542857Y-100607619D01*
X160495238Y-100702857D01*
X160495238Y-100845714D01*
X160542857Y-100940952D01*
X160590476Y-100988571D01*
X160685714Y-101036190D01*
X161066666Y-101036190D01*
X160209523Y-100512380D02*
X159876190Y-101512380D01*
X159542857Y-100512380D01*
X159304761Y-100512380D02*
X158638095Y-100512380D01*
X159066666Y-101512380D01*
X161606428Y-92622380D02*
X162177857Y-92622380D01*
X161892142Y-92622380D02*
X161892142Y-91622380D01*
X161987380Y-91765238D01*
X162082619Y-91860476D01*
X162177857Y-91908095D01*
X160987380Y-91622380D02*
X160892142Y-91622380D01*
X160796904Y-91670000D01*
X160749285Y-91717619D01*
X160701666Y-91812857D01*
X160654047Y-92003333D01*
X160654047Y-92241428D01*
X160701666Y-92431904D01*
X160749285Y-92527142D01*
X160796904Y-92574761D01*
X160892142Y-92622380D01*
X160987380Y-92622380D01*
X161082619Y-92574761D01*
X161130238Y-92527142D01*
X161177857Y-92431904D01*
X161225476Y-92241428D01*
X161225476Y-92003333D01*
X161177857Y-91812857D01*
X161130238Y-91717619D01*
X161082619Y-91670000D01*
X160987380Y-91622380D01*
X160035000Y-91622380D02*
X159939761Y-91622380D01*
X159844523Y-91670000D01*
X159796904Y-91717619D01*
X159749285Y-91812857D01*
X159701666Y-92003333D01*
X159701666Y-92241428D01*
X159749285Y-92431904D01*
X159796904Y-92527142D01*
X159844523Y-92574761D01*
X159939761Y-92622380D01*
X160035000Y-92622380D01*
X160130238Y-92574761D01*
X160177857Y-92527142D01*
X160225476Y-92431904D01*
X160273095Y-92241428D01*
X160273095Y-92003333D01*
X160225476Y-91812857D01*
X160177857Y-91717619D01*
X160130238Y-91670000D01*
X160035000Y-91622380D01*
X159273095Y-92622380D02*
X159273095Y-91622380D01*
X159177857Y-92241428D02*
X158892142Y-92622380D01*
X158892142Y-91955714D02*
X159273095Y-92336666D01*
%TO.C,RV11*%
X163511428Y-116752380D02*
X163844761Y-116276190D01*
X164082857Y-116752380D02*
X164082857Y-115752380D01*
X163701904Y-115752380D01*
X163606666Y-115800000D01*
X163559047Y-115847619D01*
X163511428Y-115942857D01*
X163511428Y-116085714D01*
X163559047Y-116180952D01*
X163606666Y-116228571D01*
X163701904Y-116276190D01*
X164082857Y-116276190D01*
X163225714Y-115752380D02*
X162892380Y-116752380D01*
X162559047Y-115752380D01*
X161701904Y-116752380D02*
X162273333Y-116752380D01*
X161987619Y-116752380D02*
X161987619Y-115752380D01*
X162082857Y-115895238D01*
X162178095Y-115990476D01*
X162273333Y-116038095D01*
X160749523Y-116752380D02*
X161320952Y-116752380D01*
X161035238Y-116752380D02*
X161035238Y-115752380D01*
X161130476Y-115895238D01*
X161225714Y-115990476D01*
X161320952Y-116038095D01*
X164146428Y-107862380D02*
X164717857Y-107862380D01*
X164432142Y-107862380D02*
X164432142Y-106862380D01*
X164527380Y-107005238D01*
X164622619Y-107100476D01*
X164717857Y-107148095D01*
X163527380Y-106862380D02*
X163432142Y-106862380D01*
X163336904Y-106910000D01*
X163289285Y-106957619D01*
X163241666Y-107052857D01*
X163194047Y-107243333D01*
X163194047Y-107481428D01*
X163241666Y-107671904D01*
X163289285Y-107767142D01*
X163336904Y-107814761D01*
X163432142Y-107862380D01*
X163527380Y-107862380D01*
X163622619Y-107814761D01*
X163670238Y-107767142D01*
X163717857Y-107671904D01*
X163765476Y-107481428D01*
X163765476Y-107243333D01*
X163717857Y-107052857D01*
X163670238Y-106957619D01*
X163622619Y-106910000D01*
X163527380Y-106862380D01*
X162575000Y-106862380D02*
X162479761Y-106862380D01*
X162384523Y-106910000D01*
X162336904Y-106957619D01*
X162289285Y-107052857D01*
X162241666Y-107243333D01*
X162241666Y-107481428D01*
X162289285Y-107671904D01*
X162336904Y-107767142D01*
X162384523Y-107814761D01*
X162479761Y-107862380D01*
X162575000Y-107862380D01*
X162670238Y-107814761D01*
X162717857Y-107767142D01*
X162765476Y-107671904D01*
X162813095Y-107481428D01*
X162813095Y-107243333D01*
X162765476Y-107052857D01*
X162717857Y-106957619D01*
X162670238Y-106910000D01*
X162575000Y-106862380D01*
X161813095Y-107862380D02*
X161813095Y-106862380D01*
X161717857Y-107481428D02*
X161432142Y-107862380D01*
X161432142Y-107195714D02*
X161813095Y-107576666D01*
%TO.C,RV1*%
X135215238Y-95257380D02*
X135548571Y-94781190D01*
X135786666Y-95257380D02*
X135786666Y-94257380D01*
X135405714Y-94257380D01*
X135310476Y-94305000D01*
X135262857Y-94352619D01*
X135215238Y-94447857D01*
X135215238Y-94590714D01*
X135262857Y-94685952D01*
X135310476Y-94733571D01*
X135405714Y-94781190D01*
X135786666Y-94781190D01*
X134929523Y-94257380D02*
X134596190Y-95257380D01*
X134262857Y-94257380D01*
X133405714Y-95257380D02*
X133977142Y-95257380D01*
X133691428Y-95257380D02*
X133691428Y-94257380D01*
X133786666Y-94400238D01*
X133881904Y-94495476D01*
X133977142Y-94543095D01*
X138866428Y-95162380D02*
X139437857Y-95162380D01*
X139152142Y-95162380D02*
X139152142Y-94162380D01*
X139247380Y-94305238D01*
X139342619Y-94400476D01*
X139437857Y-94448095D01*
X138247380Y-94162380D02*
X138152142Y-94162380D01*
X138056904Y-94210000D01*
X138009285Y-94257619D01*
X137961666Y-94352857D01*
X137914047Y-94543333D01*
X137914047Y-94781428D01*
X137961666Y-94971904D01*
X138009285Y-95067142D01*
X138056904Y-95114761D01*
X138152142Y-95162380D01*
X138247380Y-95162380D01*
X138342619Y-95114761D01*
X138390238Y-95067142D01*
X138437857Y-94971904D01*
X138485476Y-94781428D01*
X138485476Y-94543333D01*
X138437857Y-94352857D01*
X138390238Y-94257619D01*
X138342619Y-94210000D01*
X138247380Y-94162380D01*
X137295000Y-94162380D02*
X137199761Y-94162380D01*
X137104523Y-94210000D01*
X137056904Y-94257619D01*
X137009285Y-94352857D01*
X136961666Y-94543333D01*
X136961666Y-94781428D01*
X137009285Y-94971904D01*
X137056904Y-95067142D01*
X137104523Y-95114761D01*
X137199761Y-95162380D01*
X137295000Y-95162380D01*
X137390238Y-95114761D01*
X137437857Y-95067142D01*
X137485476Y-94971904D01*
X137533095Y-94781428D01*
X137533095Y-94543333D01*
X137485476Y-94352857D01*
X137437857Y-94257619D01*
X137390238Y-94210000D01*
X137295000Y-94162380D01*
X136533095Y-95162380D02*
X136533095Y-94162380D01*
X136437857Y-94781428D02*
X136152142Y-95162380D01*
X136152142Y-94495714D02*
X136533095Y-94876666D01*
%TO.C,RV12*%
X168591428Y-116752380D02*
X168924761Y-116276190D01*
X169162857Y-116752380D02*
X169162857Y-115752380D01*
X168781904Y-115752380D01*
X168686666Y-115800000D01*
X168639047Y-115847619D01*
X168591428Y-115942857D01*
X168591428Y-116085714D01*
X168639047Y-116180952D01*
X168686666Y-116228571D01*
X168781904Y-116276190D01*
X169162857Y-116276190D01*
X168305714Y-115752380D02*
X167972380Y-116752380D01*
X167639047Y-115752380D01*
X166781904Y-116752380D02*
X167353333Y-116752380D01*
X167067619Y-116752380D02*
X167067619Y-115752380D01*
X167162857Y-115895238D01*
X167258095Y-115990476D01*
X167353333Y-116038095D01*
X166400952Y-115847619D02*
X166353333Y-115800000D01*
X166258095Y-115752380D01*
X166020000Y-115752380D01*
X165924761Y-115800000D01*
X165877142Y-115847619D01*
X165829523Y-115942857D01*
X165829523Y-116038095D01*
X165877142Y-116180952D01*
X166448571Y-116752380D01*
X165829523Y-116752380D01*
X168274047Y-107862380D02*
X168845476Y-107862380D01*
X168559761Y-107862380D02*
X168559761Y-106862380D01*
X168655000Y-107005238D01*
X168750238Y-107100476D01*
X168845476Y-107148095D01*
X167845476Y-107862380D02*
X167845476Y-106862380D01*
X167750238Y-107481428D02*
X167464523Y-107862380D01*
X167464523Y-107195714D02*
X167845476Y-107576666D01*
%TO.C,RV10*%
X166051428Y-131992380D02*
X166384761Y-131516190D01*
X166622857Y-131992380D02*
X166622857Y-130992380D01*
X166241904Y-130992380D01*
X166146666Y-131040000D01*
X166099047Y-131087619D01*
X166051428Y-131182857D01*
X166051428Y-131325714D01*
X166099047Y-131420952D01*
X166146666Y-131468571D01*
X166241904Y-131516190D01*
X166622857Y-131516190D01*
X165765714Y-130992380D02*
X165432380Y-131992380D01*
X165099047Y-130992380D01*
X164241904Y-131992380D02*
X164813333Y-131992380D01*
X164527619Y-131992380D02*
X164527619Y-130992380D01*
X164622857Y-131135238D01*
X164718095Y-131230476D01*
X164813333Y-131278095D01*
X163622857Y-130992380D02*
X163527619Y-130992380D01*
X163432380Y-131040000D01*
X163384761Y-131087619D01*
X163337142Y-131182857D01*
X163289523Y-131373333D01*
X163289523Y-131611428D01*
X163337142Y-131801904D01*
X163384761Y-131897142D01*
X163432380Y-131944761D01*
X163527619Y-131992380D01*
X163622857Y-131992380D01*
X163718095Y-131944761D01*
X163765714Y-131897142D01*
X163813333Y-131801904D01*
X163860952Y-131611428D01*
X163860952Y-131373333D01*
X163813333Y-131182857D01*
X163765714Y-131087619D01*
X163718095Y-131040000D01*
X163622857Y-130992380D01*
X165734047Y-123102380D02*
X166305476Y-123102380D01*
X166019761Y-123102380D02*
X166019761Y-122102380D01*
X166115000Y-122245238D01*
X166210238Y-122340476D01*
X166305476Y-122388095D01*
X165305476Y-123102380D02*
X165305476Y-122102380D01*
X165210238Y-122721428D02*
X164924523Y-123102380D01*
X164924523Y-122435714D02*
X165305476Y-122816666D01*
%TO.C,RV9*%
X160495238Y-132437380D02*
X160828571Y-131961190D01*
X161066666Y-132437380D02*
X161066666Y-131437380D01*
X160685714Y-131437380D01*
X160590476Y-131485000D01*
X160542857Y-131532619D01*
X160495238Y-131627857D01*
X160495238Y-131770714D01*
X160542857Y-131865952D01*
X160590476Y-131913571D01*
X160685714Y-131961190D01*
X161066666Y-131961190D01*
X160209523Y-131437380D02*
X159876190Y-132437380D01*
X159542857Y-131437380D01*
X159161904Y-132437380D02*
X158971428Y-132437380D01*
X158876190Y-132389761D01*
X158828571Y-132342142D01*
X158733333Y-132199285D01*
X158685714Y-132008809D01*
X158685714Y-131627857D01*
X158733333Y-131532619D01*
X158780952Y-131485000D01*
X158876190Y-131437380D01*
X159066666Y-131437380D01*
X159161904Y-131485000D01*
X159209523Y-131532619D01*
X159257142Y-131627857D01*
X159257142Y-131865952D01*
X159209523Y-131961190D01*
X159161904Y-132008809D01*
X159066666Y-132056428D01*
X158876190Y-132056428D01*
X158780952Y-132008809D01*
X158733333Y-131961190D01*
X158685714Y-131865952D01*
X161606428Y-123547380D02*
X162177857Y-123547380D01*
X161892142Y-123547380D02*
X161892142Y-122547380D01*
X161987380Y-122690238D01*
X162082619Y-122785476D01*
X162177857Y-122833095D01*
X160987380Y-122547380D02*
X160892142Y-122547380D01*
X160796904Y-122595000D01*
X160749285Y-122642619D01*
X160701666Y-122737857D01*
X160654047Y-122928333D01*
X160654047Y-123166428D01*
X160701666Y-123356904D01*
X160749285Y-123452142D01*
X160796904Y-123499761D01*
X160892142Y-123547380D01*
X160987380Y-123547380D01*
X161082619Y-123499761D01*
X161130238Y-123452142D01*
X161177857Y-123356904D01*
X161225476Y-123166428D01*
X161225476Y-122928333D01*
X161177857Y-122737857D01*
X161130238Y-122642619D01*
X161082619Y-122595000D01*
X160987380Y-122547380D01*
X160035000Y-122547380D02*
X159939761Y-122547380D01*
X159844523Y-122595000D01*
X159796904Y-122642619D01*
X159749285Y-122737857D01*
X159701666Y-122928333D01*
X159701666Y-123166428D01*
X159749285Y-123356904D01*
X159796904Y-123452142D01*
X159844523Y-123499761D01*
X159939761Y-123547380D01*
X160035000Y-123547380D01*
X160130238Y-123499761D01*
X160177857Y-123452142D01*
X160225476Y-123356904D01*
X160273095Y-123166428D01*
X160273095Y-122928333D01*
X160225476Y-122737857D01*
X160177857Y-122642619D01*
X160130238Y-122595000D01*
X160035000Y-122547380D01*
X159273095Y-123547380D02*
X159273095Y-122547380D01*
X159177857Y-123166428D02*
X158892142Y-123547380D01*
X158892142Y-122880714D02*
X159273095Y-123261666D01*
%TO.C,RV8*%
X165575238Y-101512380D02*
X165908571Y-101036190D01*
X166146666Y-101512380D02*
X166146666Y-100512380D01*
X165765714Y-100512380D01*
X165670476Y-100560000D01*
X165622857Y-100607619D01*
X165575238Y-100702857D01*
X165575238Y-100845714D01*
X165622857Y-100940952D01*
X165670476Y-100988571D01*
X165765714Y-101036190D01*
X166146666Y-101036190D01*
X165289523Y-100512380D02*
X164956190Y-101512380D01*
X164622857Y-100512380D01*
X164146666Y-100940952D02*
X164241904Y-100893333D01*
X164289523Y-100845714D01*
X164337142Y-100750476D01*
X164337142Y-100702857D01*
X164289523Y-100607619D01*
X164241904Y-100560000D01*
X164146666Y-100512380D01*
X163956190Y-100512380D01*
X163860952Y-100560000D01*
X163813333Y-100607619D01*
X163765714Y-100702857D01*
X163765714Y-100750476D01*
X163813333Y-100845714D01*
X163860952Y-100893333D01*
X163956190Y-100940952D01*
X164146666Y-100940952D01*
X164241904Y-100988571D01*
X164289523Y-101036190D01*
X164337142Y-101131428D01*
X164337142Y-101321904D01*
X164289523Y-101417142D01*
X164241904Y-101464761D01*
X164146666Y-101512380D01*
X163956190Y-101512380D01*
X163860952Y-101464761D01*
X163813333Y-101417142D01*
X163765714Y-101321904D01*
X163765714Y-101131428D01*
X163813333Y-101036190D01*
X163860952Y-100988571D01*
X163956190Y-100940952D01*
X165734047Y-92622380D02*
X166305476Y-92622380D01*
X166019761Y-92622380D02*
X166019761Y-91622380D01*
X166115000Y-91765238D01*
X166210238Y-91860476D01*
X166305476Y-91908095D01*
X165305476Y-92622380D02*
X165305476Y-91622380D01*
X165210238Y-92241428D02*
X164924523Y-92622380D01*
X164924523Y-91955714D02*
X165305476Y-92336666D01*
%TO.C,RV6*%
X142715238Y-134532380D02*
X143048571Y-134056190D01*
X143286666Y-134532380D02*
X143286666Y-133532380D01*
X142905714Y-133532380D01*
X142810476Y-133580000D01*
X142762857Y-133627619D01*
X142715238Y-133722857D01*
X142715238Y-133865714D01*
X142762857Y-133960952D01*
X142810476Y-134008571D01*
X142905714Y-134056190D01*
X143286666Y-134056190D01*
X142429523Y-133532380D02*
X142096190Y-134532380D01*
X141762857Y-133532380D01*
X141000952Y-133532380D02*
X141191428Y-133532380D01*
X141286666Y-133580000D01*
X141334285Y-133627619D01*
X141429523Y-133770476D01*
X141477142Y-133960952D01*
X141477142Y-134341904D01*
X141429523Y-134437142D01*
X141381904Y-134484761D01*
X141286666Y-134532380D01*
X141096190Y-134532380D01*
X141000952Y-134484761D01*
X140953333Y-134437142D01*
X140905714Y-134341904D01*
X140905714Y-134103809D01*
X140953333Y-134008571D01*
X141000952Y-133960952D01*
X141096190Y-133913333D01*
X141286666Y-133913333D01*
X141381904Y-133960952D01*
X141429523Y-134008571D01*
X141477142Y-134103809D01*
X142874047Y-125642380D02*
X143445476Y-125642380D01*
X143159761Y-125642380D02*
X143159761Y-124642380D01*
X143255000Y-124785238D01*
X143350238Y-124880476D01*
X143445476Y-124928095D01*
X142445476Y-125642380D02*
X142445476Y-124642380D01*
X142350238Y-125261428D02*
X142064523Y-125642380D01*
X142064523Y-124975714D02*
X142445476Y-125356666D01*
%TO.C,RV5*%
X137755238Y-134532380D02*
X138088571Y-134056190D01*
X138326666Y-134532380D02*
X138326666Y-133532380D01*
X137945714Y-133532380D01*
X137850476Y-133580000D01*
X137802857Y-133627619D01*
X137755238Y-133722857D01*
X137755238Y-133865714D01*
X137802857Y-133960952D01*
X137850476Y-134008571D01*
X137945714Y-134056190D01*
X138326666Y-134056190D01*
X137469523Y-133532380D02*
X137136190Y-134532380D01*
X136802857Y-133532380D01*
X135993333Y-133532380D02*
X136469523Y-133532380D01*
X136517142Y-134008571D01*
X136469523Y-133960952D01*
X136374285Y-133913333D01*
X136136190Y-133913333D01*
X136040952Y-133960952D01*
X135993333Y-134008571D01*
X135945714Y-134103809D01*
X135945714Y-134341904D01*
X135993333Y-134437142D01*
X136040952Y-134484761D01*
X136136190Y-134532380D01*
X136374285Y-134532380D01*
X136469523Y-134484761D01*
X136517142Y-134437142D01*
X138866428Y-125642380D02*
X139437857Y-125642380D01*
X139152142Y-125642380D02*
X139152142Y-124642380D01*
X139247380Y-124785238D01*
X139342619Y-124880476D01*
X139437857Y-124928095D01*
X138247380Y-124642380D02*
X138152142Y-124642380D01*
X138056904Y-124690000D01*
X138009285Y-124737619D01*
X137961666Y-124832857D01*
X137914047Y-125023333D01*
X137914047Y-125261428D01*
X137961666Y-125451904D01*
X138009285Y-125547142D01*
X138056904Y-125594761D01*
X138152142Y-125642380D01*
X138247380Y-125642380D01*
X138342619Y-125594761D01*
X138390238Y-125547142D01*
X138437857Y-125451904D01*
X138485476Y-125261428D01*
X138485476Y-125023333D01*
X138437857Y-124832857D01*
X138390238Y-124737619D01*
X138342619Y-124690000D01*
X138247380Y-124642380D01*
X137295000Y-124642380D02*
X137199761Y-124642380D01*
X137104523Y-124690000D01*
X137056904Y-124737619D01*
X137009285Y-124832857D01*
X136961666Y-125023333D01*
X136961666Y-125261428D01*
X137009285Y-125451904D01*
X137056904Y-125547142D01*
X137104523Y-125594761D01*
X137199761Y-125642380D01*
X137295000Y-125642380D01*
X137390238Y-125594761D01*
X137437857Y-125547142D01*
X137485476Y-125451904D01*
X137533095Y-125261428D01*
X137533095Y-125023333D01*
X137485476Y-124832857D01*
X137437857Y-124737619D01*
X137390238Y-124690000D01*
X137295000Y-124642380D01*
X136533095Y-125642380D02*
X136533095Y-124642380D01*
X136437857Y-125261428D02*
X136152142Y-125642380D01*
X136152142Y-124975714D02*
X136533095Y-125356666D01*
%TO.C,RV4*%
X142715238Y-119292380D02*
X143048571Y-118816190D01*
X143286666Y-119292380D02*
X143286666Y-118292380D01*
X142905714Y-118292380D01*
X142810476Y-118340000D01*
X142762857Y-118387619D01*
X142715238Y-118482857D01*
X142715238Y-118625714D01*
X142762857Y-118720952D01*
X142810476Y-118768571D01*
X142905714Y-118816190D01*
X143286666Y-118816190D01*
X142429523Y-118292380D02*
X142096190Y-119292380D01*
X141762857Y-118292380D01*
X141000952Y-118625714D02*
X141000952Y-119292380D01*
X141239047Y-118244761D02*
X141477142Y-118959047D01*
X140858095Y-118959047D01*
X142874047Y-110402380D02*
X143445476Y-110402380D01*
X143159761Y-110402380D02*
X143159761Y-109402380D01*
X143255000Y-109545238D01*
X143350238Y-109640476D01*
X143445476Y-109688095D01*
X142445476Y-110402380D02*
X142445476Y-109402380D01*
X142350238Y-110021428D02*
X142064523Y-110402380D01*
X142064523Y-109735714D02*
X142445476Y-110116666D01*
%TO.C,RV3*%
X137635238Y-119292380D02*
X137968571Y-118816190D01*
X138206666Y-119292380D02*
X138206666Y-118292380D01*
X137825714Y-118292380D01*
X137730476Y-118340000D01*
X137682857Y-118387619D01*
X137635238Y-118482857D01*
X137635238Y-118625714D01*
X137682857Y-118720952D01*
X137730476Y-118768571D01*
X137825714Y-118816190D01*
X138206666Y-118816190D01*
X137349523Y-118292380D02*
X137016190Y-119292380D01*
X136682857Y-118292380D01*
X136444761Y-118292380D02*
X135825714Y-118292380D01*
X136159047Y-118673333D01*
X136016190Y-118673333D01*
X135920952Y-118720952D01*
X135873333Y-118768571D01*
X135825714Y-118863809D01*
X135825714Y-119101904D01*
X135873333Y-119197142D01*
X135920952Y-119244761D01*
X136016190Y-119292380D01*
X136301904Y-119292380D01*
X136397142Y-119244761D01*
X136444761Y-119197142D01*
X138746428Y-110402380D02*
X139317857Y-110402380D01*
X139032142Y-110402380D02*
X139032142Y-109402380D01*
X139127380Y-109545238D01*
X139222619Y-109640476D01*
X139317857Y-109688095D01*
X138127380Y-109402380D02*
X138032142Y-109402380D01*
X137936904Y-109450000D01*
X137889285Y-109497619D01*
X137841666Y-109592857D01*
X137794047Y-109783333D01*
X137794047Y-110021428D01*
X137841666Y-110211904D01*
X137889285Y-110307142D01*
X137936904Y-110354761D01*
X138032142Y-110402380D01*
X138127380Y-110402380D01*
X138222619Y-110354761D01*
X138270238Y-110307142D01*
X138317857Y-110211904D01*
X138365476Y-110021428D01*
X138365476Y-109783333D01*
X138317857Y-109592857D01*
X138270238Y-109497619D01*
X138222619Y-109450000D01*
X138127380Y-109402380D01*
X137175000Y-109402380D02*
X137079761Y-109402380D01*
X136984523Y-109450000D01*
X136936904Y-109497619D01*
X136889285Y-109592857D01*
X136841666Y-109783333D01*
X136841666Y-110021428D01*
X136889285Y-110211904D01*
X136936904Y-110307142D01*
X136984523Y-110354761D01*
X137079761Y-110402380D01*
X137175000Y-110402380D01*
X137270238Y-110354761D01*
X137317857Y-110307142D01*
X137365476Y-110211904D01*
X137413095Y-110021428D01*
X137413095Y-109783333D01*
X137365476Y-109592857D01*
X137317857Y-109497619D01*
X137270238Y-109450000D01*
X137175000Y-109402380D01*
X136413095Y-110402380D02*
X136413095Y-109402380D01*
X136317857Y-110021428D02*
X136032142Y-110402380D01*
X136032142Y-109735714D02*
X136413095Y-110116666D01*
%TO.C,RV2*%
X142835238Y-95257380D02*
X143168571Y-94781190D01*
X143406666Y-95257380D02*
X143406666Y-94257380D01*
X143025714Y-94257380D01*
X142930476Y-94305000D01*
X142882857Y-94352619D01*
X142835238Y-94447857D01*
X142835238Y-94590714D01*
X142882857Y-94685952D01*
X142930476Y-94733571D01*
X143025714Y-94781190D01*
X143406666Y-94781190D01*
X142549523Y-94257380D02*
X142216190Y-95257380D01*
X141882857Y-94257380D01*
X141597142Y-94352619D02*
X141549523Y-94305000D01*
X141454285Y-94257380D01*
X141216190Y-94257380D01*
X141120952Y-94305000D01*
X141073333Y-94352619D01*
X141025714Y-94447857D01*
X141025714Y-94543095D01*
X141073333Y-94685952D01*
X141644761Y-95257380D01*
X141025714Y-95257380D01*
X144899047Y-95257380D02*
X145470476Y-95257380D01*
X145184761Y-95257380D02*
X145184761Y-94257380D01*
X145280000Y-94400238D01*
X145375238Y-94495476D01*
X145470476Y-94543095D01*
X144470476Y-95257380D02*
X144470476Y-94257380D01*
X144375238Y-94876428D02*
X144089523Y-95257380D01*
X144089523Y-94590714D02*
X144470476Y-94971666D01*
%TD*%
M02*
