%TF.GenerationSoftware,KiCad,Pcbnew,5.1.10-88a1d61d58~90~ubuntu20.10.1*%
%TF.CreationDate,2021-10-06T21:45:22-04:00*%
%TF.ProjectId,vco,76636f2e-6b69-4636-9164-5f7063625858,rev?*%
%TF.SameCoordinates,Original*%
%TF.FileFunction,Legend,Bot*%
%TF.FilePolarity,Positive*%
%FSLAX46Y46*%
G04 Gerber Fmt 4.6, Leading zero omitted, Abs format (unit mm)*
G04 Created by KiCad (PCBNEW 5.1.10-88a1d61d58~90~ubuntu20.10.1) date 2021-10-06 21:45:22*
%MOMM*%
%LPD*%
G01*
G04 APERTURE LIST*
%ADD10C,0.200000*%
%ADD11C,0.127000*%
%ADD12C,0.050000*%
G04 APERTURE END LIST*
D10*
%TO.C,RV1*%
X138490000Y-95555000D02*
G75*
G03*
X138490000Y-95555000I-50000J0D01*
G01*
D11*
X135845000Y-101405000D02*
X134910000Y-101405000D01*
X134910000Y-101405000D02*
X134910000Y-96905000D01*
X134910000Y-96905000D02*
X135010000Y-96905000D01*
X139310000Y-96905000D02*
X139410000Y-96905000D01*
X139410000Y-96905000D02*
X139410000Y-101405000D01*
X139410000Y-101405000D02*
X138475000Y-101405000D01*
D10*
%TO.C,RV12*%
X167580000Y-103175000D02*
G75*
G03*
X167580000Y-103175000I-50000J0D01*
G01*
D11*
X164935000Y-109025000D02*
X164000000Y-109025000D01*
X164000000Y-109025000D02*
X164000000Y-104525000D01*
X164000000Y-104525000D02*
X164100000Y-104525000D01*
X168400000Y-104525000D02*
X168500000Y-104525000D01*
X168500000Y-104525000D02*
X168500000Y-109025000D01*
X168500000Y-109025000D02*
X167565000Y-109025000D01*
D10*
%TO.C,RV11*%
X162500000Y-103175000D02*
G75*
G03*
X162500000Y-103175000I-50000J0D01*
G01*
D11*
X159855000Y-109025000D02*
X158920000Y-109025000D01*
X158920000Y-109025000D02*
X158920000Y-104525000D01*
X158920000Y-104525000D02*
X159020000Y-104525000D01*
X163320000Y-104525000D02*
X163420000Y-104525000D01*
X163420000Y-104525000D02*
X163420000Y-109025000D01*
X163420000Y-109025000D02*
X162485000Y-109025000D01*
D10*
%TO.C,RV10*%
X165040000Y-115875000D02*
G75*
G03*
X165040000Y-115875000I-50000J0D01*
G01*
D11*
X162395000Y-121725000D02*
X161460000Y-121725000D01*
X161460000Y-121725000D02*
X161460000Y-117225000D01*
X161460000Y-117225000D02*
X161560000Y-117225000D01*
X165860000Y-117225000D02*
X165960000Y-117225000D01*
X165960000Y-117225000D02*
X165960000Y-121725000D01*
X165960000Y-121725000D02*
X165025000Y-121725000D01*
D10*
%TO.C,RV9*%
X159960000Y-116320000D02*
G75*
G03*
X159960000Y-116320000I-50000J0D01*
G01*
D11*
X157315000Y-122170000D02*
X156380000Y-122170000D01*
X156380000Y-122170000D02*
X156380000Y-117670000D01*
X156380000Y-117670000D02*
X156480000Y-117670000D01*
X160780000Y-117670000D02*
X160880000Y-117670000D01*
X160880000Y-117670000D02*
X160880000Y-122170000D01*
X160880000Y-122170000D02*
X159945000Y-122170000D01*
D10*
%TO.C,RV8*%
X166310000Y-93015000D02*
G75*
G03*
X166310000Y-93015000I-50000J0D01*
G01*
D11*
X163665000Y-98865000D02*
X162730000Y-98865000D01*
X162730000Y-98865000D02*
X162730000Y-94365000D01*
X162730000Y-94365000D02*
X162830000Y-94365000D01*
X167130000Y-94365000D02*
X167230000Y-94365000D01*
X167230000Y-94365000D02*
X167230000Y-98865000D01*
X167230000Y-98865000D02*
X166295000Y-98865000D01*
D10*
%TO.C,RV7*%
X161230000Y-93015000D02*
G75*
G03*
X161230000Y-93015000I-50000J0D01*
G01*
D11*
X158585000Y-98865000D02*
X157650000Y-98865000D01*
X157650000Y-98865000D02*
X157650000Y-94365000D01*
X157650000Y-94365000D02*
X157750000Y-94365000D01*
X162050000Y-94365000D02*
X162150000Y-94365000D01*
X162150000Y-94365000D02*
X162150000Y-98865000D01*
X162150000Y-98865000D02*
X161215000Y-98865000D01*
D10*
%TO.C,RV6*%
X143450000Y-126035000D02*
G75*
G03*
X143450000Y-126035000I-50000J0D01*
G01*
D11*
X140805000Y-131885000D02*
X139870000Y-131885000D01*
X139870000Y-131885000D02*
X139870000Y-127385000D01*
X139870000Y-127385000D02*
X139970000Y-127385000D01*
X144270000Y-127385000D02*
X144370000Y-127385000D01*
X144370000Y-127385000D02*
X144370000Y-131885000D01*
X144370000Y-131885000D02*
X143435000Y-131885000D01*
D10*
%TO.C,RV5*%
X138490000Y-126035000D02*
G75*
G03*
X138490000Y-126035000I-50000J0D01*
G01*
D11*
X135845000Y-131885000D02*
X134910000Y-131885000D01*
X134910000Y-131885000D02*
X134910000Y-127385000D01*
X134910000Y-127385000D02*
X135010000Y-127385000D01*
X139310000Y-127385000D02*
X139410000Y-127385000D01*
X139410000Y-127385000D02*
X139410000Y-131885000D01*
X139410000Y-131885000D02*
X138475000Y-131885000D01*
D10*
%TO.C,RV4*%
X143450000Y-110795000D02*
G75*
G03*
X143450000Y-110795000I-50000J0D01*
G01*
D11*
X140805000Y-116645000D02*
X139870000Y-116645000D01*
X139870000Y-116645000D02*
X139870000Y-112145000D01*
X139870000Y-112145000D02*
X139970000Y-112145000D01*
X144270000Y-112145000D02*
X144370000Y-112145000D01*
X144370000Y-112145000D02*
X144370000Y-116645000D01*
X144370000Y-116645000D02*
X143435000Y-116645000D01*
D10*
%TO.C,RV3*%
X138370000Y-110795000D02*
G75*
G03*
X138370000Y-110795000I-50000J0D01*
G01*
D11*
X135725000Y-116645000D02*
X134790000Y-116645000D01*
X134790000Y-116645000D02*
X134790000Y-112145000D01*
X134790000Y-112145000D02*
X134890000Y-112145000D01*
X139190000Y-112145000D02*
X139290000Y-112145000D01*
X139290000Y-112145000D02*
X139290000Y-116645000D01*
X139290000Y-116645000D02*
X138355000Y-116645000D01*
D10*
%TO.C,RV2*%
X144840000Y-95555000D02*
G75*
G03*
X144840000Y-95555000I-50000J0D01*
G01*
D11*
X142195000Y-101405000D02*
X141260000Y-101405000D01*
X141260000Y-101405000D02*
X141260000Y-96905000D01*
X141260000Y-96905000D02*
X141360000Y-96905000D01*
X145660000Y-96905000D02*
X145760000Y-96905000D01*
X145760000Y-96905000D02*
X145760000Y-101405000D01*
X145760000Y-101405000D02*
X144825000Y-101405000D01*
%TO.C,RV1*%
D12*
X135215238Y-95257380D02*
X135548571Y-94781190D01*
X135786666Y-95257380D02*
X135786666Y-94257380D01*
X135405714Y-94257380D01*
X135310476Y-94305000D01*
X135262857Y-94352619D01*
X135215238Y-94447857D01*
X135215238Y-94590714D01*
X135262857Y-94685952D01*
X135310476Y-94733571D01*
X135405714Y-94781190D01*
X135786666Y-94781190D01*
X134929523Y-94257380D02*
X134596190Y-95257380D01*
X134262857Y-94257380D01*
X133405714Y-95257380D02*
X133977142Y-95257380D01*
X133691428Y-95257380D02*
X133691428Y-94257380D01*
X133786666Y-94400238D01*
X133881904Y-94495476D01*
X133977142Y-94543095D01*
X138866428Y-95162380D02*
X139437857Y-95162380D01*
X139152142Y-95162380D02*
X139152142Y-94162380D01*
X139247380Y-94305238D01*
X139342619Y-94400476D01*
X139437857Y-94448095D01*
X138247380Y-94162380D02*
X138152142Y-94162380D01*
X138056904Y-94210000D01*
X138009285Y-94257619D01*
X137961666Y-94352857D01*
X137914047Y-94543333D01*
X137914047Y-94781428D01*
X137961666Y-94971904D01*
X138009285Y-95067142D01*
X138056904Y-95114761D01*
X138152142Y-95162380D01*
X138247380Y-95162380D01*
X138342619Y-95114761D01*
X138390238Y-95067142D01*
X138437857Y-94971904D01*
X138485476Y-94781428D01*
X138485476Y-94543333D01*
X138437857Y-94352857D01*
X138390238Y-94257619D01*
X138342619Y-94210000D01*
X138247380Y-94162380D01*
X137295000Y-94162380D02*
X137199761Y-94162380D01*
X137104523Y-94210000D01*
X137056904Y-94257619D01*
X137009285Y-94352857D01*
X136961666Y-94543333D01*
X136961666Y-94781428D01*
X137009285Y-94971904D01*
X137056904Y-95067142D01*
X137104523Y-95114761D01*
X137199761Y-95162380D01*
X137295000Y-95162380D01*
X137390238Y-95114761D01*
X137437857Y-95067142D01*
X137485476Y-94971904D01*
X137533095Y-94781428D01*
X137533095Y-94543333D01*
X137485476Y-94352857D01*
X137437857Y-94257619D01*
X137390238Y-94210000D01*
X137295000Y-94162380D01*
X136533095Y-95162380D02*
X136533095Y-94162380D01*
X136437857Y-94781428D02*
X136152142Y-95162380D01*
X136152142Y-94495714D02*
X136533095Y-94876666D01*
%TO.C,RV12*%
X167321428Y-111672380D02*
X167654761Y-111196190D01*
X167892857Y-111672380D02*
X167892857Y-110672380D01*
X167511904Y-110672380D01*
X167416666Y-110720000D01*
X167369047Y-110767619D01*
X167321428Y-110862857D01*
X167321428Y-111005714D01*
X167369047Y-111100952D01*
X167416666Y-111148571D01*
X167511904Y-111196190D01*
X167892857Y-111196190D01*
X167035714Y-110672380D02*
X166702380Y-111672380D01*
X166369047Y-110672380D01*
X165511904Y-111672380D02*
X166083333Y-111672380D01*
X165797619Y-111672380D02*
X165797619Y-110672380D01*
X165892857Y-110815238D01*
X165988095Y-110910476D01*
X166083333Y-110958095D01*
X165130952Y-110767619D02*
X165083333Y-110720000D01*
X164988095Y-110672380D01*
X164750000Y-110672380D01*
X164654761Y-110720000D01*
X164607142Y-110767619D01*
X164559523Y-110862857D01*
X164559523Y-110958095D01*
X164607142Y-111100952D01*
X165178571Y-111672380D01*
X164559523Y-111672380D01*
X167004047Y-102782380D02*
X167575476Y-102782380D01*
X167289761Y-102782380D02*
X167289761Y-101782380D01*
X167385000Y-101925238D01*
X167480238Y-102020476D01*
X167575476Y-102068095D01*
X166575476Y-102782380D02*
X166575476Y-101782380D01*
X166480238Y-102401428D02*
X166194523Y-102782380D01*
X166194523Y-102115714D02*
X166575476Y-102496666D01*
%TO.C,RV11*%
X162241428Y-111672380D02*
X162574761Y-111196190D01*
X162812857Y-111672380D02*
X162812857Y-110672380D01*
X162431904Y-110672380D01*
X162336666Y-110720000D01*
X162289047Y-110767619D01*
X162241428Y-110862857D01*
X162241428Y-111005714D01*
X162289047Y-111100952D01*
X162336666Y-111148571D01*
X162431904Y-111196190D01*
X162812857Y-111196190D01*
X161955714Y-110672380D02*
X161622380Y-111672380D01*
X161289047Y-110672380D01*
X160431904Y-111672380D02*
X161003333Y-111672380D01*
X160717619Y-111672380D02*
X160717619Y-110672380D01*
X160812857Y-110815238D01*
X160908095Y-110910476D01*
X161003333Y-110958095D01*
X159479523Y-111672380D02*
X160050952Y-111672380D01*
X159765238Y-111672380D02*
X159765238Y-110672380D01*
X159860476Y-110815238D01*
X159955714Y-110910476D01*
X160050952Y-110958095D01*
X162876428Y-102782380D02*
X163447857Y-102782380D01*
X163162142Y-102782380D02*
X163162142Y-101782380D01*
X163257380Y-101925238D01*
X163352619Y-102020476D01*
X163447857Y-102068095D01*
X162257380Y-101782380D02*
X162162142Y-101782380D01*
X162066904Y-101830000D01*
X162019285Y-101877619D01*
X161971666Y-101972857D01*
X161924047Y-102163333D01*
X161924047Y-102401428D01*
X161971666Y-102591904D01*
X162019285Y-102687142D01*
X162066904Y-102734761D01*
X162162142Y-102782380D01*
X162257380Y-102782380D01*
X162352619Y-102734761D01*
X162400238Y-102687142D01*
X162447857Y-102591904D01*
X162495476Y-102401428D01*
X162495476Y-102163333D01*
X162447857Y-101972857D01*
X162400238Y-101877619D01*
X162352619Y-101830000D01*
X162257380Y-101782380D01*
X161305000Y-101782380D02*
X161209761Y-101782380D01*
X161114523Y-101830000D01*
X161066904Y-101877619D01*
X161019285Y-101972857D01*
X160971666Y-102163333D01*
X160971666Y-102401428D01*
X161019285Y-102591904D01*
X161066904Y-102687142D01*
X161114523Y-102734761D01*
X161209761Y-102782380D01*
X161305000Y-102782380D01*
X161400238Y-102734761D01*
X161447857Y-102687142D01*
X161495476Y-102591904D01*
X161543095Y-102401428D01*
X161543095Y-102163333D01*
X161495476Y-101972857D01*
X161447857Y-101877619D01*
X161400238Y-101830000D01*
X161305000Y-101782380D01*
X160543095Y-102782380D02*
X160543095Y-101782380D01*
X160447857Y-102401428D02*
X160162142Y-102782380D01*
X160162142Y-102115714D02*
X160543095Y-102496666D01*
%TO.C,RV10*%
X164781428Y-124372380D02*
X165114761Y-123896190D01*
X165352857Y-124372380D02*
X165352857Y-123372380D01*
X164971904Y-123372380D01*
X164876666Y-123420000D01*
X164829047Y-123467619D01*
X164781428Y-123562857D01*
X164781428Y-123705714D01*
X164829047Y-123800952D01*
X164876666Y-123848571D01*
X164971904Y-123896190D01*
X165352857Y-123896190D01*
X164495714Y-123372380D02*
X164162380Y-124372380D01*
X163829047Y-123372380D01*
X162971904Y-124372380D02*
X163543333Y-124372380D01*
X163257619Y-124372380D02*
X163257619Y-123372380D01*
X163352857Y-123515238D01*
X163448095Y-123610476D01*
X163543333Y-123658095D01*
X162352857Y-123372380D02*
X162257619Y-123372380D01*
X162162380Y-123420000D01*
X162114761Y-123467619D01*
X162067142Y-123562857D01*
X162019523Y-123753333D01*
X162019523Y-123991428D01*
X162067142Y-124181904D01*
X162114761Y-124277142D01*
X162162380Y-124324761D01*
X162257619Y-124372380D01*
X162352857Y-124372380D01*
X162448095Y-124324761D01*
X162495714Y-124277142D01*
X162543333Y-124181904D01*
X162590952Y-123991428D01*
X162590952Y-123753333D01*
X162543333Y-123562857D01*
X162495714Y-123467619D01*
X162448095Y-123420000D01*
X162352857Y-123372380D01*
X164464047Y-115482380D02*
X165035476Y-115482380D01*
X164749761Y-115482380D02*
X164749761Y-114482380D01*
X164845000Y-114625238D01*
X164940238Y-114720476D01*
X165035476Y-114768095D01*
X164035476Y-115482380D02*
X164035476Y-114482380D01*
X163940238Y-115101428D02*
X163654523Y-115482380D01*
X163654523Y-114815714D02*
X164035476Y-115196666D01*
%TO.C,RV9*%
X159225238Y-124817380D02*
X159558571Y-124341190D01*
X159796666Y-124817380D02*
X159796666Y-123817380D01*
X159415714Y-123817380D01*
X159320476Y-123865000D01*
X159272857Y-123912619D01*
X159225238Y-124007857D01*
X159225238Y-124150714D01*
X159272857Y-124245952D01*
X159320476Y-124293571D01*
X159415714Y-124341190D01*
X159796666Y-124341190D01*
X158939523Y-123817380D02*
X158606190Y-124817380D01*
X158272857Y-123817380D01*
X157891904Y-124817380D02*
X157701428Y-124817380D01*
X157606190Y-124769761D01*
X157558571Y-124722142D01*
X157463333Y-124579285D01*
X157415714Y-124388809D01*
X157415714Y-124007857D01*
X157463333Y-123912619D01*
X157510952Y-123865000D01*
X157606190Y-123817380D01*
X157796666Y-123817380D01*
X157891904Y-123865000D01*
X157939523Y-123912619D01*
X157987142Y-124007857D01*
X157987142Y-124245952D01*
X157939523Y-124341190D01*
X157891904Y-124388809D01*
X157796666Y-124436428D01*
X157606190Y-124436428D01*
X157510952Y-124388809D01*
X157463333Y-124341190D01*
X157415714Y-124245952D01*
X160336428Y-115927380D02*
X160907857Y-115927380D01*
X160622142Y-115927380D02*
X160622142Y-114927380D01*
X160717380Y-115070238D01*
X160812619Y-115165476D01*
X160907857Y-115213095D01*
X159717380Y-114927380D02*
X159622142Y-114927380D01*
X159526904Y-114975000D01*
X159479285Y-115022619D01*
X159431666Y-115117857D01*
X159384047Y-115308333D01*
X159384047Y-115546428D01*
X159431666Y-115736904D01*
X159479285Y-115832142D01*
X159526904Y-115879761D01*
X159622142Y-115927380D01*
X159717380Y-115927380D01*
X159812619Y-115879761D01*
X159860238Y-115832142D01*
X159907857Y-115736904D01*
X159955476Y-115546428D01*
X159955476Y-115308333D01*
X159907857Y-115117857D01*
X159860238Y-115022619D01*
X159812619Y-114975000D01*
X159717380Y-114927380D01*
X158765000Y-114927380D02*
X158669761Y-114927380D01*
X158574523Y-114975000D01*
X158526904Y-115022619D01*
X158479285Y-115117857D01*
X158431666Y-115308333D01*
X158431666Y-115546428D01*
X158479285Y-115736904D01*
X158526904Y-115832142D01*
X158574523Y-115879761D01*
X158669761Y-115927380D01*
X158765000Y-115927380D01*
X158860238Y-115879761D01*
X158907857Y-115832142D01*
X158955476Y-115736904D01*
X159003095Y-115546428D01*
X159003095Y-115308333D01*
X158955476Y-115117857D01*
X158907857Y-115022619D01*
X158860238Y-114975000D01*
X158765000Y-114927380D01*
X158003095Y-115927380D02*
X158003095Y-114927380D01*
X157907857Y-115546428D02*
X157622142Y-115927380D01*
X157622142Y-115260714D02*
X158003095Y-115641666D01*
%TO.C,RV8*%
X165575238Y-101512380D02*
X165908571Y-101036190D01*
X166146666Y-101512380D02*
X166146666Y-100512380D01*
X165765714Y-100512380D01*
X165670476Y-100560000D01*
X165622857Y-100607619D01*
X165575238Y-100702857D01*
X165575238Y-100845714D01*
X165622857Y-100940952D01*
X165670476Y-100988571D01*
X165765714Y-101036190D01*
X166146666Y-101036190D01*
X165289523Y-100512380D02*
X164956190Y-101512380D01*
X164622857Y-100512380D01*
X164146666Y-100940952D02*
X164241904Y-100893333D01*
X164289523Y-100845714D01*
X164337142Y-100750476D01*
X164337142Y-100702857D01*
X164289523Y-100607619D01*
X164241904Y-100560000D01*
X164146666Y-100512380D01*
X163956190Y-100512380D01*
X163860952Y-100560000D01*
X163813333Y-100607619D01*
X163765714Y-100702857D01*
X163765714Y-100750476D01*
X163813333Y-100845714D01*
X163860952Y-100893333D01*
X163956190Y-100940952D01*
X164146666Y-100940952D01*
X164241904Y-100988571D01*
X164289523Y-101036190D01*
X164337142Y-101131428D01*
X164337142Y-101321904D01*
X164289523Y-101417142D01*
X164241904Y-101464761D01*
X164146666Y-101512380D01*
X163956190Y-101512380D01*
X163860952Y-101464761D01*
X163813333Y-101417142D01*
X163765714Y-101321904D01*
X163765714Y-101131428D01*
X163813333Y-101036190D01*
X163860952Y-100988571D01*
X163956190Y-100940952D01*
X165734047Y-92622380D02*
X166305476Y-92622380D01*
X166019761Y-92622380D02*
X166019761Y-91622380D01*
X166115000Y-91765238D01*
X166210238Y-91860476D01*
X166305476Y-91908095D01*
X165305476Y-92622380D02*
X165305476Y-91622380D01*
X165210238Y-92241428D02*
X164924523Y-92622380D01*
X164924523Y-91955714D02*
X165305476Y-92336666D01*
%TO.C,RV7*%
X160495238Y-101512380D02*
X160828571Y-101036190D01*
X161066666Y-101512380D02*
X161066666Y-100512380D01*
X160685714Y-100512380D01*
X160590476Y-100560000D01*
X160542857Y-100607619D01*
X160495238Y-100702857D01*
X160495238Y-100845714D01*
X160542857Y-100940952D01*
X160590476Y-100988571D01*
X160685714Y-101036190D01*
X161066666Y-101036190D01*
X160209523Y-100512380D02*
X159876190Y-101512380D01*
X159542857Y-100512380D01*
X159304761Y-100512380D02*
X158638095Y-100512380D01*
X159066666Y-101512380D01*
X161606428Y-92622380D02*
X162177857Y-92622380D01*
X161892142Y-92622380D02*
X161892142Y-91622380D01*
X161987380Y-91765238D01*
X162082619Y-91860476D01*
X162177857Y-91908095D01*
X160987380Y-91622380D02*
X160892142Y-91622380D01*
X160796904Y-91670000D01*
X160749285Y-91717619D01*
X160701666Y-91812857D01*
X160654047Y-92003333D01*
X160654047Y-92241428D01*
X160701666Y-92431904D01*
X160749285Y-92527142D01*
X160796904Y-92574761D01*
X160892142Y-92622380D01*
X160987380Y-92622380D01*
X161082619Y-92574761D01*
X161130238Y-92527142D01*
X161177857Y-92431904D01*
X161225476Y-92241428D01*
X161225476Y-92003333D01*
X161177857Y-91812857D01*
X161130238Y-91717619D01*
X161082619Y-91670000D01*
X160987380Y-91622380D01*
X160035000Y-91622380D02*
X159939761Y-91622380D01*
X159844523Y-91670000D01*
X159796904Y-91717619D01*
X159749285Y-91812857D01*
X159701666Y-92003333D01*
X159701666Y-92241428D01*
X159749285Y-92431904D01*
X159796904Y-92527142D01*
X159844523Y-92574761D01*
X159939761Y-92622380D01*
X160035000Y-92622380D01*
X160130238Y-92574761D01*
X160177857Y-92527142D01*
X160225476Y-92431904D01*
X160273095Y-92241428D01*
X160273095Y-92003333D01*
X160225476Y-91812857D01*
X160177857Y-91717619D01*
X160130238Y-91670000D01*
X160035000Y-91622380D01*
X159273095Y-92622380D02*
X159273095Y-91622380D01*
X159177857Y-92241428D02*
X158892142Y-92622380D01*
X158892142Y-91955714D02*
X159273095Y-92336666D01*
%TO.C,RV6*%
X142715238Y-134532380D02*
X143048571Y-134056190D01*
X143286666Y-134532380D02*
X143286666Y-133532380D01*
X142905714Y-133532380D01*
X142810476Y-133580000D01*
X142762857Y-133627619D01*
X142715238Y-133722857D01*
X142715238Y-133865714D01*
X142762857Y-133960952D01*
X142810476Y-134008571D01*
X142905714Y-134056190D01*
X143286666Y-134056190D01*
X142429523Y-133532380D02*
X142096190Y-134532380D01*
X141762857Y-133532380D01*
X141000952Y-133532380D02*
X141191428Y-133532380D01*
X141286666Y-133580000D01*
X141334285Y-133627619D01*
X141429523Y-133770476D01*
X141477142Y-133960952D01*
X141477142Y-134341904D01*
X141429523Y-134437142D01*
X141381904Y-134484761D01*
X141286666Y-134532380D01*
X141096190Y-134532380D01*
X141000952Y-134484761D01*
X140953333Y-134437142D01*
X140905714Y-134341904D01*
X140905714Y-134103809D01*
X140953333Y-134008571D01*
X141000952Y-133960952D01*
X141096190Y-133913333D01*
X141286666Y-133913333D01*
X141381904Y-133960952D01*
X141429523Y-134008571D01*
X141477142Y-134103809D01*
X142874047Y-125642380D02*
X143445476Y-125642380D01*
X143159761Y-125642380D02*
X143159761Y-124642380D01*
X143255000Y-124785238D01*
X143350238Y-124880476D01*
X143445476Y-124928095D01*
X142445476Y-125642380D02*
X142445476Y-124642380D01*
X142350238Y-125261428D02*
X142064523Y-125642380D01*
X142064523Y-124975714D02*
X142445476Y-125356666D01*
%TO.C,RV5*%
X137755238Y-134532380D02*
X138088571Y-134056190D01*
X138326666Y-134532380D02*
X138326666Y-133532380D01*
X137945714Y-133532380D01*
X137850476Y-133580000D01*
X137802857Y-133627619D01*
X137755238Y-133722857D01*
X137755238Y-133865714D01*
X137802857Y-133960952D01*
X137850476Y-134008571D01*
X137945714Y-134056190D01*
X138326666Y-134056190D01*
X137469523Y-133532380D02*
X137136190Y-134532380D01*
X136802857Y-133532380D01*
X135993333Y-133532380D02*
X136469523Y-133532380D01*
X136517142Y-134008571D01*
X136469523Y-133960952D01*
X136374285Y-133913333D01*
X136136190Y-133913333D01*
X136040952Y-133960952D01*
X135993333Y-134008571D01*
X135945714Y-134103809D01*
X135945714Y-134341904D01*
X135993333Y-134437142D01*
X136040952Y-134484761D01*
X136136190Y-134532380D01*
X136374285Y-134532380D01*
X136469523Y-134484761D01*
X136517142Y-134437142D01*
X138866428Y-125642380D02*
X139437857Y-125642380D01*
X139152142Y-125642380D02*
X139152142Y-124642380D01*
X139247380Y-124785238D01*
X139342619Y-124880476D01*
X139437857Y-124928095D01*
X138247380Y-124642380D02*
X138152142Y-124642380D01*
X138056904Y-124690000D01*
X138009285Y-124737619D01*
X137961666Y-124832857D01*
X137914047Y-125023333D01*
X137914047Y-125261428D01*
X137961666Y-125451904D01*
X138009285Y-125547142D01*
X138056904Y-125594761D01*
X138152142Y-125642380D01*
X138247380Y-125642380D01*
X138342619Y-125594761D01*
X138390238Y-125547142D01*
X138437857Y-125451904D01*
X138485476Y-125261428D01*
X138485476Y-125023333D01*
X138437857Y-124832857D01*
X138390238Y-124737619D01*
X138342619Y-124690000D01*
X138247380Y-124642380D01*
X137295000Y-124642380D02*
X137199761Y-124642380D01*
X137104523Y-124690000D01*
X137056904Y-124737619D01*
X137009285Y-124832857D01*
X136961666Y-125023333D01*
X136961666Y-125261428D01*
X137009285Y-125451904D01*
X137056904Y-125547142D01*
X137104523Y-125594761D01*
X137199761Y-125642380D01*
X137295000Y-125642380D01*
X137390238Y-125594761D01*
X137437857Y-125547142D01*
X137485476Y-125451904D01*
X137533095Y-125261428D01*
X137533095Y-125023333D01*
X137485476Y-124832857D01*
X137437857Y-124737619D01*
X137390238Y-124690000D01*
X137295000Y-124642380D01*
X136533095Y-125642380D02*
X136533095Y-124642380D01*
X136437857Y-125261428D02*
X136152142Y-125642380D01*
X136152142Y-124975714D02*
X136533095Y-125356666D01*
%TO.C,RV4*%
X142715238Y-119292380D02*
X143048571Y-118816190D01*
X143286666Y-119292380D02*
X143286666Y-118292380D01*
X142905714Y-118292380D01*
X142810476Y-118340000D01*
X142762857Y-118387619D01*
X142715238Y-118482857D01*
X142715238Y-118625714D01*
X142762857Y-118720952D01*
X142810476Y-118768571D01*
X142905714Y-118816190D01*
X143286666Y-118816190D01*
X142429523Y-118292380D02*
X142096190Y-119292380D01*
X141762857Y-118292380D01*
X141000952Y-118625714D02*
X141000952Y-119292380D01*
X141239047Y-118244761D02*
X141477142Y-118959047D01*
X140858095Y-118959047D01*
X142874047Y-110402380D02*
X143445476Y-110402380D01*
X143159761Y-110402380D02*
X143159761Y-109402380D01*
X143255000Y-109545238D01*
X143350238Y-109640476D01*
X143445476Y-109688095D01*
X142445476Y-110402380D02*
X142445476Y-109402380D01*
X142350238Y-110021428D02*
X142064523Y-110402380D01*
X142064523Y-109735714D02*
X142445476Y-110116666D01*
%TO.C,RV3*%
X137635238Y-119292380D02*
X137968571Y-118816190D01*
X138206666Y-119292380D02*
X138206666Y-118292380D01*
X137825714Y-118292380D01*
X137730476Y-118340000D01*
X137682857Y-118387619D01*
X137635238Y-118482857D01*
X137635238Y-118625714D01*
X137682857Y-118720952D01*
X137730476Y-118768571D01*
X137825714Y-118816190D01*
X138206666Y-118816190D01*
X137349523Y-118292380D02*
X137016190Y-119292380D01*
X136682857Y-118292380D01*
X136444761Y-118292380D02*
X135825714Y-118292380D01*
X136159047Y-118673333D01*
X136016190Y-118673333D01*
X135920952Y-118720952D01*
X135873333Y-118768571D01*
X135825714Y-118863809D01*
X135825714Y-119101904D01*
X135873333Y-119197142D01*
X135920952Y-119244761D01*
X136016190Y-119292380D01*
X136301904Y-119292380D01*
X136397142Y-119244761D01*
X136444761Y-119197142D01*
X138746428Y-110402380D02*
X139317857Y-110402380D01*
X139032142Y-110402380D02*
X139032142Y-109402380D01*
X139127380Y-109545238D01*
X139222619Y-109640476D01*
X139317857Y-109688095D01*
X138127380Y-109402380D02*
X138032142Y-109402380D01*
X137936904Y-109450000D01*
X137889285Y-109497619D01*
X137841666Y-109592857D01*
X137794047Y-109783333D01*
X137794047Y-110021428D01*
X137841666Y-110211904D01*
X137889285Y-110307142D01*
X137936904Y-110354761D01*
X138032142Y-110402380D01*
X138127380Y-110402380D01*
X138222619Y-110354761D01*
X138270238Y-110307142D01*
X138317857Y-110211904D01*
X138365476Y-110021428D01*
X138365476Y-109783333D01*
X138317857Y-109592857D01*
X138270238Y-109497619D01*
X138222619Y-109450000D01*
X138127380Y-109402380D01*
X137175000Y-109402380D02*
X137079761Y-109402380D01*
X136984523Y-109450000D01*
X136936904Y-109497619D01*
X136889285Y-109592857D01*
X136841666Y-109783333D01*
X136841666Y-110021428D01*
X136889285Y-110211904D01*
X136936904Y-110307142D01*
X136984523Y-110354761D01*
X137079761Y-110402380D01*
X137175000Y-110402380D01*
X137270238Y-110354761D01*
X137317857Y-110307142D01*
X137365476Y-110211904D01*
X137413095Y-110021428D01*
X137413095Y-109783333D01*
X137365476Y-109592857D01*
X137317857Y-109497619D01*
X137270238Y-109450000D01*
X137175000Y-109402380D01*
X136413095Y-110402380D02*
X136413095Y-109402380D01*
X136317857Y-110021428D02*
X136032142Y-110402380D01*
X136032142Y-109735714D02*
X136413095Y-110116666D01*
%TO.C,RV2*%
X142835238Y-95257380D02*
X143168571Y-94781190D01*
X143406666Y-95257380D02*
X143406666Y-94257380D01*
X143025714Y-94257380D01*
X142930476Y-94305000D01*
X142882857Y-94352619D01*
X142835238Y-94447857D01*
X142835238Y-94590714D01*
X142882857Y-94685952D01*
X142930476Y-94733571D01*
X143025714Y-94781190D01*
X143406666Y-94781190D01*
X142549523Y-94257380D02*
X142216190Y-95257380D01*
X141882857Y-94257380D01*
X141597142Y-94352619D02*
X141549523Y-94305000D01*
X141454285Y-94257380D01*
X141216190Y-94257380D01*
X141120952Y-94305000D01*
X141073333Y-94352619D01*
X141025714Y-94447857D01*
X141025714Y-94543095D01*
X141073333Y-94685952D01*
X141644761Y-95257380D01*
X141025714Y-95257380D01*
X144899047Y-95257380D02*
X145470476Y-95257380D01*
X145184761Y-95257380D02*
X145184761Y-94257380D01*
X145280000Y-94400238D01*
X145375238Y-94495476D01*
X145470476Y-94543095D01*
X144470476Y-95257380D02*
X144470476Y-94257380D01*
X144375238Y-94876428D02*
X144089523Y-95257380D01*
X144089523Y-94590714D02*
X144470476Y-94971666D01*
%TD*%
M02*
