%TF.GenerationSoftware,KiCad,Pcbnew,5.1.10-88a1d61d58~90~ubuntu20.10.1*%
%TF.CreationDate,2021-11-01T20:20:40-04:00*%
%TF.ProjectId,vco,76636f2e-6b69-4636-9164-5f7063625858,rev?*%
%TF.SameCoordinates,Original*%
%TF.FileFunction,Legend,Top*%
%TF.FilePolarity,Positive*%
%FSLAX46Y46*%
G04 Gerber Fmt 4.6, Leading zero omitted, Abs format (unit mm)*
G04 Created by KiCad (PCBNEW 5.1.10-88a1d61d58~90~ubuntu20.10.1) date 2021-11-01 20:20:40*
%MOMM*%
%LPD*%
G01*
G04 APERTURE LIST*
%ADD10C,0.120000*%
%ADD11C,0.150000*%
G04 APERTURE END LIST*
D10*
%TO.C,U1*%
X152400000Y-101610000D02*
X148950000Y-101610000D01*
X152400000Y-101610000D02*
X154350000Y-101610000D01*
X152400000Y-110480000D02*
X150450000Y-110480000D01*
X152400000Y-110480000D02*
X154350000Y-110480000D01*
%TO.C,U2*%
X152335000Y-91450000D02*
X148885000Y-91450000D01*
X152335000Y-91450000D02*
X154285000Y-91450000D01*
X152335000Y-100320000D02*
X150385000Y-100320000D01*
X152335000Y-100320000D02*
X154285000Y-100320000D01*
%TO.C,Q12*%
X160980000Y-113560000D02*
X160980000Y-112100000D01*
X164140000Y-113560000D02*
X164140000Y-110400000D01*
X164140000Y-113560000D02*
X163210000Y-113560000D01*
X160980000Y-113560000D02*
X161910000Y-113560000D01*
%TO.C,Q11*%
X165990000Y-114860000D02*
X165990000Y-112460000D01*
X165990000Y-112460000D02*
X167040000Y-112460000D01*
X169290000Y-114260000D02*
X169290000Y-112460000D01*
X169290000Y-112460000D02*
X168240000Y-112460000D01*
%TO.C,Q10*%
X161600000Y-126010000D02*
X161600000Y-127470000D01*
X158440000Y-126010000D02*
X158440000Y-129170000D01*
X158440000Y-126010000D02*
X159370000Y-126010000D01*
X161600000Y-126010000D02*
X160670000Y-126010000D01*
%TO.C,Q9*%
X163450000Y-128205000D02*
X164500000Y-128205000D01*
X163450000Y-126405000D02*
X163450000Y-128205000D01*
X166750000Y-128205000D02*
X165700000Y-128205000D01*
X166750000Y-125805000D02*
X166750000Y-128205000D01*
%TO.C,Q8*%
X161600000Y-95125000D02*
X161600000Y-96585000D01*
X158440000Y-95125000D02*
X158440000Y-98285000D01*
X158440000Y-95125000D02*
X159370000Y-95125000D01*
X161600000Y-95125000D02*
X160670000Y-95125000D01*
%TO.C,Q7*%
X163450000Y-96835000D02*
X164500000Y-96835000D01*
X163450000Y-95035000D02*
X163450000Y-96835000D01*
X166750000Y-96835000D02*
X165700000Y-96835000D01*
X166750000Y-94435000D02*
X166750000Y-96835000D01*
%TO.C,Q6*%
X135580000Y-129665000D02*
X135580000Y-128205000D01*
X138740000Y-129665000D02*
X138740000Y-126505000D01*
X138740000Y-129665000D02*
X137810000Y-129665000D01*
X135580000Y-129665000D02*
X136510000Y-129665000D01*
%TO.C,Q5*%
X143890000Y-129225000D02*
X142840000Y-129225000D01*
X143890000Y-131025000D02*
X143890000Y-129225000D01*
X140590000Y-129225000D02*
X141640000Y-129225000D01*
X140590000Y-131625000D02*
X140590000Y-129225000D01*
%TO.C,Q4*%
X138740000Y-114175000D02*
X138740000Y-115635000D01*
X135580000Y-114175000D02*
X135580000Y-117335000D01*
X135580000Y-114175000D02*
X136510000Y-114175000D01*
X138740000Y-114175000D02*
X137810000Y-114175000D01*
%TO.C,Q3*%
X140270000Y-114995000D02*
X141320000Y-114995000D01*
X140270000Y-113195000D02*
X140270000Y-114995000D01*
X143570000Y-114995000D02*
X142520000Y-114995000D01*
X143570000Y-112595000D02*
X143570000Y-114995000D01*
%TO.C,Q2*%
X136850000Y-99415000D02*
X136850000Y-97955000D01*
X140010000Y-99415000D02*
X140010000Y-96255000D01*
X140010000Y-99415000D02*
X139080000Y-99415000D01*
X136850000Y-99415000D02*
X137780000Y-99415000D01*
%TO.C,Q1*%
X144840000Y-97855000D02*
X143790000Y-97855000D01*
X144840000Y-99655000D02*
X144840000Y-97855000D01*
X141540000Y-97855000D02*
X142590000Y-97855000D01*
X141540000Y-100255000D02*
X141540000Y-97855000D01*
%TO.C,D6*%
X159285000Y-105982500D02*
X159285000Y-108267500D01*
X160755000Y-105982500D02*
X159285000Y-105982500D01*
X160755000Y-108267500D02*
X160755000Y-105982500D01*
%TO.C,D5*%
X158850000Y-121982500D02*
X158850000Y-119697500D01*
X157380000Y-121982500D02*
X158850000Y-121982500D01*
X157380000Y-119697500D02*
X157380000Y-121982500D01*
%TO.C,D4*%
X159485000Y-102602500D02*
X159485000Y-100317500D01*
X158015000Y-102602500D02*
X159485000Y-102602500D01*
X158015000Y-100317500D02*
X158015000Y-102602500D01*
%TO.C,D3*%
X137375000Y-133250000D02*
X135090000Y-133250000D01*
X137375000Y-134720000D02*
X137375000Y-133250000D01*
X135090000Y-134720000D02*
X137375000Y-134720000D01*
%TO.C,D2*%
X136892500Y-118010000D02*
X134607500Y-118010000D01*
X136892500Y-119480000D02*
X136892500Y-118010000D01*
X134607500Y-119480000D02*
X136892500Y-119480000D01*
%TO.C,D1*%
X145950000Y-101867500D02*
X145950000Y-104152500D01*
X147420000Y-101867500D02*
X145950000Y-101867500D01*
X147420000Y-104152500D02*
X147420000Y-101867500D01*
%TO.C,C1*%
X140596233Y-104650000D02*
X140888767Y-104650000D01*
X140596233Y-103630000D02*
X140888767Y-103630000D01*
%TO.C,C2*%
X138603733Y-120525000D02*
X138896267Y-120525000D01*
X138603733Y-119505000D02*
X138896267Y-119505000D01*
%TO.C,C3*%
X139961233Y-134495000D02*
X140253767Y-134495000D01*
X139961233Y-133475000D02*
X140253767Y-133475000D01*
%TO.C,C4*%
X162413733Y-100205000D02*
X162706267Y-100205000D01*
X162413733Y-99185000D02*
X162706267Y-99185000D01*
%TO.C,C5*%
X161143733Y-119890000D02*
X161436267Y-119890000D01*
X161143733Y-118870000D02*
X161436267Y-118870000D01*
%TO.C,C6*%
X157990000Y-114131267D02*
X157990000Y-113838733D01*
X156970000Y-114131267D02*
X156970000Y-113838733D01*
%TO.C,C7*%
X144020000Y-88085580D02*
X144020000Y-87804420D01*
X143000000Y-88085580D02*
X143000000Y-87804420D01*
%TO.C,C8*%
X160530000Y-88405580D02*
X160530000Y-88124420D01*
X159510000Y-88405580D02*
X159510000Y-88124420D01*
%TO.C,C9*%
X149719420Y-120525000D02*
X150000580Y-120525000D01*
X149719420Y-119505000D02*
X150000580Y-119505000D01*
%TO.C,C10*%
X133860000Y-88405580D02*
X133860000Y-88124420D01*
X132840000Y-88405580D02*
X132840000Y-88124420D01*
%TO.C,C11*%
X152910000Y-88405580D02*
X152910000Y-88124420D01*
X151890000Y-88405580D02*
X151890000Y-88124420D01*
%TO.C,C12*%
X153849420Y-120525000D02*
X154130580Y-120525000D01*
X153849420Y-119505000D02*
X154130580Y-119505000D01*
%TO.C,R1*%
X139492258Y-92822500D02*
X139017742Y-92822500D01*
X139492258Y-93867500D02*
X139017742Y-93867500D01*
%TO.C,R2*%
X144257500Y-93107742D02*
X144257500Y-93582258D01*
X145302500Y-93107742D02*
X145302500Y-93582258D01*
%TO.C,R3*%
X142762500Y-93582258D02*
X142762500Y-93107742D01*
X141717500Y-93582258D02*
X141717500Y-93107742D01*
%TO.C,R4*%
X140257258Y-108062500D02*
X139782742Y-108062500D01*
X140257258Y-109107500D02*
X139782742Y-109107500D01*
%TO.C,R5*%
X144257500Y-108347742D02*
X144257500Y-108822258D01*
X145302500Y-108347742D02*
X145302500Y-108822258D01*
%TO.C,R6*%
X142762500Y-108822258D02*
X142762500Y-108347742D01*
X141717500Y-108822258D02*
X141717500Y-108347742D01*
%TO.C,R7*%
X138667258Y-123302500D02*
X138192742Y-123302500D01*
X138667258Y-124347500D02*
X138192742Y-124347500D01*
%TO.C,R8*%
X142987500Y-123907742D02*
X142987500Y-124382258D01*
X144032500Y-123907742D02*
X144032500Y-124382258D01*
%TO.C,R9*%
X141492500Y-124382258D02*
X141492500Y-123907742D01*
X140447500Y-124382258D02*
X140447500Y-123907742D01*
%TO.C,R10*%
X158542258Y-91552500D02*
X158067742Y-91552500D01*
X158542258Y-92597500D02*
X158067742Y-92597500D01*
%TO.C,R11*%
X164577500Y-90887742D02*
X164577500Y-91362258D01*
X165622500Y-90887742D02*
X165622500Y-91362258D01*
%TO.C,R12*%
X163082500Y-91362258D02*
X163082500Y-90887742D01*
X162037500Y-91362258D02*
X162037500Y-90887742D01*
%TO.C,R13*%
X161812500Y-122602258D02*
X161812500Y-122127742D01*
X160767500Y-122602258D02*
X160767500Y-122127742D01*
%TO.C,R14*%
X162647500Y-122317742D02*
X162647500Y-122792258D01*
X163692500Y-122317742D02*
X163692500Y-122792258D01*
%TO.C,R15*%
X165622500Y-122792258D02*
X165622500Y-122317742D01*
X164577500Y-122792258D02*
X164577500Y-122317742D01*
%TO.C,R16*%
X163082500Y-108822258D02*
X163082500Y-108347742D01*
X162037500Y-108822258D02*
X162037500Y-108347742D01*
%TO.C,R17*%
X164577500Y-108347742D02*
X164577500Y-108822258D01*
X165622500Y-108347742D02*
X165622500Y-108822258D01*
%TO.C,R18*%
X168162500Y-108822258D02*
X168162500Y-108347742D01*
X167117500Y-108822258D02*
X167117500Y-108347742D01*
%TO.C,R19*%
X144032500Y-85137258D02*
X144032500Y-84662742D01*
X142987500Y-85137258D02*
X142987500Y-84662742D01*
%TO.C,R20*%
X160542500Y-84692258D02*
X160542500Y-84217742D01*
X159497500Y-84692258D02*
X159497500Y-84217742D01*
%TO.C,R21*%
X150097258Y-122032500D02*
X149622742Y-122032500D01*
X150097258Y-123077500D02*
X149622742Y-123077500D01*
%TO.C,R22*%
X133872500Y-85137258D02*
X133872500Y-84662742D01*
X132827500Y-85137258D02*
X132827500Y-84662742D01*
%TO.C,R23*%
X152922500Y-84692258D02*
X152922500Y-84217742D01*
X151877500Y-84692258D02*
X151877500Y-84217742D01*
%TO.C,R24*%
X153752742Y-123077500D02*
X154227258Y-123077500D01*
X153752742Y-122032500D02*
X154227258Y-122032500D01*
%TO.C,R25*%
X146287258Y-87742500D02*
X145812742Y-87742500D01*
X146287258Y-88787500D02*
X145812742Y-88787500D01*
%TO.C,R26*%
X163622258Y-86472500D02*
X163147742Y-86472500D01*
X163622258Y-87517500D02*
X163147742Y-87517500D01*
%TO.C,R27*%
X150097258Y-125842500D02*
X149622742Y-125842500D01*
X150097258Y-126887500D02*
X149622742Y-126887500D01*
%TO.C,R28*%
X136127258Y-87742500D02*
X135652742Y-87742500D01*
X136127258Y-88787500D02*
X135652742Y-88787500D01*
%TO.C,R29*%
X155622258Y-87742500D02*
X155147742Y-87742500D01*
X155622258Y-88787500D02*
X155147742Y-88787500D01*
%TO.C,R30*%
X153752742Y-126887500D02*
X154227258Y-126887500D01*
X153752742Y-125842500D02*
X154227258Y-125842500D01*
%TO.C,R31*%
X145747500Y-85517258D02*
X145747500Y-85042742D01*
X144702500Y-85517258D02*
X144702500Y-85042742D01*
%TO.C,R32*%
X163622258Y-83932500D02*
X163147742Y-83932500D01*
X163622258Y-84977500D02*
X163147742Y-84977500D01*
%TO.C,R33*%
X149777258Y-129652500D02*
X149302742Y-129652500D01*
X149777258Y-130697500D02*
X149302742Y-130697500D01*
%TO.C,R34*%
X136412500Y-85137258D02*
X136412500Y-84662742D01*
X135367500Y-85137258D02*
X135367500Y-84662742D01*
%TO.C,R35*%
X155462500Y-85962258D02*
X155462500Y-85487742D01*
X154417500Y-85962258D02*
X154417500Y-85487742D01*
%TO.C,R36*%
X153752742Y-130697500D02*
X154227258Y-130697500D01*
X153752742Y-129652500D02*
X154227258Y-129652500D01*
%TO.C,U3*%
X152335000Y-112375000D02*
X148885000Y-112375000D01*
X152335000Y-112375000D02*
X154285000Y-112375000D01*
X152335000Y-117495000D02*
X150385000Y-117495000D01*
X152335000Y-117495000D02*
X154285000Y-117495000D01*
%TO.C,J1*%
X154245000Y-139125000D02*
X154245000Y-137795000D01*
X155575000Y-139125000D02*
X154245000Y-139125000D01*
X154245000Y-136525000D02*
X154245000Y-133925000D01*
X156845000Y-136525000D02*
X154245000Y-136525000D01*
X156845000Y-139125000D02*
X156845000Y-136525000D01*
X154245000Y-133925000D02*
X167065000Y-133925000D01*
X156845000Y-139125000D02*
X167065000Y-139125000D01*
X167065000Y-139125000D02*
X167065000Y-133925000D01*
%TO.C,J2*%
X151705000Y-80705000D02*
X151705000Y-79375000D01*
X153035000Y-80705000D02*
X151705000Y-80705000D01*
X151705000Y-78105000D02*
X151705000Y-75505000D01*
X154305000Y-78105000D02*
X151705000Y-78105000D01*
X154305000Y-80705000D02*
X154305000Y-78105000D01*
X151705000Y-75505000D02*
X167065000Y-75505000D01*
X154305000Y-80705000D02*
X167065000Y-80705000D01*
X167065000Y-80705000D02*
X167065000Y-75505000D01*
%TO.C,J3*%
X133925000Y-80705000D02*
X133925000Y-79375000D01*
X135255000Y-80705000D02*
X133925000Y-80705000D01*
X133925000Y-78105000D02*
X133925000Y-75505000D01*
X136525000Y-78105000D02*
X133925000Y-78105000D01*
X136525000Y-80705000D02*
X136525000Y-78105000D01*
X133925000Y-75505000D02*
X149285000Y-75505000D01*
X136525000Y-80705000D02*
X149285000Y-80705000D01*
X149285000Y-80705000D02*
X149285000Y-75505000D01*
%TO.C,U1*%
D11*
X151638095Y-100217380D02*
X151638095Y-101026904D01*
X151685714Y-101122142D01*
X151733333Y-101169761D01*
X151828571Y-101217380D01*
X152019047Y-101217380D01*
X152114285Y-101169761D01*
X152161904Y-101122142D01*
X152209523Y-101026904D01*
X152209523Y-100217380D01*
X153209523Y-101217380D02*
X152638095Y-101217380D01*
X152923809Y-101217380D02*
X152923809Y-100217380D01*
X152828571Y-100360238D01*
X152733333Y-100455476D01*
X152638095Y-100503095D01*
%TO.C,U2*%
X151573095Y-90057380D02*
X151573095Y-90866904D01*
X151620714Y-90962142D01*
X151668333Y-91009761D01*
X151763571Y-91057380D01*
X151954047Y-91057380D01*
X152049285Y-91009761D01*
X152096904Y-90962142D01*
X152144523Y-90866904D01*
X152144523Y-90057380D01*
X152573095Y-90152619D02*
X152620714Y-90105000D01*
X152715952Y-90057380D01*
X152954047Y-90057380D01*
X153049285Y-90105000D01*
X153096904Y-90152619D01*
X153144523Y-90247857D01*
X153144523Y-90343095D01*
X153096904Y-90485952D01*
X152525476Y-91057380D01*
X153144523Y-91057380D01*
%TO.C,Q12*%
X160718571Y-110172619D02*
X160623333Y-110125000D01*
X160528095Y-110029761D01*
X160385238Y-109886904D01*
X160290000Y-109839285D01*
X160194761Y-109839285D01*
X160242380Y-110077380D02*
X160147142Y-110029761D01*
X160051904Y-109934523D01*
X160004285Y-109744047D01*
X160004285Y-109410714D01*
X160051904Y-109220238D01*
X160147142Y-109125000D01*
X160242380Y-109077380D01*
X160432857Y-109077380D01*
X160528095Y-109125000D01*
X160623333Y-109220238D01*
X160670952Y-109410714D01*
X160670952Y-109744047D01*
X160623333Y-109934523D01*
X160528095Y-110029761D01*
X160432857Y-110077380D01*
X160242380Y-110077380D01*
X161623333Y-110077380D02*
X161051904Y-110077380D01*
X161337619Y-110077380D02*
X161337619Y-109077380D01*
X161242380Y-109220238D01*
X161147142Y-109315476D01*
X161051904Y-109363095D01*
X162004285Y-109172619D02*
X162051904Y-109125000D01*
X162147142Y-109077380D01*
X162385238Y-109077380D01*
X162480476Y-109125000D01*
X162528095Y-109172619D01*
X162575714Y-109267857D01*
X162575714Y-109363095D01*
X162528095Y-109505952D01*
X161956666Y-110077380D01*
X162575714Y-110077380D01*
%TO.C,Q11*%
X167068571Y-117767619D02*
X166973333Y-117720000D01*
X166878095Y-117624761D01*
X166735238Y-117481904D01*
X166640000Y-117434285D01*
X166544761Y-117434285D01*
X166592380Y-117672380D02*
X166497142Y-117624761D01*
X166401904Y-117529523D01*
X166354285Y-117339047D01*
X166354285Y-117005714D01*
X166401904Y-116815238D01*
X166497142Y-116720000D01*
X166592380Y-116672380D01*
X166782857Y-116672380D01*
X166878095Y-116720000D01*
X166973333Y-116815238D01*
X167020952Y-117005714D01*
X167020952Y-117339047D01*
X166973333Y-117529523D01*
X166878095Y-117624761D01*
X166782857Y-117672380D01*
X166592380Y-117672380D01*
X167973333Y-117672380D02*
X167401904Y-117672380D01*
X167687619Y-117672380D02*
X167687619Y-116672380D01*
X167592380Y-116815238D01*
X167497142Y-116910476D01*
X167401904Y-116958095D01*
X168925714Y-117672380D02*
X168354285Y-117672380D01*
X168640000Y-117672380D02*
X168640000Y-116672380D01*
X168544761Y-116815238D01*
X168449523Y-116910476D01*
X168354285Y-116958095D01*
%TO.C,Q10*%
X159448571Y-131127619D02*
X159353333Y-131080000D01*
X159258095Y-130984761D01*
X159115238Y-130841904D01*
X159020000Y-130794285D01*
X158924761Y-130794285D01*
X158972380Y-131032380D02*
X158877142Y-130984761D01*
X158781904Y-130889523D01*
X158734285Y-130699047D01*
X158734285Y-130365714D01*
X158781904Y-130175238D01*
X158877142Y-130080000D01*
X158972380Y-130032380D01*
X159162857Y-130032380D01*
X159258095Y-130080000D01*
X159353333Y-130175238D01*
X159400952Y-130365714D01*
X159400952Y-130699047D01*
X159353333Y-130889523D01*
X159258095Y-130984761D01*
X159162857Y-131032380D01*
X158972380Y-131032380D01*
X160353333Y-131032380D02*
X159781904Y-131032380D01*
X160067619Y-131032380D02*
X160067619Y-130032380D01*
X159972380Y-130175238D01*
X159877142Y-130270476D01*
X159781904Y-130318095D01*
X160972380Y-130032380D02*
X161067619Y-130032380D01*
X161162857Y-130080000D01*
X161210476Y-130127619D01*
X161258095Y-130222857D01*
X161305714Y-130413333D01*
X161305714Y-130651428D01*
X161258095Y-130841904D01*
X161210476Y-130937142D01*
X161162857Y-130984761D01*
X161067619Y-131032380D01*
X160972380Y-131032380D01*
X160877142Y-130984761D01*
X160829523Y-130937142D01*
X160781904Y-130841904D01*
X160734285Y-130651428D01*
X160734285Y-130413333D01*
X160781904Y-130222857D01*
X160829523Y-130127619D01*
X160877142Y-130080000D01*
X160972380Y-130032380D01*
%TO.C,Q9*%
X165004761Y-131612619D02*
X164909523Y-131565000D01*
X164814285Y-131469761D01*
X164671428Y-131326904D01*
X164576190Y-131279285D01*
X164480952Y-131279285D01*
X164528571Y-131517380D02*
X164433333Y-131469761D01*
X164338095Y-131374523D01*
X164290476Y-131184047D01*
X164290476Y-130850714D01*
X164338095Y-130660238D01*
X164433333Y-130565000D01*
X164528571Y-130517380D01*
X164719047Y-130517380D01*
X164814285Y-130565000D01*
X164909523Y-130660238D01*
X164957142Y-130850714D01*
X164957142Y-131184047D01*
X164909523Y-131374523D01*
X164814285Y-131469761D01*
X164719047Y-131517380D01*
X164528571Y-131517380D01*
X165433333Y-131517380D02*
X165623809Y-131517380D01*
X165719047Y-131469761D01*
X165766666Y-131422142D01*
X165861904Y-131279285D01*
X165909523Y-131088809D01*
X165909523Y-130707857D01*
X165861904Y-130612619D01*
X165814285Y-130565000D01*
X165719047Y-130517380D01*
X165528571Y-130517380D01*
X165433333Y-130565000D01*
X165385714Y-130612619D01*
X165338095Y-130707857D01*
X165338095Y-130945952D01*
X165385714Y-131041190D01*
X165433333Y-131088809D01*
X165528571Y-131136428D01*
X165719047Y-131136428D01*
X165814285Y-131088809D01*
X165861904Y-131041190D01*
X165909523Y-130945952D01*
%TO.C,Q8*%
X158067619Y-95980238D02*
X158020000Y-96075476D01*
X157924761Y-96170714D01*
X157781904Y-96313571D01*
X157734285Y-96408809D01*
X157734285Y-96504047D01*
X157972380Y-96456428D02*
X157924761Y-96551666D01*
X157829523Y-96646904D01*
X157639047Y-96694523D01*
X157305714Y-96694523D01*
X157115238Y-96646904D01*
X157020000Y-96551666D01*
X156972380Y-96456428D01*
X156972380Y-96265952D01*
X157020000Y-96170714D01*
X157115238Y-96075476D01*
X157305714Y-96027857D01*
X157639047Y-96027857D01*
X157829523Y-96075476D01*
X157924761Y-96170714D01*
X157972380Y-96265952D01*
X157972380Y-96456428D01*
X157400952Y-95456428D02*
X157353333Y-95551666D01*
X157305714Y-95599285D01*
X157210476Y-95646904D01*
X157162857Y-95646904D01*
X157067619Y-95599285D01*
X157020000Y-95551666D01*
X156972380Y-95456428D01*
X156972380Y-95265952D01*
X157020000Y-95170714D01*
X157067619Y-95123095D01*
X157162857Y-95075476D01*
X157210476Y-95075476D01*
X157305714Y-95123095D01*
X157353333Y-95170714D01*
X157400952Y-95265952D01*
X157400952Y-95456428D01*
X157448571Y-95551666D01*
X157496190Y-95599285D01*
X157591428Y-95646904D01*
X157781904Y-95646904D01*
X157877142Y-95599285D01*
X157924761Y-95551666D01*
X157972380Y-95456428D01*
X157972380Y-95265952D01*
X157924761Y-95170714D01*
X157877142Y-95123095D01*
X157781904Y-95075476D01*
X157591428Y-95075476D01*
X157496190Y-95123095D01*
X157448571Y-95170714D01*
X157400952Y-95265952D01*
%TO.C,Q7*%
X168147619Y-95980238D02*
X168100000Y-96075476D01*
X168004761Y-96170714D01*
X167861904Y-96313571D01*
X167814285Y-96408809D01*
X167814285Y-96504047D01*
X168052380Y-96456428D02*
X168004761Y-96551666D01*
X167909523Y-96646904D01*
X167719047Y-96694523D01*
X167385714Y-96694523D01*
X167195238Y-96646904D01*
X167100000Y-96551666D01*
X167052380Y-96456428D01*
X167052380Y-96265952D01*
X167100000Y-96170714D01*
X167195238Y-96075476D01*
X167385714Y-96027857D01*
X167719047Y-96027857D01*
X167909523Y-96075476D01*
X168004761Y-96170714D01*
X168052380Y-96265952D01*
X168052380Y-96456428D01*
X167052380Y-95694523D02*
X167052380Y-95027857D01*
X168052380Y-95456428D01*
%TO.C,Q6*%
X140207619Y-129000238D02*
X140160000Y-129095476D01*
X140064761Y-129190714D01*
X139921904Y-129333571D01*
X139874285Y-129428809D01*
X139874285Y-129524047D01*
X140112380Y-129476428D02*
X140064761Y-129571666D01*
X139969523Y-129666904D01*
X139779047Y-129714523D01*
X139445714Y-129714523D01*
X139255238Y-129666904D01*
X139160000Y-129571666D01*
X139112380Y-129476428D01*
X139112380Y-129285952D01*
X139160000Y-129190714D01*
X139255238Y-129095476D01*
X139445714Y-129047857D01*
X139779047Y-129047857D01*
X139969523Y-129095476D01*
X140064761Y-129190714D01*
X140112380Y-129285952D01*
X140112380Y-129476428D01*
X139112380Y-128190714D02*
X139112380Y-128381190D01*
X139160000Y-128476428D01*
X139207619Y-128524047D01*
X139350476Y-128619285D01*
X139540952Y-128666904D01*
X139921904Y-128666904D01*
X140017142Y-128619285D01*
X140064761Y-128571666D01*
X140112380Y-128476428D01*
X140112380Y-128285952D01*
X140064761Y-128190714D01*
X140017142Y-128143095D01*
X139921904Y-128095476D01*
X139683809Y-128095476D01*
X139588571Y-128143095D01*
X139540952Y-128190714D01*
X139493333Y-128285952D01*
X139493333Y-128476428D01*
X139540952Y-128571666D01*
X139588571Y-128619285D01*
X139683809Y-128666904D01*
%TO.C,Q5*%
X140287619Y-130270238D02*
X140240000Y-130365476D01*
X140144761Y-130460714D01*
X140001904Y-130603571D01*
X139954285Y-130698809D01*
X139954285Y-130794047D01*
X140192380Y-130746428D02*
X140144761Y-130841666D01*
X140049523Y-130936904D01*
X139859047Y-130984523D01*
X139525714Y-130984523D01*
X139335238Y-130936904D01*
X139240000Y-130841666D01*
X139192380Y-130746428D01*
X139192380Y-130555952D01*
X139240000Y-130460714D01*
X139335238Y-130365476D01*
X139525714Y-130317857D01*
X139859047Y-130317857D01*
X140049523Y-130365476D01*
X140144761Y-130460714D01*
X140192380Y-130555952D01*
X140192380Y-130746428D01*
X139192380Y-129413095D02*
X139192380Y-129889285D01*
X139668571Y-129936904D01*
X139620952Y-129889285D01*
X139573333Y-129794047D01*
X139573333Y-129555952D01*
X139620952Y-129460714D01*
X139668571Y-129413095D01*
X139763809Y-129365476D01*
X140001904Y-129365476D01*
X140097142Y-129413095D01*
X140144761Y-129460714D01*
X140192380Y-129555952D01*
X140192380Y-129794047D01*
X140144761Y-129889285D01*
X140097142Y-129936904D01*
%TO.C,Q4*%
X135207619Y-115030238D02*
X135160000Y-115125476D01*
X135064761Y-115220714D01*
X134921904Y-115363571D01*
X134874285Y-115458809D01*
X134874285Y-115554047D01*
X135112380Y-115506428D02*
X135064761Y-115601666D01*
X134969523Y-115696904D01*
X134779047Y-115744523D01*
X134445714Y-115744523D01*
X134255238Y-115696904D01*
X134160000Y-115601666D01*
X134112380Y-115506428D01*
X134112380Y-115315952D01*
X134160000Y-115220714D01*
X134255238Y-115125476D01*
X134445714Y-115077857D01*
X134779047Y-115077857D01*
X134969523Y-115125476D01*
X135064761Y-115220714D01*
X135112380Y-115315952D01*
X135112380Y-115506428D01*
X134445714Y-114220714D02*
X135112380Y-114220714D01*
X134064761Y-114458809D02*
X134779047Y-114696904D01*
X134779047Y-114077857D01*
%TO.C,Q3*%
X144967619Y-114140238D02*
X144920000Y-114235476D01*
X144824761Y-114330714D01*
X144681904Y-114473571D01*
X144634285Y-114568809D01*
X144634285Y-114664047D01*
X144872380Y-114616428D02*
X144824761Y-114711666D01*
X144729523Y-114806904D01*
X144539047Y-114854523D01*
X144205714Y-114854523D01*
X144015238Y-114806904D01*
X143920000Y-114711666D01*
X143872380Y-114616428D01*
X143872380Y-114425952D01*
X143920000Y-114330714D01*
X144015238Y-114235476D01*
X144205714Y-114187857D01*
X144539047Y-114187857D01*
X144729523Y-114235476D01*
X144824761Y-114330714D01*
X144872380Y-114425952D01*
X144872380Y-114616428D01*
X143872380Y-113854523D02*
X143872380Y-113235476D01*
X144253333Y-113568809D01*
X144253333Y-113425952D01*
X144300952Y-113330714D01*
X144348571Y-113283095D01*
X144443809Y-113235476D01*
X144681904Y-113235476D01*
X144777142Y-113283095D01*
X144824761Y-113330714D01*
X144872380Y-113425952D01*
X144872380Y-113711666D01*
X144824761Y-113806904D01*
X144777142Y-113854523D01*
%TO.C,Q2*%
X141477619Y-98750238D02*
X141430000Y-98845476D01*
X141334761Y-98940714D01*
X141191904Y-99083571D01*
X141144285Y-99178809D01*
X141144285Y-99274047D01*
X141382380Y-99226428D02*
X141334761Y-99321666D01*
X141239523Y-99416904D01*
X141049047Y-99464523D01*
X140715714Y-99464523D01*
X140525238Y-99416904D01*
X140430000Y-99321666D01*
X140382380Y-99226428D01*
X140382380Y-99035952D01*
X140430000Y-98940714D01*
X140525238Y-98845476D01*
X140715714Y-98797857D01*
X141049047Y-98797857D01*
X141239523Y-98845476D01*
X141334761Y-98940714D01*
X141382380Y-99035952D01*
X141382380Y-99226428D01*
X140477619Y-98416904D02*
X140430000Y-98369285D01*
X140382380Y-98274047D01*
X140382380Y-98035952D01*
X140430000Y-97940714D01*
X140477619Y-97893095D01*
X140572857Y-97845476D01*
X140668095Y-97845476D01*
X140810952Y-97893095D01*
X141382380Y-98464523D01*
X141382380Y-97845476D01*
%TO.C,Q1*%
X141237619Y-98900238D02*
X141190000Y-98995476D01*
X141094761Y-99090714D01*
X140951904Y-99233571D01*
X140904285Y-99328809D01*
X140904285Y-99424047D01*
X141142380Y-99376428D02*
X141094761Y-99471666D01*
X140999523Y-99566904D01*
X140809047Y-99614523D01*
X140475714Y-99614523D01*
X140285238Y-99566904D01*
X140190000Y-99471666D01*
X140142380Y-99376428D01*
X140142380Y-99185952D01*
X140190000Y-99090714D01*
X140285238Y-98995476D01*
X140475714Y-98947857D01*
X140809047Y-98947857D01*
X140999523Y-98995476D01*
X141094761Y-99090714D01*
X141142380Y-99185952D01*
X141142380Y-99376428D01*
X141142380Y-97995476D02*
X141142380Y-98566904D01*
X141142380Y-98281190D02*
X140142380Y-98281190D01*
X140285238Y-98376428D01*
X140380476Y-98471666D01*
X140428095Y-98566904D01*
%TO.C,D6*%
X159281904Y-109672380D02*
X159281904Y-108672380D01*
X159520000Y-108672380D01*
X159662857Y-108720000D01*
X159758095Y-108815238D01*
X159805714Y-108910476D01*
X159853333Y-109100952D01*
X159853333Y-109243809D01*
X159805714Y-109434285D01*
X159758095Y-109529523D01*
X159662857Y-109624761D01*
X159520000Y-109672380D01*
X159281904Y-109672380D01*
X160710476Y-108672380D02*
X160520000Y-108672380D01*
X160424761Y-108720000D01*
X160377142Y-108767619D01*
X160281904Y-108910476D01*
X160234285Y-109100952D01*
X160234285Y-109481904D01*
X160281904Y-109577142D01*
X160329523Y-109624761D01*
X160424761Y-109672380D01*
X160615238Y-109672380D01*
X160710476Y-109624761D01*
X160758095Y-109577142D01*
X160805714Y-109481904D01*
X160805714Y-109243809D01*
X160758095Y-109148571D01*
X160710476Y-109100952D01*
X160615238Y-109053333D01*
X160424761Y-109053333D01*
X160329523Y-109100952D01*
X160281904Y-109148571D01*
X160234285Y-109243809D01*
%TO.C,D5*%
X158646904Y-121102380D02*
X158646904Y-120102380D01*
X158885000Y-120102380D01*
X159027857Y-120150000D01*
X159123095Y-120245238D01*
X159170714Y-120340476D01*
X159218333Y-120530952D01*
X159218333Y-120673809D01*
X159170714Y-120864285D01*
X159123095Y-120959523D01*
X159027857Y-121054761D01*
X158885000Y-121102380D01*
X158646904Y-121102380D01*
X160123095Y-120102380D02*
X159646904Y-120102380D01*
X159599285Y-120578571D01*
X159646904Y-120530952D01*
X159742142Y-120483333D01*
X159980238Y-120483333D01*
X160075476Y-120530952D01*
X160123095Y-120578571D01*
X160170714Y-120673809D01*
X160170714Y-120911904D01*
X160123095Y-121007142D01*
X160075476Y-121054761D01*
X159980238Y-121102380D01*
X159742142Y-121102380D01*
X159646904Y-121054761D01*
X159599285Y-121007142D01*
%TO.C,D4*%
X158011904Y-99579880D02*
X158011904Y-98579880D01*
X158250000Y-98579880D01*
X158392857Y-98627500D01*
X158488095Y-98722738D01*
X158535714Y-98817976D01*
X158583333Y-99008452D01*
X158583333Y-99151309D01*
X158535714Y-99341785D01*
X158488095Y-99437023D01*
X158392857Y-99532261D01*
X158250000Y-99579880D01*
X158011904Y-99579880D01*
X159440476Y-98913214D02*
X159440476Y-99579880D01*
X159202380Y-98532261D02*
X158964285Y-99246547D01*
X159583333Y-99246547D01*
%TO.C,D3*%
X135151904Y-135867380D02*
X135151904Y-134867380D01*
X135390000Y-134867380D01*
X135532857Y-134915000D01*
X135628095Y-135010238D01*
X135675714Y-135105476D01*
X135723333Y-135295952D01*
X135723333Y-135438809D01*
X135675714Y-135629285D01*
X135628095Y-135724523D01*
X135532857Y-135819761D01*
X135390000Y-135867380D01*
X135151904Y-135867380D01*
X136056666Y-134867380D02*
X136675714Y-134867380D01*
X136342380Y-135248333D01*
X136485238Y-135248333D01*
X136580476Y-135295952D01*
X136628095Y-135343571D01*
X136675714Y-135438809D01*
X136675714Y-135676904D01*
X136628095Y-135772142D01*
X136580476Y-135819761D01*
X136485238Y-135867380D01*
X136199523Y-135867380D01*
X136104285Y-135819761D01*
X136056666Y-135772142D01*
%TO.C,D2*%
X134669404Y-120467380D02*
X134669404Y-119467380D01*
X134907500Y-119467380D01*
X135050357Y-119515000D01*
X135145595Y-119610238D01*
X135193214Y-119705476D01*
X135240833Y-119895952D01*
X135240833Y-120038809D01*
X135193214Y-120229285D01*
X135145595Y-120324523D01*
X135050357Y-120419761D01*
X134907500Y-120467380D01*
X134669404Y-120467380D01*
X135621785Y-119562619D02*
X135669404Y-119515000D01*
X135764642Y-119467380D01*
X136002738Y-119467380D01*
X136097976Y-119515000D01*
X136145595Y-119562619D01*
X136193214Y-119657857D01*
X136193214Y-119753095D01*
X136145595Y-119895952D01*
X135574166Y-120467380D01*
X136193214Y-120467380D01*
%TO.C,D1*%
X144041904Y-103804880D02*
X144041904Y-102804880D01*
X144280000Y-102804880D01*
X144422857Y-102852500D01*
X144518095Y-102947738D01*
X144565714Y-103042976D01*
X144613333Y-103233452D01*
X144613333Y-103376309D01*
X144565714Y-103566785D01*
X144518095Y-103662023D01*
X144422857Y-103757261D01*
X144280000Y-103804880D01*
X144041904Y-103804880D01*
X145565714Y-103804880D02*
X144994285Y-103804880D01*
X145280000Y-103804880D02*
X145280000Y-102804880D01*
X145184761Y-102947738D01*
X145089523Y-103042976D01*
X144994285Y-103090595D01*
%TO.C,C1*%
X140575833Y-103067142D02*
X140528214Y-103114761D01*
X140385357Y-103162380D01*
X140290119Y-103162380D01*
X140147261Y-103114761D01*
X140052023Y-103019523D01*
X140004404Y-102924285D01*
X139956785Y-102733809D01*
X139956785Y-102590952D01*
X140004404Y-102400476D01*
X140052023Y-102305238D01*
X140147261Y-102210000D01*
X140290119Y-102162380D01*
X140385357Y-102162380D01*
X140528214Y-102210000D01*
X140575833Y-102257619D01*
X141528214Y-103162380D02*
X140956785Y-103162380D01*
X141242500Y-103162380D02*
X141242500Y-102162380D01*
X141147261Y-102305238D01*
X141052023Y-102400476D01*
X140956785Y-102448095D01*
%TO.C,C2*%
X138583333Y-118942142D02*
X138535714Y-118989761D01*
X138392857Y-119037380D01*
X138297619Y-119037380D01*
X138154761Y-118989761D01*
X138059523Y-118894523D01*
X138011904Y-118799285D01*
X137964285Y-118608809D01*
X137964285Y-118465952D01*
X138011904Y-118275476D01*
X138059523Y-118180238D01*
X138154761Y-118085000D01*
X138297619Y-118037380D01*
X138392857Y-118037380D01*
X138535714Y-118085000D01*
X138583333Y-118132619D01*
X138964285Y-118132619D02*
X139011904Y-118085000D01*
X139107142Y-118037380D01*
X139345238Y-118037380D01*
X139440476Y-118085000D01*
X139488095Y-118132619D01*
X139535714Y-118227857D01*
X139535714Y-118323095D01*
X139488095Y-118465952D01*
X138916666Y-119037380D01*
X139535714Y-119037380D01*
%TO.C,C3*%
X139533333Y-135612142D02*
X139485714Y-135659761D01*
X139342857Y-135707380D01*
X139247619Y-135707380D01*
X139104761Y-135659761D01*
X139009523Y-135564523D01*
X138961904Y-135469285D01*
X138914285Y-135278809D01*
X138914285Y-135135952D01*
X138961904Y-134945476D01*
X139009523Y-134850238D01*
X139104761Y-134755000D01*
X139247619Y-134707380D01*
X139342857Y-134707380D01*
X139485714Y-134755000D01*
X139533333Y-134802619D01*
X139866666Y-134707380D02*
X140485714Y-134707380D01*
X140152380Y-135088333D01*
X140295238Y-135088333D01*
X140390476Y-135135952D01*
X140438095Y-135183571D01*
X140485714Y-135278809D01*
X140485714Y-135516904D01*
X140438095Y-135612142D01*
X140390476Y-135659761D01*
X140295238Y-135707380D01*
X140009523Y-135707380D01*
X139914285Y-135659761D01*
X139866666Y-135612142D01*
%TO.C,C4*%
X162393333Y-98622142D02*
X162345714Y-98669761D01*
X162202857Y-98717380D01*
X162107619Y-98717380D01*
X161964761Y-98669761D01*
X161869523Y-98574523D01*
X161821904Y-98479285D01*
X161774285Y-98288809D01*
X161774285Y-98145952D01*
X161821904Y-97955476D01*
X161869523Y-97860238D01*
X161964761Y-97765000D01*
X162107619Y-97717380D01*
X162202857Y-97717380D01*
X162345714Y-97765000D01*
X162393333Y-97812619D01*
X163250476Y-98050714D02*
X163250476Y-98717380D01*
X163012380Y-97669761D02*
X162774285Y-98384047D01*
X163393333Y-98384047D01*
%TO.C,C5*%
X161123333Y-120372142D02*
X161075714Y-120419761D01*
X160932857Y-120467380D01*
X160837619Y-120467380D01*
X160694761Y-120419761D01*
X160599523Y-120324523D01*
X160551904Y-120229285D01*
X160504285Y-120038809D01*
X160504285Y-119895952D01*
X160551904Y-119705476D01*
X160599523Y-119610238D01*
X160694761Y-119515000D01*
X160837619Y-119467380D01*
X160932857Y-119467380D01*
X161075714Y-119515000D01*
X161123333Y-119562619D01*
X162028095Y-119467380D02*
X161551904Y-119467380D01*
X161504285Y-119943571D01*
X161551904Y-119895952D01*
X161647142Y-119848333D01*
X161885238Y-119848333D01*
X161980476Y-119895952D01*
X162028095Y-119943571D01*
X162075714Y-120038809D01*
X162075714Y-120276904D01*
X162028095Y-120372142D01*
X161980476Y-120419761D01*
X161885238Y-120467380D01*
X161647142Y-120467380D01*
X161551904Y-120419761D01*
X161504285Y-120372142D01*
%TO.C,C6*%
X156043333Y-112757142D02*
X155995714Y-112804761D01*
X155852857Y-112852380D01*
X155757619Y-112852380D01*
X155614761Y-112804761D01*
X155519523Y-112709523D01*
X155471904Y-112614285D01*
X155424285Y-112423809D01*
X155424285Y-112280952D01*
X155471904Y-112090476D01*
X155519523Y-111995238D01*
X155614761Y-111900000D01*
X155757619Y-111852380D01*
X155852857Y-111852380D01*
X155995714Y-111900000D01*
X156043333Y-111947619D01*
X156900476Y-111852380D02*
X156710000Y-111852380D01*
X156614761Y-111900000D01*
X156567142Y-111947619D01*
X156471904Y-112090476D01*
X156424285Y-112280952D01*
X156424285Y-112661904D01*
X156471904Y-112757142D01*
X156519523Y-112804761D01*
X156614761Y-112852380D01*
X156805238Y-112852380D01*
X156900476Y-112804761D01*
X156948095Y-112757142D01*
X156995714Y-112661904D01*
X156995714Y-112423809D01*
X156948095Y-112328571D01*
X156900476Y-112280952D01*
X156805238Y-112233333D01*
X156614761Y-112233333D01*
X156519523Y-112280952D01*
X156471904Y-112328571D01*
X156424285Y-112423809D01*
%TO.C,C7*%
X141733333Y-88622142D02*
X141685714Y-88669761D01*
X141542857Y-88717380D01*
X141447619Y-88717380D01*
X141304761Y-88669761D01*
X141209523Y-88574523D01*
X141161904Y-88479285D01*
X141114285Y-88288809D01*
X141114285Y-88145952D01*
X141161904Y-87955476D01*
X141209523Y-87860238D01*
X141304761Y-87765000D01*
X141447619Y-87717380D01*
X141542857Y-87717380D01*
X141685714Y-87765000D01*
X141733333Y-87812619D01*
X142066666Y-87717380D02*
X142733333Y-87717380D01*
X142304761Y-88717380D01*
%TO.C,C8*%
X158423333Y-88622142D02*
X158375714Y-88669761D01*
X158232857Y-88717380D01*
X158137619Y-88717380D01*
X157994761Y-88669761D01*
X157899523Y-88574523D01*
X157851904Y-88479285D01*
X157804285Y-88288809D01*
X157804285Y-88145952D01*
X157851904Y-87955476D01*
X157899523Y-87860238D01*
X157994761Y-87765000D01*
X158137619Y-87717380D01*
X158232857Y-87717380D01*
X158375714Y-87765000D01*
X158423333Y-87812619D01*
X158994761Y-88145952D02*
X158899523Y-88098333D01*
X158851904Y-88050714D01*
X158804285Y-87955476D01*
X158804285Y-87907857D01*
X158851904Y-87812619D01*
X158899523Y-87765000D01*
X158994761Y-87717380D01*
X159185238Y-87717380D01*
X159280476Y-87765000D01*
X159328095Y-87812619D01*
X159375714Y-87907857D01*
X159375714Y-87955476D01*
X159328095Y-88050714D01*
X159280476Y-88098333D01*
X159185238Y-88145952D01*
X158994761Y-88145952D01*
X158899523Y-88193571D01*
X158851904Y-88241190D01*
X158804285Y-88336428D01*
X158804285Y-88526904D01*
X158851904Y-88622142D01*
X158899523Y-88669761D01*
X158994761Y-88717380D01*
X159185238Y-88717380D01*
X159280476Y-88669761D01*
X159328095Y-88622142D01*
X159375714Y-88526904D01*
X159375714Y-88336428D01*
X159328095Y-88241190D01*
X159280476Y-88193571D01*
X159185238Y-88145952D01*
%TO.C,C9*%
X149693333Y-118942142D02*
X149645714Y-118989761D01*
X149502857Y-119037380D01*
X149407619Y-119037380D01*
X149264761Y-118989761D01*
X149169523Y-118894523D01*
X149121904Y-118799285D01*
X149074285Y-118608809D01*
X149074285Y-118465952D01*
X149121904Y-118275476D01*
X149169523Y-118180238D01*
X149264761Y-118085000D01*
X149407619Y-118037380D01*
X149502857Y-118037380D01*
X149645714Y-118085000D01*
X149693333Y-118132619D01*
X150169523Y-119037380D02*
X150360000Y-119037380D01*
X150455238Y-118989761D01*
X150502857Y-118942142D01*
X150598095Y-118799285D01*
X150645714Y-118608809D01*
X150645714Y-118227857D01*
X150598095Y-118132619D01*
X150550476Y-118085000D01*
X150455238Y-118037380D01*
X150264761Y-118037380D01*
X150169523Y-118085000D01*
X150121904Y-118132619D01*
X150074285Y-118227857D01*
X150074285Y-118465952D01*
X150121904Y-118561190D01*
X150169523Y-118608809D01*
X150264761Y-118656428D01*
X150455238Y-118656428D01*
X150550476Y-118608809D01*
X150598095Y-118561190D01*
X150645714Y-118465952D01*
%TO.C,C10*%
X133977142Y-91162142D02*
X133929523Y-91209761D01*
X133786666Y-91257380D01*
X133691428Y-91257380D01*
X133548571Y-91209761D01*
X133453333Y-91114523D01*
X133405714Y-91019285D01*
X133358095Y-90828809D01*
X133358095Y-90685952D01*
X133405714Y-90495476D01*
X133453333Y-90400238D01*
X133548571Y-90305000D01*
X133691428Y-90257380D01*
X133786666Y-90257380D01*
X133929523Y-90305000D01*
X133977142Y-90352619D01*
X134929523Y-91257380D02*
X134358095Y-91257380D01*
X134643809Y-91257380D02*
X134643809Y-90257380D01*
X134548571Y-90400238D01*
X134453333Y-90495476D01*
X134358095Y-90543095D01*
X135548571Y-90257380D02*
X135643809Y-90257380D01*
X135739047Y-90305000D01*
X135786666Y-90352619D01*
X135834285Y-90447857D01*
X135881904Y-90638333D01*
X135881904Y-90876428D01*
X135834285Y-91066904D01*
X135786666Y-91162142D01*
X135739047Y-91209761D01*
X135643809Y-91257380D01*
X135548571Y-91257380D01*
X135453333Y-91209761D01*
X135405714Y-91162142D01*
X135358095Y-91066904D01*
X135310476Y-90876428D01*
X135310476Y-90638333D01*
X135358095Y-90447857D01*
X135405714Y-90352619D01*
X135453333Y-90305000D01*
X135548571Y-90257380D01*
%TO.C,C11*%
X149557142Y-88622142D02*
X149509523Y-88669761D01*
X149366666Y-88717380D01*
X149271428Y-88717380D01*
X149128571Y-88669761D01*
X149033333Y-88574523D01*
X148985714Y-88479285D01*
X148938095Y-88288809D01*
X148938095Y-88145952D01*
X148985714Y-87955476D01*
X149033333Y-87860238D01*
X149128571Y-87765000D01*
X149271428Y-87717380D01*
X149366666Y-87717380D01*
X149509523Y-87765000D01*
X149557142Y-87812619D01*
X150509523Y-88717380D02*
X149938095Y-88717380D01*
X150223809Y-88717380D02*
X150223809Y-87717380D01*
X150128571Y-87860238D01*
X150033333Y-87955476D01*
X149938095Y-88003095D01*
X151461904Y-88717380D02*
X150890476Y-88717380D01*
X151176190Y-88717380D02*
X151176190Y-87717380D01*
X151080952Y-87860238D01*
X150985714Y-87955476D01*
X150890476Y-88003095D01*
%TO.C,C12*%
X153347142Y-118942142D02*
X153299523Y-118989761D01*
X153156666Y-119037380D01*
X153061428Y-119037380D01*
X152918571Y-118989761D01*
X152823333Y-118894523D01*
X152775714Y-118799285D01*
X152728095Y-118608809D01*
X152728095Y-118465952D01*
X152775714Y-118275476D01*
X152823333Y-118180238D01*
X152918571Y-118085000D01*
X153061428Y-118037380D01*
X153156666Y-118037380D01*
X153299523Y-118085000D01*
X153347142Y-118132619D01*
X154299523Y-119037380D02*
X153728095Y-119037380D01*
X154013809Y-119037380D02*
X154013809Y-118037380D01*
X153918571Y-118180238D01*
X153823333Y-118275476D01*
X153728095Y-118323095D01*
X154680476Y-118132619D02*
X154728095Y-118085000D01*
X154823333Y-118037380D01*
X155061428Y-118037380D01*
X155156666Y-118085000D01*
X155204285Y-118132619D01*
X155251904Y-118227857D01*
X155251904Y-118323095D01*
X155204285Y-118465952D01*
X154632857Y-119037380D01*
X155251904Y-119037380D01*
%TO.C,R1*%
X139088333Y-95227380D02*
X138755000Y-94751190D01*
X138516904Y-95227380D02*
X138516904Y-94227380D01*
X138897857Y-94227380D01*
X138993095Y-94275000D01*
X139040714Y-94322619D01*
X139088333Y-94417857D01*
X139088333Y-94560714D01*
X139040714Y-94655952D01*
X138993095Y-94703571D01*
X138897857Y-94751190D01*
X138516904Y-94751190D01*
X140040714Y-95227380D02*
X139469285Y-95227380D01*
X139755000Y-95227380D02*
X139755000Y-94227380D01*
X139659761Y-94370238D01*
X139564523Y-94465476D01*
X139469285Y-94513095D01*
%TO.C,R2*%
X145883333Y-92527380D02*
X145550000Y-92051190D01*
X145311904Y-92527380D02*
X145311904Y-91527380D01*
X145692857Y-91527380D01*
X145788095Y-91575000D01*
X145835714Y-91622619D01*
X145883333Y-91717857D01*
X145883333Y-91860714D01*
X145835714Y-91955952D01*
X145788095Y-92003571D01*
X145692857Y-92051190D01*
X145311904Y-92051190D01*
X146264285Y-91622619D02*
X146311904Y-91575000D01*
X146407142Y-91527380D01*
X146645238Y-91527380D01*
X146740476Y-91575000D01*
X146788095Y-91622619D01*
X146835714Y-91717857D01*
X146835714Y-91813095D01*
X146788095Y-91955952D01*
X146216666Y-92527380D01*
X146835714Y-92527380D01*
%TO.C,R3*%
X140803333Y-92527380D02*
X140470000Y-92051190D01*
X140231904Y-92527380D02*
X140231904Y-91527380D01*
X140612857Y-91527380D01*
X140708095Y-91575000D01*
X140755714Y-91622619D01*
X140803333Y-91717857D01*
X140803333Y-91860714D01*
X140755714Y-91955952D01*
X140708095Y-92003571D01*
X140612857Y-92051190D01*
X140231904Y-92051190D01*
X141136666Y-91527380D02*
X141755714Y-91527380D01*
X141422380Y-91908333D01*
X141565238Y-91908333D01*
X141660476Y-91955952D01*
X141708095Y-92003571D01*
X141755714Y-92098809D01*
X141755714Y-92336904D01*
X141708095Y-92432142D01*
X141660476Y-92479761D01*
X141565238Y-92527380D01*
X141279523Y-92527380D01*
X141184285Y-92479761D01*
X141136666Y-92432142D01*
%TO.C,R4*%
X139853333Y-110467380D02*
X139520000Y-109991190D01*
X139281904Y-110467380D02*
X139281904Y-109467380D01*
X139662857Y-109467380D01*
X139758095Y-109515000D01*
X139805714Y-109562619D01*
X139853333Y-109657857D01*
X139853333Y-109800714D01*
X139805714Y-109895952D01*
X139758095Y-109943571D01*
X139662857Y-109991190D01*
X139281904Y-109991190D01*
X140710476Y-109800714D02*
X140710476Y-110467380D01*
X140472380Y-109419761D02*
X140234285Y-110134047D01*
X140853333Y-110134047D01*
%TO.C,R5*%
X145883333Y-107767380D02*
X145550000Y-107291190D01*
X145311904Y-107767380D02*
X145311904Y-106767380D01*
X145692857Y-106767380D01*
X145788095Y-106815000D01*
X145835714Y-106862619D01*
X145883333Y-106957857D01*
X145883333Y-107100714D01*
X145835714Y-107195952D01*
X145788095Y-107243571D01*
X145692857Y-107291190D01*
X145311904Y-107291190D01*
X146788095Y-106767380D02*
X146311904Y-106767380D01*
X146264285Y-107243571D01*
X146311904Y-107195952D01*
X146407142Y-107148333D01*
X146645238Y-107148333D01*
X146740476Y-107195952D01*
X146788095Y-107243571D01*
X146835714Y-107338809D01*
X146835714Y-107576904D01*
X146788095Y-107672142D01*
X146740476Y-107719761D01*
X146645238Y-107767380D01*
X146407142Y-107767380D01*
X146311904Y-107719761D01*
X146264285Y-107672142D01*
%TO.C,R6*%
X140803333Y-107767380D02*
X140470000Y-107291190D01*
X140231904Y-107767380D02*
X140231904Y-106767380D01*
X140612857Y-106767380D01*
X140708095Y-106815000D01*
X140755714Y-106862619D01*
X140803333Y-106957857D01*
X140803333Y-107100714D01*
X140755714Y-107195952D01*
X140708095Y-107243571D01*
X140612857Y-107291190D01*
X140231904Y-107291190D01*
X141660476Y-106767380D02*
X141470000Y-106767380D01*
X141374761Y-106815000D01*
X141327142Y-106862619D01*
X141231904Y-107005476D01*
X141184285Y-107195952D01*
X141184285Y-107576904D01*
X141231904Y-107672142D01*
X141279523Y-107719761D01*
X141374761Y-107767380D01*
X141565238Y-107767380D01*
X141660476Y-107719761D01*
X141708095Y-107672142D01*
X141755714Y-107576904D01*
X141755714Y-107338809D01*
X141708095Y-107243571D01*
X141660476Y-107195952D01*
X141565238Y-107148333D01*
X141374761Y-107148333D01*
X141279523Y-107195952D01*
X141231904Y-107243571D01*
X141184285Y-107338809D01*
%TO.C,R7*%
X138263333Y-123007380D02*
X137930000Y-122531190D01*
X137691904Y-123007380D02*
X137691904Y-122007380D01*
X138072857Y-122007380D01*
X138168095Y-122055000D01*
X138215714Y-122102619D01*
X138263333Y-122197857D01*
X138263333Y-122340714D01*
X138215714Y-122435952D01*
X138168095Y-122483571D01*
X138072857Y-122531190D01*
X137691904Y-122531190D01*
X138596666Y-122007380D02*
X139263333Y-122007380D01*
X138834761Y-123007380D01*
%TO.C,R8*%
X143343333Y-123007380D02*
X143010000Y-122531190D01*
X142771904Y-123007380D02*
X142771904Y-122007380D01*
X143152857Y-122007380D01*
X143248095Y-122055000D01*
X143295714Y-122102619D01*
X143343333Y-122197857D01*
X143343333Y-122340714D01*
X143295714Y-122435952D01*
X143248095Y-122483571D01*
X143152857Y-122531190D01*
X142771904Y-122531190D01*
X143914761Y-122435952D02*
X143819523Y-122388333D01*
X143771904Y-122340714D01*
X143724285Y-122245476D01*
X143724285Y-122197857D01*
X143771904Y-122102619D01*
X143819523Y-122055000D01*
X143914761Y-122007380D01*
X144105238Y-122007380D01*
X144200476Y-122055000D01*
X144248095Y-122102619D01*
X144295714Y-122197857D01*
X144295714Y-122245476D01*
X144248095Y-122340714D01*
X144200476Y-122388333D01*
X144105238Y-122435952D01*
X143914761Y-122435952D01*
X143819523Y-122483571D01*
X143771904Y-122531190D01*
X143724285Y-122626428D01*
X143724285Y-122816904D01*
X143771904Y-122912142D01*
X143819523Y-122959761D01*
X143914761Y-123007380D01*
X144105238Y-123007380D01*
X144200476Y-122959761D01*
X144248095Y-122912142D01*
X144295714Y-122816904D01*
X144295714Y-122626428D01*
X144248095Y-122531190D01*
X144200476Y-122483571D01*
X144105238Y-122435952D01*
%TO.C,R9*%
X140803333Y-123007380D02*
X140470000Y-122531190D01*
X140231904Y-123007380D02*
X140231904Y-122007380D01*
X140612857Y-122007380D01*
X140708095Y-122055000D01*
X140755714Y-122102619D01*
X140803333Y-122197857D01*
X140803333Y-122340714D01*
X140755714Y-122435952D01*
X140708095Y-122483571D01*
X140612857Y-122531190D01*
X140231904Y-122531190D01*
X141279523Y-123007380D02*
X141470000Y-123007380D01*
X141565238Y-122959761D01*
X141612857Y-122912142D01*
X141708095Y-122769285D01*
X141755714Y-122578809D01*
X141755714Y-122197857D01*
X141708095Y-122102619D01*
X141660476Y-122055000D01*
X141565238Y-122007380D01*
X141374761Y-122007380D01*
X141279523Y-122055000D01*
X141231904Y-122102619D01*
X141184285Y-122197857D01*
X141184285Y-122435952D01*
X141231904Y-122531190D01*
X141279523Y-122578809D01*
X141374761Y-122626428D01*
X141565238Y-122626428D01*
X141660476Y-122578809D01*
X141708095Y-122531190D01*
X141755714Y-122435952D01*
%TO.C,R10*%
X154802142Y-92527380D02*
X154468809Y-92051190D01*
X154230714Y-92527380D02*
X154230714Y-91527380D01*
X154611666Y-91527380D01*
X154706904Y-91575000D01*
X154754523Y-91622619D01*
X154802142Y-91717857D01*
X154802142Y-91860714D01*
X154754523Y-91955952D01*
X154706904Y-92003571D01*
X154611666Y-92051190D01*
X154230714Y-92051190D01*
X155754523Y-92527380D02*
X155183095Y-92527380D01*
X155468809Y-92527380D02*
X155468809Y-91527380D01*
X155373571Y-91670238D01*
X155278333Y-91765476D01*
X155183095Y-91813095D01*
X156373571Y-91527380D02*
X156468809Y-91527380D01*
X156564047Y-91575000D01*
X156611666Y-91622619D01*
X156659285Y-91717857D01*
X156706904Y-91908333D01*
X156706904Y-92146428D01*
X156659285Y-92336904D01*
X156611666Y-92432142D01*
X156564047Y-92479761D01*
X156468809Y-92527380D01*
X156373571Y-92527380D01*
X156278333Y-92479761D01*
X156230714Y-92432142D01*
X156183095Y-92336904D01*
X156135476Y-92146428D01*
X156135476Y-91908333D01*
X156183095Y-91717857D01*
X156230714Y-91622619D01*
X156278333Y-91575000D01*
X156373571Y-91527380D01*
%TO.C,R11*%
X165727142Y-89987380D02*
X165393809Y-89511190D01*
X165155714Y-89987380D02*
X165155714Y-88987380D01*
X165536666Y-88987380D01*
X165631904Y-89035000D01*
X165679523Y-89082619D01*
X165727142Y-89177857D01*
X165727142Y-89320714D01*
X165679523Y-89415952D01*
X165631904Y-89463571D01*
X165536666Y-89511190D01*
X165155714Y-89511190D01*
X166679523Y-89987380D02*
X166108095Y-89987380D01*
X166393809Y-89987380D02*
X166393809Y-88987380D01*
X166298571Y-89130238D01*
X166203333Y-89225476D01*
X166108095Y-89273095D01*
X167631904Y-89987380D02*
X167060476Y-89987380D01*
X167346190Y-89987380D02*
X167346190Y-88987380D01*
X167250952Y-89130238D01*
X167155714Y-89225476D01*
X167060476Y-89273095D01*
%TO.C,R12*%
X161917142Y-89987380D02*
X161583809Y-89511190D01*
X161345714Y-89987380D02*
X161345714Y-88987380D01*
X161726666Y-88987380D01*
X161821904Y-89035000D01*
X161869523Y-89082619D01*
X161917142Y-89177857D01*
X161917142Y-89320714D01*
X161869523Y-89415952D01*
X161821904Y-89463571D01*
X161726666Y-89511190D01*
X161345714Y-89511190D01*
X162869523Y-89987380D02*
X162298095Y-89987380D01*
X162583809Y-89987380D02*
X162583809Y-88987380D01*
X162488571Y-89130238D01*
X162393333Y-89225476D01*
X162298095Y-89273095D01*
X163250476Y-89082619D02*
X163298095Y-89035000D01*
X163393333Y-88987380D01*
X163631428Y-88987380D01*
X163726666Y-89035000D01*
X163774285Y-89082619D01*
X163821904Y-89177857D01*
X163821904Y-89273095D01*
X163774285Y-89415952D01*
X163202857Y-89987380D01*
X163821904Y-89987380D01*
%TO.C,R13*%
X159217142Y-122817380D02*
X158883809Y-122341190D01*
X158645714Y-122817380D02*
X158645714Y-121817380D01*
X159026666Y-121817380D01*
X159121904Y-121865000D01*
X159169523Y-121912619D01*
X159217142Y-122007857D01*
X159217142Y-122150714D01*
X159169523Y-122245952D01*
X159121904Y-122293571D01*
X159026666Y-122341190D01*
X158645714Y-122341190D01*
X160169523Y-122817380D02*
X159598095Y-122817380D01*
X159883809Y-122817380D02*
X159883809Y-121817380D01*
X159788571Y-121960238D01*
X159693333Y-122055476D01*
X159598095Y-122103095D01*
X160502857Y-121817380D02*
X161121904Y-121817380D01*
X160788571Y-122198333D01*
X160931428Y-122198333D01*
X161026666Y-122245952D01*
X161074285Y-122293571D01*
X161121904Y-122388809D01*
X161121904Y-122626904D01*
X161074285Y-122722142D01*
X161026666Y-122769761D01*
X160931428Y-122817380D01*
X160645714Y-122817380D01*
X160550476Y-122769761D01*
X160502857Y-122722142D01*
%TO.C,R14*%
X163797142Y-121737380D02*
X163463809Y-121261190D01*
X163225714Y-121737380D02*
X163225714Y-120737380D01*
X163606666Y-120737380D01*
X163701904Y-120785000D01*
X163749523Y-120832619D01*
X163797142Y-120927857D01*
X163797142Y-121070714D01*
X163749523Y-121165952D01*
X163701904Y-121213571D01*
X163606666Y-121261190D01*
X163225714Y-121261190D01*
X164749523Y-121737380D02*
X164178095Y-121737380D01*
X164463809Y-121737380D02*
X164463809Y-120737380D01*
X164368571Y-120880238D01*
X164273333Y-120975476D01*
X164178095Y-121023095D01*
X165606666Y-121070714D02*
X165606666Y-121737380D01*
X165368571Y-120689761D02*
X165130476Y-121404047D01*
X165749523Y-121404047D01*
%TO.C,R15*%
X165727142Y-123007380D02*
X165393809Y-122531190D01*
X165155714Y-123007380D02*
X165155714Y-122007380D01*
X165536666Y-122007380D01*
X165631904Y-122055000D01*
X165679523Y-122102619D01*
X165727142Y-122197857D01*
X165727142Y-122340714D01*
X165679523Y-122435952D01*
X165631904Y-122483571D01*
X165536666Y-122531190D01*
X165155714Y-122531190D01*
X166679523Y-123007380D02*
X166108095Y-123007380D01*
X166393809Y-123007380D02*
X166393809Y-122007380D01*
X166298571Y-122150238D01*
X166203333Y-122245476D01*
X166108095Y-122293095D01*
X167584285Y-122007380D02*
X167108095Y-122007380D01*
X167060476Y-122483571D01*
X167108095Y-122435952D01*
X167203333Y-122388333D01*
X167441428Y-122388333D01*
X167536666Y-122435952D01*
X167584285Y-122483571D01*
X167631904Y-122578809D01*
X167631904Y-122816904D01*
X167584285Y-122912142D01*
X167536666Y-122959761D01*
X167441428Y-123007380D01*
X167203333Y-123007380D01*
X167108095Y-122959761D01*
X167060476Y-122912142D01*
%TO.C,R16*%
X161917142Y-109037380D02*
X161583809Y-108561190D01*
X161345714Y-109037380D02*
X161345714Y-108037380D01*
X161726666Y-108037380D01*
X161821904Y-108085000D01*
X161869523Y-108132619D01*
X161917142Y-108227857D01*
X161917142Y-108370714D01*
X161869523Y-108465952D01*
X161821904Y-108513571D01*
X161726666Y-108561190D01*
X161345714Y-108561190D01*
X162869523Y-109037380D02*
X162298095Y-109037380D01*
X162583809Y-109037380D02*
X162583809Y-108037380D01*
X162488571Y-108180238D01*
X162393333Y-108275476D01*
X162298095Y-108323095D01*
X163726666Y-108037380D02*
X163536190Y-108037380D01*
X163440952Y-108085000D01*
X163393333Y-108132619D01*
X163298095Y-108275476D01*
X163250476Y-108465952D01*
X163250476Y-108846904D01*
X163298095Y-108942142D01*
X163345714Y-108989761D01*
X163440952Y-109037380D01*
X163631428Y-109037380D01*
X163726666Y-108989761D01*
X163774285Y-108942142D01*
X163821904Y-108846904D01*
X163821904Y-108608809D01*
X163774285Y-108513571D01*
X163726666Y-108465952D01*
X163631428Y-108418333D01*
X163440952Y-108418333D01*
X163345714Y-108465952D01*
X163298095Y-108513571D01*
X163250476Y-108608809D01*
%TO.C,R17*%
X164457142Y-106947380D02*
X164123809Y-106471190D01*
X163885714Y-106947380D02*
X163885714Y-105947380D01*
X164266666Y-105947380D01*
X164361904Y-105995000D01*
X164409523Y-106042619D01*
X164457142Y-106137857D01*
X164457142Y-106280714D01*
X164409523Y-106375952D01*
X164361904Y-106423571D01*
X164266666Y-106471190D01*
X163885714Y-106471190D01*
X165409523Y-106947380D02*
X164838095Y-106947380D01*
X165123809Y-106947380D02*
X165123809Y-105947380D01*
X165028571Y-106090238D01*
X164933333Y-106185476D01*
X164838095Y-106233095D01*
X165742857Y-105947380D02*
X166409523Y-105947380D01*
X165980952Y-106947380D01*
%TO.C,R18*%
X168267142Y-107767380D02*
X167933809Y-107291190D01*
X167695714Y-107767380D02*
X167695714Y-106767380D01*
X168076666Y-106767380D01*
X168171904Y-106815000D01*
X168219523Y-106862619D01*
X168267142Y-106957857D01*
X168267142Y-107100714D01*
X168219523Y-107195952D01*
X168171904Y-107243571D01*
X168076666Y-107291190D01*
X167695714Y-107291190D01*
X169219523Y-107767380D02*
X168648095Y-107767380D01*
X168933809Y-107767380D02*
X168933809Y-106767380D01*
X168838571Y-106910238D01*
X168743333Y-107005476D01*
X168648095Y-107053095D01*
X169790952Y-107195952D02*
X169695714Y-107148333D01*
X169648095Y-107100714D01*
X169600476Y-107005476D01*
X169600476Y-106957857D01*
X169648095Y-106862619D01*
X169695714Y-106815000D01*
X169790952Y-106767380D01*
X169981428Y-106767380D01*
X170076666Y-106815000D01*
X170124285Y-106862619D01*
X170171904Y-106957857D01*
X170171904Y-107005476D01*
X170124285Y-107100714D01*
X170076666Y-107148333D01*
X169981428Y-107195952D01*
X169790952Y-107195952D01*
X169695714Y-107243571D01*
X169648095Y-107291190D01*
X169600476Y-107386428D01*
X169600476Y-107576904D01*
X169648095Y-107672142D01*
X169695714Y-107719761D01*
X169790952Y-107767380D01*
X169981428Y-107767380D01*
X170076666Y-107719761D01*
X170124285Y-107672142D01*
X170171904Y-107576904D01*
X170171904Y-107386428D01*
X170124285Y-107291190D01*
X170076666Y-107243571D01*
X169981428Y-107195952D01*
%TO.C,R19*%
X140757142Y-84907380D02*
X140423809Y-84431190D01*
X140185714Y-84907380D02*
X140185714Y-83907380D01*
X140566666Y-83907380D01*
X140661904Y-83955000D01*
X140709523Y-84002619D01*
X140757142Y-84097857D01*
X140757142Y-84240714D01*
X140709523Y-84335952D01*
X140661904Y-84383571D01*
X140566666Y-84431190D01*
X140185714Y-84431190D01*
X141709523Y-84907380D02*
X141138095Y-84907380D01*
X141423809Y-84907380D02*
X141423809Y-83907380D01*
X141328571Y-84050238D01*
X141233333Y-84145476D01*
X141138095Y-84193095D01*
X142185714Y-84907380D02*
X142376190Y-84907380D01*
X142471428Y-84859761D01*
X142519047Y-84812142D01*
X142614285Y-84669285D01*
X142661904Y-84478809D01*
X142661904Y-84097857D01*
X142614285Y-84002619D01*
X142566666Y-83955000D01*
X142471428Y-83907380D01*
X142280952Y-83907380D01*
X142185714Y-83955000D01*
X142138095Y-84002619D01*
X142090476Y-84097857D01*
X142090476Y-84335952D01*
X142138095Y-84431190D01*
X142185714Y-84478809D01*
X142280952Y-84526428D01*
X142471428Y-84526428D01*
X142566666Y-84478809D01*
X142614285Y-84431190D01*
X142661904Y-84335952D01*
%TO.C,R20*%
X157257142Y-84907380D02*
X156923809Y-84431190D01*
X156685714Y-84907380D02*
X156685714Y-83907380D01*
X157066666Y-83907380D01*
X157161904Y-83955000D01*
X157209523Y-84002619D01*
X157257142Y-84097857D01*
X157257142Y-84240714D01*
X157209523Y-84335952D01*
X157161904Y-84383571D01*
X157066666Y-84431190D01*
X156685714Y-84431190D01*
X157638095Y-84002619D02*
X157685714Y-83955000D01*
X157780952Y-83907380D01*
X158019047Y-83907380D01*
X158114285Y-83955000D01*
X158161904Y-84002619D01*
X158209523Y-84097857D01*
X158209523Y-84193095D01*
X158161904Y-84335952D01*
X157590476Y-84907380D01*
X158209523Y-84907380D01*
X158828571Y-83907380D02*
X158923809Y-83907380D01*
X159019047Y-83955000D01*
X159066666Y-84002619D01*
X159114285Y-84097857D01*
X159161904Y-84288333D01*
X159161904Y-84526428D01*
X159114285Y-84716904D01*
X159066666Y-84812142D01*
X159019047Y-84859761D01*
X158923809Y-84907380D01*
X158828571Y-84907380D01*
X158733333Y-84859761D01*
X158685714Y-84812142D01*
X158638095Y-84716904D01*
X158590476Y-84526428D01*
X158590476Y-84288333D01*
X158638095Y-84097857D01*
X158685714Y-84002619D01*
X158733333Y-83955000D01*
X158828571Y-83907380D01*
%TO.C,R21*%
X149217142Y-124437380D02*
X148883809Y-123961190D01*
X148645714Y-124437380D02*
X148645714Y-123437380D01*
X149026666Y-123437380D01*
X149121904Y-123485000D01*
X149169523Y-123532619D01*
X149217142Y-123627857D01*
X149217142Y-123770714D01*
X149169523Y-123865952D01*
X149121904Y-123913571D01*
X149026666Y-123961190D01*
X148645714Y-123961190D01*
X149598095Y-123532619D02*
X149645714Y-123485000D01*
X149740952Y-123437380D01*
X149979047Y-123437380D01*
X150074285Y-123485000D01*
X150121904Y-123532619D01*
X150169523Y-123627857D01*
X150169523Y-123723095D01*
X150121904Y-123865952D01*
X149550476Y-124437380D01*
X150169523Y-124437380D01*
X151121904Y-124437380D02*
X150550476Y-124437380D01*
X150836190Y-124437380D02*
X150836190Y-123437380D01*
X150740952Y-123580238D01*
X150645714Y-123675476D01*
X150550476Y-123723095D01*
%TO.C,R22*%
X133257142Y-83367380D02*
X132923809Y-82891190D01*
X132685714Y-83367380D02*
X132685714Y-82367380D01*
X133066666Y-82367380D01*
X133161904Y-82415000D01*
X133209523Y-82462619D01*
X133257142Y-82557857D01*
X133257142Y-82700714D01*
X133209523Y-82795952D01*
X133161904Y-82843571D01*
X133066666Y-82891190D01*
X132685714Y-82891190D01*
X133638095Y-82462619D02*
X133685714Y-82415000D01*
X133780952Y-82367380D01*
X134019047Y-82367380D01*
X134114285Y-82415000D01*
X134161904Y-82462619D01*
X134209523Y-82557857D01*
X134209523Y-82653095D01*
X134161904Y-82795952D01*
X133590476Y-83367380D01*
X134209523Y-83367380D01*
X134590476Y-82462619D02*
X134638095Y-82415000D01*
X134733333Y-82367380D01*
X134971428Y-82367380D01*
X135066666Y-82415000D01*
X135114285Y-82462619D01*
X135161904Y-82557857D01*
X135161904Y-82653095D01*
X135114285Y-82795952D01*
X134542857Y-83367380D01*
X135161904Y-83367380D01*
%TO.C,R23*%
X149557142Y-84907380D02*
X149223809Y-84431190D01*
X148985714Y-84907380D02*
X148985714Y-83907380D01*
X149366666Y-83907380D01*
X149461904Y-83955000D01*
X149509523Y-84002619D01*
X149557142Y-84097857D01*
X149557142Y-84240714D01*
X149509523Y-84335952D01*
X149461904Y-84383571D01*
X149366666Y-84431190D01*
X148985714Y-84431190D01*
X149938095Y-84002619D02*
X149985714Y-83955000D01*
X150080952Y-83907380D01*
X150319047Y-83907380D01*
X150414285Y-83955000D01*
X150461904Y-84002619D01*
X150509523Y-84097857D01*
X150509523Y-84193095D01*
X150461904Y-84335952D01*
X149890476Y-84907380D01*
X150509523Y-84907380D01*
X150842857Y-83907380D02*
X151461904Y-83907380D01*
X151128571Y-84288333D01*
X151271428Y-84288333D01*
X151366666Y-84335952D01*
X151414285Y-84383571D01*
X151461904Y-84478809D01*
X151461904Y-84716904D01*
X151414285Y-84812142D01*
X151366666Y-84859761D01*
X151271428Y-84907380D01*
X150985714Y-84907380D01*
X150890476Y-84859761D01*
X150842857Y-84812142D01*
%TO.C,R24*%
X153347142Y-124277380D02*
X153013809Y-123801190D01*
X152775714Y-124277380D02*
X152775714Y-123277380D01*
X153156666Y-123277380D01*
X153251904Y-123325000D01*
X153299523Y-123372619D01*
X153347142Y-123467857D01*
X153347142Y-123610714D01*
X153299523Y-123705952D01*
X153251904Y-123753571D01*
X153156666Y-123801190D01*
X152775714Y-123801190D01*
X153728095Y-123372619D02*
X153775714Y-123325000D01*
X153870952Y-123277380D01*
X154109047Y-123277380D01*
X154204285Y-123325000D01*
X154251904Y-123372619D01*
X154299523Y-123467857D01*
X154299523Y-123563095D01*
X154251904Y-123705952D01*
X153680476Y-124277380D01*
X154299523Y-124277380D01*
X155156666Y-123610714D02*
X155156666Y-124277380D01*
X154918571Y-123229761D02*
X154680476Y-123944047D01*
X155299523Y-123944047D01*
%TO.C,R25*%
X145407142Y-90147380D02*
X145073809Y-89671190D01*
X144835714Y-90147380D02*
X144835714Y-89147380D01*
X145216666Y-89147380D01*
X145311904Y-89195000D01*
X145359523Y-89242619D01*
X145407142Y-89337857D01*
X145407142Y-89480714D01*
X145359523Y-89575952D01*
X145311904Y-89623571D01*
X145216666Y-89671190D01*
X144835714Y-89671190D01*
X145788095Y-89242619D02*
X145835714Y-89195000D01*
X145930952Y-89147380D01*
X146169047Y-89147380D01*
X146264285Y-89195000D01*
X146311904Y-89242619D01*
X146359523Y-89337857D01*
X146359523Y-89433095D01*
X146311904Y-89575952D01*
X145740476Y-90147380D01*
X146359523Y-90147380D01*
X147264285Y-89147380D02*
X146788095Y-89147380D01*
X146740476Y-89623571D01*
X146788095Y-89575952D01*
X146883333Y-89528333D01*
X147121428Y-89528333D01*
X147216666Y-89575952D01*
X147264285Y-89623571D01*
X147311904Y-89718809D01*
X147311904Y-89956904D01*
X147264285Y-90052142D01*
X147216666Y-90099761D01*
X147121428Y-90147380D01*
X146883333Y-90147380D01*
X146788095Y-90099761D01*
X146740476Y-90052142D01*
%TO.C,R26*%
X165727142Y-87447380D02*
X165393809Y-86971190D01*
X165155714Y-87447380D02*
X165155714Y-86447380D01*
X165536666Y-86447380D01*
X165631904Y-86495000D01*
X165679523Y-86542619D01*
X165727142Y-86637857D01*
X165727142Y-86780714D01*
X165679523Y-86875952D01*
X165631904Y-86923571D01*
X165536666Y-86971190D01*
X165155714Y-86971190D01*
X166108095Y-86542619D02*
X166155714Y-86495000D01*
X166250952Y-86447380D01*
X166489047Y-86447380D01*
X166584285Y-86495000D01*
X166631904Y-86542619D01*
X166679523Y-86637857D01*
X166679523Y-86733095D01*
X166631904Y-86875952D01*
X166060476Y-87447380D01*
X166679523Y-87447380D01*
X167536666Y-86447380D02*
X167346190Y-86447380D01*
X167250952Y-86495000D01*
X167203333Y-86542619D01*
X167108095Y-86685476D01*
X167060476Y-86875952D01*
X167060476Y-87256904D01*
X167108095Y-87352142D01*
X167155714Y-87399761D01*
X167250952Y-87447380D01*
X167441428Y-87447380D01*
X167536666Y-87399761D01*
X167584285Y-87352142D01*
X167631904Y-87256904D01*
X167631904Y-87018809D01*
X167584285Y-86923571D01*
X167536666Y-86875952D01*
X167441428Y-86828333D01*
X167250952Y-86828333D01*
X167155714Y-86875952D01*
X167108095Y-86923571D01*
X167060476Y-87018809D01*
%TO.C,R27*%
X149217142Y-128247380D02*
X148883809Y-127771190D01*
X148645714Y-128247380D02*
X148645714Y-127247380D01*
X149026666Y-127247380D01*
X149121904Y-127295000D01*
X149169523Y-127342619D01*
X149217142Y-127437857D01*
X149217142Y-127580714D01*
X149169523Y-127675952D01*
X149121904Y-127723571D01*
X149026666Y-127771190D01*
X148645714Y-127771190D01*
X149598095Y-127342619D02*
X149645714Y-127295000D01*
X149740952Y-127247380D01*
X149979047Y-127247380D01*
X150074285Y-127295000D01*
X150121904Y-127342619D01*
X150169523Y-127437857D01*
X150169523Y-127533095D01*
X150121904Y-127675952D01*
X149550476Y-128247380D01*
X150169523Y-128247380D01*
X150502857Y-127247380D02*
X151169523Y-127247380D01*
X150740952Y-128247380D01*
%TO.C,R28*%
X137787142Y-88717380D02*
X137453809Y-88241190D01*
X137215714Y-88717380D02*
X137215714Y-87717380D01*
X137596666Y-87717380D01*
X137691904Y-87765000D01*
X137739523Y-87812619D01*
X137787142Y-87907857D01*
X137787142Y-88050714D01*
X137739523Y-88145952D01*
X137691904Y-88193571D01*
X137596666Y-88241190D01*
X137215714Y-88241190D01*
X138168095Y-87812619D02*
X138215714Y-87765000D01*
X138310952Y-87717380D01*
X138549047Y-87717380D01*
X138644285Y-87765000D01*
X138691904Y-87812619D01*
X138739523Y-87907857D01*
X138739523Y-88003095D01*
X138691904Y-88145952D01*
X138120476Y-88717380D01*
X138739523Y-88717380D01*
X139310952Y-88145952D02*
X139215714Y-88098333D01*
X139168095Y-88050714D01*
X139120476Y-87955476D01*
X139120476Y-87907857D01*
X139168095Y-87812619D01*
X139215714Y-87765000D01*
X139310952Y-87717380D01*
X139501428Y-87717380D01*
X139596666Y-87765000D01*
X139644285Y-87812619D01*
X139691904Y-87907857D01*
X139691904Y-87955476D01*
X139644285Y-88050714D01*
X139596666Y-88098333D01*
X139501428Y-88145952D01*
X139310952Y-88145952D01*
X139215714Y-88193571D01*
X139168095Y-88241190D01*
X139120476Y-88336428D01*
X139120476Y-88526904D01*
X139168095Y-88622142D01*
X139215714Y-88669761D01*
X139310952Y-88717380D01*
X139501428Y-88717380D01*
X139596666Y-88669761D01*
X139644285Y-88622142D01*
X139691904Y-88526904D01*
X139691904Y-88336428D01*
X139644285Y-88241190D01*
X139596666Y-88193571D01*
X139501428Y-88145952D01*
%TO.C,R29*%
X154742142Y-90147380D02*
X154408809Y-89671190D01*
X154170714Y-90147380D02*
X154170714Y-89147380D01*
X154551666Y-89147380D01*
X154646904Y-89195000D01*
X154694523Y-89242619D01*
X154742142Y-89337857D01*
X154742142Y-89480714D01*
X154694523Y-89575952D01*
X154646904Y-89623571D01*
X154551666Y-89671190D01*
X154170714Y-89671190D01*
X155123095Y-89242619D02*
X155170714Y-89195000D01*
X155265952Y-89147380D01*
X155504047Y-89147380D01*
X155599285Y-89195000D01*
X155646904Y-89242619D01*
X155694523Y-89337857D01*
X155694523Y-89433095D01*
X155646904Y-89575952D01*
X155075476Y-90147380D01*
X155694523Y-90147380D01*
X156170714Y-90147380D02*
X156361190Y-90147380D01*
X156456428Y-90099761D01*
X156504047Y-90052142D01*
X156599285Y-89909285D01*
X156646904Y-89718809D01*
X156646904Y-89337857D01*
X156599285Y-89242619D01*
X156551666Y-89195000D01*
X156456428Y-89147380D01*
X156265952Y-89147380D01*
X156170714Y-89195000D01*
X156123095Y-89242619D01*
X156075476Y-89337857D01*
X156075476Y-89575952D01*
X156123095Y-89671190D01*
X156170714Y-89718809D01*
X156265952Y-89766428D01*
X156456428Y-89766428D01*
X156551666Y-89718809D01*
X156599285Y-89671190D01*
X156646904Y-89575952D01*
%TO.C,R30*%
X153347142Y-128087380D02*
X153013809Y-127611190D01*
X152775714Y-128087380D02*
X152775714Y-127087380D01*
X153156666Y-127087380D01*
X153251904Y-127135000D01*
X153299523Y-127182619D01*
X153347142Y-127277857D01*
X153347142Y-127420714D01*
X153299523Y-127515952D01*
X153251904Y-127563571D01*
X153156666Y-127611190D01*
X152775714Y-127611190D01*
X153680476Y-127087380D02*
X154299523Y-127087380D01*
X153966190Y-127468333D01*
X154109047Y-127468333D01*
X154204285Y-127515952D01*
X154251904Y-127563571D01*
X154299523Y-127658809D01*
X154299523Y-127896904D01*
X154251904Y-127992142D01*
X154204285Y-128039761D01*
X154109047Y-128087380D01*
X153823333Y-128087380D01*
X153728095Y-128039761D01*
X153680476Y-127992142D01*
X154918571Y-127087380D02*
X155013809Y-127087380D01*
X155109047Y-127135000D01*
X155156666Y-127182619D01*
X155204285Y-127277857D01*
X155251904Y-127468333D01*
X155251904Y-127706428D01*
X155204285Y-127896904D01*
X155156666Y-127992142D01*
X155109047Y-128039761D01*
X155013809Y-128087380D01*
X154918571Y-128087380D01*
X154823333Y-128039761D01*
X154775714Y-127992142D01*
X154728095Y-127896904D01*
X154680476Y-127706428D01*
X154680476Y-127468333D01*
X154728095Y-127277857D01*
X154775714Y-127182619D01*
X154823333Y-127135000D01*
X154918571Y-127087380D01*
%TO.C,R31*%
X146677142Y-85732380D02*
X146343809Y-85256190D01*
X146105714Y-85732380D02*
X146105714Y-84732380D01*
X146486666Y-84732380D01*
X146581904Y-84780000D01*
X146629523Y-84827619D01*
X146677142Y-84922857D01*
X146677142Y-85065714D01*
X146629523Y-85160952D01*
X146581904Y-85208571D01*
X146486666Y-85256190D01*
X146105714Y-85256190D01*
X147010476Y-84732380D02*
X147629523Y-84732380D01*
X147296190Y-85113333D01*
X147439047Y-85113333D01*
X147534285Y-85160952D01*
X147581904Y-85208571D01*
X147629523Y-85303809D01*
X147629523Y-85541904D01*
X147581904Y-85637142D01*
X147534285Y-85684761D01*
X147439047Y-85732380D01*
X147153333Y-85732380D01*
X147058095Y-85684761D01*
X147010476Y-85637142D01*
X148581904Y-85732380D02*
X148010476Y-85732380D01*
X148296190Y-85732380D02*
X148296190Y-84732380D01*
X148200952Y-84875238D01*
X148105714Y-84970476D01*
X148010476Y-85018095D01*
%TO.C,R32*%
X165727142Y-84907380D02*
X165393809Y-84431190D01*
X165155714Y-84907380D02*
X165155714Y-83907380D01*
X165536666Y-83907380D01*
X165631904Y-83955000D01*
X165679523Y-84002619D01*
X165727142Y-84097857D01*
X165727142Y-84240714D01*
X165679523Y-84335952D01*
X165631904Y-84383571D01*
X165536666Y-84431190D01*
X165155714Y-84431190D01*
X166060476Y-83907380D02*
X166679523Y-83907380D01*
X166346190Y-84288333D01*
X166489047Y-84288333D01*
X166584285Y-84335952D01*
X166631904Y-84383571D01*
X166679523Y-84478809D01*
X166679523Y-84716904D01*
X166631904Y-84812142D01*
X166584285Y-84859761D01*
X166489047Y-84907380D01*
X166203333Y-84907380D01*
X166108095Y-84859761D01*
X166060476Y-84812142D01*
X167060476Y-84002619D02*
X167108095Y-83955000D01*
X167203333Y-83907380D01*
X167441428Y-83907380D01*
X167536666Y-83955000D01*
X167584285Y-84002619D01*
X167631904Y-84097857D01*
X167631904Y-84193095D01*
X167584285Y-84335952D01*
X167012857Y-84907380D01*
X167631904Y-84907380D01*
%TO.C,R33*%
X148897142Y-132057380D02*
X148563809Y-131581190D01*
X148325714Y-132057380D02*
X148325714Y-131057380D01*
X148706666Y-131057380D01*
X148801904Y-131105000D01*
X148849523Y-131152619D01*
X148897142Y-131247857D01*
X148897142Y-131390714D01*
X148849523Y-131485952D01*
X148801904Y-131533571D01*
X148706666Y-131581190D01*
X148325714Y-131581190D01*
X149230476Y-131057380D02*
X149849523Y-131057380D01*
X149516190Y-131438333D01*
X149659047Y-131438333D01*
X149754285Y-131485952D01*
X149801904Y-131533571D01*
X149849523Y-131628809D01*
X149849523Y-131866904D01*
X149801904Y-131962142D01*
X149754285Y-132009761D01*
X149659047Y-132057380D01*
X149373333Y-132057380D01*
X149278095Y-132009761D01*
X149230476Y-131962142D01*
X150182857Y-131057380D02*
X150801904Y-131057380D01*
X150468571Y-131438333D01*
X150611428Y-131438333D01*
X150706666Y-131485952D01*
X150754285Y-131533571D01*
X150801904Y-131628809D01*
X150801904Y-131866904D01*
X150754285Y-131962142D01*
X150706666Y-132009761D01*
X150611428Y-132057380D01*
X150325714Y-132057380D01*
X150230476Y-132009761D01*
X150182857Y-131962142D01*
%TO.C,R34*%
X137787142Y-86177380D02*
X137453809Y-85701190D01*
X137215714Y-86177380D02*
X137215714Y-85177380D01*
X137596666Y-85177380D01*
X137691904Y-85225000D01*
X137739523Y-85272619D01*
X137787142Y-85367857D01*
X137787142Y-85510714D01*
X137739523Y-85605952D01*
X137691904Y-85653571D01*
X137596666Y-85701190D01*
X137215714Y-85701190D01*
X138120476Y-85177380D02*
X138739523Y-85177380D01*
X138406190Y-85558333D01*
X138549047Y-85558333D01*
X138644285Y-85605952D01*
X138691904Y-85653571D01*
X138739523Y-85748809D01*
X138739523Y-85986904D01*
X138691904Y-86082142D01*
X138644285Y-86129761D01*
X138549047Y-86177380D01*
X138263333Y-86177380D01*
X138168095Y-86129761D01*
X138120476Y-86082142D01*
X139596666Y-85510714D02*
X139596666Y-86177380D01*
X139358571Y-85129761D02*
X139120476Y-85844047D01*
X139739523Y-85844047D01*
%TO.C,R35*%
X156557142Y-86177380D02*
X156223809Y-85701190D01*
X155985714Y-86177380D02*
X155985714Y-85177380D01*
X156366666Y-85177380D01*
X156461904Y-85225000D01*
X156509523Y-85272619D01*
X156557142Y-85367857D01*
X156557142Y-85510714D01*
X156509523Y-85605952D01*
X156461904Y-85653571D01*
X156366666Y-85701190D01*
X155985714Y-85701190D01*
X156890476Y-85177380D02*
X157509523Y-85177380D01*
X157176190Y-85558333D01*
X157319047Y-85558333D01*
X157414285Y-85605952D01*
X157461904Y-85653571D01*
X157509523Y-85748809D01*
X157509523Y-85986904D01*
X157461904Y-86082142D01*
X157414285Y-86129761D01*
X157319047Y-86177380D01*
X157033333Y-86177380D01*
X156938095Y-86129761D01*
X156890476Y-86082142D01*
X158414285Y-85177380D02*
X157938095Y-85177380D01*
X157890476Y-85653571D01*
X157938095Y-85605952D01*
X158033333Y-85558333D01*
X158271428Y-85558333D01*
X158366666Y-85605952D01*
X158414285Y-85653571D01*
X158461904Y-85748809D01*
X158461904Y-85986904D01*
X158414285Y-86082142D01*
X158366666Y-86129761D01*
X158271428Y-86177380D01*
X158033333Y-86177380D01*
X157938095Y-86129761D01*
X157890476Y-86082142D01*
%TO.C,R36*%
X153347142Y-131897380D02*
X153013809Y-131421190D01*
X152775714Y-131897380D02*
X152775714Y-130897380D01*
X153156666Y-130897380D01*
X153251904Y-130945000D01*
X153299523Y-130992619D01*
X153347142Y-131087857D01*
X153347142Y-131230714D01*
X153299523Y-131325952D01*
X153251904Y-131373571D01*
X153156666Y-131421190D01*
X152775714Y-131421190D01*
X153680476Y-130897380D02*
X154299523Y-130897380D01*
X153966190Y-131278333D01*
X154109047Y-131278333D01*
X154204285Y-131325952D01*
X154251904Y-131373571D01*
X154299523Y-131468809D01*
X154299523Y-131706904D01*
X154251904Y-131802142D01*
X154204285Y-131849761D01*
X154109047Y-131897380D01*
X153823333Y-131897380D01*
X153728095Y-131849761D01*
X153680476Y-131802142D01*
X155156666Y-130897380D02*
X154966190Y-130897380D01*
X154870952Y-130945000D01*
X154823333Y-130992619D01*
X154728095Y-131135476D01*
X154680476Y-131325952D01*
X154680476Y-131706904D01*
X154728095Y-131802142D01*
X154775714Y-131849761D01*
X154870952Y-131897380D01*
X155061428Y-131897380D01*
X155156666Y-131849761D01*
X155204285Y-131802142D01*
X155251904Y-131706904D01*
X155251904Y-131468809D01*
X155204285Y-131373571D01*
X155156666Y-131325952D01*
X155061428Y-131278333D01*
X154870952Y-131278333D01*
X154775714Y-131325952D01*
X154728095Y-131373571D01*
X154680476Y-131468809D01*
%TO.C,U3*%
X151573095Y-110987380D02*
X151573095Y-111796904D01*
X151620714Y-111892142D01*
X151668333Y-111939761D01*
X151763571Y-111987380D01*
X151954047Y-111987380D01*
X152049285Y-111939761D01*
X152096904Y-111892142D01*
X152144523Y-111796904D01*
X152144523Y-110987380D01*
X152525476Y-110987380D02*
X153144523Y-110987380D01*
X152811190Y-111368333D01*
X152954047Y-111368333D01*
X153049285Y-111415952D01*
X153096904Y-111463571D01*
X153144523Y-111558809D01*
X153144523Y-111796904D01*
X153096904Y-111892142D01*
X153049285Y-111939761D01*
X152954047Y-111987380D01*
X152668333Y-111987380D01*
X152573095Y-111939761D01*
X152525476Y-111892142D01*
%TO.C,J1*%
X152697380Y-136858333D02*
X153411666Y-136858333D01*
X153554523Y-136905952D01*
X153649761Y-137001190D01*
X153697380Y-137144047D01*
X153697380Y-137239285D01*
X153697380Y-135858333D02*
X153697380Y-136429761D01*
X153697380Y-136144047D02*
X152697380Y-136144047D01*
X152840238Y-136239285D01*
X152935476Y-136334523D01*
X152983095Y-136429761D01*
%TO.C,J2*%
X150157380Y-78438333D02*
X150871666Y-78438333D01*
X151014523Y-78485952D01*
X151109761Y-78581190D01*
X151157380Y-78724047D01*
X151157380Y-78819285D01*
X150252619Y-78009761D02*
X150205000Y-77962142D01*
X150157380Y-77866904D01*
X150157380Y-77628809D01*
X150205000Y-77533571D01*
X150252619Y-77485952D01*
X150347857Y-77438333D01*
X150443095Y-77438333D01*
X150585952Y-77485952D01*
X151157380Y-78057380D01*
X151157380Y-77438333D01*
%TO.C,J3*%
X132377380Y-78438333D02*
X133091666Y-78438333D01*
X133234523Y-78485952D01*
X133329761Y-78581190D01*
X133377380Y-78724047D01*
X133377380Y-78819285D01*
X132377380Y-78057380D02*
X132377380Y-77438333D01*
X132758333Y-77771666D01*
X132758333Y-77628809D01*
X132805952Y-77533571D01*
X132853571Y-77485952D01*
X132948809Y-77438333D01*
X133186904Y-77438333D01*
X133282142Y-77485952D01*
X133329761Y-77533571D01*
X133377380Y-77628809D01*
X133377380Y-77914523D01*
X133329761Y-78009761D01*
X133282142Y-78057380D01*
%TD*%
M02*
