M48
INCH,TZ
T1C0.0157
T2C0.0394
T3C0.0984
%
G90
G05
T1
X52323Y-37677
X53000Y-38250
X53000Y-45750
X53000Y-49750
X53500Y-48750
X54000Y-33250
X54000Y-36750
X54500Y-49250
X55000Y-44250
X55000Y-44750
X55000Y-49750
X55000Y-51750
X55500Y-38250
X55500Y-39250
X55500Y-47250
X56000Y-35750
X56000Y-43589
X56000Y-48250
X56500Y-37565
X56500Y-41250
X56500Y-42250
X57000Y-45750
X57000Y-50250
X57500Y-36750
X57500Y-42250
X58000Y-33250
X58250Y-35250
X58500Y-50750
X59000Y-46250
X59250Y-33250
X59500Y-43250
X60000Y-38750
X60000Y-45750
X60500Y-37250
X60500Y-52250
X60587Y-42750
X61000Y-43750
X61500Y-32750
X61500Y-34250
X61500Y-40250
X61500Y-46750
X61500Y-47250
X61500Y-50750
X62000Y-36750
X62000Y-38750
X62000Y-42750
X62000Y-43250
X62000Y-45250
X62500Y-35750
X62500Y-45250
X63409Y-47341
X63500Y-36750
X63750Y-40000
X64000Y-37750
X64000Y-38750
X64000Y-43750
X64500Y-34750
X64500Y-41750
X64500Y-43250
X64500Y-44250
X64650Y-32750
X65000Y-44750
X65750Y-39000
X65750Y-44750
X65906Y-40844
X66000Y-46000
X66500Y-39250
X66500Y-44250
T2
X53250Y-30250
X53250Y-31250
X54250Y-30250
X54250Y-31250
X55250Y-30250
X55250Y-31250
X56250Y-30250
X56250Y-31250
X57250Y-30250
X57250Y-31250
X58250Y-30250
X58250Y-31250
X60250Y-30250
X60250Y-31250
X61250Y-30250
X61250Y-31250
X61250Y-53250
X61250Y-54250
X62250Y-30250
X62250Y-31250
X62250Y-53250
X62250Y-54250
X63250Y-30250
X63250Y-31250
X63250Y-53250
X63250Y-54250
X64250Y-30250
X64250Y-31250
X64250Y-53250
X64250Y-54250
X65250Y-30250
X65250Y-31250
X65250Y-53250
X65250Y-54250
T3
X52000Y-29250
X52000Y-55250
X66500Y-29250
X66500Y-55250
T0
M30
