%TF.GenerationSoftware,KiCad,Pcbnew,5.1.10-88a1d61d58~90~ubuntu20.10.1*%
%TF.CreationDate,2021-11-01T20:20:40-04:00*%
%TF.ProjectId,vco,76636f2e-6b69-4636-9164-5f7063625858,rev?*%
%TF.SameCoordinates,Original*%
%TF.FileFunction,Copper,L3,Inr*%
%TF.FilePolarity,Positive*%
%FSLAX46Y46*%
G04 Gerber Fmt 4.6, Leading zero omitted, Abs format (unit mm)*
G04 Created by KiCad (PCBNEW 5.1.10-88a1d61d58~90~ubuntu20.10.1) date 2021-11-01 20:20:40*
%MOMM*%
%LPD*%
G01*
G04 APERTURE LIST*
%TA.AperFunction,ComponentPad*%
%ADD10O,1.700000X1.700000*%
%TD*%
%TA.AperFunction,ComponentPad*%
%ADD11R,1.700000X1.700000*%
%TD*%
%TA.AperFunction,ViaPad*%
%ADD12C,0.800000*%
%TD*%
%TA.AperFunction,ViaPad*%
%ADD13C,2.700000*%
%TD*%
%TA.AperFunction,Conductor*%
%ADD14C,0.254000*%
%TD*%
%TA.AperFunction,Conductor*%
%ADD15C,0.100000*%
%TD*%
G04 APERTURE END LIST*
D10*
%TO.N,-12V*%
%TO.C,J1*%
X165735000Y-135255000D03*
X165735000Y-137795000D03*
%TO.N,GND*%
X163195000Y-135255000D03*
X163195000Y-137795000D03*
X160655000Y-135255000D03*
X160655000Y-137795000D03*
X158115000Y-135255000D03*
X158115000Y-137795000D03*
%TO.N,+12V*%
X155575000Y-135255000D03*
D11*
X155575000Y-137795000D03*
%TD*%
D10*
%TO.N,GND*%
%TO.C,J2*%
X165735000Y-76835000D03*
%TO.N,CV6*%
X165735000Y-79375000D03*
%TO.N,GND*%
X163195000Y-76835000D03*
%TO.N,CV5*%
X163195000Y-79375000D03*
%TO.N,GND*%
X160655000Y-76835000D03*
%TO.N,CV4*%
X160655000Y-79375000D03*
%TO.N,GND*%
X158115000Y-76835000D03*
%TO.N,CV3*%
X158115000Y-79375000D03*
%TO.N,GND*%
X155575000Y-76835000D03*
%TO.N,CV2*%
X155575000Y-79375000D03*
%TO.N,GND*%
X153035000Y-76835000D03*
D11*
%TO.N,CV1*%
X153035000Y-79375000D03*
%TD*%
D10*
%TO.N,GND*%
%TO.C,J3*%
X147955000Y-76835000D03*
%TO.N,OUT6*%
X147955000Y-79375000D03*
%TO.N,GND*%
X145415000Y-76835000D03*
%TO.N,OUT5*%
X145415000Y-79375000D03*
%TO.N,GND*%
X142875000Y-76835000D03*
%TO.N,OUT4*%
X142875000Y-79375000D03*
%TO.N,GND*%
X140335000Y-76835000D03*
%TO.N,OUT3*%
X140335000Y-79375000D03*
%TO.N,GND*%
X137795000Y-76835000D03*
%TO.N,OUT2*%
X137795000Y-79375000D03*
%TO.N,GND*%
X135255000Y-76835000D03*
D11*
%TO.N,OUT1*%
X135255000Y-79375000D03*
%TD*%
D12*
%TO.N,GND*%
X157480000Y-111760000D03*
X165100000Y-111760000D03*
X161290000Y-106680000D03*
%TO.N,Net-(R16-Pad2)*%
X162560000Y-106680000D03*
%TO.N,/Sheet614BBE23/5A*%
X157480000Y-107950000D03*
%TO.N,GND*%
X162560000Y-128270000D03*
%TO.N,+12V*%
X157480000Y-99695000D03*
%TO.N,GND*%
X140970000Y-97790000D03*
%TO.N,-12V*%
X143510000Y-95250000D03*
%TO.N,+12V*%
X146050000Y-100330000D03*
D13*
%TO.N,GND*%
X132080000Y-74295000D03*
X132080000Y-140335000D03*
X168910000Y-140335000D03*
X168910000Y-74295000D03*
D12*
X156210000Y-83185000D03*
X147320000Y-84455000D03*
X151130000Y-109855000D03*
X137160000Y-84455000D03*
X140970000Y-120015000D03*
X139700000Y-113665000D03*
X134620000Y-97155000D03*
X143510000Y-104775000D03*
X138430000Y-125095000D03*
X139700000Y-131445000D03*
X134620000Y-126365000D03*
X148590000Y-128905000D03*
X156210000Y-128905000D03*
%TO.N,/Sheet614BBE23/4A*%
X153670000Y-94615000D03*
X153889900Y-108585000D03*
%TO.N,/Sheet614BBE23/5A*%
X152400000Y-116205000D03*
%TO.N,-12V*%
X139700000Y-126365000D03*
X139700000Y-110490000D03*
%TO.N,+12V*%
X152400000Y-98425000D03*
X156210000Y-102235000D03*
X144780000Y-116205000D03*
X154940000Y-111125000D03*
%TO.N,/Sheet614BBE23/2A*%
X151160010Y-104525090D03*
X151160010Y-97480010D03*
%TO.N,-12V*%
X149860000Y-117475000D03*
X157480000Y-97790000D03*
%TO.N,+12V*%
X144780000Y-127635000D03*
%TO.N,Net-(R1-Pad2)*%
X137160000Y-93345000D03*
%TO.N,CV1*%
X146050000Y-93345000D03*
X147955000Y-89535000D03*
%TO.N,Net-(R4-Pad2)*%
X134620000Y-116205000D03*
%TO.N,Net-(R6-Pad2)*%
X143510000Y-107315000D03*
%TO.N,Net-(R7-Pad2)*%
X135890000Y-123825000D03*
%TO.N,CV2*%
X146050000Y-107315000D03*
%TO.N,Net-(R12-Pad2)*%
X163830000Y-88265000D03*
%TO.N,CV3*%
X150495000Y-84455000D03*
X132900990Y-95699010D03*
%TO.N,OUT6*%
X153670000Y-132715000D03*
%TO.N,OUT4*%
X164210000Y-83185000D03*
%TO.N,OUT3*%
X156210000Y-86995000D03*
%TO.N,GND*%
X162560000Y-96520000D03*
X157480000Y-95250000D03*
%TO.N,/Sheet614BBE23/5A*%
X158953750Y-120853750D03*
%TO.N,/Sheet614BBE23/5Y*%
X156305989Y-111550989D03*
%TO.N,-12V*%
X161290000Y-92710000D03*
X162560000Y-124460000D03*
%TO.N,/Sheet614BBE23/5Y*%
X157480000Y-118110000D03*
%TO.N,-12V*%
X165100000Y-113030000D03*
%TO.N,GND*%
X163830000Y-119380000D03*
%TO.N,-12V*%
X139700000Y-116840000D03*
X163830000Y-106680000D03*
%TO.N,+12V*%
X167640000Y-116840000D03*
%TO.N,Net-(R15-Pad2)*%
X166370000Y-120650000D03*
%TO.N,+12V*%
X163830000Y-92710000D03*
X168590000Y-124780000D03*
%TO.N,Net-(R10-Pad2)*%
X157480000Y-91440000D03*
%TO.N,Net-(R13-Pad2)*%
X160020000Y-121920000D03*
%TO.N,CV6*%
X166370000Y-106680000D03*
%TO.N,Net-(R18-Pad2)*%
X168720000Y-107760000D03*
%TO.N,Net-(R3-Pad2)*%
X142240000Y-90805000D03*
%TO.N,Net-(R9-Pad2)*%
X142240000Y-122555000D03*
%TD*%
D14*
%TO.N,+12V*%
X146959774Y-89836898D02*
X147037795Y-90025256D01*
X147151063Y-90194774D01*
X147295226Y-90338937D01*
X147464744Y-90452205D01*
X147653102Y-90530226D01*
X147853061Y-90570000D01*
X148056939Y-90570000D01*
X148256898Y-90530226D01*
X148445256Y-90452205D01*
X148614774Y-90338937D01*
X148758937Y-90194774D01*
X148872205Y-90025256D01*
X148950226Y-89836898D01*
X148985015Y-89662000D01*
X170053000Y-89662000D01*
X170053000Y-100838000D01*
X132207000Y-100838000D01*
X132207000Y-97053061D01*
X133585000Y-97053061D01*
X133585000Y-97256939D01*
X133624774Y-97456898D01*
X133702795Y-97645256D01*
X133816063Y-97814774D01*
X133960226Y-97958937D01*
X134129744Y-98072205D01*
X134318102Y-98150226D01*
X134518061Y-98190000D01*
X134721939Y-98190000D01*
X134921898Y-98150226D01*
X135110256Y-98072205D01*
X135279774Y-97958937D01*
X135423937Y-97814774D01*
X135508603Y-97688061D01*
X139935000Y-97688061D01*
X139935000Y-97891939D01*
X139974774Y-98091898D01*
X140052795Y-98280256D01*
X140166063Y-98449774D01*
X140310226Y-98593937D01*
X140479744Y-98707205D01*
X140668102Y-98785226D01*
X140868061Y-98825000D01*
X141071939Y-98825000D01*
X141271898Y-98785226D01*
X141460256Y-98707205D01*
X141629774Y-98593937D01*
X141773937Y-98449774D01*
X141887205Y-98280256D01*
X141965226Y-98091898D01*
X142005000Y-97891939D01*
X142005000Y-97688061D01*
X141965226Y-97488102D01*
X141919650Y-97378071D01*
X150125010Y-97378071D01*
X150125010Y-97581949D01*
X150164784Y-97781908D01*
X150242805Y-97970266D01*
X150356073Y-98139784D01*
X150500236Y-98283947D01*
X150669754Y-98397215D01*
X150858112Y-98475236D01*
X151058071Y-98515010D01*
X151261949Y-98515010D01*
X151461908Y-98475236D01*
X151650266Y-98397215D01*
X151819784Y-98283947D01*
X151963947Y-98139784D01*
X152077215Y-97970266D01*
X152155236Y-97781908D01*
X152173903Y-97688061D01*
X156445000Y-97688061D01*
X156445000Y-97891939D01*
X156484774Y-98091898D01*
X156562795Y-98280256D01*
X156676063Y-98449774D01*
X156820226Y-98593937D01*
X156989744Y-98707205D01*
X157178102Y-98785226D01*
X157378061Y-98825000D01*
X157581939Y-98825000D01*
X157781898Y-98785226D01*
X157970256Y-98707205D01*
X158139774Y-98593937D01*
X158283937Y-98449774D01*
X158397205Y-98280256D01*
X158475226Y-98091898D01*
X158515000Y-97891939D01*
X158515000Y-97688061D01*
X158475226Y-97488102D01*
X158397205Y-97299744D01*
X158283937Y-97130226D01*
X158139774Y-96986063D01*
X157970256Y-96872795D01*
X157781898Y-96794774D01*
X157581939Y-96755000D01*
X157378061Y-96755000D01*
X157178102Y-96794774D01*
X156989744Y-96872795D01*
X156820226Y-96986063D01*
X156676063Y-97130226D01*
X156562795Y-97299744D01*
X156484774Y-97488102D01*
X156445000Y-97688061D01*
X152173903Y-97688061D01*
X152195010Y-97581949D01*
X152195010Y-97378071D01*
X152155236Y-97178112D01*
X152077215Y-96989754D01*
X151963947Y-96820236D01*
X151819784Y-96676073D01*
X151650266Y-96562805D01*
X151461908Y-96484784D01*
X151261949Y-96445010D01*
X151058071Y-96445010D01*
X150858112Y-96484784D01*
X150669754Y-96562805D01*
X150500236Y-96676073D01*
X150356073Y-96820236D01*
X150242805Y-96989754D01*
X150164784Y-97178112D01*
X150125010Y-97378071D01*
X141919650Y-97378071D01*
X141887205Y-97299744D01*
X141773937Y-97130226D01*
X141629774Y-96986063D01*
X141460256Y-96872795D01*
X141271898Y-96794774D01*
X141071939Y-96755000D01*
X140868061Y-96755000D01*
X140668102Y-96794774D01*
X140479744Y-96872795D01*
X140310226Y-96986063D01*
X140166063Y-97130226D01*
X140052795Y-97299744D01*
X139974774Y-97488102D01*
X139935000Y-97688061D01*
X135508603Y-97688061D01*
X135537205Y-97645256D01*
X135615226Y-97456898D01*
X135655000Y-97256939D01*
X135655000Y-97053061D01*
X135615226Y-96853102D01*
X135537205Y-96664744D01*
X135423937Y-96495226D01*
X135346772Y-96418061D01*
X161525000Y-96418061D01*
X161525000Y-96621939D01*
X161564774Y-96821898D01*
X161642795Y-97010256D01*
X161756063Y-97179774D01*
X161900226Y-97323937D01*
X162069744Y-97437205D01*
X162258102Y-97515226D01*
X162458061Y-97555000D01*
X162661939Y-97555000D01*
X162861898Y-97515226D01*
X163050256Y-97437205D01*
X163219774Y-97323937D01*
X163363937Y-97179774D01*
X163477205Y-97010256D01*
X163555226Y-96821898D01*
X163595000Y-96621939D01*
X163595000Y-96418061D01*
X163555226Y-96218102D01*
X163477205Y-96029744D01*
X163363937Y-95860226D01*
X163219774Y-95716063D01*
X163050256Y-95602795D01*
X162861898Y-95524774D01*
X162661939Y-95485000D01*
X162458061Y-95485000D01*
X162258102Y-95524774D01*
X162069744Y-95602795D01*
X161900226Y-95716063D01*
X161756063Y-95860226D01*
X161642795Y-96029744D01*
X161564774Y-96218102D01*
X161525000Y-96418061D01*
X135346772Y-96418061D01*
X135279774Y-96351063D01*
X135110256Y-96237795D01*
X134921898Y-96159774D01*
X134721939Y-96120000D01*
X134518061Y-96120000D01*
X134318102Y-96159774D01*
X134129744Y-96237795D01*
X133960226Y-96351063D01*
X133816063Y-96495226D01*
X133702795Y-96664744D01*
X133624774Y-96853102D01*
X133585000Y-97053061D01*
X132207000Y-97053061D01*
X132207000Y-96468731D01*
X132241216Y-96502947D01*
X132410734Y-96616215D01*
X132599092Y-96694236D01*
X132799051Y-96734010D01*
X133002929Y-96734010D01*
X133202888Y-96694236D01*
X133391246Y-96616215D01*
X133560764Y-96502947D01*
X133704927Y-96358784D01*
X133818195Y-96189266D01*
X133896216Y-96000908D01*
X133935990Y-95800949D01*
X133935990Y-95597071D01*
X133896216Y-95397112D01*
X133818195Y-95208754D01*
X133777642Y-95148061D01*
X142475000Y-95148061D01*
X142475000Y-95351939D01*
X142514774Y-95551898D01*
X142592795Y-95740256D01*
X142706063Y-95909774D01*
X142850226Y-96053937D01*
X143019744Y-96167205D01*
X143208102Y-96245226D01*
X143408061Y-96285000D01*
X143611939Y-96285000D01*
X143811898Y-96245226D01*
X144000256Y-96167205D01*
X144169774Y-96053937D01*
X144313937Y-95909774D01*
X144427205Y-95740256D01*
X144505226Y-95551898D01*
X144545000Y-95351939D01*
X144545000Y-95148061D01*
X144505226Y-94948102D01*
X144427205Y-94759744D01*
X144313937Y-94590226D01*
X144236772Y-94513061D01*
X152635000Y-94513061D01*
X152635000Y-94716939D01*
X152674774Y-94916898D01*
X152752795Y-95105256D01*
X152866063Y-95274774D01*
X153010226Y-95418937D01*
X153179744Y-95532205D01*
X153368102Y-95610226D01*
X153568061Y-95650000D01*
X153771939Y-95650000D01*
X153971898Y-95610226D01*
X154160256Y-95532205D01*
X154329774Y-95418937D01*
X154473937Y-95274774D01*
X154558603Y-95148061D01*
X156445000Y-95148061D01*
X156445000Y-95351939D01*
X156484774Y-95551898D01*
X156562795Y-95740256D01*
X156676063Y-95909774D01*
X156820226Y-96053937D01*
X156989744Y-96167205D01*
X157178102Y-96245226D01*
X157378061Y-96285000D01*
X157581939Y-96285000D01*
X157781898Y-96245226D01*
X157970256Y-96167205D01*
X158139774Y-96053937D01*
X158283937Y-95909774D01*
X158397205Y-95740256D01*
X158475226Y-95551898D01*
X158515000Y-95351939D01*
X158515000Y-95148061D01*
X158475226Y-94948102D01*
X158397205Y-94759744D01*
X158283937Y-94590226D01*
X158139774Y-94446063D01*
X157970256Y-94332795D01*
X157781898Y-94254774D01*
X157581939Y-94215000D01*
X157378061Y-94215000D01*
X157178102Y-94254774D01*
X156989744Y-94332795D01*
X156820226Y-94446063D01*
X156676063Y-94590226D01*
X156562795Y-94759744D01*
X156484774Y-94948102D01*
X156445000Y-95148061D01*
X154558603Y-95148061D01*
X154587205Y-95105256D01*
X154665226Y-94916898D01*
X154705000Y-94716939D01*
X154705000Y-94513061D01*
X154665226Y-94313102D01*
X154587205Y-94124744D01*
X154473937Y-93955226D01*
X154329774Y-93811063D01*
X154160256Y-93697795D01*
X153971898Y-93619774D01*
X153771939Y-93580000D01*
X153568061Y-93580000D01*
X153368102Y-93619774D01*
X153179744Y-93697795D01*
X153010226Y-93811063D01*
X152866063Y-93955226D01*
X152752795Y-94124744D01*
X152674774Y-94313102D01*
X152635000Y-94513061D01*
X144236772Y-94513061D01*
X144169774Y-94446063D01*
X144000256Y-94332795D01*
X143811898Y-94254774D01*
X143611939Y-94215000D01*
X143408061Y-94215000D01*
X143208102Y-94254774D01*
X143019744Y-94332795D01*
X142850226Y-94446063D01*
X142706063Y-94590226D01*
X142592795Y-94759744D01*
X142514774Y-94948102D01*
X142475000Y-95148061D01*
X133777642Y-95148061D01*
X133704927Y-95039236D01*
X133560764Y-94895073D01*
X133391246Y-94781805D01*
X133202888Y-94703784D01*
X133002929Y-94664010D01*
X132799051Y-94664010D01*
X132599092Y-94703784D01*
X132410734Y-94781805D01*
X132241216Y-94895073D01*
X132207000Y-94929289D01*
X132207000Y-93243061D01*
X136125000Y-93243061D01*
X136125000Y-93446939D01*
X136164774Y-93646898D01*
X136242795Y-93835256D01*
X136356063Y-94004774D01*
X136500226Y-94148937D01*
X136669744Y-94262205D01*
X136858102Y-94340226D01*
X137058061Y-94380000D01*
X137261939Y-94380000D01*
X137461898Y-94340226D01*
X137650256Y-94262205D01*
X137819774Y-94148937D01*
X137963937Y-94004774D01*
X138077205Y-93835256D01*
X138155226Y-93646898D01*
X138195000Y-93446939D01*
X138195000Y-93243061D01*
X145015000Y-93243061D01*
X145015000Y-93446939D01*
X145054774Y-93646898D01*
X145132795Y-93835256D01*
X145246063Y-94004774D01*
X145390226Y-94148937D01*
X145559744Y-94262205D01*
X145748102Y-94340226D01*
X145948061Y-94380000D01*
X146151939Y-94380000D01*
X146351898Y-94340226D01*
X146540256Y-94262205D01*
X146709774Y-94148937D01*
X146853937Y-94004774D01*
X146967205Y-93835256D01*
X147045226Y-93646898D01*
X147085000Y-93446939D01*
X147085000Y-93243061D01*
X147045226Y-93043102D01*
X146967205Y-92854744D01*
X146853937Y-92685226D01*
X146776772Y-92608061D01*
X160255000Y-92608061D01*
X160255000Y-92811939D01*
X160294774Y-93011898D01*
X160372795Y-93200256D01*
X160486063Y-93369774D01*
X160630226Y-93513937D01*
X160799744Y-93627205D01*
X160988102Y-93705226D01*
X161188061Y-93745000D01*
X161391939Y-93745000D01*
X161591898Y-93705226D01*
X161780256Y-93627205D01*
X161949774Y-93513937D01*
X162093937Y-93369774D01*
X162207205Y-93200256D01*
X162285226Y-93011898D01*
X162325000Y-92811939D01*
X162325000Y-92608061D01*
X162285226Y-92408102D01*
X162207205Y-92219744D01*
X162093937Y-92050226D01*
X161949774Y-91906063D01*
X161780256Y-91792795D01*
X161591898Y-91714774D01*
X161391939Y-91675000D01*
X161188061Y-91675000D01*
X160988102Y-91714774D01*
X160799744Y-91792795D01*
X160630226Y-91906063D01*
X160486063Y-92050226D01*
X160372795Y-92219744D01*
X160294774Y-92408102D01*
X160255000Y-92608061D01*
X146776772Y-92608061D01*
X146709774Y-92541063D01*
X146540256Y-92427795D01*
X146351898Y-92349774D01*
X146151939Y-92310000D01*
X145948061Y-92310000D01*
X145748102Y-92349774D01*
X145559744Y-92427795D01*
X145390226Y-92541063D01*
X145246063Y-92685226D01*
X145132795Y-92854744D01*
X145054774Y-93043102D01*
X145015000Y-93243061D01*
X138195000Y-93243061D01*
X138155226Y-93043102D01*
X138077205Y-92854744D01*
X137963937Y-92685226D01*
X137819774Y-92541063D01*
X137650256Y-92427795D01*
X137461898Y-92349774D01*
X137261939Y-92310000D01*
X137058061Y-92310000D01*
X136858102Y-92349774D01*
X136669744Y-92427795D01*
X136500226Y-92541063D01*
X136356063Y-92685226D01*
X136242795Y-92854744D01*
X136164774Y-93043102D01*
X136125000Y-93243061D01*
X132207000Y-93243061D01*
X132207000Y-90703061D01*
X141205000Y-90703061D01*
X141205000Y-90906939D01*
X141244774Y-91106898D01*
X141322795Y-91295256D01*
X141436063Y-91464774D01*
X141580226Y-91608937D01*
X141749744Y-91722205D01*
X141938102Y-91800226D01*
X142138061Y-91840000D01*
X142341939Y-91840000D01*
X142541898Y-91800226D01*
X142730256Y-91722205D01*
X142899774Y-91608937D01*
X143043937Y-91464774D01*
X143128603Y-91338061D01*
X156445000Y-91338061D01*
X156445000Y-91541939D01*
X156484774Y-91741898D01*
X156562795Y-91930256D01*
X156676063Y-92099774D01*
X156820226Y-92243937D01*
X156989744Y-92357205D01*
X157178102Y-92435226D01*
X157378061Y-92475000D01*
X157581939Y-92475000D01*
X157781898Y-92435226D01*
X157970256Y-92357205D01*
X158139774Y-92243937D01*
X158283937Y-92099774D01*
X158397205Y-91930256D01*
X158475226Y-91741898D01*
X158515000Y-91541939D01*
X158515000Y-91338061D01*
X158475226Y-91138102D01*
X158397205Y-90949744D01*
X158283937Y-90780226D01*
X158139774Y-90636063D01*
X157970256Y-90522795D01*
X157781898Y-90444774D01*
X157581939Y-90405000D01*
X157378061Y-90405000D01*
X157178102Y-90444774D01*
X156989744Y-90522795D01*
X156820226Y-90636063D01*
X156676063Y-90780226D01*
X156562795Y-90949744D01*
X156484774Y-91138102D01*
X156445000Y-91338061D01*
X143128603Y-91338061D01*
X143157205Y-91295256D01*
X143235226Y-91106898D01*
X143275000Y-90906939D01*
X143275000Y-90703061D01*
X143235226Y-90503102D01*
X143157205Y-90314744D01*
X143043937Y-90145226D01*
X142899774Y-90001063D01*
X142730256Y-89887795D01*
X142541898Y-89809774D01*
X142341939Y-89770000D01*
X142138061Y-89770000D01*
X141938102Y-89809774D01*
X141749744Y-89887795D01*
X141580226Y-90001063D01*
X141436063Y-90145226D01*
X141322795Y-90314744D01*
X141244774Y-90503102D01*
X141205000Y-90703061D01*
X132207000Y-90703061D01*
X132207000Y-89662000D01*
X146924985Y-89662000D01*
X146959774Y-89836898D01*
%TA.AperFunction,Conductor*%
D15*
G36*
X146959774Y-89836898D02*
G01*
X147037795Y-90025256D01*
X147151063Y-90194774D01*
X147295226Y-90338937D01*
X147464744Y-90452205D01*
X147653102Y-90530226D01*
X147853061Y-90570000D01*
X148056939Y-90570000D01*
X148256898Y-90530226D01*
X148445256Y-90452205D01*
X148614774Y-90338937D01*
X148758937Y-90194774D01*
X148872205Y-90025256D01*
X148950226Y-89836898D01*
X148985015Y-89662000D01*
X170053000Y-89662000D01*
X170053000Y-100838000D01*
X132207000Y-100838000D01*
X132207000Y-97053061D01*
X133585000Y-97053061D01*
X133585000Y-97256939D01*
X133624774Y-97456898D01*
X133702795Y-97645256D01*
X133816063Y-97814774D01*
X133960226Y-97958937D01*
X134129744Y-98072205D01*
X134318102Y-98150226D01*
X134518061Y-98190000D01*
X134721939Y-98190000D01*
X134921898Y-98150226D01*
X135110256Y-98072205D01*
X135279774Y-97958937D01*
X135423937Y-97814774D01*
X135508603Y-97688061D01*
X139935000Y-97688061D01*
X139935000Y-97891939D01*
X139974774Y-98091898D01*
X140052795Y-98280256D01*
X140166063Y-98449774D01*
X140310226Y-98593937D01*
X140479744Y-98707205D01*
X140668102Y-98785226D01*
X140868061Y-98825000D01*
X141071939Y-98825000D01*
X141271898Y-98785226D01*
X141460256Y-98707205D01*
X141629774Y-98593937D01*
X141773937Y-98449774D01*
X141887205Y-98280256D01*
X141965226Y-98091898D01*
X142005000Y-97891939D01*
X142005000Y-97688061D01*
X141965226Y-97488102D01*
X141919650Y-97378071D01*
X150125010Y-97378071D01*
X150125010Y-97581949D01*
X150164784Y-97781908D01*
X150242805Y-97970266D01*
X150356073Y-98139784D01*
X150500236Y-98283947D01*
X150669754Y-98397215D01*
X150858112Y-98475236D01*
X151058071Y-98515010D01*
X151261949Y-98515010D01*
X151461908Y-98475236D01*
X151650266Y-98397215D01*
X151819784Y-98283947D01*
X151963947Y-98139784D01*
X152077215Y-97970266D01*
X152155236Y-97781908D01*
X152173903Y-97688061D01*
X156445000Y-97688061D01*
X156445000Y-97891939D01*
X156484774Y-98091898D01*
X156562795Y-98280256D01*
X156676063Y-98449774D01*
X156820226Y-98593937D01*
X156989744Y-98707205D01*
X157178102Y-98785226D01*
X157378061Y-98825000D01*
X157581939Y-98825000D01*
X157781898Y-98785226D01*
X157970256Y-98707205D01*
X158139774Y-98593937D01*
X158283937Y-98449774D01*
X158397205Y-98280256D01*
X158475226Y-98091898D01*
X158515000Y-97891939D01*
X158515000Y-97688061D01*
X158475226Y-97488102D01*
X158397205Y-97299744D01*
X158283937Y-97130226D01*
X158139774Y-96986063D01*
X157970256Y-96872795D01*
X157781898Y-96794774D01*
X157581939Y-96755000D01*
X157378061Y-96755000D01*
X157178102Y-96794774D01*
X156989744Y-96872795D01*
X156820226Y-96986063D01*
X156676063Y-97130226D01*
X156562795Y-97299744D01*
X156484774Y-97488102D01*
X156445000Y-97688061D01*
X152173903Y-97688061D01*
X152195010Y-97581949D01*
X152195010Y-97378071D01*
X152155236Y-97178112D01*
X152077215Y-96989754D01*
X151963947Y-96820236D01*
X151819784Y-96676073D01*
X151650266Y-96562805D01*
X151461908Y-96484784D01*
X151261949Y-96445010D01*
X151058071Y-96445010D01*
X150858112Y-96484784D01*
X150669754Y-96562805D01*
X150500236Y-96676073D01*
X150356073Y-96820236D01*
X150242805Y-96989754D01*
X150164784Y-97178112D01*
X150125010Y-97378071D01*
X141919650Y-97378071D01*
X141887205Y-97299744D01*
X141773937Y-97130226D01*
X141629774Y-96986063D01*
X141460256Y-96872795D01*
X141271898Y-96794774D01*
X141071939Y-96755000D01*
X140868061Y-96755000D01*
X140668102Y-96794774D01*
X140479744Y-96872795D01*
X140310226Y-96986063D01*
X140166063Y-97130226D01*
X140052795Y-97299744D01*
X139974774Y-97488102D01*
X139935000Y-97688061D01*
X135508603Y-97688061D01*
X135537205Y-97645256D01*
X135615226Y-97456898D01*
X135655000Y-97256939D01*
X135655000Y-97053061D01*
X135615226Y-96853102D01*
X135537205Y-96664744D01*
X135423937Y-96495226D01*
X135346772Y-96418061D01*
X161525000Y-96418061D01*
X161525000Y-96621939D01*
X161564774Y-96821898D01*
X161642795Y-97010256D01*
X161756063Y-97179774D01*
X161900226Y-97323937D01*
X162069744Y-97437205D01*
X162258102Y-97515226D01*
X162458061Y-97555000D01*
X162661939Y-97555000D01*
X162861898Y-97515226D01*
X163050256Y-97437205D01*
X163219774Y-97323937D01*
X163363937Y-97179774D01*
X163477205Y-97010256D01*
X163555226Y-96821898D01*
X163595000Y-96621939D01*
X163595000Y-96418061D01*
X163555226Y-96218102D01*
X163477205Y-96029744D01*
X163363937Y-95860226D01*
X163219774Y-95716063D01*
X163050256Y-95602795D01*
X162861898Y-95524774D01*
X162661939Y-95485000D01*
X162458061Y-95485000D01*
X162258102Y-95524774D01*
X162069744Y-95602795D01*
X161900226Y-95716063D01*
X161756063Y-95860226D01*
X161642795Y-96029744D01*
X161564774Y-96218102D01*
X161525000Y-96418061D01*
X135346772Y-96418061D01*
X135279774Y-96351063D01*
X135110256Y-96237795D01*
X134921898Y-96159774D01*
X134721939Y-96120000D01*
X134518061Y-96120000D01*
X134318102Y-96159774D01*
X134129744Y-96237795D01*
X133960226Y-96351063D01*
X133816063Y-96495226D01*
X133702795Y-96664744D01*
X133624774Y-96853102D01*
X133585000Y-97053061D01*
X132207000Y-97053061D01*
X132207000Y-96468731D01*
X132241216Y-96502947D01*
X132410734Y-96616215D01*
X132599092Y-96694236D01*
X132799051Y-96734010D01*
X133002929Y-96734010D01*
X133202888Y-96694236D01*
X133391246Y-96616215D01*
X133560764Y-96502947D01*
X133704927Y-96358784D01*
X133818195Y-96189266D01*
X133896216Y-96000908D01*
X133935990Y-95800949D01*
X133935990Y-95597071D01*
X133896216Y-95397112D01*
X133818195Y-95208754D01*
X133777642Y-95148061D01*
X142475000Y-95148061D01*
X142475000Y-95351939D01*
X142514774Y-95551898D01*
X142592795Y-95740256D01*
X142706063Y-95909774D01*
X142850226Y-96053937D01*
X143019744Y-96167205D01*
X143208102Y-96245226D01*
X143408061Y-96285000D01*
X143611939Y-96285000D01*
X143811898Y-96245226D01*
X144000256Y-96167205D01*
X144169774Y-96053937D01*
X144313937Y-95909774D01*
X144427205Y-95740256D01*
X144505226Y-95551898D01*
X144545000Y-95351939D01*
X144545000Y-95148061D01*
X144505226Y-94948102D01*
X144427205Y-94759744D01*
X144313937Y-94590226D01*
X144236772Y-94513061D01*
X152635000Y-94513061D01*
X152635000Y-94716939D01*
X152674774Y-94916898D01*
X152752795Y-95105256D01*
X152866063Y-95274774D01*
X153010226Y-95418937D01*
X153179744Y-95532205D01*
X153368102Y-95610226D01*
X153568061Y-95650000D01*
X153771939Y-95650000D01*
X153971898Y-95610226D01*
X154160256Y-95532205D01*
X154329774Y-95418937D01*
X154473937Y-95274774D01*
X154558603Y-95148061D01*
X156445000Y-95148061D01*
X156445000Y-95351939D01*
X156484774Y-95551898D01*
X156562795Y-95740256D01*
X156676063Y-95909774D01*
X156820226Y-96053937D01*
X156989744Y-96167205D01*
X157178102Y-96245226D01*
X157378061Y-96285000D01*
X157581939Y-96285000D01*
X157781898Y-96245226D01*
X157970256Y-96167205D01*
X158139774Y-96053937D01*
X158283937Y-95909774D01*
X158397205Y-95740256D01*
X158475226Y-95551898D01*
X158515000Y-95351939D01*
X158515000Y-95148061D01*
X158475226Y-94948102D01*
X158397205Y-94759744D01*
X158283937Y-94590226D01*
X158139774Y-94446063D01*
X157970256Y-94332795D01*
X157781898Y-94254774D01*
X157581939Y-94215000D01*
X157378061Y-94215000D01*
X157178102Y-94254774D01*
X156989744Y-94332795D01*
X156820226Y-94446063D01*
X156676063Y-94590226D01*
X156562795Y-94759744D01*
X156484774Y-94948102D01*
X156445000Y-95148061D01*
X154558603Y-95148061D01*
X154587205Y-95105256D01*
X154665226Y-94916898D01*
X154705000Y-94716939D01*
X154705000Y-94513061D01*
X154665226Y-94313102D01*
X154587205Y-94124744D01*
X154473937Y-93955226D01*
X154329774Y-93811063D01*
X154160256Y-93697795D01*
X153971898Y-93619774D01*
X153771939Y-93580000D01*
X153568061Y-93580000D01*
X153368102Y-93619774D01*
X153179744Y-93697795D01*
X153010226Y-93811063D01*
X152866063Y-93955226D01*
X152752795Y-94124744D01*
X152674774Y-94313102D01*
X152635000Y-94513061D01*
X144236772Y-94513061D01*
X144169774Y-94446063D01*
X144000256Y-94332795D01*
X143811898Y-94254774D01*
X143611939Y-94215000D01*
X143408061Y-94215000D01*
X143208102Y-94254774D01*
X143019744Y-94332795D01*
X142850226Y-94446063D01*
X142706063Y-94590226D01*
X142592795Y-94759744D01*
X142514774Y-94948102D01*
X142475000Y-95148061D01*
X133777642Y-95148061D01*
X133704927Y-95039236D01*
X133560764Y-94895073D01*
X133391246Y-94781805D01*
X133202888Y-94703784D01*
X133002929Y-94664010D01*
X132799051Y-94664010D01*
X132599092Y-94703784D01*
X132410734Y-94781805D01*
X132241216Y-94895073D01*
X132207000Y-94929289D01*
X132207000Y-93243061D01*
X136125000Y-93243061D01*
X136125000Y-93446939D01*
X136164774Y-93646898D01*
X136242795Y-93835256D01*
X136356063Y-94004774D01*
X136500226Y-94148937D01*
X136669744Y-94262205D01*
X136858102Y-94340226D01*
X137058061Y-94380000D01*
X137261939Y-94380000D01*
X137461898Y-94340226D01*
X137650256Y-94262205D01*
X137819774Y-94148937D01*
X137963937Y-94004774D01*
X138077205Y-93835256D01*
X138155226Y-93646898D01*
X138195000Y-93446939D01*
X138195000Y-93243061D01*
X145015000Y-93243061D01*
X145015000Y-93446939D01*
X145054774Y-93646898D01*
X145132795Y-93835256D01*
X145246063Y-94004774D01*
X145390226Y-94148937D01*
X145559744Y-94262205D01*
X145748102Y-94340226D01*
X145948061Y-94380000D01*
X146151939Y-94380000D01*
X146351898Y-94340226D01*
X146540256Y-94262205D01*
X146709774Y-94148937D01*
X146853937Y-94004774D01*
X146967205Y-93835256D01*
X147045226Y-93646898D01*
X147085000Y-93446939D01*
X147085000Y-93243061D01*
X147045226Y-93043102D01*
X146967205Y-92854744D01*
X146853937Y-92685226D01*
X146776772Y-92608061D01*
X160255000Y-92608061D01*
X160255000Y-92811939D01*
X160294774Y-93011898D01*
X160372795Y-93200256D01*
X160486063Y-93369774D01*
X160630226Y-93513937D01*
X160799744Y-93627205D01*
X160988102Y-93705226D01*
X161188061Y-93745000D01*
X161391939Y-93745000D01*
X161591898Y-93705226D01*
X161780256Y-93627205D01*
X161949774Y-93513937D01*
X162093937Y-93369774D01*
X162207205Y-93200256D01*
X162285226Y-93011898D01*
X162325000Y-92811939D01*
X162325000Y-92608061D01*
X162285226Y-92408102D01*
X162207205Y-92219744D01*
X162093937Y-92050226D01*
X161949774Y-91906063D01*
X161780256Y-91792795D01*
X161591898Y-91714774D01*
X161391939Y-91675000D01*
X161188061Y-91675000D01*
X160988102Y-91714774D01*
X160799744Y-91792795D01*
X160630226Y-91906063D01*
X160486063Y-92050226D01*
X160372795Y-92219744D01*
X160294774Y-92408102D01*
X160255000Y-92608061D01*
X146776772Y-92608061D01*
X146709774Y-92541063D01*
X146540256Y-92427795D01*
X146351898Y-92349774D01*
X146151939Y-92310000D01*
X145948061Y-92310000D01*
X145748102Y-92349774D01*
X145559744Y-92427795D01*
X145390226Y-92541063D01*
X145246063Y-92685226D01*
X145132795Y-92854744D01*
X145054774Y-93043102D01*
X145015000Y-93243061D01*
X138195000Y-93243061D01*
X138155226Y-93043102D01*
X138077205Y-92854744D01*
X137963937Y-92685226D01*
X137819774Y-92541063D01*
X137650256Y-92427795D01*
X137461898Y-92349774D01*
X137261939Y-92310000D01*
X137058061Y-92310000D01*
X136858102Y-92349774D01*
X136669744Y-92427795D01*
X136500226Y-92541063D01*
X136356063Y-92685226D01*
X136242795Y-92854744D01*
X136164774Y-93043102D01*
X136125000Y-93243061D01*
X132207000Y-93243061D01*
X132207000Y-90703061D01*
X141205000Y-90703061D01*
X141205000Y-90906939D01*
X141244774Y-91106898D01*
X141322795Y-91295256D01*
X141436063Y-91464774D01*
X141580226Y-91608937D01*
X141749744Y-91722205D01*
X141938102Y-91800226D01*
X142138061Y-91840000D01*
X142341939Y-91840000D01*
X142541898Y-91800226D01*
X142730256Y-91722205D01*
X142899774Y-91608937D01*
X143043937Y-91464774D01*
X143128603Y-91338061D01*
X156445000Y-91338061D01*
X156445000Y-91541939D01*
X156484774Y-91741898D01*
X156562795Y-91930256D01*
X156676063Y-92099774D01*
X156820226Y-92243937D01*
X156989744Y-92357205D01*
X157178102Y-92435226D01*
X157378061Y-92475000D01*
X157581939Y-92475000D01*
X157781898Y-92435226D01*
X157970256Y-92357205D01*
X158139774Y-92243937D01*
X158283937Y-92099774D01*
X158397205Y-91930256D01*
X158475226Y-91741898D01*
X158515000Y-91541939D01*
X158515000Y-91338061D01*
X158475226Y-91138102D01*
X158397205Y-90949744D01*
X158283937Y-90780226D01*
X158139774Y-90636063D01*
X157970256Y-90522795D01*
X157781898Y-90444774D01*
X157581939Y-90405000D01*
X157378061Y-90405000D01*
X157178102Y-90444774D01*
X156989744Y-90522795D01*
X156820226Y-90636063D01*
X156676063Y-90780226D01*
X156562795Y-90949744D01*
X156484774Y-91138102D01*
X156445000Y-91338061D01*
X143128603Y-91338061D01*
X143157205Y-91295256D01*
X143235226Y-91106898D01*
X143275000Y-90906939D01*
X143275000Y-90703061D01*
X143235226Y-90503102D01*
X143157205Y-90314744D01*
X143043937Y-90145226D01*
X142899774Y-90001063D01*
X142730256Y-89887795D01*
X142541898Y-89809774D01*
X142341939Y-89770000D01*
X142138061Y-89770000D01*
X141938102Y-89809774D01*
X141749744Y-89887795D01*
X141580226Y-90001063D01*
X141436063Y-90145226D01*
X141322795Y-90314744D01*
X141244774Y-90503102D01*
X141205000Y-90703061D01*
X132207000Y-90703061D01*
X132207000Y-89662000D01*
X146924985Y-89662000D01*
X146959774Y-89836898D01*
G37*
%TD.AperFunction*%
%TD*%
D14*
%TO.N,-12V*%
X154280226Y-111928937D02*
X154449744Y-112042205D01*
X154638102Y-112120226D01*
X154838061Y-112160000D01*
X155041939Y-112160000D01*
X155241898Y-112120226D01*
X155398276Y-112055451D01*
X155502052Y-112210763D01*
X155646215Y-112354926D01*
X155815733Y-112468194D01*
X156004091Y-112546215D01*
X156204050Y-112585989D01*
X156407928Y-112585989D01*
X156607887Y-112546215D01*
X156745502Y-112489213D01*
X156820226Y-112563937D01*
X156989744Y-112677205D01*
X157178102Y-112755226D01*
X157378061Y-112795000D01*
X157581939Y-112795000D01*
X157781898Y-112755226D01*
X157970256Y-112677205D01*
X158139774Y-112563937D01*
X158283937Y-112419774D01*
X158397205Y-112250256D01*
X158475226Y-112061898D01*
X158510015Y-111887000D01*
X164069985Y-111887000D01*
X164104774Y-112061898D01*
X164182795Y-112250256D01*
X164296063Y-112419774D01*
X164440226Y-112563937D01*
X164609744Y-112677205D01*
X164798102Y-112755226D01*
X164998061Y-112795000D01*
X165201939Y-112795000D01*
X165401898Y-112755226D01*
X165590256Y-112677205D01*
X165759774Y-112563937D01*
X165903937Y-112419774D01*
X166017205Y-112250256D01*
X166095226Y-112061898D01*
X166130015Y-111887000D01*
X170053000Y-111887000D01*
X170053000Y-127508000D01*
X163261711Y-127508000D01*
X163219774Y-127466063D01*
X163050256Y-127352795D01*
X162861898Y-127274774D01*
X162661939Y-127235000D01*
X162458061Y-127235000D01*
X162258102Y-127274774D01*
X162069744Y-127352795D01*
X161900226Y-127466063D01*
X161858289Y-127508000D01*
X145810015Y-127508000D01*
X145775226Y-127333102D01*
X145697205Y-127144744D01*
X145583937Y-126975226D01*
X145439774Y-126831063D01*
X145270256Y-126717795D01*
X145081898Y-126639774D01*
X144881939Y-126600000D01*
X144678061Y-126600000D01*
X144478102Y-126639774D01*
X144289744Y-126717795D01*
X144120226Y-126831063D01*
X143976063Y-126975226D01*
X143862795Y-127144744D01*
X143784774Y-127333102D01*
X143749985Y-127508000D01*
X132207000Y-127508000D01*
X132207000Y-126263061D01*
X133585000Y-126263061D01*
X133585000Y-126466939D01*
X133624774Y-126666898D01*
X133702795Y-126855256D01*
X133816063Y-127024774D01*
X133960226Y-127168937D01*
X134129744Y-127282205D01*
X134318102Y-127360226D01*
X134518061Y-127400000D01*
X134721939Y-127400000D01*
X134921898Y-127360226D01*
X135110256Y-127282205D01*
X135279774Y-127168937D01*
X135423937Y-127024774D01*
X135537205Y-126855256D01*
X135615226Y-126666898D01*
X135655000Y-126466939D01*
X135655000Y-126263061D01*
X135615226Y-126063102D01*
X135537205Y-125874744D01*
X135423937Y-125705226D01*
X135279774Y-125561063D01*
X135110256Y-125447795D01*
X134921898Y-125369774D01*
X134721939Y-125330000D01*
X134518061Y-125330000D01*
X134318102Y-125369774D01*
X134129744Y-125447795D01*
X133960226Y-125561063D01*
X133816063Y-125705226D01*
X133702795Y-125874744D01*
X133624774Y-126063102D01*
X133585000Y-126263061D01*
X132207000Y-126263061D01*
X132207000Y-124993061D01*
X137395000Y-124993061D01*
X137395000Y-125196939D01*
X137434774Y-125396898D01*
X137512795Y-125585256D01*
X137626063Y-125754774D01*
X137770226Y-125898937D01*
X137939744Y-126012205D01*
X138128102Y-126090226D01*
X138328061Y-126130000D01*
X138531939Y-126130000D01*
X138731898Y-126090226D01*
X138920256Y-126012205D01*
X139089774Y-125898937D01*
X139233937Y-125754774D01*
X139347205Y-125585256D01*
X139425226Y-125396898D01*
X139465000Y-125196939D01*
X139465000Y-124993061D01*
X139425226Y-124793102D01*
X139377575Y-124678061D01*
X167555000Y-124678061D01*
X167555000Y-124881939D01*
X167594774Y-125081898D01*
X167672795Y-125270256D01*
X167786063Y-125439774D01*
X167930226Y-125583937D01*
X168099744Y-125697205D01*
X168288102Y-125775226D01*
X168488061Y-125815000D01*
X168691939Y-125815000D01*
X168891898Y-125775226D01*
X169080256Y-125697205D01*
X169249774Y-125583937D01*
X169393937Y-125439774D01*
X169507205Y-125270256D01*
X169585226Y-125081898D01*
X169625000Y-124881939D01*
X169625000Y-124678061D01*
X169585226Y-124478102D01*
X169507205Y-124289744D01*
X169393937Y-124120226D01*
X169249774Y-123976063D01*
X169080256Y-123862795D01*
X168891898Y-123784774D01*
X168691939Y-123745000D01*
X168488061Y-123745000D01*
X168288102Y-123784774D01*
X168099744Y-123862795D01*
X167930226Y-123976063D01*
X167786063Y-124120226D01*
X167672795Y-124289744D01*
X167594774Y-124478102D01*
X167555000Y-124678061D01*
X139377575Y-124678061D01*
X139347205Y-124604744D01*
X139233937Y-124435226D01*
X139089774Y-124291063D01*
X138920256Y-124177795D01*
X138731898Y-124099774D01*
X138531939Y-124060000D01*
X138328061Y-124060000D01*
X138128102Y-124099774D01*
X137939744Y-124177795D01*
X137770226Y-124291063D01*
X137626063Y-124435226D01*
X137512795Y-124604744D01*
X137434774Y-124793102D01*
X137395000Y-124993061D01*
X132207000Y-124993061D01*
X132207000Y-123723061D01*
X134855000Y-123723061D01*
X134855000Y-123926939D01*
X134894774Y-124126898D01*
X134972795Y-124315256D01*
X135086063Y-124484774D01*
X135230226Y-124628937D01*
X135399744Y-124742205D01*
X135588102Y-124820226D01*
X135788061Y-124860000D01*
X135991939Y-124860000D01*
X136191898Y-124820226D01*
X136380256Y-124742205D01*
X136549774Y-124628937D01*
X136693937Y-124484774D01*
X136807205Y-124315256D01*
X136885226Y-124126898D01*
X136925000Y-123926939D01*
X136925000Y-123723061D01*
X136885226Y-123523102D01*
X136807205Y-123334744D01*
X136693937Y-123165226D01*
X136549774Y-123021063D01*
X136380256Y-122907795D01*
X136191898Y-122829774D01*
X135991939Y-122790000D01*
X135788061Y-122790000D01*
X135588102Y-122829774D01*
X135399744Y-122907795D01*
X135230226Y-123021063D01*
X135086063Y-123165226D01*
X134972795Y-123334744D01*
X134894774Y-123523102D01*
X134855000Y-123723061D01*
X132207000Y-123723061D01*
X132207000Y-122453061D01*
X141205000Y-122453061D01*
X141205000Y-122656939D01*
X141244774Y-122856898D01*
X141322795Y-123045256D01*
X141436063Y-123214774D01*
X141580226Y-123358937D01*
X141749744Y-123472205D01*
X141938102Y-123550226D01*
X142138061Y-123590000D01*
X142341939Y-123590000D01*
X142541898Y-123550226D01*
X142730256Y-123472205D01*
X142899774Y-123358937D01*
X143043937Y-123214774D01*
X143157205Y-123045256D01*
X143235226Y-122856898D01*
X143275000Y-122656939D01*
X143275000Y-122453061D01*
X143235226Y-122253102D01*
X143157205Y-122064744D01*
X143043937Y-121895226D01*
X142899774Y-121751063D01*
X142730256Y-121637795D01*
X142541898Y-121559774D01*
X142341939Y-121520000D01*
X142138061Y-121520000D01*
X141938102Y-121559774D01*
X141749744Y-121637795D01*
X141580226Y-121751063D01*
X141436063Y-121895226D01*
X141322795Y-122064744D01*
X141244774Y-122253102D01*
X141205000Y-122453061D01*
X132207000Y-122453061D01*
X132207000Y-119913061D01*
X139935000Y-119913061D01*
X139935000Y-120116939D01*
X139974774Y-120316898D01*
X140052795Y-120505256D01*
X140166063Y-120674774D01*
X140310226Y-120818937D01*
X140479744Y-120932205D01*
X140668102Y-121010226D01*
X140868061Y-121050000D01*
X141071939Y-121050000D01*
X141271898Y-121010226D01*
X141460256Y-120932205D01*
X141629774Y-120818937D01*
X141696900Y-120751811D01*
X157918750Y-120751811D01*
X157918750Y-120955689D01*
X157958524Y-121155648D01*
X158036545Y-121344006D01*
X158149813Y-121513524D01*
X158293976Y-121657687D01*
X158463494Y-121770955D01*
X158651852Y-121848976D01*
X158851811Y-121888750D01*
X158985000Y-121888750D01*
X158985000Y-122021939D01*
X159024774Y-122221898D01*
X159102795Y-122410256D01*
X159216063Y-122579774D01*
X159360226Y-122723937D01*
X159529744Y-122837205D01*
X159718102Y-122915226D01*
X159918061Y-122955000D01*
X160121939Y-122955000D01*
X160321898Y-122915226D01*
X160510256Y-122837205D01*
X160679774Y-122723937D01*
X160823937Y-122579774D01*
X160937205Y-122410256D01*
X161015226Y-122221898D01*
X161055000Y-122021939D01*
X161055000Y-121818061D01*
X161015226Y-121618102D01*
X160937205Y-121429744D01*
X160823937Y-121260226D01*
X160679774Y-121116063D01*
X160510256Y-121002795D01*
X160321898Y-120924774D01*
X160121939Y-120885000D01*
X159988750Y-120885000D01*
X159988750Y-120751811D01*
X159948976Y-120551852D01*
X159947406Y-120548061D01*
X165335000Y-120548061D01*
X165335000Y-120751939D01*
X165374774Y-120951898D01*
X165452795Y-121140256D01*
X165566063Y-121309774D01*
X165710226Y-121453937D01*
X165879744Y-121567205D01*
X166068102Y-121645226D01*
X166268061Y-121685000D01*
X166471939Y-121685000D01*
X166671898Y-121645226D01*
X166860256Y-121567205D01*
X167029774Y-121453937D01*
X167173937Y-121309774D01*
X167287205Y-121140256D01*
X167365226Y-120951898D01*
X167405000Y-120751939D01*
X167405000Y-120548061D01*
X167365226Y-120348102D01*
X167287205Y-120159744D01*
X167173937Y-119990226D01*
X167029774Y-119846063D01*
X166860256Y-119732795D01*
X166671898Y-119654774D01*
X166471939Y-119615000D01*
X166268061Y-119615000D01*
X166068102Y-119654774D01*
X165879744Y-119732795D01*
X165710226Y-119846063D01*
X165566063Y-119990226D01*
X165452795Y-120159744D01*
X165374774Y-120348102D01*
X165335000Y-120548061D01*
X159947406Y-120548061D01*
X159870955Y-120363494D01*
X159757687Y-120193976D01*
X159613524Y-120049813D01*
X159444006Y-119936545D01*
X159255648Y-119858524D01*
X159055689Y-119818750D01*
X158851811Y-119818750D01*
X158651852Y-119858524D01*
X158463494Y-119936545D01*
X158293976Y-120049813D01*
X158149813Y-120193976D01*
X158036545Y-120363494D01*
X157958524Y-120551852D01*
X157918750Y-120751811D01*
X141696900Y-120751811D01*
X141773937Y-120674774D01*
X141887205Y-120505256D01*
X141965226Y-120316898D01*
X142005000Y-120116939D01*
X142005000Y-119913061D01*
X141965226Y-119713102D01*
X141887205Y-119524744D01*
X141773937Y-119355226D01*
X141696772Y-119278061D01*
X162795000Y-119278061D01*
X162795000Y-119481939D01*
X162834774Y-119681898D01*
X162912795Y-119870256D01*
X163026063Y-120039774D01*
X163170226Y-120183937D01*
X163339744Y-120297205D01*
X163528102Y-120375226D01*
X163728061Y-120415000D01*
X163931939Y-120415000D01*
X164131898Y-120375226D01*
X164320256Y-120297205D01*
X164489774Y-120183937D01*
X164633937Y-120039774D01*
X164747205Y-119870256D01*
X164825226Y-119681898D01*
X164865000Y-119481939D01*
X164865000Y-119278061D01*
X164825226Y-119078102D01*
X164747205Y-118889744D01*
X164633937Y-118720226D01*
X164489774Y-118576063D01*
X164320256Y-118462795D01*
X164131898Y-118384774D01*
X163931939Y-118345000D01*
X163728061Y-118345000D01*
X163528102Y-118384774D01*
X163339744Y-118462795D01*
X163170226Y-118576063D01*
X163026063Y-118720226D01*
X162912795Y-118889744D01*
X162834774Y-119078102D01*
X162795000Y-119278061D01*
X141696772Y-119278061D01*
X141629774Y-119211063D01*
X141460256Y-119097795D01*
X141271898Y-119019774D01*
X141071939Y-118980000D01*
X140868061Y-118980000D01*
X140668102Y-119019774D01*
X140479744Y-119097795D01*
X140310226Y-119211063D01*
X140166063Y-119355226D01*
X140052795Y-119524744D01*
X139974774Y-119713102D01*
X139935000Y-119913061D01*
X132207000Y-119913061D01*
X132207000Y-118008061D01*
X156445000Y-118008061D01*
X156445000Y-118211939D01*
X156484774Y-118411898D01*
X156562795Y-118600256D01*
X156676063Y-118769774D01*
X156820226Y-118913937D01*
X156989744Y-119027205D01*
X157178102Y-119105226D01*
X157378061Y-119145000D01*
X157581939Y-119145000D01*
X157781898Y-119105226D01*
X157970256Y-119027205D01*
X158139774Y-118913937D01*
X158283937Y-118769774D01*
X158397205Y-118600256D01*
X158475226Y-118411898D01*
X158515000Y-118211939D01*
X158515000Y-118008061D01*
X158475226Y-117808102D01*
X158397205Y-117619744D01*
X158283937Y-117450226D01*
X158139774Y-117306063D01*
X157970256Y-117192795D01*
X157781898Y-117114774D01*
X157581939Y-117075000D01*
X157378061Y-117075000D01*
X157178102Y-117114774D01*
X156989744Y-117192795D01*
X156820226Y-117306063D01*
X156676063Y-117450226D01*
X156562795Y-117619744D01*
X156484774Y-117808102D01*
X156445000Y-118008061D01*
X132207000Y-118008061D01*
X132207000Y-116103061D01*
X133585000Y-116103061D01*
X133585000Y-116306939D01*
X133624774Y-116506898D01*
X133702795Y-116695256D01*
X133816063Y-116864774D01*
X133960226Y-117008937D01*
X134129744Y-117122205D01*
X134318102Y-117200226D01*
X134518061Y-117240000D01*
X134721939Y-117240000D01*
X134921898Y-117200226D01*
X135110256Y-117122205D01*
X135279774Y-117008937D01*
X135423937Y-116864774D01*
X135537205Y-116695256D01*
X135615226Y-116506898D01*
X135655000Y-116306939D01*
X135655000Y-116103061D01*
X143745000Y-116103061D01*
X143745000Y-116306939D01*
X143784774Y-116506898D01*
X143862795Y-116695256D01*
X143976063Y-116864774D01*
X144120226Y-117008937D01*
X144289744Y-117122205D01*
X144478102Y-117200226D01*
X144678061Y-117240000D01*
X144881939Y-117240000D01*
X145081898Y-117200226D01*
X145270256Y-117122205D01*
X145439774Y-117008937D01*
X145583937Y-116864774D01*
X145697205Y-116695256D01*
X145775226Y-116506898D01*
X145815000Y-116306939D01*
X145815000Y-116103061D01*
X151365000Y-116103061D01*
X151365000Y-116306939D01*
X151404774Y-116506898D01*
X151482795Y-116695256D01*
X151596063Y-116864774D01*
X151740226Y-117008937D01*
X151909744Y-117122205D01*
X152098102Y-117200226D01*
X152298061Y-117240000D01*
X152501939Y-117240000D01*
X152701898Y-117200226D01*
X152890256Y-117122205D01*
X153059774Y-117008937D01*
X153203937Y-116864774D01*
X153288603Y-116738061D01*
X166605000Y-116738061D01*
X166605000Y-116941939D01*
X166644774Y-117141898D01*
X166722795Y-117330256D01*
X166836063Y-117499774D01*
X166980226Y-117643937D01*
X167149744Y-117757205D01*
X167338102Y-117835226D01*
X167538061Y-117875000D01*
X167741939Y-117875000D01*
X167941898Y-117835226D01*
X168130256Y-117757205D01*
X168299774Y-117643937D01*
X168443937Y-117499774D01*
X168557205Y-117330256D01*
X168635226Y-117141898D01*
X168675000Y-116941939D01*
X168675000Y-116738061D01*
X168635226Y-116538102D01*
X168557205Y-116349744D01*
X168443937Y-116180226D01*
X168299774Y-116036063D01*
X168130256Y-115922795D01*
X167941898Y-115844774D01*
X167741939Y-115805000D01*
X167538061Y-115805000D01*
X167338102Y-115844774D01*
X167149744Y-115922795D01*
X166980226Y-116036063D01*
X166836063Y-116180226D01*
X166722795Y-116349744D01*
X166644774Y-116538102D01*
X166605000Y-116738061D01*
X153288603Y-116738061D01*
X153317205Y-116695256D01*
X153395226Y-116506898D01*
X153435000Y-116306939D01*
X153435000Y-116103061D01*
X153395226Y-115903102D01*
X153317205Y-115714744D01*
X153203937Y-115545226D01*
X153059774Y-115401063D01*
X152890256Y-115287795D01*
X152701898Y-115209774D01*
X152501939Y-115170000D01*
X152298061Y-115170000D01*
X152098102Y-115209774D01*
X151909744Y-115287795D01*
X151740226Y-115401063D01*
X151596063Y-115545226D01*
X151482795Y-115714744D01*
X151404774Y-115903102D01*
X151365000Y-116103061D01*
X145815000Y-116103061D01*
X145775226Y-115903102D01*
X145697205Y-115714744D01*
X145583937Y-115545226D01*
X145439774Y-115401063D01*
X145270256Y-115287795D01*
X145081898Y-115209774D01*
X144881939Y-115170000D01*
X144678061Y-115170000D01*
X144478102Y-115209774D01*
X144289744Y-115287795D01*
X144120226Y-115401063D01*
X143976063Y-115545226D01*
X143862795Y-115714744D01*
X143784774Y-115903102D01*
X143745000Y-116103061D01*
X135655000Y-116103061D01*
X135615226Y-115903102D01*
X135537205Y-115714744D01*
X135423937Y-115545226D01*
X135279774Y-115401063D01*
X135110256Y-115287795D01*
X134921898Y-115209774D01*
X134721939Y-115170000D01*
X134518061Y-115170000D01*
X134318102Y-115209774D01*
X134129744Y-115287795D01*
X133960226Y-115401063D01*
X133816063Y-115545226D01*
X133702795Y-115714744D01*
X133624774Y-115903102D01*
X133585000Y-116103061D01*
X132207000Y-116103061D01*
X132207000Y-113563061D01*
X138665000Y-113563061D01*
X138665000Y-113766939D01*
X138704774Y-113966898D01*
X138782795Y-114155256D01*
X138896063Y-114324774D01*
X139040226Y-114468937D01*
X139209744Y-114582205D01*
X139398102Y-114660226D01*
X139598061Y-114700000D01*
X139801939Y-114700000D01*
X140001898Y-114660226D01*
X140190256Y-114582205D01*
X140359774Y-114468937D01*
X140503937Y-114324774D01*
X140617205Y-114155256D01*
X140695226Y-113966898D01*
X140735000Y-113766939D01*
X140735000Y-113563061D01*
X140695226Y-113363102D01*
X140617205Y-113174744D01*
X140503937Y-113005226D01*
X140359774Y-112861063D01*
X140190256Y-112747795D01*
X140001898Y-112669774D01*
X139801939Y-112630000D01*
X139598061Y-112630000D01*
X139398102Y-112669774D01*
X139209744Y-112747795D01*
X139040226Y-112861063D01*
X138896063Y-113005226D01*
X138782795Y-113174744D01*
X138704774Y-113363102D01*
X138665000Y-113563061D01*
X132207000Y-113563061D01*
X132207000Y-111887000D01*
X154238289Y-111887000D01*
X154280226Y-111928937D01*
%TA.AperFunction,Conductor*%
D15*
G36*
X154280226Y-111928937D02*
G01*
X154449744Y-112042205D01*
X154638102Y-112120226D01*
X154838061Y-112160000D01*
X155041939Y-112160000D01*
X155241898Y-112120226D01*
X155398276Y-112055451D01*
X155502052Y-112210763D01*
X155646215Y-112354926D01*
X155815733Y-112468194D01*
X156004091Y-112546215D01*
X156204050Y-112585989D01*
X156407928Y-112585989D01*
X156607887Y-112546215D01*
X156745502Y-112489213D01*
X156820226Y-112563937D01*
X156989744Y-112677205D01*
X157178102Y-112755226D01*
X157378061Y-112795000D01*
X157581939Y-112795000D01*
X157781898Y-112755226D01*
X157970256Y-112677205D01*
X158139774Y-112563937D01*
X158283937Y-112419774D01*
X158397205Y-112250256D01*
X158475226Y-112061898D01*
X158510015Y-111887000D01*
X164069985Y-111887000D01*
X164104774Y-112061898D01*
X164182795Y-112250256D01*
X164296063Y-112419774D01*
X164440226Y-112563937D01*
X164609744Y-112677205D01*
X164798102Y-112755226D01*
X164998061Y-112795000D01*
X165201939Y-112795000D01*
X165401898Y-112755226D01*
X165590256Y-112677205D01*
X165759774Y-112563937D01*
X165903937Y-112419774D01*
X166017205Y-112250256D01*
X166095226Y-112061898D01*
X166130015Y-111887000D01*
X170053000Y-111887000D01*
X170053000Y-127508000D01*
X163261711Y-127508000D01*
X163219774Y-127466063D01*
X163050256Y-127352795D01*
X162861898Y-127274774D01*
X162661939Y-127235000D01*
X162458061Y-127235000D01*
X162258102Y-127274774D01*
X162069744Y-127352795D01*
X161900226Y-127466063D01*
X161858289Y-127508000D01*
X145810015Y-127508000D01*
X145775226Y-127333102D01*
X145697205Y-127144744D01*
X145583937Y-126975226D01*
X145439774Y-126831063D01*
X145270256Y-126717795D01*
X145081898Y-126639774D01*
X144881939Y-126600000D01*
X144678061Y-126600000D01*
X144478102Y-126639774D01*
X144289744Y-126717795D01*
X144120226Y-126831063D01*
X143976063Y-126975226D01*
X143862795Y-127144744D01*
X143784774Y-127333102D01*
X143749985Y-127508000D01*
X132207000Y-127508000D01*
X132207000Y-126263061D01*
X133585000Y-126263061D01*
X133585000Y-126466939D01*
X133624774Y-126666898D01*
X133702795Y-126855256D01*
X133816063Y-127024774D01*
X133960226Y-127168937D01*
X134129744Y-127282205D01*
X134318102Y-127360226D01*
X134518061Y-127400000D01*
X134721939Y-127400000D01*
X134921898Y-127360226D01*
X135110256Y-127282205D01*
X135279774Y-127168937D01*
X135423937Y-127024774D01*
X135537205Y-126855256D01*
X135615226Y-126666898D01*
X135655000Y-126466939D01*
X135655000Y-126263061D01*
X135615226Y-126063102D01*
X135537205Y-125874744D01*
X135423937Y-125705226D01*
X135279774Y-125561063D01*
X135110256Y-125447795D01*
X134921898Y-125369774D01*
X134721939Y-125330000D01*
X134518061Y-125330000D01*
X134318102Y-125369774D01*
X134129744Y-125447795D01*
X133960226Y-125561063D01*
X133816063Y-125705226D01*
X133702795Y-125874744D01*
X133624774Y-126063102D01*
X133585000Y-126263061D01*
X132207000Y-126263061D01*
X132207000Y-124993061D01*
X137395000Y-124993061D01*
X137395000Y-125196939D01*
X137434774Y-125396898D01*
X137512795Y-125585256D01*
X137626063Y-125754774D01*
X137770226Y-125898937D01*
X137939744Y-126012205D01*
X138128102Y-126090226D01*
X138328061Y-126130000D01*
X138531939Y-126130000D01*
X138731898Y-126090226D01*
X138920256Y-126012205D01*
X139089774Y-125898937D01*
X139233937Y-125754774D01*
X139347205Y-125585256D01*
X139425226Y-125396898D01*
X139465000Y-125196939D01*
X139465000Y-124993061D01*
X139425226Y-124793102D01*
X139377575Y-124678061D01*
X167555000Y-124678061D01*
X167555000Y-124881939D01*
X167594774Y-125081898D01*
X167672795Y-125270256D01*
X167786063Y-125439774D01*
X167930226Y-125583937D01*
X168099744Y-125697205D01*
X168288102Y-125775226D01*
X168488061Y-125815000D01*
X168691939Y-125815000D01*
X168891898Y-125775226D01*
X169080256Y-125697205D01*
X169249774Y-125583937D01*
X169393937Y-125439774D01*
X169507205Y-125270256D01*
X169585226Y-125081898D01*
X169625000Y-124881939D01*
X169625000Y-124678061D01*
X169585226Y-124478102D01*
X169507205Y-124289744D01*
X169393937Y-124120226D01*
X169249774Y-123976063D01*
X169080256Y-123862795D01*
X168891898Y-123784774D01*
X168691939Y-123745000D01*
X168488061Y-123745000D01*
X168288102Y-123784774D01*
X168099744Y-123862795D01*
X167930226Y-123976063D01*
X167786063Y-124120226D01*
X167672795Y-124289744D01*
X167594774Y-124478102D01*
X167555000Y-124678061D01*
X139377575Y-124678061D01*
X139347205Y-124604744D01*
X139233937Y-124435226D01*
X139089774Y-124291063D01*
X138920256Y-124177795D01*
X138731898Y-124099774D01*
X138531939Y-124060000D01*
X138328061Y-124060000D01*
X138128102Y-124099774D01*
X137939744Y-124177795D01*
X137770226Y-124291063D01*
X137626063Y-124435226D01*
X137512795Y-124604744D01*
X137434774Y-124793102D01*
X137395000Y-124993061D01*
X132207000Y-124993061D01*
X132207000Y-123723061D01*
X134855000Y-123723061D01*
X134855000Y-123926939D01*
X134894774Y-124126898D01*
X134972795Y-124315256D01*
X135086063Y-124484774D01*
X135230226Y-124628937D01*
X135399744Y-124742205D01*
X135588102Y-124820226D01*
X135788061Y-124860000D01*
X135991939Y-124860000D01*
X136191898Y-124820226D01*
X136380256Y-124742205D01*
X136549774Y-124628937D01*
X136693937Y-124484774D01*
X136807205Y-124315256D01*
X136885226Y-124126898D01*
X136925000Y-123926939D01*
X136925000Y-123723061D01*
X136885226Y-123523102D01*
X136807205Y-123334744D01*
X136693937Y-123165226D01*
X136549774Y-123021063D01*
X136380256Y-122907795D01*
X136191898Y-122829774D01*
X135991939Y-122790000D01*
X135788061Y-122790000D01*
X135588102Y-122829774D01*
X135399744Y-122907795D01*
X135230226Y-123021063D01*
X135086063Y-123165226D01*
X134972795Y-123334744D01*
X134894774Y-123523102D01*
X134855000Y-123723061D01*
X132207000Y-123723061D01*
X132207000Y-122453061D01*
X141205000Y-122453061D01*
X141205000Y-122656939D01*
X141244774Y-122856898D01*
X141322795Y-123045256D01*
X141436063Y-123214774D01*
X141580226Y-123358937D01*
X141749744Y-123472205D01*
X141938102Y-123550226D01*
X142138061Y-123590000D01*
X142341939Y-123590000D01*
X142541898Y-123550226D01*
X142730256Y-123472205D01*
X142899774Y-123358937D01*
X143043937Y-123214774D01*
X143157205Y-123045256D01*
X143235226Y-122856898D01*
X143275000Y-122656939D01*
X143275000Y-122453061D01*
X143235226Y-122253102D01*
X143157205Y-122064744D01*
X143043937Y-121895226D01*
X142899774Y-121751063D01*
X142730256Y-121637795D01*
X142541898Y-121559774D01*
X142341939Y-121520000D01*
X142138061Y-121520000D01*
X141938102Y-121559774D01*
X141749744Y-121637795D01*
X141580226Y-121751063D01*
X141436063Y-121895226D01*
X141322795Y-122064744D01*
X141244774Y-122253102D01*
X141205000Y-122453061D01*
X132207000Y-122453061D01*
X132207000Y-119913061D01*
X139935000Y-119913061D01*
X139935000Y-120116939D01*
X139974774Y-120316898D01*
X140052795Y-120505256D01*
X140166063Y-120674774D01*
X140310226Y-120818937D01*
X140479744Y-120932205D01*
X140668102Y-121010226D01*
X140868061Y-121050000D01*
X141071939Y-121050000D01*
X141271898Y-121010226D01*
X141460256Y-120932205D01*
X141629774Y-120818937D01*
X141696900Y-120751811D01*
X157918750Y-120751811D01*
X157918750Y-120955689D01*
X157958524Y-121155648D01*
X158036545Y-121344006D01*
X158149813Y-121513524D01*
X158293976Y-121657687D01*
X158463494Y-121770955D01*
X158651852Y-121848976D01*
X158851811Y-121888750D01*
X158985000Y-121888750D01*
X158985000Y-122021939D01*
X159024774Y-122221898D01*
X159102795Y-122410256D01*
X159216063Y-122579774D01*
X159360226Y-122723937D01*
X159529744Y-122837205D01*
X159718102Y-122915226D01*
X159918061Y-122955000D01*
X160121939Y-122955000D01*
X160321898Y-122915226D01*
X160510256Y-122837205D01*
X160679774Y-122723937D01*
X160823937Y-122579774D01*
X160937205Y-122410256D01*
X161015226Y-122221898D01*
X161055000Y-122021939D01*
X161055000Y-121818061D01*
X161015226Y-121618102D01*
X160937205Y-121429744D01*
X160823937Y-121260226D01*
X160679774Y-121116063D01*
X160510256Y-121002795D01*
X160321898Y-120924774D01*
X160121939Y-120885000D01*
X159988750Y-120885000D01*
X159988750Y-120751811D01*
X159948976Y-120551852D01*
X159947406Y-120548061D01*
X165335000Y-120548061D01*
X165335000Y-120751939D01*
X165374774Y-120951898D01*
X165452795Y-121140256D01*
X165566063Y-121309774D01*
X165710226Y-121453937D01*
X165879744Y-121567205D01*
X166068102Y-121645226D01*
X166268061Y-121685000D01*
X166471939Y-121685000D01*
X166671898Y-121645226D01*
X166860256Y-121567205D01*
X167029774Y-121453937D01*
X167173937Y-121309774D01*
X167287205Y-121140256D01*
X167365226Y-120951898D01*
X167405000Y-120751939D01*
X167405000Y-120548061D01*
X167365226Y-120348102D01*
X167287205Y-120159744D01*
X167173937Y-119990226D01*
X167029774Y-119846063D01*
X166860256Y-119732795D01*
X166671898Y-119654774D01*
X166471939Y-119615000D01*
X166268061Y-119615000D01*
X166068102Y-119654774D01*
X165879744Y-119732795D01*
X165710226Y-119846063D01*
X165566063Y-119990226D01*
X165452795Y-120159744D01*
X165374774Y-120348102D01*
X165335000Y-120548061D01*
X159947406Y-120548061D01*
X159870955Y-120363494D01*
X159757687Y-120193976D01*
X159613524Y-120049813D01*
X159444006Y-119936545D01*
X159255648Y-119858524D01*
X159055689Y-119818750D01*
X158851811Y-119818750D01*
X158651852Y-119858524D01*
X158463494Y-119936545D01*
X158293976Y-120049813D01*
X158149813Y-120193976D01*
X158036545Y-120363494D01*
X157958524Y-120551852D01*
X157918750Y-120751811D01*
X141696900Y-120751811D01*
X141773937Y-120674774D01*
X141887205Y-120505256D01*
X141965226Y-120316898D01*
X142005000Y-120116939D01*
X142005000Y-119913061D01*
X141965226Y-119713102D01*
X141887205Y-119524744D01*
X141773937Y-119355226D01*
X141696772Y-119278061D01*
X162795000Y-119278061D01*
X162795000Y-119481939D01*
X162834774Y-119681898D01*
X162912795Y-119870256D01*
X163026063Y-120039774D01*
X163170226Y-120183937D01*
X163339744Y-120297205D01*
X163528102Y-120375226D01*
X163728061Y-120415000D01*
X163931939Y-120415000D01*
X164131898Y-120375226D01*
X164320256Y-120297205D01*
X164489774Y-120183937D01*
X164633937Y-120039774D01*
X164747205Y-119870256D01*
X164825226Y-119681898D01*
X164865000Y-119481939D01*
X164865000Y-119278061D01*
X164825226Y-119078102D01*
X164747205Y-118889744D01*
X164633937Y-118720226D01*
X164489774Y-118576063D01*
X164320256Y-118462795D01*
X164131898Y-118384774D01*
X163931939Y-118345000D01*
X163728061Y-118345000D01*
X163528102Y-118384774D01*
X163339744Y-118462795D01*
X163170226Y-118576063D01*
X163026063Y-118720226D01*
X162912795Y-118889744D01*
X162834774Y-119078102D01*
X162795000Y-119278061D01*
X141696772Y-119278061D01*
X141629774Y-119211063D01*
X141460256Y-119097795D01*
X141271898Y-119019774D01*
X141071939Y-118980000D01*
X140868061Y-118980000D01*
X140668102Y-119019774D01*
X140479744Y-119097795D01*
X140310226Y-119211063D01*
X140166063Y-119355226D01*
X140052795Y-119524744D01*
X139974774Y-119713102D01*
X139935000Y-119913061D01*
X132207000Y-119913061D01*
X132207000Y-118008061D01*
X156445000Y-118008061D01*
X156445000Y-118211939D01*
X156484774Y-118411898D01*
X156562795Y-118600256D01*
X156676063Y-118769774D01*
X156820226Y-118913937D01*
X156989744Y-119027205D01*
X157178102Y-119105226D01*
X157378061Y-119145000D01*
X157581939Y-119145000D01*
X157781898Y-119105226D01*
X157970256Y-119027205D01*
X158139774Y-118913937D01*
X158283937Y-118769774D01*
X158397205Y-118600256D01*
X158475226Y-118411898D01*
X158515000Y-118211939D01*
X158515000Y-118008061D01*
X158475226Y-117808102D01*
X158397205Y-117619744D01*
X158283937Y-117450226D01*
X158139774Y-117306063D01*
X157970256Y-117192795D01*
X157781898Y-117114774D01*
X157581939Y-117075000D01*
X157378061Y-117075000D01*
X157178102Y-117114774D01*
X156989744Y-117192795D01*
X156820226Y-117306063D01*
X156676063Y-117450226D01*
X156562795Y-117619744D01*
X156484774Y-117808102D01*
X156445000Y-118008061D01*
X132207000Y-118008061D01*
X132207000Y-116103061D01*
X133585000Y-116103061D01*
X133585000Y-116306939D01*
X133624774Y-116506898D01*
X133702795Y-116695256D01*
X133816063Y-116864774D01*
X133960226Y-117008937D01*
X134129744Y-117122205D01*
X134318102Y-117200226D01*
X134518061Y-117240000D01*
X134721939Y-117240000D01*
X134921898Y-117200226D01*
X135110256Y-117122205D01*
X135279774Y-117008937D01*
X135423937Y-116864774D01*
X135537205Y-116695256D01*
X135615226Y-116506898D01*
X135655000Y-116306939D01*
X135655000Y-116103061D01*
X143745000Y-116103061D01*
X143745000Y-116306939D01*
X143784774Y-116506898D01*
X143862795Y-116695256D01*
X143976063Y-116864774D01*
X144120226Y-117008937D01*
X144289744Y-117122205D01*
X144478102Y-117200226D01*
X144678061Y-117240000D01*
X144881939Y-117240000D01*
X145081898Y-117200226D01*
X145270256Y-117122205D01*
X145439774Y-117008937D01*
X145583937Y-116864774D01*
X145697205Y-116695256D01*
X145775226Y-116506898D01*
X145815000Y-116306939D01*
X145815000Y-116103061D01*
X151365000Y-116103061D01*
X151365000Y-116306939D01*
X151404774Y-116506898D01*
X151482795Y-116695256D01*
X151596063Y-116864774D01*
X151740226Y-117008937D01*
X151909744Y-117122205D01*
X152098102Y-117200226D01*
X152298061Y-117240000D01*
X152501939Y-117240000D01*
X152701898Y-117200226D01*
X152890256Y-117122205D01*
X153059774Y-117008937D01*
X153203937Y-116864774D01*
X153288603Y-116738061D01*
X166605000Y-116738061D01*
X166605000Y-116941939D01*
X166644774Y-117141898D01*
X166722795Y-117330256D01*
X166836063Y-117499774D01*
X166980226Y-117643937D01*
X167149744Y-117757205D01*
X167338102Y-117835226D01*
X167538061Y-117875000D01*
X167741939Y-117875000D01*
X167941898Y-117835226D01*
X168130256Y-117757205D01*
X168299774Y-117643937D01*
X168443937Y-117499774D01*
X168557205Y-117330256D01*
X168635226Y-117141898D01*
X168675000Y-116941939D01*
X168675000Y-116738061D01*
X168635226Y-116538102D01*
X168557205Y-116349744D01*
X168443937Y-116180226D01*
X168299774Y-116036063D01*
X168130256Y-115922795D01*
X167941898Y-115844774D01*
X167741939Y-115805000D01*
X167538061Y-115805000D01*
X167338102Y-115844774D01*
X167149744Y-115922795D01*
X166980226Y-116036063D01*
X166836063Y-116180226D01*
X166722795Y-116349744D01*
X166644774Y-116538102D01*
X166605000Y-116738061D01*
X153288603Y-116738061D01*
X153317205Y-116695256D01*
X153395226Y-116506898D01*
X153435000Y-116306939D01*
X153435000Y-116103061D01*
X153395226Y-115903102D01*
X153317205Y-115714744D01*
X153203937Y-115545226D01*
X153059774Y-115401063D01*
X152890256Y-115287795D01*
X152701898Y-115209774D01*
X152501939Y-115170000D01*
X152298061Y-115170000D01*
X152098102Y-115209774D01*
X151909744Y-115287795D01*
X151740226Y-115401063D01*
X151596063Y-115545226D01*
X151482795Y-115714744D01*
X151404774Y-115903102D01*
X151365000Y-116103061D01*
X145815000Y-116103061D01*
X145775226Y-115903102D01*
X145697205Y-115714744D01*
X145583937Y-115545226D01*
X145439774Y-115401063D01*
X145270256Y-115287795D01*
X145081898Y-115209774D01*
X144881939Y-115170000D01*
X144678061Y-115170000D01*
X144478102Y-115209774D01*
X144289744Y-115287795D01*
X144120226Y-115401063D01*
X143976063Y-115545226D01*
X143862795Y-115714744D01*
X143784774Y-115903102D01*
X143745000Y-116103061D01*
X135655000Y-116103061D01*
X135615226Y-115903102D01*
X135537205Y-115714744D01*
X135423937Y-115545226D01*
X135279774Y-115401063D01*
X135110256Y-115287795D01*
X134921898Y-115209774D01*
X134721939Y-115170000D01*
X134518061Y-115170000D01*
X134318102Y-115209774D01*
X134129744Y-115287795D01*
X133960226Y-115401063D01*
X133816063Y-115545226D01*
X133702795Y-115714744D01*
X133624774Y-115903102D01*
X133585000Y-116103061D01*
X132207000Y-116103061D01*
X132207000Y-113563061D01*
X138665000Y-113563061D01*
X138665000Y-113766939D01*
X138704774Y-113966898D01*
X138782795Y-114155256D01*
X138896063Y-114324774D01*
X139040226Y-114468937D01*
X139209744Y-114582205D01*
X139398102Y-114660226D01*
X139598061Y-114700000D01*
X139801939Y-114700000D01*
X140001898Y-114660226D01*
X140190256Y-114582205D01*
X140359774Y-114468937D01*
X140503937Y-114324774D01*
X140617205Y-114155256D01*
X140695226Y-113966898D01*
X140735000Y-113766939D01*
X140735000Y-113563061D01*
X140695226Y-113363102D01*
X140617205Y-113174744D01*
X140503937Y-113005226D01*
X140359774Y-112861063D01*
X140190256Y-112747795D01*
X140001898Y-112669774D01*
X139801939Y-112630000D01*
X139598061Y-112630000D01*
X139398102Y-112669774D01*
X139209744Y-112747795D01*
X139040226Y-112861063D01*
X138896063Y-113005226D01*
X138782795Y-113174744D01*
X138704774Y-113363102D01*
X138665000Y-113563061D01*
X132207000Y-113563061D01*
X132207000Y-111887000D01*
X154238289Y-111887000D01*
X154280226Y-111928937D01*
G37*
%TD.AperFunction*%
%TD*%
M02*
