%TF.GenerationSoftware,KiCad,Pcbnew,5.1.10-88a1d61d58~90~ubuntu20.10.1*%
%TF.CreationDate,2021-10-06T21:45:22-04:00*%
%TF.ProjectId,vco,76636f2e-6b69-4636-9164-5f7063625858,rev?*%
%TF.SameCoordinates,Original*%
%TF.FileFunction,Copper,L2,Inr*%
%TF.FilePolarity,Positive*%
%FSLAX46Y46*%
G04 Gerber Fmt 4.6, Leading zero omitted, Abs format (unit mm)*
G04 Created by KiCad (PCBNEW 5.1.10-88a1d61d58~90~ubuntu20.10.1) date 2021-10-06 21:45:22*
%MOMM*%
%LPD*%
G01*
G04 APERTURE LIST*
%TA.AperFunction,ComponentPad*%
%ADD10O,1.700000X1.700000*%
%TD*%
%TA.AperFunction,ComponentPad*%
%ADD11R,1.700000X1.700000*%
%TD*%
%TA.AperFunction,ViaPad*%
%ADD12C,2.700000*%
%TD*%
%TA.AperFunction,ViaPad*%
%ADD13C,0.800000*%
%TD*%
%TA.AperFunction,Conductor*%
%ADD14C,0.254000*%
%TD*%
%TA.AperFunction,Conductor*%
%ADD15C,0.100000*%
%TD*%
G04 APERTURE END LIST*
D10*
%TO.N,-12V*%
%TO.C,J1*%
X165735000Y-135255000D03*
X165735000Y-137795000D03*
%TO.N,GND*%
X163195000Y-135255000D03*
X163195000Y-137795000D03*
X160655000Y-135255000D03*
X160655000Y-137795000D03*
X158115000Y-135255000D03*
X158115000Y-137795000D03*
%TO.N,+12V*%
X155575000Y-135255000D03*
D11*
X155575000Y-137795000D03*
%TD*%
D10*
%TO.N,GND*%
%TO.C,J2*%
X165735000Y-76835000D03*
%TO.N,CV6*%
X165735000Y-79375000D03*
%TO.N,GND*%
X163195000Y-76835000D03*
%TO.N,CV5*%
X163195000Y-79375000D03*
%TO.N,GND*%
X160655000Y-76835000D03*
%TO.N,CV4*%
X160655000Y-79375000D03*
%TO.N,GND*%
X158115000Y-76835000D03*
%TO.N,CV3*%
X158115000Y-79375000D03*
%TO.N,GND*%
X155575000Y-76835000D03*
%TO.N,CV2*%
X155575000Y-79375000D03*
%TO.N,GND*%
X153035000Y-76835000D03*
D11*
%TO.N,CV1*%
X153035000Y-79375000D03*
%TD*%
D10*
%TO.N,GND*%
%TO.C,J3*%
X147955000Y-76835000D03*
%TO.N,OUT6*%
X147955000Y-79375000D03*
%TO.N,GND*%
X145415000Y-76835000D03*
%TO.N,OUT5*%
X145415000Y-79375000D03*
%TO.N,GND*%
X142875000Y-76835000D03*
%TO.N,OUT4*%
X142875000Y-79375000D03*
%TO.N,GND*%
X140335000Y-76835000D03*
%TO.N,OUT3*%
X140335000Y-79375000D03*
%TO.N,GND*%
X137795000Y-76835000D03*
%TO.N,OUT2*%
X137795000Y-79375000D03*
%TO.N,GND*%
X135255000Y-76835000D03*
D11*
%TO.N,OUT1*%
X135255000Y-79375000D03*
%TD*%
D12*
%TO.N,GND*%
X132080000Y-74295000D03*
X132080000Y-140335000D03*
X168910000Y-140335000D03*
X168910000Y-74295000D03*
D13*
X162560000Y-98425000D03*
X156210000Y-83185000D03*
X147320000Y-84455000D03*
X151130000Y-109855000D03*
X137160000Y-84455000D03*
X140970000Y-120015000D03*
X139700000Y-113665000D03*
X140970000Y-97155000D03*
X134620000Y-97155000D03*
X143510000Y-104775000D03*
X138430000Y-125095000D03*
X157480000Y-93345000D03*
X139700000Y-131445000D03*
X157480000Y-108585000D03*
X163830000Y-106045000D03*
X134620000Y-126365000D03*
X156210000Y-118745000D03*
X163830000Y-112395000D03*
X148590000Y-128905000D03*
X156210000Y-128905000D03*
%TO.N,/Sheet614BBE23/4A*%
X153670000Y-94615000D03*
X153889900Y-108585000D03*
%TO.N,/Sheet614BBE23/5A*%
X152400000Y-116205000D03*
X156210000Y-120015000D03*
X157480000Y-109855000D03*
%TO.N,/Sheet614BBE23/6A*%
X157480000Y-114935000D03*
X162560000Y-111125000D03*
%TO.N,-12V*%
X157480000Y-98425000D03*
X168910000Y-112395000D03*
X168910000Y-99695000D03*
X143510000Y-95415000D03*
X142240000Y-110715000D03*
X139700000Y-112395000D03*
X139700000Y-126365000D03*
X161290000Y-93345000D03*
X149860000Y-117475000D03*
%TO.N,+12V*%
X152400000Y-98425000D03*
X156210000Y-102235000D03*
X163830000Y-109855000D03*
X144780000Y-116205000D03*
X140970000Y-99695000D03*
X154940000Y-111125000D03*
X162560000Y-95885000D03*
X144780000Y-127635000D03*
X161060000Y-120245000D03*
%TO.N,Net-(R1-Pad2)*%
X137160000Y-93345000D03*
%TO.N,CV1*%
X146050000Y-93345000D03*
X147955000Y-89535000D03*
%TO.N,Net-(R4-Pad2)*%
X134620000Y-116205000D03*
%TO.N,Net-(R6-Pad2)*%
X143510000Y-107315000D03*
%TO.N,Net-(R7-Pad2)*%
X135890000Y-123825000D03*
%TO.N,CV2*%
X146050000Y-107315000D03*
%TO.N,Net-(R10-Pad2)*%
X158750000Y-90805000D03*
%TO.N,CV5*%
X167005000Y-113665000D03*
X167640000Y-116840000D03*
%TO.N,Net-(R12-Pad2)*%
X163830000Y-88265000D03*
%TO.N,Net-(R13-Pad2)*%
X158750000Y-114935000D03*
%TO.N,CV3*%
X150495000Y-84455000D03*
X132900990Y-95699010D03*
%TO.N,Net-(R16-Pad2)*%
X161925000Y-101600000D03*
%TO.N,CV6*%
X167005000Y-99060000D03*
%TO.N,Net-(R18-Pad2)*%
X167400000Y-103745000D03*
%TO.N,OUT6*%
X153670000Y-132715000D03*
%TO.N,OUT4*%
X164210000Y-83185000D03*
%TO.N,OUT3*%
X156210000Y-86995000D03*
%TO.N,Net-(R3-Pad2)*%
X142240000Y-90805000D03*
%TO.N,Net-(R9-Pad2)*%
X142240000Y-122555000D03*
%TO.N,Net-(R15-Pad2)*%
X165100000Y-113665000D03*
%TD*%
D14*
%TO.N,GND*%
X170053000Y-141478000D02*
X130937000Y-141478000D01*
X130937000Y-136945000D01*
X154086928Y-136945000D01*
X154086928Y-138645000D01*
X154099188Y-138769482D01*
X154135498Y-138889180D01*
X154194463Y-138999494D01*
X154273815Y-139096185D01*
X154370506Y-139175537D01*
X154480820Y-139234502D01*
X154600518Y-139270812D01*
X154725000Y-139283072D01*
X156425000Y-139283072D01*
X156549482Y-139270812D01*
X156669180Y-139234502D01*
X156779494Y-139175537D01*
X156876185Y-139096185D01*
X156955537Y-138999494D01*
X157014502Y-138889180D01*
X157038966Y-138808534D01*
X157114731Y-138892588D01*
X157348080Y-139066641D01*
X157610901Y-139191825D01*
X157758110Y-139236476D01*
X157988000Y-139115155D01*
X157988000Y-137922000D01*
X158242000Y-137922000D01*
X158242000Y-139115155D01*
X158471890Y-139236476D01*
X158619099Y-139191825D01*
X158881920Y-139066641D01*
X159115269Y-138892588D01*
X159310178Y-138676355D01*
X159385000Y-138550745D01*
X159459822Y-138676355D01*
X159654731Y-138892588D01*
X159888080Y-139066641D01*
X160150901Y-139191825D01*
X160298110Y-139236476D01*
X160528000Y-139115155D01*
X160528000Y-137922000D01*
X160782000Y-137922000D01*
X160782000Y-139115155D01*
X161011890Y-139236476D01*
X161159099Y-139191825D01*
X161421920Y-139066641D01*
X161655269Y-138892588D01*
X161850178Y-138676355D01*
X161925000Y-138550745D01*
X161999822Y-138676355D01*
X162194731Y-138892588D01*
X162428080Y-139066641D01*
X162690901Y-139191825D01*
X162838110Y-139236476D01*
X163068000Y-139115155D01*
X163068000Y-137922000D01*
X160782000Y-137922000D01*
X160528000Y-137922000D01*
X158242000Y-137922000D01*
X157988000Y-137922000D01*
X157968000Y-137922000D01*
X157968000Y-137668000D01*
X157988000Y-137668000D01*
X157988000Y-135382000D01*
X158242000Y-135382000D01*
X158242000Y-137668000D01*
X160528000Y-137668000D01*
X160528000Y-135382000D01*
X160782000Y-135382000D01*
X160782000Y-137668000D01*
X163068000Y-137668000D01*
X163068000Y-135382000D01*
X160782000Y-135382000D01*
X160528000Y-135382000D01*
X158242000Y-135382000D01*
X157988000Y-135382000D01*
X157968000Y-135382000D01*
X157968000Y-135128000D01*
X157988000Y-135128000D01*
X157988000Y-133934845D01*
X158242000Y-133934845D01*
X158242000Y-135128000D01*
X160528000Y-135128000D01*
X160528000Y-133934845D01*
X160782000Y-133934845D01*
X160782000Y-135128000D01*
X163068000Y-135128000D01*
X163068000Y-133934845D01*
X163322000Y-133934845D01*
X163322000Y-135128000D01*
X163342000Y-135128000D01*
X163342000Y-135382000D01*
X163322000Y-135382000D01*
X163322000Y-137668000D01*
X163342000Y-137668000D01*
X163342000Y-137922000D01*
X163322000Y-137922000D01*
X163322000Y-139115155D01*
X163551890Y-139236476D01*
X163699099Y-139191825D01*
X163961920Y-139066641D01*
X164195269Y-138892588D01*
X164390178Y-138676355D01*
X164459805Y-138559466D01*
X164581525Y-138741632D01*
X164788368Y-138948475D01*
X165031589Y-139110990D01*
X165301842Y-139222932D01*
X165588740Y-139280000D01*
X165881260Y-139280000D01*
X166168158Y-139222932D01*
X166438411Y-139110990D01*
X166681632Y-138948475D01*
X166888475Y-138741632D01*
X167050990Y-138498411D01*
X167162932Y-138228158D01*
X167220000Y-137941260D01*
X167220000Y-137648740D01*
X167162932Y-137361842D01*
X167050990Y-137091589D01*
X166888475Y-136848368D01*
X166681632Y-136641525D01*
X166507240Y-136525000D01*
X166681632Y-136408475D01*
X166888475Y-136201632D01*
X167050990Y-135958411D01*
X167162932Y-135688158D01*
X167220000Y-135401260D01*
X167220000Y-135108740D01*
X167162932Y-134821842D01*
X167050990Y-134551589D01*
X166888475Y-134308368D01*
X166681632Y-134101525D01*
X166438411Y-133939010D01*
X166168158Y-133827068D01*
X165881260Y-133770000D01*
X165588740Y-133770000D01*
X165301842Y-133827068D01*
X165031589Y-133939010D01*
X164788368Y-134101525D01*
X164581525Y-134308368D01*
X164459805Y-134490534D01*
X164390178Y-134373645D01*
X164195269Y-134157412D01*
X163961920Y-133983359D01*
X163699099Y-133858175D01*
X163551890Y-133813524D01*
X163322000Y-133934845D01*
X163068000Y-133934845D01*
X162838110Y-133813524D01*
X162690901Y-133858175D01*
X162428080Y-133983359D01*
X162194731Y-134157412D01*
X161999822Y-134373645D01*
X161925000Y-134499255D01*
X161850178Y-134373645D01*
X161655269Y-134157412D01*
X161421920Y-133983359D01*
X161159099Y-133858175D01*
X161011890Y-133813524D01*
X160782000Y-133934845D01*
X160528000Y-133934845D01*
X160298110Y-133813524D01*
X160150901Y-133858175D01*
X159888080Y-133983359D01*
X159654731Y-134157412D01*
X159459822Y-134373645D01*
X159385000Y-134499255D01*
X159310178Y-134373645D01*
X159115269Y-134157412D01*
X158881920Y-133983359D01*
X158619099Y-133858175D01*
X158471890Y-133813524D01*
X158242000Y-133934845D01*
X157988000Y-133934845D01*
X157758110Y-133813524D01*
X157610901Y-133858175D01*
X157348080Y-133983359D01*
X157114731Y-134157412D01*
X156919822Y-134373645D01*
X156850195Y-134490534D01*
X156728475Y-134308368D01*
X156521632Y-134101525D01*
X156278411Y-133939010D01*
X156008158Y-133827068D01*
X155721260Y-133770000D01*
X155428740Y-133770000D01*
X155141842Y-133827068D01*
X154871589Y-133939010D01*
X154628368Y-134101525D01*
X154421525Y-134308368D01*
X154259010Y-134551589D01*
X154147068Y-134821842D01*
X154090000Y-135108740D01*
X154090000Y-135401260D01*
X154147068Y-135688158D01*
X154259010Y-135958411D01*
X154421525Y-136201632D01*
X154553380Y-136333487D01*
X154480820Y-136355498D01*
X154370506Y-136414463D01*
X154273815Y-136493815D01*
X154194463Y-136590506D01*
X154135498Y-136700820D01*
X154099188Y-136820518D01*
X154086928Y-136945000D01*
X130937000Y-136945000D01*
X130937000Y-132613061D01*
X152635000Y-132613061D01*
X152635000Y-132816939D01*
X152674774Y-133016898D01*
X152752795Y-133205256D01*
X152866063Y-133374774D01*
X153010226Y-133518937D01*
X153179744Y-133632205D01*
X153368102Y-133710226D01*
X153568061Y-133750000D01*
X153771939Y-133750000D01*
X153971898Y-133710226D01*
X154160256Y-133632205D01*
X154329774Y-133518937D01*
X154473937Y-133374774D01*
X154587205Y-133205256D01*
X154665226Y-133016898D01*
X154705000Y-132816939D01*
X154705000Y-132613061D01*
X154665226Y-132413102D01*
X154587205Y-132224744D01*
X154473937Y-132055226D01*
X154329774Y-131911063D01*
X154160256Y-131797795D01*
X153971898Y-131719774D01*
X153771939Y-131680000D01*
X153568061Y-131680000D01*
X153368102Y-131719774D01*
X153179744Y-131797795D01*
X153010226Y-131911063D01*
X152866063Y-132055226D01*
X152752795Y-132224744D01*
X152674774Y-132413102D01*
X152635000Y-132613061D01*
X130937000Y-132613061D01*
X130937000Y-127533061D01*
X143745000Y-127533061D01*
X143745000Y-127736939D01*
X143784774Y-127936898D01*
X143862795Y-128125256D01*
X143976063Y-128294774D01*
X144120226Y-128438937D01*
X144289744Y-128552205D01*
X144478102Y-128630226D01*
X144678061Y-128670000D01*
X144881939Y-128670000D01*
X145081898Y-128630226D01*
X145270256Y-128552205D01*
X145439774Y-128438937D01*
X145583937Y-128294774D01*
X145697205Y-128125256D01*
X145775226Y-127936898D01*
X145815000Y-127736939D01*
X145815000Y-127533061D01*
X145775226Y-127333102D01*
X145697205Y-127144744D01*
X145583937Y-126975226D01*
X145439774Y-126831063D01*
X145270256Y-126717795D01*
X145081898Y-126639774D01*
X144881939Y-126600000D01*
X144678061Y-126600000D01*
X144478102Y-126639774D01*
X144289744Y-126717795D01*
X144120226Y-126831063D01*
X143976063Y-126975226D01*
X143862795Y-127144744D01*
X143784774Y-127333102D01*
X143745000Y-127533061D01*
X130937000Y-127533061D01*
X130937000Y-126263061D01*
X138665000Y-126263061D01*
X138665000Y-126466939D01*
X138704774Y-126666898D01*
X138782795Y-126855256D01*
X138896063Y-127024774D01*
X139040226Y-127168937D01*
X139209744Y-127282205D01*
X139398102Y-127360226D01*
X139598061Y-127400000D01*
X139801939Y-127400000D01*
X140001898Y-127360226D01*
X140190256Y-127282205D01*
X140359774Y-127168937D01*
X140503937Y-127024774D01*
X140617205Y-126855256D01*
X140695226Y-126666898D01*
X140735000Y-126466939D01*
X140735000Y-126263061D01*
X140695226Y-126063102D01*
X140617205Y-125874744D01*
X140503937Y-125705226D01*
X140359774Y-125561063D01*
X140190256Y-125447795D01*
X140001898Y-125369774D01*
X139801939Y-125330000D01*
X139598061Y-125330000D01*
X139398102Y-125369774D01*
X139209744Y-125447795D01*
X139040226Y-125561063D01*
X138896063Y-125705226D01*
X138782795Y-125874744D01*
X138704774Y-126063102D01*
X138665000Y-126263061D01*
X130937000Y-126263061D01*
X130937000Y-123723061D01*
X134855000Y-123723061D01*
X134855000Y-123926939D01*
X134894774Y-124126898D01*
X134972795Y-124315256D01*
X135086063Y-124484774D01*
X135230226Y-124628937D01*
X135399744Y-124742205D01*
X135588102Y-124820226D01*
X135788061Y-124860000D01*
X135991939Y-124860000D01*
X136191898Y-124820226D01*
X136380256Y-124742205D01*
X136549774Y-124628937D01*
X136693937Y-124484774D01*
X136807205Y-124315256D01*
X136885226Y-124126898D01*
X136925000Y-123926939D01*
X136925000Y-123723061D01*
X136885226Y-123523102D01*
X136807205Y-123334744D01*
X136693937Y-123165226D01*
X136549774Y-123021063D01*
X136380256Y-122907795D01*
X136191898Y-122829774D01*
X135991939Y-122790000D01*
X135788061Y-122790000D01*
X135588102Y-122829774D01*
X135399744Y-122907795D01*
X135230226Y-123021063D01*
X135086063Y-123165226D01*
X134972795Y-123334744D01*
X134894774Y-123523102D01*
X134855000Y-123723061D01*
X130937000Y-123723061D01*
X130937000Y-122453061D01*
X141205000Y-122453061D01*
X141205000Y-122656939D01*
X141244774Y-122856898D01*
X141322795Y-123045256D01*
X141436063Y-123214774D01*
X141580226Y-123358937D01*
X141749744Y-123472205D01*
X141938102Y-123550226D01*
X142138061Y-123590000D01*
X142341939Y-123590000D01*
X142541898Y-123550226D01*
X142730256Y-123472205D01*
X142899774Y-123358937D01*
X143043937Y-123214774D01*
X143157205Y-123045256D01*
X143235226Y-122856898D01*
X143275000Y-122656939D01*
X143275000Y-122453061D01*
X143235226Y-122253102D01*
X143157205Y-122064744D01*
X143043937Y-121895226D01*
X142899774Y-121751063D01*
X142730256Y-121637795D01*
X142541898Y-121559774D01*
X142341939Y-121520000D01*
X142138061Y-121520000D01*
X141938102Y-121559774D01*
X141749744Y-121637795D01*
X141580226Y-121751063D01*
X141436063Y-121895226D01*
X141322795Y-122064744D01*
X141244774Y-122253102D01*
X141205000Y-122453061D01*
X130937000Y-122453061D01*
X130937000Y-119913061D01*
X155175000Y-119913061D01*
X155175000Y-120116939D01*
X155214774Y-120316898D01*
X155292795Y-120505256D01*
X155406063Y-120674774D01*
X155550226Y-120818937D01*
X155719744Y-120932205D01*
X155908102Y-121010226D01*
X156108061Y-121050000D01*
X156311939Y-121050000D01*
X156511898Y-121010226D01*
X156700256Y-120932205D01*
X156869774Y-120818937D01*
X157013937Y-120674774D01*
X157127205Y-120505256D01*
X157205226Y-120316898D01*
X157239804Y-120143061D01*
X160025000Y-120143061D01*
X160025000Y-120346939D01*
X160064774Y-120546898D01*
X160142795Y-120735256D01*
X160256063Y-120904774D01*
X160400226Y-121048937D01*
X160569744Y-121162205D01*
X160758102Y-121240226D01*
X160958061Y-121280000D01*
X161161939Y-121280000D01*
X161361898Y-121240226D01*
X161550256Y-121162205D01*
X161719774Y-121048937D01*
X161863937Y-120904774D01*
X161977205Y-120735256D01*
X162055226Y-120546898D01*
X162095000Y-120346939D01*
X162095000Y-120143061D01*
X162055226Y-119943102D01*
X161977205Y-119754744D01*
X161863937Y-119585226D01*
X161719774Y-119441063D01*
X161550256Y-119327795D01*
X161361898Y-119249774D01*
X161161939Y-119210000D01*
X160958061Y-119210000D01*
X160758102Y-119249774D01*
X160569744Y-119327795D01*
X160400226Y-119441063D01*
X160256063Y-119585226D01*
X160142795Y-119754744D01*
X160064774Y-119943102D01*
X160025000Y-120143061D01*
X157239804Y-120143061D01*
X157245000Y-120116939D01*
X157245000Y-119913061D01*
X157205226Y-119713102D01*
X157127205Y-119524744D01*
X157013937Y-119355226D01*
X156869774Y-119211063D01*
X156700256Y-119097795D01*
X156511898Y-119019774D01*
X156311939Y-118980000D01*
X156108061Y-118980000D01*
X155908102Y-119019774D01*
X155719744Y-119097795D01*
X155550226Y-119211063D01*
X155406063Y-119355226D01*
X155292795Y-119524744D01*
X155214774Y-119713102D01*
X155175000Y-119913061D01*
X130937000Y-119913061D01*
X130937000Y-117373061D01*
X148825000Y-117373061D01*
X148825000Y-117576939D01*
X148864774Y-117776898D01*
X148942795Y-117965256D01*
X149056063Y-118134774D01*
X149200226Y-118278937D01*
X149369744Y-118392205D01*
X149558102Y-118470226D01*
X149758061Y-118510000D01*
X149961939Y-118510000D01*
X150161898Y-118470226D01*
X150350256Y-118392205D01*
X150519774Y-118278937D01*
X150663937Y-118134774D01*
X150777205Y-117965256D01*
X150855226Y-117776898D01*
X150895000Y-117576939D01*
X150895000Y-117373061D01*
X150855226Y-117173102D01*
X150777205Y-116984744D01*
X150663937Y-116815226D01*
X150519774Y-116671063D01*
X150350256Y-116557795D01*
X150161898Y-116479774D01*
X149961939Y-116440000D01*
X149758061Y-116440000D01*
X149558102Y-116479774D01*
X149369744Y-116557795D01*
X149200226Y-116671063D01*
X149056063Y-116815226D01*
X148942795Y-116984744D01*
X148864774Y-117173102D01*
X148825000Y-117373061D01*
X130937000Y-117373061D01*
X130937000Y-116103061D01*
X133585000Y-116103061D01*
X133585000Y-116306939D01*
X133624774Y-116506898D01*
X133702795Y-116695256D01*
X133816063Y-116864774D01*
X133960226Y-117008937D01*
X134129744Y-117122205D01*
X134318102Y-117200226D01*
X134518061Y-117240000D01*
X134721939Y-117240000D01*
X134921898Y-117200226D01*
X135110256Y-117122205D01*
X135279774Y-117008937D01*
X135423937Y-116864774D01*
X135537205Y-116695256D01*
X135615226Y-116506898D01*
X135655000Y-116306939D01*
X135655000Y-116103061D01*
X143745000Y-116103061D01*
X143745000Y-116306939D01*
X143784774Y-116506898D01*
X143862795Y-116695256D01*
X143976063Y-116864774D01*
X144120226Y-117008937D01*
X144289744Y-117122205D01*
X144478102Y-117200226D01*
X144678061Y-117240000D01*
X144881939Y-117240000D01*
X145081898Y-117200226D01*
X145270256Y-117122205D01*
X145439774Y-117008937D01*
X145583937Y-116864774D01*
X145697205Y-116695256D01*
X145775226Y-116506898D01*
X145815000Y-116306939D01*
X145815000Y-116103061D01*
X151365000Y-116103061D01*
X151365000Y-116306939D01*
X151404774Y-116506898D01*
X151482795Y-116695256D01*
X151596063Y-116864774D01*
X151740226Y-117008937D01*
X151909744Y-117122205D01*
X152098102Y-117200226D01*
X152298061Y-117240000D01*
X152501939Y-117240000D01*
X152701898Y-117200226D01*
X152890256Y-117122205D01*
X153059774Y-117008937D01*
X153203937Y-116864774D01*
X153288603Y-116738061D01*
X166605000Y-116738061D01*
X166605000Y-116941939D01*
X166644774Y-117141898D01*
X166722795Y-117330256D01*
X166836063Y-117499774D01*
X166980226Y-117643937D01*
X167149744Y-117757205D01*
X167338102Y-117835226D01*
X167538061Y-117875000D01*
X167741939Y-117875000D01*
X167941898Y-117835226D01*
X168130256Y-117757205D01*
X168299774Y-117643937D01*
X168443937Y-117499774D01*
X168557205Y-117330256D01*
X168635226Y-117141898D01*
X168675000Y-116941939D01*
X168675000Y-116738061D01*
X168635226Y-116538102D01*
X168557205Y-116349744D01*
X168443937Y-116180226D01*
X168299774Y-116036063D01*
X168130256Y-115922795D01*
X167941898Y-115844774D01*
X167741939Y-115805000D01*
X167538061Y-115805000D01*
X167338102Y-115844774D01*
X167149744Y-115922795D01*
X166980226Y-116036063D01*
X166836063Y-116180226D01*
X166722795Y-116349744D01*
X166644774Y-116538102D01*
X166605000Y-116738061D01*
X153288603Y-116738061D01*
X153317205Y-116695256D01*
X153395226Y-116506898D01*
X153435000Y-116306939D01*
X153435000Y-116103061D01*
X153395226Y-115903102D01*
X153317205Y-115714744D01*
X153203937Y-115545226D01*
X153059774Y-115401063D01*
X152890256Y-115287795D01*
X152701898Y-115209774D01*
X152501939Y-115170000D01*
X152298061Y-115170000D01*
X152098102Y-115209774D01*
X151909744Y-115287795D01*
X151740226Y-115401063D01*
X151596063Y-115545226D01*
X151482795Y-115714744D01*
X151404774Y-115903102D01*
X151365000Y-116103061D01*
X145815000Y-116103061D01*
X145775226Y-115903102D01*
X145697205Y-115714744D01*
X145583937Y-115545226D01*
X145439774Y-115401063D01*
X145270256Y-115287795D01*
X145081898Y-115209774D01*
X144881939Y-115170000D01*
X144678061Y-115170000D01*
X144478102Y-115209774D01*
X144289744Y-115287795D01*
X144120226Y-115401063D01*
X143976063Y-115545226D01*
X143862795Y-115714744D01*
X143784774Y-115903102D01*
X143745000Y-116103061D01*
X135655000Y-116103061D01*
X135615226Y-115903102D01*
X135537205Y-115714744D01*
X135423937Y-115545226D01*
X135279774Y-115401063D01*
X135110256Y-115287795D01*
X134921898Y-115209774D01*
X134721939Y-115170000D01*
X134518061Y-115170000D01*
X134318102Y-115209774D01*
X134129744Y-115287795D01*
X133960226Y-115401063D01*
X133816063Y-115545226D01*
X133702795Y-115714744D01*
X133624774Y-115903102D01*
X133585000Y-116103061D01*
X130937000Y-116103061D01*
X130937000Y-114833061D01*
X156445000Y-114833061D01*
X156445000Y-115036939D01*
X156484774Y-115236898D01*
X156562795Y-115425256D01*
X156676063Y-115594774D01*
X156820226Y-115738937D01*
X156989744Y-115852205D01*
X157178102Y-115930226D01*
X157378061Y-115970000D01*
X157581939Y-115970000D01*
X157781898Y-115930226D01*
X157970256Y-115852205D01*
X158115000Y-115755490D01*
X158259744Y-115852205D01*
X158448102Y-115930226D01*
X158648061Y-115970000D01*
X158851939Y-115970000D01*
X159051898Y-115930226D01*
X159240256Y-115852205D01*
X159409774Y-115738937D01*
X159553937Y-115594774D01*
X159667205Y-115425256D01*
X159745226Y-115236898D01*
X159785000Y-115036939D01*
X159785000Y-114833061D01*
X159745226Y-114633102D01*
X159667205Y-114444744D01*
X159553937Y-114275226D01*
X159409774Y-114131063D01*
X159240256Y-114017795D01*
X159051898Y-113939774D01*
X158851939Y-113900000D01*
X158648061Y-113900000D01*
X158448102Y-113939774D01*
X158259744Y-114017795D01*
X158115000Y-114114510D01*
X157970256Y-114017795D01*
X157781898Y-113939774D01*
X157581939Y-113900000D01*
X157378061Y-113900000D01*
X157178102Y-113939774D01*
X156989744Y-114017795D01*
X156820226Y-114131063D01*
X156676063Y-114275226D01*
X156562795Y-114444744D01*
X156484774Y-114633102D01*
X156445000Y-114833061D01*
X130937000Y-114833061D01*
X130937000Y-113563061D01*
X164065000Y-113563061D01*
X164065000Y-113766939D01*
X164104774Y-113966898D01*
X164182795Y-114155256D01*
X164296063Y-114324774D01*
X164440226Y-114468937D01*
X164609744Y-114582205D01*
X164798102Y-114660226D01*
X164998061Y-114700000D01*
X165201939Y-114700000D01*
X165401898Y-114660226D01*
X165590256Y-114582205D01*
X165759774Y-114468937D01*
X165903937Y-114324774D01*
X166017205Y-114155256D01*
X166052500Y-114070047D01*
X166087795Y-114155256D01*
X166201063Y-114324774D01*
X166345226Y-114468937D01*
X166514744Y-114582205D01*
X166703102Y-114660226D01*
X166903061Y-114700000D01*
X167106939Y-114700000D01*
X167306898Y-114660226D01*
X167495256Y-114582205D01*
X167664774Y-114468937D01*
X167808937Y-114324774D01*
X167922205Y-114155256D01*
X168000226Y-113966898D01*
X168040000Y-113766939D01*
X168040000Y-113563061D01*
X168000226Y-113363102D01*
X167922205Y-113174744D01*
X167808937Y-113005226D01*
X167664774Y-112861063D01*
X167495256Y-112747795D01*
X167306898Y-112669774D01*
X167106939Y-112630000D01*
X166903061Y-112630000D01*
X166703102Y-112669774D01*
X166514744Y-112747795D01*
X166345226Y-112861063D01*
X166201063Y-113005226D01*
X166087795Y-113174744D01*
X166052500Y-113259953D01*
X166017205Y-113174744D01*
X165903937Y-113005226D01*
X165759774Y-112861063D01*
X165590256Y-112747795D01*
X165401898Y-112669774D01*
X165201939Y-112630000D01*
X164998061Y-112630000D01*
X164798102Y-112669774D01*
X164609744Y-112747795D01*
X164440226Y-112861063D01*
X164296063Y-113005226D01*
X164182795Y-113174744D01*
X164104774Y-113363102D01*
X164065000Y-113563061D01*
X130937000Y-113563061D01*
X130937000Y-112293061D01*
X138665000Y-112293061D01*
X138665000Y-112496939D01*
X138704774Y-112696898D01*
X138782795Y-112885256D01*
X138896063Y-113054774D01*
X139040226Y-113198937D01*
X139209744Y-113312205D01*
X139398102Y-113390226D01*
X139598061Y-113430000D01*
X139801939Y-113430000D01*
X140001898Y-113390226D01*
X140190256Y-113312205D01*
X140359774Y-113198937D01*
X140503937Y-113054774D01*
X140617205Y-112885256D01*
X140695226Y-112696898D01*
X140735000Y-112496939D01*
X140735000Y-112293061D01*
X167875000Y-112293061D01*
X167875000Y-112496939D01*
X167914774Y-112696898D01*
X167992795Y-112885256D01*
X168106063Y-113054774D01*
X168250226Y-113198937D01*
X168419744Y-113312205D01*
X168608102Y-113390226D01*
X168808061Y-113430000D01*
X169011939Y-113430000D01*
X169211898Y-113390226D01*
X169400256Y-113312205D01*
X169569774Y-113198937D01*
X169713937Y-113054774D01*
X169827205Y-112885256D01*
X169905226Y-112696898D01*
X169945000Y-112496939D01*
X169945000Y-112293061D01*
X169905226Y-112093102D01*
X169827205Y-111904744D01*
X169713937Y-111735226D01*
X169569774Y-111591063D01*
X169400256Y-111477795D01*
X169211898Y-111399774D01*
X169011939Y-111360000D01*
X168808061Y-111360000D01*
X168608102Y-111399774D01*
X168419744Y-111477795D01*
X168250226Y-111591063D01*
X168106063Y-111735226D01*
X167992795Y-111904744D01*
X167914774Y-112093102D01*
X167875000Y-112293061D01*
X140735000Y-112293061D01*
X140695226Y-112093102D01*
X140617205Y-111904744D01*
X140503937Y-111735226D01*
X140359774Y-111591063D01*
X140190256Y-111477795D01*
X140001898Y-111399774D01*
X139801939Y-111360000D01*
X139598061Y-111360000D01*
X139398102Y-111399774D01*
X139209744Y-111477795D01*
X139040226Y-111591063D01*
X138896063Y-111735226D01*
X138782795Y-111904744D01*
X138704774Y-112093102D01*
X138665000Y-112293061D01*
X130937000Y-112293061D01*
X130937000Y-110613061D01*
X141205000Y-110613061D01*
X141205000Y-110816939D01*
X141244774Y-111016898D01*
X141322795Y-111205256D01*
X141436063Y-111374774D01*
X141580226Y-111518937D01*
X141749744Y-111632205D01*
X141938102Y-111710226D01*
X142138061Y-111750000D01*
X142341939Y-111750000D01*
X142541898Y-111710226D01*
X142730256Y-111632205D01*
X142899774Y-111518937D01*
X143043937Y-111374774D01*
X143157205Y-111205256D01*
X143232673Y-111023061D01*
X153905000Y-111023061D01*
X153905000Y-111226939D01*
X153944774Y-111426898D01*
X154022795Y-111615256D01*
X154136063Y-111784774D01*
X154280226Y-111928937D01*
X154449744Y-112042205D01*
X154638102Y-112120226D01*
X154838061Y-112160000D01*
X155041939Y-112160000D01*
X155241898Y-112120226D01*
X155430256Y-112042205D01*
X155599774Y-111928937D01*
X155743937Y-111784774D01*
X155857205Y-111615256D01*
X155935226Y-111426898D01*
X155975000Y-111226939D01*
X155975000Y-111023061D01*
X161525000Y-111023061D01*
X161525000Y-111226939D01*
X161564774Y-111426898D01*
X161642795Y-111615256D01*
X161756063Y-111784774D01*
X161900226Y-111928937D01*
X162069744Y-112042205D01*
X162258102Y-112120226D01*
X162458061Y-112160000D01*
X162661939Y-112160000D01*
X162861898Y-112120226D01*
X163050256Y-112042205D01*
X163219774Y-111928937D01*
X163363937Y-111784774D01*
X163477205Y-111615256D01*
X163555226Y-111426898D01*
X163595000Y-111226939D01*
X163595000Y-111023061D01*
X163561961Y-110856961D01*
X163728061Y-110890000D01*
X163931939Y-110890000D01*
X164131898Y-110850226D01*
X164320256Y-110772205D01*
X164489774Y-110658937D01*
X164633937Y-110514774D01*
X164747205Y-110345256D01*
X164825226Y-110156898D01*
X164865000Y-109956939D01*
X164865000Y-109753061D01*
X164825226Y-109553102D01*
X164747205Y-109364744D01*
X164633937Y-109195226D01*
X164489774Y-109051063D01*
X164320256Y-108937795D01*
X164131898Y-108859774D01*
X163931939Y-108820000D01*
X163728061Y-108820000D01*
X163528102Y-108859774D01*
X163339744Y-108937795D01*
X163170226Y-109051063D01*
X163026063Y-109195226D01*
X162912795Y-109364744D01*
X162834774Y-109553102D01*
X162795000Y-109753061D01*
X162795000Y-109956939D01*
X162828039Y-110123039D01*
X162661939Y-110090000D01*
X162458061Y-110090000D01*
X162258102Y-110129774D01*
X162069744Y-110207795D01*
X161900226Y-110321063D01*
X161756063Y-110465226D01*
X161642795Y-110634744D01*
X161564774Y-110823102D01*
X161525000Y-111023061D01*
X155975000Y-111023061D01*
X155935226Y-110823102D01*
X155857205Y-110634744D01*
X155743937Y-110465226D01*
X155599774Y-110321063D01*
X155430256Y-110207795D01*
X155241898Y-110129774D01*
X155041939Y-110090000D01*
X154838061Y-110090000D01*
X154638102Y-110129774D01*
X154449744Y-110207795D01*
X154280226Y-110321063D01*
X154136063Y-110465226D01*
X154022795Y-110634744D01*
X153944774Y-110823102D01*
X153905000Y-111023061D01*
X143232673Y-111023061D01*
X143235226Y-111016898D01*
X143275000Y-110816939D01*
X143275000Y-110613061D01*
X143235226Y-110413102D01*
X143157205Y-110224744D01*
X143043937Y-110055226D01*
X142899774Y-109911063D01*
X142730256Y-109797795D01*
X142622260Y-109753061D01*
X156445000Y-109753061D01*
X156445000Y-109956939D01*
X156484774Y-110156898D01*
X156562795Y-110345256D01*
X156676063Y-110514774D01*
X156820226Y-110658937D01*
X156989744Y-110772205D01*
X157178102Y-110850226D01*
X157378061Y-110890000D01*
X157581939Y-110890000D01*
X157781898Y-110850226D01*
X157970256Y-110772205D01*
X158139774Y-110658937D01*
X158283937Y-110514774D01*
X158397205Y-110345256D01*
X158475226Y-110156898D01*
X158515000Y-109956939D01*
X158515000Y-109753061D01*
X158475226Y-109553102D01*
X158397205Y-109364744D01*
X158283937Y-109195226D01*
X158139774Y-109051063D01*
X157970256Y-108937795D01*
X157781898Y-108859774D01*
X157581939Y-108820000D01*
X157378061Y-108820000D01*
X157178102Y-108859774D01*
X156989744Y-108937795D01*
X156820226Y-109051063D01*
X156676063Y-109195226D01*
X156562795Y-109364744D01*
X156484774Y-109553102D01*
X156445000Y-109753061D01*
X142622260Y-109753061D01*
X142541898Y-109719774D01*
X142341939Y-109680000D01*
X142138061Y-109680000D01*
X141938102Y-109719774D01*
X141749744Y-109797795D01*
X141580226Y-109911063D01*
X141436063Y-110055226D01*
X141322795Y-110224744D01*
X141244774Y-110413102D01*
X141205000Y-110613061D01*
X130937000Y-110613061D01*
X130937000Y-108483061D01*
X152854900Y-108483061D01*
X152854900Y-108686939D01*
X152894674Y-108886898D01*
X152972695Y-109075256D01*
X153085963Y-109244774D01*
X153230126Y-109388937D01*
X153399644Y-109502205D01*
X153588002Y-109580226D01*
X153787961Y-109620000D01*
X153991839Y-109620000D01*
X154191798Y-109580226D01*
X154380156Y-109502205D01*
X154549674Y-109388937D01*
X154693837Y-109244774D01*
X154807105Y-109075256D01*
X154885126Y-108886898D01*
X154924900Y-108686939D01*
X154924900Y-108483061D01*
X154885126Y-108283102D01*
X154807105Y-108094744D01*
X154693837Y-107925226D01*
X154549674Y-107781063D01*
X154380156Y-107667795D01*
X154191798Y-107589774D01*
X153991839Y-107550000D01*
X153787961Y-107550000D01*
X153588002Y-107589774D01*
X153399644Y-107667795D01*
X153230126Y-107781063D01*
X153085963Y-107925226D01*
X152972695Y-108094744D01*
X152894674Y-108283102D01*
X152854900Y-108483061D01*
X130937000Y-108483061D01*
X130937000Y-107213061D01*
X142475000Y-107213061D01*
X142475000Y-107416939D01*
X142514774Y-107616898D01*
X142592795Y-107805256D01*
X142706063Y-107974774D01*
X142850226Y-108118937D01*
X143019744Y-108232205D01*
X143208102Y-108310226D01*
X143408061Y-108350000D01*
X143611939Y-108350000D01*
X143811898Y-108310226D01*
X144000256Y-108232205D01*
X144169774Y-108118937D01*
X144313937Y-107974774D01*
X144427205Y-107805256D01*
X144505226Y-107616898D01*
X144545000Y-107416939D01*
X144545000Y-107213061D01*
X145015000Y-107213061D01*
X145015000Y-107416939D01*
X145054774Y-107616898D01*
X145132795Y-107805256D01*
X145246063Y-107974774D01*
X145390226Y-108118937D01*
X145559744Y-108232205D01*
X145748102Y-108310226D01*
X145948061Y-108350000D01*
X146151939Y-108350000D01*
X146351898Y-108310226D01*
X146540256Y-108232205D01*
X146709774Y-108118937D01*
X146853937Y-107974774D01*
X146967205Y-107805256D01*
X147045226Y-107616898D01*
X147085000Y-107416939D01*
X147085000Y-107213061D01*
X147045226Y-107013102D01*
X146967205Y-106824744D01*
X146853937Y-106655226D01*
X146709774Y-106511063D01*
X146540256Y-106397795D01*
X146351898Y-106319774D01*
X146151939Y-106280000D01*
X145948061Y-106280000D01*
X145748102Y-106319774D01*
X145559744Y-106397795D01*
X145390226Y-106511063D01*
X145246063Y-106655226D01*
X145132795Y-106824744D01*
X145054774Y-107013102D01*
X145015000Y-107213061D01*
X144545000Y-107213061D01*
X144505226Y-107013102D01*
X144427205Y-106824744D01*
X144313937Y-106655226D01*
X144169774Y-106511063D01*
X144000256Y-106397795D01*
X143811898Y-106319774D01*
X143611939Y-106280000D01*
X143408061Y-106280000D01*
X143208102Y-106319774D01*
X143019744Y-106397795D01*
X142850226Y-106511063D01*
X142706063Y-106655226D01*
X142592795Y-106824744D01*
X142514774Y-107013102D01*
X142475000Y-107213061D01*
X130937000Y-107213061D01*
X130937000Y-103643061D01*
X166365000Y-103643061D01*
X166365000Y-103846939D01*
X166404774Y-104046898D01*
X166482795Y-104235256D01*
X166596063Y-104404774D01*
X166740226Y-104548937D01*
X166909744Y-104662205D01*
X167098102Y-104740226D01*
X167298061Y-104780000D01*
X167501939Y-104780000D01*
X167701898Y-104740226D01*
X167890256Y-104662205D01*
X168059774Y-104548937D01*
X168203937Y-104404774D01*
X168317205Y-104235256D01*
X168395226Y-104046898D01*
X168435000Y-103846939D01*
X168435000Y-103643061D01*
X168395226Y-103443102D01*
X168317205Y-103254744D01*
X168203937Y-103085226D01*
X168059774Y-102941063D01*
X167890256Y-102827795D01*
X167701898Y-102749774D01*
X167501939Y-102710000D01*
X167298061Y-102710000D01*
X167098102Y-102749774D01*
X166909744Y-102827795D01*
X166740226Y-102941063D01*
X166596063Y-103085226D01*
X166482795Y-103254744D01*
X166404774Y-103443102D01*
X166365000Y-103643061D01*
X130937000Y-103643061D01*
X130937000Y-102133061D01*
X155175000Y-102133061D01*
X155175000Y-102336939D01*
X155214774Y-102536898D01*
X155292795Y-102725256D01*
X155406063Y-102894774D01*
X155550226Y-103038937D01*
X155719744Y-103152205D01*
X155908102Y-103230226D01*
X156108061Y-103270000D01*
X156311939Y-103270000D01*
X156511898Y-103230226D01*
X156700256Y-103152205D01*
X156869774Y-103038937D01*
X157013937Y-102894774D01*
X157127205Y-102725256D01*
X157205226Y-102536898D01*
X157245000Y-102336939D01*
X157245000Y-102133061D01*
X157205226Y-101933102D01*
X157127205Y-101744744D01*
X157013937Y-101575226D01*
X156936772Y-101498061D01*
X160890000Y-101498061D01*
X160890000Y-101701939D01*
X160929774Y-101901898D01*
X161007795Y-102090256D01*
X161121063Y-102259774D01*
X161265226Y-102403937D01*
X161434744Y-102517205D01*
X161623102Y-102595226D01*
X161823061Y-102635000D01*
X162026939Y-102635000D01*
X162226898Y-102595226D01*
X162415256Y-102517205D01*
X162584774Y-102403937D01*
X162728937Y-102259774D01*
X162842205Y-102090256D01*
X162920226Y-101901898D01*
X162960000Y-101701939D01*
X162960000Y-101498061D01*
X162920226Y-101298102D01*
X162842205Y-101109744D01*
X162728937Y-100940226D01*
X162584774Y-100796063D01*
X162415256Y-100682795D01*
X162226898Y-100604774D01*
X162026939Y-100565000D01*
X161823061Y-100565000D01*
X161623102Y-100604774D01*
X161434744Y-100682795D01*
X161265226Y-100796063D01*
X161121063Y-100940226D01*
X161007795Y-101109744D01*
X160929774Y-101298102D01*
X160890000Y-101498061D01*
X156936772Y-101498061D01*
X156869774Y-101431063D01*
X156700256Y-101317795D01*
X156511898Y-101239774D01*
X156311939Y-101200000D01*
X156108061Y-101200000D01*
X155908102Y-101239774D01*
X155719744Y-101317795D01*
X155550226Y-101431063D01*
X155406063Y-101575226D01*
X155292795Y-101744744D01*
X155214774Y-101933102D01*
X155175000Y-102133061D01*
X130937000Y-102133061D01*
X130937000Y-99593061D01*
X139935000Y-99593061D01*
X139935000Y-99796939D01*
X139974774Y-99996898D01*
X140052795Y-100185256D01*
X140166063Y-100354774D01*
X140310226Y-100498937D01*
X140479744Y-100612205D01*
X140668102Y-100690226D01*
X140868061Y-100730000D01*
X141071939Y-100730000D01*
X141271898Y-100690226D01*
X141460256Y-100612205D01*
X141629774Y-100498937D01*
X141773937Y-100354774D01*
X141887205Y-100185256D01*
X141965226Y-99996898D01*
X142005000Y-99796939D01*
X142005000Y-99593061D01*
X141965226Y-99393102D01*
X141887205Y-99204744D01*
X141773937Y-99035226D01*
X141629774Y-98891063D01*
X141460256Y-98777795D01*
X141271898Y-98699774D01*
X141071939Y-98660000D01*
X140868061Y-98660000D01*
X140668102Y-98699774D01*
X140479744Y-98777795D01*
X140310226Y-98891063D01*
X140166063Y-99035226D01*
X140052795Y-99204744D01*
X139974774Y-99393102D01*
X139935000Y-99593061D01*
X130937000Y-99593061D01*
X130937000Y-98323061D01*
X151365000Y-98323061D01*
X151365000Y-98526939D01*
X151404774Y-98726898D01*
X151482795Y-98915256D01*
X151596063Y-99084774D01*
X151740226Y-99228937D01*
X151909744Y-99342205D01*
X152098102Y-99420226D01*
X152298061Y-99460000D01*
X152501939Y-99460000D01*
X152701898Y-99420226D01*
X152890256Y-99342205D01*
X153059774Y-99228937D01*
X153203937Y-99084774D01*
X153317205Y-98915256D01*
X153395226Y-98726898D01*
X153435000Y-98526939D01*
X153435000Y-98323061D01*
X156445000Y-98323061D01*
X156445000Y-98526939D01*
X156484774Y-98726898D01*
X156562795Y-98915256D01*
X156676063Y-99084774D01*
X156820226Y-99228937D01*
X156989744Y-99342205D01*
X157178102Y-99420226D01*
X157378061Y-99460000D01*
X157581939Y-99460000D01*
X157781898Y-99420226D01*
X157970256Y-99342205D01*
X158139774Y-99228937D01*
X158283937Y-99084774D01*
X158368603Y-98958061D01*
X165970000Y-98958061D01*
X165970000Y-99161939D01*
X166009774Y-99361898D01*
X166087795Y-99550256D01*
X166201063Y-99719774D01*
X166345226Y-99863937D01*
X166514744Y-99977205D01*
X166703102Y-100055226D01*
X166903061Y-100095000D01*
X167106939Y-100095000D01*
X167306898Y-100055226D01*
X167495256Y-99977205D01*
X167664774Y-99863937D01*
X167808937Y-99719774D01*
X167875000Y-99620903D01*
X167875000Y-99796939D01*
X167914774Y-99996898D01*
X167992795Y-100185256D01*
X168106063Y-100354774D01*
X168250226Y-100498937D01*
X168419744Y-100612205D01*
X168608102Y-100690226D01*
X168808061Y-100730000D01*
X169011939Y-100730000D01*
X169211898Y-100690226D01*
X169400256Y-100612205D01*
X169569774Y-100498937D01*
X169713937Y-100354774D01*
X169827205Y-100185256D01*
X169905226Y-99996898D01*
X169945000Y-99796939D01*
X169945000Y-99593061D01*
X169905226Y-99393102D01*
X169827205Y-99204744D01*
X169713937Y-99035226D01*
X169569774Y-98891063D01*
X169400256Y-98777795D01*
X169211898Y-98699774D01*
X169011939Y-98660000D01*
X168808061Y-98660000D01*
X168608102Y-98699774D01*
X168419744Y-98777795D01*
X168250226Y-98891063D01*
X168106063Y-99035226D01*
X168040000Y-99134097D01*
X168040000Y-98958061D01*
X168000226Y-98758102D01*
X167922205Y-98569744D01*
X167808937Y-98400226D01*
X167664774Y-98256063D01*
X167495256Y-98142795D01*
X167306898Y-98064774D01*
X167106939Y-98025000D01*
X166903061Y-98025000D01*
X166703102Y-98064774D01*
X166514744Y-98142795D01*
X166345226Y-98256063D01*
X166201063Y-98400226D01*
X166087795Y-98569744D01*
X166009774Y-98758102D01*
X165970000Y-98958061D01*
X158368603Y-98958061D01*
X158397205Y-98915256D01*
X158475226Y-98726898D01*
X158515000Y-98526939D01*
X158515000Y-98323061D01*
X158475226Y-98123102D01*
X158397205Y-97934744D01*
X158283937Y-97765226D01*
X158139774Y-97621063D01*
X157970256Y-97507795D01*
X157781898Y-97429774D01*
X157581939Y-97390000D01*
X157378061Y-97390000D01*
X157178102Y-97429774D01*
X156989744Y-97507795D01*
X156820226Y-97621063D01*
X156676063Y-97765226D01*
X156562795Y-97934744D01*
X156484774Y-98123102D01*
X156445000Y-98323061D01*
X153435000Y-98323061D01*
X153395226Y-98123102D01*
X153317205Y-97934744D01*
X153203937Y-97765226D01*
X153059774Y-97621063D01*
X152890256Y-97507795D01*
X152701898Y-97429774D01*
X152501939Y-97390000D01*
X152298061Y-97390000D01*
X152098102Y-97429774D01*
X151909744Y-97507795D01*
X151740226Y-97621063D01*
X151596063Y-97765226D01*
X151482795Y-97934744D01*
X151404774Y-98123102D01*
X151365000Y-98323061D01*
X130937000Y-98323061D01*
X130937000Y-95597071D01*
X131865990Y-95597071D01*
X131865990Y-95800949D01*
X131905764Y-96000908D01*
X131983785Y-96189266D01*
X132097053Y-96358784D01*
X132241216Y-96502947D01*
X132410734Y-96616215D01*
X132599092Y-96694236D01*
X132799051Y-96734010D01*
X133002929Y-96734010D01*
X133202888Y-96694236D01*
X133391246Y-96616215D01*
X133560764Y-96502947D01*
X133704927Y-96358784D01*
X133818195Y-96189266D01*
X133896216Y-96000908D01*
X133935990Y-95800949D01*
X133935990Y-95597071D01*
X133896216Y-95397112D01*
X133861401Y-95313061D01*
X142475000Y-95313061D01*
X142475000Y-95516939D01*
X142514774Y-95716898D01*
X142592795Y-95905256D01*
X142706063Y-96074774D01*
X142850226Y-96218937D01*
X143019744Y-96332205D01*
X143208102Y-96410226D01*
X143408061Y-96450000D01*
X143611939Y-96450000D01*
X143811898Y-96410226D01*
X144000256Y-96332205D01*
X144169774Y-96218937D01*
X144313937Y-96074774D01*
X144427205Y-95905256D01*
X144477820Y-95783061D01*
X161525000Y-95783061D01*
X161525000Y-95986939D01*
X161564774Y-96186898D01*
X161642795Y-96375256D01*
X161756063Y-96544774D01*
X161900226Y-96688937D01*
X162069744Y-96802205D01*
X162258102Y-96880226D01*
X162458061Y-96920000D01*
X162661939Y-96920000D01*
X162861898Y-96880226D01*
X163050256Y-96802205D01*
X163219774Y-96688937D01*
X163363937Y-96544774D01*
X163477205Y-96375256D01*
X163555226Y-96186898D01*
X163595000Y-95986939D01*
X163595000Y-95783061D01*
X163555226Y-95583102D01*
X163477205Y-95394744D01*
X163363937Y-95225226D01*
X163219774Y-95081063D01*
X163050256Y-94967795D01*
X162861898Y-94889774D01*
X162661939Y-94850000D01*
X162458061Y-94850000D01*
X162258102Y-94889774D01*
X162069744Y-94967795D01*
X161900226Y-95081063D01*
X161756063Y-95225226D01*
X161642795Y-95394744D01*
X161564774Y-95583102D01*
X161525000Y-95783061D01*
X144477820Y-95783061D01*
X144505226Y-95716898D01*
X144545000Y-95516939D01*
X144545000Y-95313061D01*
X144505226Y-95113102D01*
X144427205Y-94924744D01*
X144313937Y-94755226D01*
X144169774Y-94611063D01*
X144023104Y-94513061D01*
X152635000Y-94513061D01*
X152635000Y-94716939D01*
X152674774Y-94916898D01*
X152752795Y-95105256D01*
X152866063Y-95274774D01*
X153010226Y-95418937D01*
X153179744Y-95532205D01*
X153368102Y-95610226D01*
X153568061Y-95650000D01*
X153771939Y-95650000D01*
X153971898Y-95610226D01*
X154160256Y-95532205D01*
X154329774Y-95418937D01*
X154473937Y-95274774D01*
X154587205Y-95105256D01*
X154665226Y-94916898D01*
X154705000Y-94716939D01*
X154705000Y-94513061D01*
X154665226Y-94313102D01*
X154587205Y-94124744D01*
X154473937Y-93955226D01*
X154329774Y-93811063D01*
X154160256Y-93697795D01*
X153971898Y-93619774D01*
X153771939Y-93580000D01*
X153568061Y-93580000D01*
X153368102Y-93619774D01*
X153179744Y-93697795D01*
X153010226Y-93811063D01*
X152866063Y-93955226D01*
X152752795Y-94124744D01*
X152674774Y-94313102D01*
X152635000Y-94513061D01*
X144023104Y-94513061D01*
X144000256Y-94497795D01*
X143811898Y-94419774D01*
X143611939Y-94380000D01*
X143408061Y-94380000D01*
X143208102Y-94419774D01*
X143019744Y-94497795D01*
X142850226Y-94611063D01*
X142706063Y-94755226D01*
X142592795Y-94924744D01*
X142514774Y-95113102D01*
X142475000Y-95313061D01*
X133861401Y-95313061D01*
X133818195Y-95208754D01*
X133704927Y-95039236D01*
X133560764Y-94895073D01*
X133391246Y-94781805D01*
X133202888Y-94703784D01*
X133002929Y-94664010D01*
X132799051Y-94664010D01*
X132599092Y-94703784D01*
X132410734Y-94781805D01*
X132241216Y-94895073D01*
X132097053Y-95039236D01*
X131983785Y-95208754D01*
X131905764Y-95397112D01*
X131865990Y-95597071D01*
X130937000Y-95597071D01*
X130937000Y-93243061D01*
X136125000Y-93243061D01*
X136125000Y-93446939D01*
X136164774Y-93646898D01*
X136242795Y-93835256D01*
X136356063Y-94004774D01*
X136500226Y-94148937D01*
X136669744Y-94262205D01*
X136858102Y-94340226D01*
X137058061Y-94380000D01*
X137261939Y-94380000D01*
X137461898Y-94340226D01*
X137650256Y-94262205D01*
X137819774Y-94148937D01*
X137963937Y-94004774D01*
X138077205Y-93835256D01*
X138155226Y-93646898D01*
X138195000Y-93446939D01*
X138195000Y-93243061D01*
X145015000Y-93243061D01*
X145015000Y-93446939D01*
X145054774Y-93646898D01*
X145132795Y-93835256D01*
X145246063Y-94004774D01*
X145390226Y-94148937D01*
X145559744Y-94262205D01*
X145748102Y-94340226D01*
X145948061Y-94380000D01*
X146151939Y-94380000D01*
X146351898Y-94340226D01*
X146540256Y-94262205D01*
X146709774Y-94148937D01*
X146853937Y-94004774D01*
X146967205Y-93835256D01*
X147045226Y-93646898D01*
X147085000Y-93446939D01*
X147085000Y-93243061D01*
X160255000Y-93243061D01*
X160255000Y-93446939D01*
X160294774Y-93646898D01*
X160372795Y-93835256D01*
X160486063Y-94004774D01*
X160630226Y-94148937D01*
X160799744Y-94262205D01*
X160988102Y-94340226D01*
X161188061Y-94380000D01*
X161391939Y-94380000D01*
X161591898Y-94340226D01*
X161780256Y-94262205D01*
X161949774Y-94148937D01*
X162093937Y-94004774D01*
X162207205Y-93835256D01*
X162285226Y-93646898D01*
X162325000Y-93446939D01*
X162325000Y-93243061D01*
X162285226Y-93043102D01*
X162207205Y-92854744D01*
X162093937Y-92685226D01*
X161949774Y-92541063D01*
X161780256Y-92427795D01*
X161591898Y-92349774D01*
X161391939Y-92310000D01*
X161188061Y-92310000D01*
X160988102Y-92349774D01*
X160799744Y-92427795D01*
X160630226Y-92541063D01*
X160486063Y-92685226D01*
X160372795Y-92854744D01*
X160294774Y-93043102D01*
X160255000Y-93243061D01*
X147085000Y-93243061D01*
X147045226Y-93043102D01*
X146967205Y-92854744D01*
X146853937Y-92685226D01*
X146709774Y-92541063D01*
X146540256Y-92427795D01*
X146351898Y-92349774D01*
X146151939Y-92310000D01*
X145948061Y-92310000D01*
X145748102Y-92349774D01*
X145559744Y-92427795D01*
X145390226Y-92541063D01*
X145246063Y-92685226D01*
X145132795Y-92854744D01*
X145054774Y-93043102D01*
X145015000Y-93243061D01*
X138195000Y-93243061D01*
X138155226Y-93043102D01*
X138077205Y-92854744D01*
X137963937Y-92685226D01*
X137819774Y-92541063D01*
X137650256Y-92427795D01*
X137461898Y-92349774D01*
X137261939Y-92310000D01*
X137058061Y-92310000D01*
X136858102Y-92349774D01*
X136669744Y-92427795D01*
X136500226Y-92541063D01*
X136356063Y-92685226D01*
X136242795Y-92854744D01*
X136164774Y-93043102D01*
X136125000Y-93243061D01*
X130937000Y-93243061D01*
X130937000Y-90703061D01*
X141205000Y-90703061D01*
X141205000Y-90906939D01*
X141244774Y-91106898D01*
X141322795Y-91295256D01*
X141436063Y-91464774D01*
X141580226Y-91608937D01*
X141749744Y-91722205D01*
X141938102Y-91800226D01*
X142138061Y-91840000D01*
X142341939Y-91840000D01*
X142541898Y-91800226D01*
X142730256Y-91722205D01*
X142899774Y-91608937D01*
X143043937Y-91464774D01*
X143157205Y-91295256D01*
X143235226Y-91106898D01*
X143275000Y-90906939D01*
X143275000Y-90703061D01*
X157715000Y-90703061D01*
X157715000Y-90906939D01*
X157754774Y-91106898D01*
X157832795Y-91295256D01*
X157946063Y-91464774D01*
X158090226Y-91608937D01*
X158259744Y-91722205D01*
X158448102Y-91800226D01*
X158648061Y-91840000D01*
X158851939Y-91840000D01*
X159051898Y-91800226D01*
X159240256Y-91722205D01*
X159409774Y-91608937D01*
X159553937Y-91464774D01*
X159667205Y-91295256D01*
X159745226Y-91106898D01*
X159785000Y-90906939D01*
X159785000Y-90703061D01*
X159745226Y-90503102D01*
X159667205Y-90314744D01*
X159553937Y-90145226D01*
X159409774Y-90001063D01*
X159240256Y-89887795D01*
X159051898Y-89809774D01*
X158851939Y-89770000D01*
X158648061Y-89770000D01*
X158448102Y-89809774D01*
X158259744Y-89887795D01*
X158090226Y-90001063D01*
X157946063Y-90145226D01*
X157832795Y-90314744D01*
X157754774Y-90503102D01*
X157715000Y-90703061D01*
X143275000Y-90703061D01*
X143235226Y-90503102D01*
X143157205Y-90314744D01*
X143043937Y-90145226D01*
X142899774Y-90001063D01*
X142730256Y-89887795D01*
X142541898Y-89809774D01*
X142341939Y-89770000D01*
X142138061Y-89770000D01*
X141938102Y-89809774D01*
X141749744Y-89887795D01*
X141580226Y-90001063D01*
X141436063Y-90145226D01*
X141322795Y-90314744D01*
X141244774Y-90503102D01*
X141205000Y-90703061D01*
X130937000Y-90703061D01*
X130937000Y-89433061D01*
X146920000Y-89433061D01*
X146920000Y-89636939D01*
X146959774Y-89836898D01*
X147037795Y-90025256D01*
X147151063Y-90194774D01*
X147295226Y-90338937D01*
X147464744Y-90452205D01*
X147653102Y-90530226D01*
X147853061Y-90570000D01*
X148056939Y-90570000D01*
X148256898Y-90530226D01*
X148445256Y-90452205D01*
X148614774Y-90338937D01*
X148758937Y-90194774D01*
X148872205Y-90025256D01*
X148950226Y-89836898D01*
X148990000Y-89636939D01*
X148990000Y-89433061D01*
X148950226Y-89233102D01*
X148872205Y-89044744D01*
X148758937Y-88875226D01*
X148614774Y-88731063D01*
X148445256Y-88617795D01*
X148256898Y-88539774D01*
X148056939Y-88500000D01*
X147853061Y-88500000D01*
X147653102Y-88539774D01*
X147464744Y-88617795D01*
X147295226Y-88731063D01*
X147151063Y-88875226D01*
X147037795Y-89044744D01*
X146959774Y-89233102D01*
X146920000Y-89433061D01*
X130937000Y-89433061D01*
X130937000Y-88163061D01*
X162795000Y-88163061D01*
X162795000Y-88366939D01*
X162834774Y-88566898D01*
X162912795Y-88755256D01*
X163026063Y-88924774D01*
X163170226Y-89068937D01*
X163339744Y-89182205D01*
X163528102Y-89260226D01*
X163728061Y-89300000D01*
X163931939Y-89300000D01*
X164131898Y-89260226D01*
X164320256Y-89182205D01*
X164489774Y-89068937D01*
X164633937Y-88924774D01*
X164747205Y-88755256D01*
X164825226Y-88566898D01*
X164865000Y-88366939D01*
X164865000Y-88163061D01*
X164825226Y-87963102D01*
X164747205Y-87774744D01*
X164633937Y-87605226D01*
X164489774Y-87461063D01*
X164320256Y-87347795D01*
X164131898Y-87269774D01*
X163931939Y-87230000D01*
X163728061Y-87230000D01*
X163528102Y-87269774D01*
X163339744Y-87347795D01*
X163170226Y-87461063D01*
X163026063Y-87605226D01*
X162912795Y-87774744D01*
X162834774Y-87963102D01*
X162795000Y-88163061D01*
X130937000Y-88163061D01*
X130937000Y-86893061D01*
X155175000Y-86893061D01*
X155175000Y-87096939D01*
X155214774Y-87296898D01*
X155292795Y-87485256D01*
X155406063Y-87654774D01*
X155550226Y-87798937D01*
X155719744Y-87912205D01*
X155908102Y-87990226D01*
X156108061Y-88030000D01*
X156311939Y-88030000D01*
X156511898Y-87990226D01*
X156700256Y-87912205D01*
X156869774Y-87798937D01*
X157013937Y-87654774D01*
X157127205Y-87485256D01*
X157205226Y-87296898D01*
X157245000Y-87096939D01*
X157245000Y-86893061D01*
X157205226Y-86693102D01*
X157127205Y-86504744D01*
X157013937Y-86335226D01*
X156869774Y-86191063D01*
X156700256Y-86077795D01*
X156511898Y-85999774D01*
X156311939Y-85960000D01*
X156108061Y-85960000D01*
X155908102Y-85999774D01*
X155719744Y-86077795D01*
X155550226Y-86191063D01*
X155406063Y-86335226D01*
X155292795Y-86504744D01*
X155214774Y-86693102D01*
X155175000Y-86893061D01*
X130937000Y-86893061D01*
X130937000Y-84353061D01*
X149460000Y-84353061D01*
X149460000Y-84556939D01*
X149499774Y-84756898D01*
X149577795Y-84945256D01*
X149691063Y-85114774D01*
X149835226Y-85258937D01*
X150004744Y-85372205D01*
X150193102Y-85450226D01*
X150393061Y-85490000D01*
X150596939Y-85490000D01*
X150796898Y-85450226D01*
X150985256Y-85372205D01*
X151154774Y-85258937D01*
X151298937Y-85114774D01*
X151412205Y-84945256D01*
X151490226Y-84756898D01*
X151530000Y-84556939D01*
X151530000Y-84353061D01*
X151490226Y-84153102D01*
X151412205Y-83964744D01*
X151298937Y-83795226D01*
X151154774Y-83651063D01*
X150985256Y-83537795D01*
X150796898Y-83459774D01*
X150596939Y-83420000D01*
X150393061Y-83420000D01*
X150193102Y-83459774D01*
X150004744Y-83537795D01*
X149835226Y-83651063D01*
X149691063Y-83795226D01*
X149577795Y-83964744D01*
X149499774Y-84153102D01*
X149460000Y-84353061D01*
X130937000Y-84353061D01*
X130937000Y-83083061D01*
X163175000Y-83083061D01*
X163175000Y-83286939D01*
X163214774Y-83486898D01*
X163292795Y-83675256D01*
X163406063Y-83844774D01*
X163550226Y-83988937D01*
X163719744Y-84102205D01*
X163908102Y-84180226D01*
X164108061Y-84220000D01*
X164311939Y-84220000D01*
X164511898Y-84180226D01*
X164700256Y-84102205D01*
X164869774Y-83988937D01*
X165013937Y-83844774D01*
X165127205Y-83675256D01*
X165205226Y-83486898D01*
X165245000Y-83286939D01*
X165245000Y-83083061D01*
X165205226Y-82883102D01*
X165127205Y-82694744D01*
X165013937Y-82525226D01*
X164869774Y-82381063D01*
X164700256Y-82267795D01*
X164511898Y-82189774D01*
X164311939Y-82150000D01*
X164108061Y-82150000D01*
X163908102Y-82189774D01*
X163719744Y-82267795D01*
X163550226Y-82381063D01*
X163406063Y-82525226D01*
X163292795Y-82694744D01*
X163214774Y-82883102D01*
X163175000Y-83083061D01*
X130937000Y-83083061D01*
X130937000Y-78525000D01*
X133766928Y-78525000D01*
X133766928Y-80225000D01*
X133779188Y-80349482D01*
X133815498Y-80469180D01*
X133874463Y-80579494D01*
X133953815Y-80676185D01*
X134050506Y-80755537D01*
X134160820Y-80814502D01*
X134280518Y-80850812D01*
X134405000Y-80863072D01*
X136105000Y-80863072D01*
X136229482Y-80850812D01*
X136349180Y-80814502D01*
X136459494Y-80755537D01*
X136556185Y-80676185D01*
X136635537Y-80579494D01*
X136694502Y-80469180D01*
X136716513Y-80396620D01*
X136848368Y-80528475D01*
X137091589Y-80690990D01*
X137361842Y-80802932D01*
X137648740Y-80860000D01*
X137941260Y-80860000D01*
X138228158Y-80802932D01*
X138498411Y-80690990D01*
X138741632Y-80528475D01*
X138948475Y-80321632D01*
X139065000Y-80147240D01*
X139181525Y-80321632D01*
X139388368Y-80528475D01*
X139631589Y-80690990D01*
X139901842Y-80802932D01*
X140188740Y-80860000D01*
X140481260Y-80860000D01*
X140768158Y-80802932D01*
X141038411Y-80690990D01*
X141281632Y-80528475D01*
X141488475Y-80321632D01*
X141605000Y-80147240D01*
X141721525Y-80321632D01*
X141928368Y-80528475D01*
X142171589Y-80690990D01*
X142441842Y-80802932D01*
X142728740Y-80860000D01*
X143021260Y-80860000D01*
X143308158Y-80802932D01*
X143578411Y-80690990D01*
X143821632Y-80528475D01*
X144028475Y-80321632D01*
X144145000Y-80147240D01*
X144261525Y-80321632D01*
X144468368Y-80528475D01*
X144711589Y-80690990D01*
X144981842Y-80802932D01*
X145268740Y-80860000D01*
X145561260Y-80860000D01*
X145848158Y-80802932D01*
X146118411Y-80690990D01*
X146361632Y-80528475D01*
X146568475Y-80321632D01*
X146685000Y-80147240D01*
X146801525Y-80321632D01*
X147008368Y-80528475D01*
X147251589Y-80690990D01*
X147521842Y-80802932D01*
X147808740Y-80860000D01*
X148101260Y-80860000D01*
X148388158Y-80802932D01*
X148658411Y-80690990D01*
X148901632Y-80528475D01*
X149108475Y-80321632D01*
X149270990Y-80078411D01*
X149382932Y-79808158D01*
X149440000Y-79521260D01*
X149440000Y-79228740D01*
X149382932Y-78941842D01*
X149270990Y-78671589D01*
X149173043Y-78525000D01*
X151546928Y-78525000D01*
X151546928Y-80225000D01*
X151559188Y-80349482D01*
X151595498Y-80469180D01*
X151654463Y-80579494D01*
X151733815Y-80676185D01*
X151830506Y-80755537D01*
X151940820Y-80814502D01*
X152060518Y-80850812D01*
X152185000Y-80863072D01*
X153885000Y-80863072D01*
X154009482Y-80850812D01*
X154129180Y-80814502D01*
X154239494Y-80755537D01*
X154336185Y-80676185D01*
X154415537Y-80579494D01*
X154474502Y-80469180D01*
X154496513Y-80396620D01*
X154628368Y-80528475D01*
X154871589Y-80690990D01*
X155141842Y-80802932D01*
X155428740Y-80860000D01*
X155721260Y-80860000D01*
X156008158Y-80802932D01*
X156278411Y-80690990D01*
X156521632Y-80528475D01*
X156728475Y-80321632D01*
X156845000Y-80147240D01*
X156961525Y-80321632D01*
X157168368Y-80528475D01*
X157411589Y-80690990D01*
X157681842Y-80802932D01*
X157968740Y-80860000D01*
X158261260Y-80860000D01*
X158548158Y-80802932D01*
X158818411Y-80690990D01*
X159061632Y-80528475D01*
X159268475Y-80321632D01*
X159385000Y-80147240D01*
X159501525Y-80321632D01*
X159708368Y-80528475D01*
X159951589Y-80690990D01*
X160221842Y-80802932D01*
X160508740Y-80860000D01*
X160801260Y-80860000D01*
X161088158Y-80802932D01*
X161358411Y-80690990D01*
X161601632Y-80528475D01*
X161808475Y-80321632D01*
X161925000Y-80147240D01*
X162041525Y-80321632D01*
X162248368Y-80528475D01*
X162491589Y-80690990D01*
X162761842Y-80802932D01*
X163048740Y-80860000D01*
X163341260Y-80860000D01*
X163628158Y-80802932D01*
X163898411Y-80690990D01*
X164141632Y-80528475D01*
X164348475Y-80321632D01*
X164465000Y-80147240D01*
X164581525Y-80321632D01*
X164788368Y-80528475D01*
X165031589Y-80690990D01*
X165301842Y-80802932D01*
X165588740Y-80860000D01*
X165881260Y-80860000D01*
X166168158Y-80802932D01*
X166438411Y-80690990D01*
X166681632Y-80528475D01*
X166888475Y-80321632D01*
X167050990Y-80078411D01*
X167162932Y-79808158D01*
X167220000Y-79521260D01*
X167220000Y-79228740D01*
X167162932Y-78941842D01*
X167050990Y-78671589D01*
X166888475Y-78428368D01*
X166681632Y-78221525D01*
X166505594Y-78103900D01*
X166735269Y-77932588D01*
X166930178Y-77716355D01*
X167079157Y-77466252D01*
X167176481Y-77191891D01*
X167055814Y-76962000D01*
X165862000Y-76962000D01*
X165862000Y-76982000D01*
X165608000Y-76982000D01*
X165608000Y-76962000D01*
X163322000Y-76962000D01*
X163322000Y-76982000D01*
X163068000Y-76982000D01*
X163068000Y-76962000D01*
X160782000Y-76962000D01*
X160782000Y-76982000D01*
X160528000Y-76982000D01*
X160528000Y-76962000D01*
X158242000Y-76962000D01*
X158242000Y-76982000D01*
X157988000Y-76982000D01*
X157988000Y-76962000D01*
X155702000Y-76962000D01*
X155702000Y-76982000D01*
X155448000Y-76982000D01*
X155448000Y-76962000D01*
X153162000Y-76962000D01*
X153162000Y-76982000D01*
X152908000Y-76982000D01*
X152908000Y-76962000D01*
X151714186Y-76962000D01*
X151593519Y-77191891D01*
X151690843Y-77466252D01*
X151839822Y-77716355D01*
X152016626Y-77912502D01*
X151940820Y-77935498D01*
X151830506Y-77994463D01*
X151733815Y-78073815D01*
X151654463Y-78170506D01*
X151595498Y-78280820D01*
X151559188Y-78400518D01*
X151546928Y-78525000D01*
X149173043Y-78525000D01*
X149108475Y-78428368D01*
X148901632Y-78221525D01*
X148725594Y-78103900D01*
X148955269Y-77932588D01*
X149150178Y-77716355D01*
X149299157Y-77466252D01*
X149396481Y-77191891D01*
X149275814Y-76962000D01*
X148082000Y-76962000D01*
X148082000Y-76982000D01*
X147828000Y-76982000D01*
X147828000Y-76962000D01*
X145542000Y-76962000D01*
X145542000Y-76982000D01*
X145288000Y-76982000D01*
X145288000Y-76962000D01*
X143002000Y-76962000D01*
X143002000Y-76982000D01*
X142748000Y-76982000D01*
X142748000Y-76962000D01*
X140462000Y-76962000D01*
X140462000Y-76982000D01*
X140208000Y-76982000D01*
X140208000Y-76962000D01*
X137922000Y-76962000D01*
X137922000Y-76982000D01*
X137668000Y-76982000D01*
X137668000Y-76962000D01*
X135382000Y-76962000D01*
X135382000Y-76982000D01*
X135128000Y-76982000D01*
X135128000Y-76962000D01*
X133934186Y-76962000D01*
X133813519Y-77191891D01*
X133910843Y-77466252D01*
X134059822Y-77716355D01*
X134236626Y-77912502D01*
X134160820Y-77935498D01*
X134050506Y-77994463D01*
X133953815Y-78073815D01*
X133874463Y-78170506D01*
X133815498Y-78280820D01*
X133779188Y-78400518D01*
X133766928Y-78525000D01*
X130937000Y-78525000D01*
X130937000Y-76478109D01*
X133813519Y-76478109D01*
X133934186Y-76708000D01*
X135128000Y-76708000D01*
X135128000Y-75514845D01*
X135382000Y-75514845D01*
X135382000Y-76708000D01*
X137668000Y-76708000D01*
X137668000Y-75514845D01*
X137922000Y-75514845D01*
X137922000Y-76708000D01*
X140208000Y-76708000D01*
X140208000Y-75514845D01*
X140462000Y-75514845D01*
X140462000Y-76708000D01*
X142748000Y-76708000D01*
X142748000Y-75514845D01*
X143002000Y-75514845D01*
X143002000Y-76708000D01*
X145288000Y-76708000D01*
X145288000Y-75514845D01*
X145542000Y-75514845D01*
X145542000Y-76708000D01*
X147828000Y-76708000D01*
X147828000Y-75514845D01*
X148082000Y-75514845D01*
X148082000Y-76708000D01*
X149275814Y-76708000D01*
X149396481Y-76478109D01*
X151593519Y-76478109D01*
X151714186Y-76708000D01*
X152908000Y-76708000D01*
X152908000Y-75514845D01*
X153162000Y-75514845D01*
X153162000Y-76708000D01*
X155448000Y-76708000D01*
X155448000Y-75514845D01*
X155702000Y-75514845D01*
X155702000Y-76708000D01*
X157988000Y-76708000D01*
X157988000Y-75514845D01*
X158242000Y-75514845D01*
X158242000Y-76708000D01*
X160528000Y-76708000D01*
X160528000Y-75514845D01*
X160782000Y-75514845D01*
X160782000Y-76708000D01*
X163068000Y-76708000D01*
X163068000Y-75514845D01*
X163322000Y-75514845D01*
X163322000Y-76708000D01*
X165608000Y-76708000D01*
X165608000Y-75514845D01*
X165862000Y-75514845D01*
X165862000Y-76708000D01*
X167055814Y-76708000D01*
X167176481Y-76478109D01*
X167079157Y-76203748D01*
X166930178Y-75953645D01*
X166735269Y-75737412D01*
X166501920Y-75563359D01*
X166239099Y-75438175D01*
X166091890Y-75393524D01*
X165862000Y-75514845D01*
X165608000Y-75514845D01*
X165378110Y-75393524D01*
X165230901Y-75438175D01*
X164968080Y-75563359D01*
X164734731Y-75737412D01*
X164539822Y-75953645D01*
X164465000Y-76079255D01*
X164390178Y-75953645D01*
X164195269Y-75737412D01*
X163961920Y-75563359D01*
X163699099Y-75438175D01*
X163551890Y-75393524D01*
X163322000Y-75514845D01*
X163068000Y-75514845D01*
X162838110Y-75393524D01*
X162690901Y-75438175D01*
X162428080Y-75563359D01*
X162194731Y-75737412D01*
X161999822Y-75953645D01*
X161925000Y-76079255D01*
X161850178Y-75953645D01*
X161655269Y-75737412D01*
X161421920Y-75563359D01*
X161159099Y-75438175D01*
X161011890Y-75393524D01*
X160782000Y-75514845D01*
X160528000Y-75514845D01*
X160298110Y-75393524D01*
X160150901Y-75438175D01*
X159888080Y-75563359D01*
X159654731Y-75737412D01*
X159459822Y-75953645D01*
X159385000Y-76079255D01*
X159310178Y-75953645D01*
X159115269Y-75737412D01*
X158881920Y-75563359D01*
X158619099Y-75438175D01*
X158471890Y-75393524D01*
X158242000Y-75514845D01*
X157988000Y-75514845D01*
X157758110Y-75393524D01*
X157610901Y-75438175D01*
X157348080Y-75563359D01*
X157114731Y-75737412D01*
X156919822Y-75953645D01*
X156845000Y-76079255D01*
X156770178Y-75953645D01*
X156575269Y-75737412D01*
X156341920Y-75563359D01*
X156079099Y-75438175D01*
X155931890Y-75393524D01*
X155702000Y-75514845D01*
X155448000Y-75514845D01*
X155218110Y-75393524D01*
X155070901Y-75438175D01*
X154808080Y-75563359D01*
X154574731Y-75737412D01*
X154379822Y-75953645D01*
X154305000Y-76079255D01*
X154230178Y-75953645D01*
X154035269Y-75737412D01*
X153801920Y-75563359D01*
X153539099Y-75438175D01*
X153391890Y-75393524D01*
X153162000Y-75514845D01*
X152908000Y-75514845D01*
X152678110Y-75393524D01*
X152530901Y-75438175D01*
X152268080Y-75563359D01*
X152034731Y-75737412D01*
X151839822Y-75953645D01*
X151690843Y-76203748D01*
X151593519Y-76478109D01*
X149396481Y-76478109D01*
X149299157Y-76203748D01*
X149150178Y-75953645D01*
X148955269Y-75737412D01*
X148721920Y-75563359D01*
X148459099Y-75438175D01*
X148311890Y-75393524D01*
X148082000Y-75514845D01*
X147828000Y-75514845D01*
X147598110Y-75393524D01*
X147450901Y-75438175D01*
X147188080Y-75563359D01*
X146954731Y-75737412D01*
X146759822Y-75953645D01*
X146685000Y-76079255D01*
X146610178Y-75953645D01*
X146415269Y-75737412D01*
X146181920Y-75563359D01*
X145919099Y-75438175D01*
X145771890Y-75393524D01*
X145542000Y-75514845D01*
X145288000Y-75514845D01*
X145058110Y-75393524D01*
X144910901Y-75438175D01*
X144648080Y-75563359D01*
X144414731Y-75737412D01*
X144219822Y-75953645D01*
X144145000Y-76079255D01*
X144070178Y-75953645D01*
X143875269Y-75737412D01*
X143641920Y-75563359D01*
X143379099Y-75438175D01*
X143231890Y-75393524D01*
X143002000Y-75514845D01*
X142748000Y-75514845D01*
X142518110Y-75393524D01*
X142370901Y-75438175D01*
X142108080Y-75563359D01*
X141874731Y-75737412D01*
X141679822Y-75953645D01*
X141605000Y-76079255D01*
X141530178Y-75953645D01*
X141335269Y-75737412D01*
X141101920Y-75563359D01*
X140839099Y-75438175D01*
X140691890Y-75393524D01*
X140462000Y-75514845D01*
X140208000Y-75514845D01*
X139978110Y-75393524D01*
X139830901Y-75438175D01*
X139568080Y-75563359D01*
X139334731Y-75737412D01*
X139139822Y-75953645D01*
X139065000Y-76079255D01*
X138990178Y-75953645D01*
X138795269Y-75737412D01*
X138561920Y-75563359D01*
X138299099Y-75438175D01*
X138151890Y-75393524D01*
X137922000Y-75514845D01*
X137668000Y-75514845D01*
X137438110Y-75393524D01*
X137290901Y-75438175D01*
X137028080Y-75563359D01*
X136794731Y-75737412D01*
X136599822Y-75953645D01*
X136525000Y-76079255D01*
X136450178Y-75953645D01*
X136255269Y-75737412D01*
X136021920Y-75563359D01*
X135759099Y-75438175D01*
X135611890Y-75393524D01*
X135382000Y-75514845D01*
X135128000Y-75514845D01*
X134898110Y-75393524D01*
X134750901Y-75438175D01*
X134488080Y-75563359D01*
X134254731Y-75737412D01*
X134059822Y-75953645D01*
X133910843Y-76203748D01*
X133813519Y-76478109D01*
X130937000Y-76478109D01*
X130937000Y-73152000D01*
X170053000Y-73152000D01*
X170053000Y-141478000D01*
%TA.AperFunction,Conductor*%
D15*
G36*
X170053000Y-141478000D02*
G01*
X130937000Y-141478000D01*
X130937000Y-136945000D01*
X154086928Y-136945000D01*
X154086928Y-138645000D01*
X154099188Y-138769482D01*
X154135498Y-138889180D01*
X154194463Y-138999494D01*
X154273815Y-139096185D01*
X154370506Y-139175537D01*
X154480820Y-139234502D01*
X154600518Y-139270812D01*
X154725000Y-139283072D01*
X156425000Y-139283072D01*
X156549482Y-139270812D01*
X156669180Y-139234502D01*
X156779494Y-139175537D01*
X156876185Y-139096185D01*
X156955537Y-138999494D01*
X157014502Y-138889180D01*
X157038966Y-138808534D01*
X157114731Y-138892588D01*
X157348080Y-139066641D01*
X157610901Y-139191825D01*
X157758110Y-139236476D01*
X157988000Y-139115155D01*
X157988000Y-137922000D01*
X158242000Y-137922000D01*
X158242000Y-139115155D01*
X158471890Y-139236476D01*
X158619099Y-139191825D01*
X158881920Y-139066641D01*
X159115269Y-138892588D01*
X159310178Y-138676355D01*
X159385000Y-138550745D01*
X159459822Y-138676355D01*
X159654731Y-138892588D01*
X159888080Y-139066641D01*
X160150901Y-139191825D01*
X160298110Y-139236476D01*
X160528000Y-139115155D01*
X160528000Y-137922000D01*
X160782000Y-137922000D01*
X160782000Y-139115155D01*
X161011890Y-139236476D01*
X161159099Y-139191825D01*
X161421920Y-139066641D01*
X161655269Y-138892588D01*
X161850178Y-138676355D01*
X161925000Y-138550745D01*
X161999822Y-138676355D01*
X162194731Y-138892588D01*
X162428080Y-139066641D01*
X162690901Y-139191825D01*
X162838110Y-139236476D01*
X163068000Y-139115155D01*
X163068000Y-137922000D01*
X160782000Y-137922000D01*
X160528000Y-137922000D01*
X158242000Y-137922000D01*
X157988000Y-137922000D01*
X157968000Y-137922000D01*
X157968000Y-137668000D01*
X157988000Y-137668000D01*
X157988000Y-135382000D01*
X158242000Y-135382000D01*
X158242000Y-137668000D01*
X160528000Y-137668000D01*
X160528000Y-135382000D01*
X160782000Y-135382000D01*
X160782000Y-137668000D01*
X163068000Y-137668000D01*
X163068000Y-135382000D01*
X160782000Y-135382000D01*
X160528000Y-135382000D01*
X158242000Y-135382000D01*
X157988000Y-135382000D01*
X157968000Y-135382000D01*
X157968000Y-135128000D01*
X157988000Y-135128000D01*
X157988000Y-133934845D01*
X158242000Y-133934845D01*
X158242000Y-135128000D01*
X160528000Y-135128000D01*
X160528000Y-133934845D01*
X160782000Y-133934845D01*
X160782000Y-135128000D01*
X163068000Y-135128000D01*
X163068000Y-133934845D01*
X163322000Y-133934845D01*
X163322000Y-135128000D01*
X163342000Y-135128000D01*
X163342000Y-135382000D01*
X163322000Y-135382000D01*
X163322000Y-137668000D01*
X163342000Y-137668000D01*
X163342000Y-137922000D01*
X163322000Y-137922000D01*
X163322000Y-139115155D01*
X163551890Y-139236476D01*
X163699099Y-139191825D01*
X163961920Y-139066641D01*
X164195269Y-138892588D01*
X164390178Y-138676355D01*
X164459805Y-138559466D01*
X164581525Y-138741632D01*
X164788368Y-138948475D01*
X165031589Y-139110990D01*
X165301842Y-139222932D01*
X165588740Y-139280000D01*
X165881260Y-139280000D01*
X166168158Y-139222932D01*
X166438411Y-139110990D01*
X166681632Y-138948475D01*
X166888475Y-138741632D01*
X167050990Y-138498411D01*
X167162932Y-138228158D01*
X167220000Y-137941260D01*
X167220000Y-137648740D01*
X167162932Y-137361842D01*
X167050990Y-137091589D01*
X166888475Y-136848368D01*
X166681632Y-136641525D01*
X166507240Y-136525000D01*
X166681632Y-136408475D01*
X166888475Y-136201632D01*
X167050990Y-135958411D01*
X167162932Y-135688158D01*
X167220000Y-135401260D01*
X167220000Y-135108740D01*
X167162932Y-134821842D01*
X167050990Y-134551589D01*
X166888475Y-134308368D01*
X166681632Y-134101525D01*
X166438411Y-133939010D01*
X166168158Y-133827068D01*
X165881260Y-133770000D01*
X165588740Y-133770000D01*
X165301842Y-133827068D01*
X165031589Y-133939010D01*
X164788368Y-134101525D01*
X164581525Y-134308368D01*
X164459805Y-134490534D01*
X164390178Y-134373645D01*
X164195269Y-134157412D01*
X163961920Y-133983359D01*
X163699099Y-133858175D01*
X163551890Y-133813524D01*
X163322000Y-133934845D01*
X163068000Y-133934845D01*
X162838110Y-133813524D01*
X162690901Y-133858175D01*
X162428080Y-133983359D01*
X162194731Y-134157412D01*
X161999822Y-134373645D01*
X161925000Y-134499255D01*
X161850178Y-134373645D01*
X161655269Y-134157412D01*
X161421920Y-133983359D01*
X161159099Y-133858175D01*
X161011890Y-133813524D01*
X160782000Y-133934845D01*
X160528000Y-133934845D01*
X160298110Y-133813524D01*
X160150901Y-133858175D01*
X159888080Y-133983359D01*
X159654731Y-134157412D01*
X159459822Y-134373645D01*
X159385000Y-134499255D01*
X159310178Y-134373645D01*
X159115269Y-134157412D01*
X158881920Y-133983359D01*
X158619099Y-133858175D01*
X158471890Y-133813524D01*
X158242000Y-133934845D01*
X157988000Y-133934845D01*
X157758110Y-133813524D01*
X157610901Y-133858175D01*
X157348080Y-133983359D01*
X157114731Y-134157412D01*
X156919822Y-134373645D01*
X156850195Y-134490534D01*
X156728475Y-134308368D01*
X156521632Y-134101525D01*
X156278411Y-133939010D01*
X156008158Y-133827068D01*
X155721260Y-133770000D01*
X155428740Y-133770000D01*
X155141842Y-133827068D01*
X154871589Y-133939010D01*
X154628368Y-134101525D01*
X154421525Y-134308368D01*
X154259010Y-134551589D01*
X154147068Y-134821842D01*
X154090000Y-135108740D01*
X154090000Y-135401260D01*
X154147068Y-135688158D01*
X154259010Y-135958411D01*
X154421525Y-136201632D01*
X154553380Y-136333487D01*
X154480820Y-136355498D01*
X154370506Y-136414463D01*
X154273815Y-136493815D01*
X154194463Y-136590506D01*
X154135498Y-136700820D01*
X154099188Y-136820518D01*
X154086928Y-136945000D01*
X130937000Y-136945000D01*
X130937000Y-132613061D01*
X152635000Y-132613061D01*
X152635000Y-132816939D01*
X152674774Y-133016898D01*
X152752795Y-133205256D01*
X152866063Y-133374774D01*
X153010226Y-133518937D01*
X153179744Y-133632205D01*
X153368102Y-133710226D01*
X153568061Y-133750000D01*
X153771939Y-133750000D01*
X153971898Y-133710226D01*
X154160256Y-133632205D01*
X154329774Y-133518937D01*
X154473937Y-133374774D01*
X154587205Y-133205256D01*
X154665226Y-133016898D01*
X154705000Y-132816939D01*
X154705000Y-132613061D01*
X154665226Y-132413102D01*
X154587205Y-132224744D01*
X154473937Y-132055226D01*
X154329774Y-131911063D01*
X154160256Y-131797795D01*
X153971898Y-131719774D01*
X153771939Y-131680000D01*
X153568061Y-131680000D01*
X153368102Y-131719774D01*
X153179744Y-131797795D01*
X153010226Y-131911063D01*
X152866063Y-132055226D01*
X152752795Y-132224744D01*
X152674774Y-132413102D01*
X152635000Y-132613061D01*
X130937000Y-132613061D01*
X130937000Y-127533061D01*
X143745000Y-127533061D01*
X143745000Y-127736939D01*
X143784774Y-127936898D01*
X143862795Y-128125256D01*
X143976063Y-128294774D01*
X144120226Y-128438937D01*
X144289744Y-128552205D01*
X144478102Y-128630226D01*
X144678061Y-128670000D01*
X144881939Y-128670000D01*
X145081898Y-128630226D01*
X145270256Y-128552205D01*
X145439774Y-128438937D01*
X145583937Y-128294774D01*
X145697205Y-128125256D01*
X145775226Y-127936898D01*
X145815000Y-127736939D01*
X145815000Y-127533061D01*
X145775226Y-127333102D01*
X145697205Y-127144744D01*
X145583937Y-126975226D01*
X145439774Y-126831063D01*
X145270256Y-126717795D01*
X145081898Y-126639774D01*
X144881939Y-126600000D01*
X144678061Y-126600000D01*
X144478102Y-126639774D01*
X144289744Y-126717795D01*
X144120226Y-126831063D01*
X143976063Y-126975226D01*
X143862795Y-127144744D01*
X143784774Y-127333102D01*
X143745000Y-127533061D01*
X130937000Y-127533061D01*
X130937000Y-126263061D01*
X138665000Y-126263061D01*
X138665000Y-126466939D01*
X138704774Y-126666898D01*
X138782795Y-126855256D01*
X138896063Y-127024774D01*
X139040226Y-127168937D01*
X139209744Y-127282205D01*
X139398102Y-127360226D01*
X139598061Y-127400000D01*
X139801939Y-127400000D01*
X140001898Y-127360226D01*
X140190256Y-127282205D01*
X140359774Y-127168937D01*
X140503937Y-127024774D01*
X140617205Y-126855256D01*
X140695226Y-126666898D01*
X140735000Y-126466939D01*
X140735000Y-126263061D01*
X140695226Y-126063102D01*
X140617205Y-125874744D01*
X140503937Y-125705226D01*
X140359774Y-125561063D01*
X140190256Y-125447795D01*
X140001898Y-125369774D01*
X139801939Y-125330000D01*
X139598061Y-125330000D01*
X139398102Y-125369774D01*
X139209744Y-125447795D01*
X139040226Y-125561063D01*
X138896063Y-125705226D01*
X138782795Y-125874744D01*
X138704774Y-126063102D01*
X138665000Y-126263061D01*
X130937000Y-126263061D01*
X130937000Y-123723061D01*
X134855000Y-123723061D01*
X134855000Y-123926939D01*
X134894774Y-124126898D01*
X134972795Y-124315256D01*
X135086063Y-124484774D01*
X135230226Y-124628937D01*
X135399744Y-124742205D01*
X135588102Y-124820226D01*
X135788061Y-124860000D01*
X135991939Y-124860000D01*
X136191898Y-124820226D01*
X136380256Y-124742205D01*
X136549774Y-124628937D01*
X136693937Y-124484774D01*
X136807205Y-124315256D01*
X136885226Y-124126898D01*
X136925000Y-123926939D01*
X136925000Y-123723061D01*
X136885226Y-123523102D01*
X136807205Y-123334744D01*
X136693937Y-123165226D01*
X136549774Y-123021063D01*
X136380256Y-122907795D01*
X136191898Y-122829774D01*
X135991939Y-122790000D01*
X135788061Y-122790000D01*
X135588102Y-122829774D01*
X135399744Y-122907795D01*
X135230226Y-123021063D01*
X135086063Y-123165226D01*
X134972795Y-123334744D01*
X134894774Y-123523102D01*
X134855000Y-123723061D01*
X130937000Y-123723061D01*
X130937000Y-122453061D01*
X141205000Y-122453061D01*
X141205000Y-122656939D01*
X141244774Y-122856898D01*
X141322795Y-123045256D01*
X141436063Y-123214774D01*
X141580226Y-123358937D01*
X141749744Y-123472205D01*
X141938102Y-123550226D01*
X142138061Y-123590000D01*
X142341939Y-123590000D01*
X142541898Y-123550226D01*
X142730256Y-123472205D01*
X142899774Y-123358937D01*
X143043937Y-123214774D01*
X143157205Y-123045256D01*
X143235226Y-122856898D01*
X143275000Y-122656939D01*
X143275000Y-122453061D01*
X143235226Y-122253102D01*
X143157205Y-122064744D01*
X143043937Y-121895226D01*
X142899774Y-121751063D01*
X142730256Y-121637795D01*
X142541898Y-121559774D01*
X142341939Y-121520000D01*
X142138061Y-121520000D01*
X141938102Y-121559774D01*
X141749744Y-121637795D01*
X141580226Y-121751063D01*
X141436063Y-121895226D01*
X141322795Y-122064744D01*
X141244774Y-122253102D01*
X141205000Y-122453061D01*
X130937000Y-122453061D01*
X130937000Y-119913061D01*
X155175000Y-119913061D01*
X155175000Y-120116939D01*
X155214774Y-120316898D01*
X155292795Y-120505256D01*
X155406063Y-120674774D01*
X155550226Y-120818937D01*
X155719744Y-120932205D01*
X155908102Y-121010226D01*
X156108061Y-121050000D01*
X156311939Y-121050000D01*
X156511898Y-121010226D01*
X156700256Y-120932205D01*
X156869774Y-120818937D01*
X157013937Y-120674774D01*
X157127205Y-120505256D01*
X157205226Y-120316898D01*
X157239804Y-120143061D01*
X160025000Y-120143061D01*
X160025000Y-120346939D01*
X160064774Y-120546898D01*
X160142795Y-120735256D01*
X160256063Y-120904774D01*
X160400226Y-121048937D01*
X160569744Y-121162205D01*
X160758102Y-121240226D01*
X160958061Y-121280000D01*
X161161939Y-121280000D01*
X161361898Y-121240226D01*
X161550256Y-121162205D01*
X161719774Y-121048937D01*
X161863937Y-120904774D01*
X161977205Y-120735256D01*
X162055226Y-120546898D01*
X162095000Y-120346939D01*
X162095000Y-120143061D01*
X162055226Y-119943102D01*
X161977205Y-119754744D01*
X161863937Y-119585226D01*
X161719774Y-119441063D01*
X161550256Y-119327795D01*
X161361898Y-119249774D01*
X161161939Y-119210000D01*
X160958061Y-119210000D01*
X160758102Y-119249774D01*
X160569744Y-119327795D01*
X160400226Y-119441063D01*
X160256063Y-119585226D01*
X160142795Y-119754744D01*
X160064774Y-119943102D01*
X160025000Y-120143061D01*
X157239804Y-120143061D01*
X157245000Y-120116939D01*
X157245000Y-119913061D01*
X157205226Y-119713102D01*
X157127205Y-119524744D01*
X157013937Y-119355226D01*
X156869774Y-119211063D01*
X156700256Y-119097795D01*
X156511898Y-119019774D01*
X156311939Y-118980000D01*
X156108061Y-118980000D01*
X155908102Y-119019774D01*
X155719744Y-119097795D01*
X155550226Y-119211063D01*
X155406063Y-119355226D01*
X155292795Y-119524744D01*
X155214774Y-119713102D01*
X155175000Y-119913061D01*
X130937000Y-119913061D01*
X130937000Y-117373061D01*
X148825000Y-117373061D01*
X148825000Y-117576939D01*
X148864774Y-117776898D01*
X148942795Y-117965256D01*
X149056063Y-118134774D01*
X149200226Y-118278937D01*
X149369744Y-118392205D01*
X149558102Y-118470226D01*
X149758061Y-118510000D01*
X149961939Y-118510000D01*
X150161898Y-118470226D01*
X150350256Y-118392205D01*
X150519774Y-118278937D01*
X150663937Y-118134774D01*
X150777205Y-117965256D01*
X150855226Y-117776898D01*
X150895000Y-117576939D01*
X150895000Y-117373061D01*
X150855226Y-117173102D01*
X150777205Y-116984744D01*
X150663937Y-116815226D01*
X150519774Y-116671063D01*
X150350256Y-116557795D01*
X150161898Y-116479774D01*
X149961939Y-116440000D01*
X149758061Y-116440000D01*
X149558102Y-116479774D01*
X149369744Y-116557795D01*
X149200226Y-116671063D01*
X149056063Y-116815226D01*
X148942795Y-116984744D01*
X148864774Y-117173102D01*
X148825000Y-117373061D01*
X130937000Y-117373061D01*
X130937000Y-116103061D01*
X133585000Y-116103061D01*
X133585000Y-116306939D01*
X133624774Y-116506898D01*
X133702795Y-116695256D01*
X133816063Y-116864774D01*
X133960226Y-117008937D01*
X134129744Y-117122205D01*
X134318102Y-117200226D01*
X134518061Y-117240000D01*
X134721939Y-117240000D01*
X134921898Y-117200226D01*
X135110256Y-117122205D01*
X135279774Y-117008937D01*
X135423937Y-116864774D01*
X135537205Y-116695256D01*
X135615226Y-116506898D01*
X135655000Y-116306939D01*
X135655000Y-116103061D01*
X143745000Y-116103061D01*
X143745000Y-116306939D01*
X143784774Y-116506898D01*
X143862795Y-116695256D01*
X143976063Y-116864774D01*
X144120226Y-117008937D01*
X144289744Y-117122205D01*
X144478102Y-117200226D01*
X144678061Y-117240000D01*
X144881939Y-117240000D01*
X145081898Y-117200226D01*
X145270256Y-117122205D01*
X145439774Y-117008937D01*
X145583937Y-116864774D01*
X145697205Y-116695256D01*
X145775226Y-116506898D01*
X145815000Y-116306939D01*
X145815000Y-116103061D01*
X151365000Y-116103061D01*
X151365000Y-116306939D01*
X151404774Y-116506898D01*
X151482795Y-116695256D01*
X151596063Y-116864774D01*
X151740226Y-117008937D01*
X151909744Y-117122205D01*
X152098102Y-117200226D01*
X152298061Y-117240000D01*
X152501939Y-117240000D01*
X152701898Y-117200226D01*
X152890256Y-117122205D01*
X153059774Y-117008937D01*
X153203937Y-116864774D01*
X153288603Y-116738061D01*
X166605000Y-116738061D01*
X166605000Y-116941939D01*
X166644774Y-117141898D01*
X166722795Y-117330256D01*
X166836063Y-117499774D01*
X166980226Y-117643937D01*
X167149744Y-117757205D01*
X167338102Y-117835226D01*
X167538061Y-117875000D01*
X167741939Y-117875000D01*
X167941898Y-117835226D01*
X168130256Y-117757205D01*
X168299774Y-117643937D01*
X168443937Y-117499774D01*
X168557205Y-117330256D01*
X168635226Y-117141898D01*
X168675000Y-116941939D01*
X168675000Y-116738061D01*
X168635226Y-116538102D01*
X168557205Y-116349744D01*
X168443937Y-116180226D01*
X168299774Y-116036063D01*
X168130256Y-115922795D01*
X167941898Y-115844774D01*
X167741939Y-115805000D01*
X167538061Y-115805000D01*
X167338102Y-115844774D01*
X167149744Y-115922795D01*
X166980226Y-116036063D01*
X166836063Y-116180226D01*
X166722795Y-116349744D01*
X166644774Y-116538102D01*
X166605000Y-116738061D01*
X153288603Y-116738061D01*
X153317205Y-116695256D01*
X153395226Y-116506898D01*
X153435000Y-116306939D01*
X153435000Y-116103061D01*
X153395226Y-115903102D01*
X153317205Y-115714744D01*
X153203937Y-115545226D01*
X153059774Y-115401063D01*
X152890256Y-115287795D01*
X152701898Y-115209774D01*
X152501939Y-115170000D01*
X152298061Y-115170000D01*
X152098102Y-115209774D01*
X151909744Y-115287795D01*
X151740226Y-115401063D01*
X151596063Y-115545226D01*
X151482795Y-115714744D01*
X151404774Y-115903102D01*
X151365000Y-116103061D01*
X145815000Y-116103061D01*
X145775226Y-115903102D01*
X145697205Y-115714744D01*
X145583937Y-115545226D01*
X145439774Y-115401063D01*
X145270256Y-115287795D01*
X145081898Y-115209774D01*
X144881939Y-115170000D01*
X144678061Y-115170000D01*
X144478102Y-115209774D01*
X144289744Y-115287795D01*
X144120226Y-115401063D01*
X143976063Y-115545226D01*
X143862795Y-115714744D01*
X143784774Y-115903102D01*
X143745000Y-116103061D01*
X135655000Y-116103061D01*
X135615226Y-115903102D01*
X135537205Y-115714744D01*
X135423937Y-115545226D01*
X135279774Y-115401063D01*
X135110256Y-115287795D01*
X134921898Y-115209774D01*
X134721939Y-115170000D01*
X134518061Y-115170000D01*
X134318102Y-115209774D01*
X134129744Y-115287795D01*
X133960226Y-115401063D01*
X133816063Y-115545226D01*
X133702795Y-115714744D01*
X133624774Y-115903102D01*
X133585000Y-116103061D01*
X130937000Y-116103061D01*
X130937000Y-114833061D01*
X156445000Y-114833061D01*
X156445000Y-115036939D01*
X156484774Y-115236898D01*
X156562795Y-115425256D01*
X156676063Y-115594774D01*
X156820226Y-115738937D01*
X156989744Y-115852205D01*
X157178102Y-115930226D01*
X157378061Y-115970000D01*
X157581939Y-115970000D01*
X157781898Y-115930226D01*
X157970256Y-115852205D01*
X158115000Y-115755490D01*
X158259744Y-115852205D01*
X158448102Y-115930226D01*
X158648061Y-115970000D01*
X158851939Y-115970000D01*
X159051898Y-115930226D01*
X159240256Y-115852205D01*
X159409774Y-115738937D01*
X159553937Y-115594774D01*
X159667205Y-115425256D01*
X159745226Y-115236898D01*
X159785000Y-115036939D01*
X159785000Y-114833061D01*
X159745226Y-114633102D01*
X159667205Y-114444744D01*
X159553937Y-114275226D01*
X159409774Y-114131063D01*
X159240256Y-114017795D01*
X159051898Y-113939774D01*
X158851939Y-113900000D01*
X158648061Y-113900000D01*
X158448102Y-113939774D01*
X158259744Y-114017795D01*
X158115000Y-114114510D01*
X157970256Y-114017795D01*
X157781898Y-113939774D01*
X157581939Y-113900000D01*
X157378061Y-113900000D01*
X157178102Y-113939774D01*
X156989744Y-114017795D01*
X156820226Y-114131063D01*
X156676063Y-114275226D01*
X156562795Y-114444744D01*
X156484774Y-114633102D01*
X156445000Y-114833061D01*
X130937000Y-114833061D01*
X130937000Y-113563061D01*
X164065000Y-113563061D01*
X164065000Y-113766939D01*
X164104774Y-113966898D01*
X164182795Y-114155256D01*
X164296063Y-114324774D01*
X164440226Y-114468937D01*
X164609744Y-114582205D01*
X164798102Y-114660226D01*
X164998061Y-114700000D01*
X165201939Y-114700000D01*
X165401898Y-114660226D01*
X165590256Y-114582205D01*
X165759774Y-114468937D01*
X165903937Y-114324774D01*
X166017205Y-114155256D01*
X166052500Y-114070047D01*
X166087795Y-114155256D01*
X166201063Y-114324774D01*
X166345226Y-114468937D01*
X166514744Y-114582205D01*
X166703102Y-114660226D01*
X166903061Y-114700000D01*
X167106939Y-114700000D01*
X167306898Y-114660226D01*
X167495256Y-114582205D01*
X167664774Y-114468937D01*
X167808937Y-114324774D01*
X167922205Y-114155256D01*
X168000226Y-113966898D01*
X168040000Y-113766939D01*
X168040000Y-113563061D01*
X168000226Y-113363102D01*
X167922205Y-113174744D01*
X167808937Y-113005226D01*
X167664774Y-112861063D01*
X167495256Y-112747795D01*
X167306898Y-112669774D01*
X167106939Y-112630000D01*
X166903061Y-112630000D01*
X166703102Y-112669774D01*
X166514744Y-112747795D01*
X166345226Y-112861063D01*
X166201063Y-113005226D01*
X166087795Y-113174744D01*
X166052500Y-113259953D01*
X166017205Y-113174744D01*
X165903937Y-113005226D01*
X165759774Y-112861063D01*
X165590256Y-112747795D01*
X165401898Y-112669774D01*
X165201939Y-112630000D01*
X164998061Y-112630000D01*
X164798102Y-112669774D01*
X164609744Y-112747795D01*
X164440226Y-112861063D01*
X164296063Y-113005226D01*
X164182795Y-113174744D01*
X164104774Y-113363102D01*
X164065000Y-113563061D01*
X130937000Y-113563061D01*
X130937000Y-112293061D01*
X138665000Y-112293061D01*
X138665000Y-112496939D01*
X138704774Y-112696898D01*
X138782795Y-112885256D01*
X138896063Y-113054774D01*
X139040226Y-113198937D01*
X139209744Y-113312205D01*
X139398102Y-113390226D01*
X139598061Y-113430000D01*
X139801939Y-113430000D01*
X140001898Y-113390226D01*
X140190256Y-113312205D01*
X140359774Y-113198937D01*
X140503937Y-113054774D01*
X140617205Y-112885256D01*
X140695226Y-112696898D01*
X140735000Y-112496939D01*
X140735000Y-112293061D01*
X167875000Y-112293061D01*
X167875000Y-112496939D01*
X167914774Y-112696898D01*
X167992795Y-112885256D01*
X168106063Y-113054774D01*
X168250226Y-113198937D01*
X168419744Y-113312205D01*
X168608102Y-113390226D01*
X168808061Y-113430000D01*
X169011939Y-113430000D01*
X169211898Y-113390226D01*
X169400256Y-113312205D01*
X169569774Y-113198937D01*
X169713937Y-113054774D01*
X169827205Y-112885256D01*
X169905226Y-112696898D01*
X169945000Y-112496939D01*
X169945000Y-112293061D01*
X169905226Y-112093102D01*
X169827205Y-111904744D01*
X169713937Y-111735226D01*
X169569774Y-111591063D01*
X169400256Y-111477795D01*
X169211898Y-111399774D01*
X169011939Y-111360000D01*
X168808061Y-111360000D01*
X168608102Y-111399774D01*
X168419744Y-111477795D01*
X168250226Y-111591063D01*
X168106063Y-111735226D01*
X167992795Y-111904744D01*
X167914774Y-112093102D01*
X167875000Y-112293061D01*
X140735000Y-112293061D01*
X140695226Y-112093102D01*
X140617205Y-111904744D01*
X140503937Y-111735226D01*
X140359774Y-111591063D01*
X140190256Y-111477795D01*
X140001898Y-111399774D01*
X139801939Y-111360000D01*
X139598061Y-111360000D01*
X139398102Y-111399774D01*
X139209744Y-111477795D01*
X139040226Y-111591063D01*
X138896063Y-111735226D01*
X138782795Y-111904744D01*
X138704774Y-112093102D01*
X138665000Y-112293061D01*
X130937000Y-112293061D01*
X130937000Y-110613061D01*
X141205000Y-110613061D01*
X141205000Y-110816939D01*
X141244774Y-111016898D01*
X141322795Y-111205256D01*
X141436063Y-111374774D01*
X141580226Y-111518937D01*
X141749744Y-111632205D01*
X141938102Y-111710226D01*
X142138061Y-111750000D01*
X142341939Y-111750000D01*
X142541898Y-111710226D01*
X142730256Y-111632205D01*
X142899774Y-111518937D01*
X143043937Y-111374774D01*
X143157205Y-111205256D01*
X143232673Y-111023061D01*
X153905000Y-111023061D01*
X153905000Y-111226939D01*
X153944774Y-111426898D01*
X154022795Y-111615256D01*
X154136063Y-111784774D01*
X154280226Y-111928937D01*
X154449744Y-112042205D01*
X154638102Y-112120226D01*
X154838061Y-112160000D01*
X155041939Y-112160000D01*
X155241898Y-112120226D01*
X155430256Y-112042205D01*
X155599774Y-111928937D01*
X155743937Y-111784774D01*
X155857205Y-111615256D01*
X155935226Y-111426898D01*
X155975000Y-111226939D01*
X155975000Y-111023061D01*
X161525000Y-111023061D01*
X161525000Y-111226939D01*
X161564774Y-111426898D01*
X161642795Y-111615256D01*
X161756063Y-111784774D01*
X161900226Y-111928937D01*
X162069744Y-112042205D01*
X162258102Y-112120226D01*
X162458061Y-112160000D01*
X162661939Y-112160000D01*
X162861898Y-112120226D01*
X163050256Y-112042205D01*
X163219774Y-111928937D01*
X163363937Y-111784774D01*
X163477205Y-111615256D01*
X163555226Y-111426898D01*
X163595000Y-111226939D01*
X163595000Y-111023061D01*
X163561961Y-110856961D01*
X163728061Y-110890000D01*
X163931939Y-110890000D01*
X164131898Y-110850226D01*
X164320256Y-110772205D01*
X164489774Y-110658937D01*
X164633937Y-110514774D01*
X164747205Y-110345256D01*
X164825226Y-110156898D01*
X164865000Y-109956939D01*
X164865000Y-109753061D01*
X164825226Y-109553102D01*
X164747205Y-109364744D01*
X164633937Y-109195226D01*
X164489774Y-109051063D01*
X164320256Y-108937795D01*
X164131898Y-108859774D01*
X163931939Y-108820000D01*
X163728061Y-108820000D01*
X163528102Y-108859774D01*
X163339744Y-108937795D01*
X163170226Y-109051063D01*
X163026063Y-109195226D01*
X162912795Y-109364744D01*
X162834774Y-109553102D01*
X162795000Y-109753061D01*
X162795000Y-109956939D01*
X162828039Y-110123039D01*
X162661939Y-110090000D01*
X162458061Y-110090000D01*
X162258102Y-110129774D01*
X162069744Y-110207795D01*
X161900226Y-110321063D01*
X161756063Y-110465226D01*
X161642795Y-110634744D01*
X161564774Y-110823102D01*
X161525000Y-111023061D01*
X155975000Y-111023061D01*
X155935226Y-110823102D01*
X155857205Y-110634744D01*
X155743937Y-110465226D01*
X155599774Y-110321063D01*
X155430256Y-110207795D01*
X155241898Y-110129774D01*
X155041939Y-110090000D01*
X154838061Y-110090000D01*
X154638102Y-110129774D01*
X154449744Y-110207795D01*
X154280226Y-110321063D01*
X154136063Y-110465226D01*
X154022795Y-110634744D01*
X153944774Y-110823102D01*
X153905000Y-111023061D01*
X143232673Y-111023061D01*
X143235226Y-111016898D01*
X143275000Y-110816939D01*
X143275000Y-110613061D01*
X143235226Y-110413102D01*
X143157205Y-110224744D01*
X143043937Y-110055226D01*
X142899774Y-109911063D01*
X142730256Y-109797795D01*
X142622260Y-109753061D01*
X156445000Y-109753061D01*
X156445000Y-109956939D01*
X156484774Y-110156898D01*
X156562795Y-110345256D01*
X156676063Y-110514774D01*
X156820226Y-110658937D01*
X156989744Y-110772205D01*
X157178102Y-110850226D01*
X157378061Y-110890000D01*
X157581939Y-110890000D01*
X157781898Y-110850226D01*
X157970256Y-110772205D01*
X158139774Y-110658937D01*
X158283937Y-110514774D01*
X158397205Y-110345256D01*
X158475226Y-110156898D01*
X158515000Y-109956939D01*
X158515000Y-109753061D01*
X158475226Y-109553102D01*
X158397205Y-109364744D01*
X158283937Y-109195226D01*
X158139774Y-109051063D01*
X157970256Y-108937795D01*
X157781898Y-108859774D01*
X157581939Y-108820000D01*
X157378061Y-108820000D01*
X157178102Y-108859774D01*
X156989744Y-108937795D01*
X156820226Y-109051063D01*
X156676063Y-109195226D01*
X156562795Y-109364744D01*
X156484774Y-109553102D01*
X156445000Y-109753061D01*
X142622260Y-109753061D01*
X142541898Y-109719774D01*
X142341939Y-109680000D01*
X142138061Y-109680000D01*
X141938102Y-109719774D01*
X141749744Y-109797795D01*
X141580226Y-109911063D01*
X141436063Y-110055226D01*
X141322795Y-110224744D01*
X141244774Y-110413102D01*
X141205000Y-110613061D01*
X130937000Y-110613061D01*
X130937000Y-108483061D01*
X152854900Y-108483061D01*
X152854900Y-108686939D01*
X152894674Y-108886898D01*
X152972695Y-109075256D01*
X153085963Y-109244774D01*
X153230126Y-109388937D01*
X153399644Y-109502205D01*
X153588002Y-109580226D01*
X153787961Y-109620000D01*
X153991839Y-109620000D01*
X154191798Y-109580226D01*
X154380156Y-109502205D01*
X154549674Y-109388937D01*
X154693837Y-109244774D01*
X154807105Y-109075256D01*
X154885126Y-108886898D01*
X154924900Y-108686939D01*
X154924900Y-108483061D01*
X154885126Y-108283102D01*
X154807105Y-108094744D01*
X154693837Y-107925226D01*
X154549674Y-107781063D01*
X154380156Y-107667795D01*
X154191798Y-107589774D01*
X153991839Y-107550000D01*
X153787961Y-107550000D01*
X153588002Y-107589774D01*
X153399644Y-107667795D01*
X153230126Y-107781063D01*
X153085963Y-107925226D01*
X152972695Y-108094744D01*
X152894674Y-108283102D01*
X152854900Y-108483061D01*
X130937000Y-108483061D01*
X130937000Y-107213061D01*
X142475000Y-107213061D01*
X142475000Y-107416939D01*
X142514774Y-107616898D01*
X142592795Y-107805256D01*
X142706063Y-107974774D01*
X142850226Y-108118937D01*
X143019744Y-108232205D01*
X143208102Y-108310226D01*
X143408061Y-108350000D01*
X143611939Y-108350000D01*
X143811898Y-108310226D01*
X144000256Y-108232205D01*
X144169774Y-108118937D01*
X144313937Y-107974774D01*
X144427205Y-107805256D01*
X144505226Y-107616898D01*
X144545000Y-107416939D01*
X144545000Y-107213061D01*
X145015000Y-107213061D01*
X145015000Y-107416939D01*
X145054774Y-107616898D01*
X145132795Y-107805256D01*
X145246063Y-107974774D01*
X145390226Y-108118937D01*
X145559744Y-108232205D01*
X145748102Y-108310226D01*
X145948061Y-108350000D01*
X146151939Y-108350000D01*
X146351898Y-108310226D01*
X146540256Y-108232205D01*
X146709774Y-108118937D01*
X146853937Y-107974774D01*
X146967205Y-107805256D01*
X147045226Y-107616898D01*
X147085000Y-107416939D01*
X147085000Y-107213061D01*
X147045226Y-107013102D01*
X146967205Y-106824744D01*
X146853937Y-106655226D01*
X146709774Y-106511063D01*
X146540256Y-106397795D01*
X146351898Y-106319774D01*
X146151939Y-106280000D01*
X145948061Y-106280000D01*
X145748102Y-106319774D01*
X145559744Y-106397795D01*
X145390226Y-106511063D01*
X145246063Y-106655226D01*
X145132795Y-106824744D01*
X145054774Y-107013102D01*
X145015000Y-107213061D01*
X144545000Y-107213061D01*
X144505226Y-107013102D01*
X144427205Y-106824744D01*
X144313937Y-106655226D01*
X144169774Y-106511063D01*
X144000256Y-106397795D01*
X143811898Y-106319774D01*
X143611939Y-106280000D01*
X143408061Y-106280000D01*
X143208102Y-106319774D01*
X143019744Y-106397795D01*
X142850226Y-106511063D01*
X142706063Y-106655226D01*
X142592795Y-106824744D01*
X142514774Y-107013102D01*
X142475000Y-107213061D01*
X130937000Y-107213061D01*
X130937000Y-103643061D01*
X166365000Y-103643061D01*
X166365000Y-103846939D01*
X166404774Y-104046898D01*
X166482795Y-104235256D01*
X166596063Y-104404774D01*
X166740226Y-104548937D01*
X166909744Y-104662205D01*
X167098102Y-104740226D01*
X167298061Y-104780000D01*
X167501939Y-104780000D01*
X167701898Y-104740226D01*
X167890256Y-104662205D01*
X168059774Y-104548937D01*
X168203937Y-104404774D01*
X168317205Y-104235256D01*
X168395226Y-104046898D01*
X168435000Y-103846939D01*
X168435000Y-103643061D01*
X168395226Y-103443102D01*
X168317205Y-103254744D01*
X168203937Y-103085226D01*
X168059774Y-102941063D01*
X167890256Y-102827795D01*
X167701898Y-102749774D01*
X167501939Y-102710000D01*
X167298061Y-102710000D01*
X167098102Y-102749774D01*
X166909744Y-102827795D01*
X166740226Y-102941063D01*
X166596063Y-103085226D01*
X166482795Y-103254744D01*
X166404774Y-103443102D01*
X166365000Y-103643061D01*
X130937000Y-103643061D01*
X130937000Y-102133061D01*
X155175000Y-102133061D01*
X155175000Y-102336939D01*
X155214774Y-102536898D01*
X155292795Y-102725256D01*
X155406063Y-102894774D01*
X155550226Y-103038937D01*
X155719744Y-103152205D01*
X155908102Y-103230226D01*
X156108061Y-103270000D01*
X156311939Y-103270000D01*
X156511898Y-103230226D01*
X156700256Y-103152205D01*
X156869774Y-103038937D01*
X157013937Y-102894774D01*
X157127205Y-102725256D01*
X157205226Y-102536898D01*
X157245000Y-102336939D01*
X157245000Y-102133061D01*
X157205226Y-101933102D01*
X157127205Y-101744744D01*
X157013937Y-101575226D01*
X156936772Y-101498061D01*
X160890000Y-101498061D01*
X160890000Y-101701939D01*
X160929774Y-101901898D01*
X161007795Y-102090256D01*
X161121063Y-102259774D01*
X161265226Y-102403937D01*
X161434744Y-102517205D01*
X161623102Y-102595226D01*
X161823061Y-102635000D01*
X162026939Y-102635000D01*
X162226898Y-102595226D01*
X162415256Y-102517205D01*
X162584774Y-102403937D01*
X162728937Y-102259774D01*
X162842205Y-102090256D01*
X162920226Y-101901898D01*
X162960000Y-101701939D01*
X162960000Y-101498061D01*
X162920226Y-101298102D01*
X162842205Y-101109744D01*
X162728937Y-100940226D01*
X162584774Y-100796063D01*
X162415256Y-100682795D01*
X162226898Y-100604774D01*
X162026939Y-100565000D01*
X161823061Y-100565000D01*
X161623102Y-100604774D01*
X161434744Y-100682795D01*
X161265226Y-100796063D01*
X161121063Y-100940226D01*
X161007795Y-101109744D01*
X160929774Y-101298102D01*
X160890000Y-101498061D01*
X156936772Y-101498061D01*
X156869774Y-101431063D01*
X156700256Y-101317795D01*
X156511898Y-101239774D01*
X156311939Y-101200000D01*
X156108061Y-101200000D01*
X155908102Y-101239774D01*
X155719744Y-101317795D01*
X155550226Y-101431063D01*
X155406063Y-101575226D01*
X155292795Y-101744744D01*
X155214774Y-101933102D01*
X155175000Y-102133061D01*
X130937000Y-102133061D01*
X130937000Y-99593061D01*
X139935000Y-99593061D01*
X139935000Y-99796939D01*
X139974774Y-99996898D01*
X140052795Y-100185256D01*
X140166063Y-100354774D01*
X140310226Y-100498937D01*
X140479744Y-100612205D01*
X140668102Y-100690226D01*
X140868061Y-100730000D01*
X141071939Y-100730000D01*
X141271898Y-100690226D01*
X141460256Y-100612205D01*
X141629774Y-100498937D01*
X141773937Y-100354774D01*
X141887205Y-100185256D01*
X141965226Y-99996898D01*
X142005000Y-99796939D01*
X142005000Y-99593061D01*
X141965226Y-99393102D01*
X141887205Y-99204744D01*
X141773937Y-99035226D01*
X141629774Y-98891063D01*
X141460256Y-98777795D01*
X141271898Y-98699774D01*
X141071939Y-98660000D01*
X140868061Y-98660000D01*
X140668102Y-98699774D01*
X140479744Y-98777795D01*
X140310226Y-98891063D01*
X140166063Y-99035226D01*
X140052795Y-99204744D01*
X139974774Y-99393102D01*
X139935000Y-99593061D01*
X130937000Y-99593061D01*
X130937000Y-98323061D01*
X151365000Y-98323061D01*
X151365000Y-98526939D01*
X151404774Y-98726898D01*
X151482795Y-98915256D01*
X151596063Y-99084774D01*
X151740226Y-99228937D01*
X151909744Y-99342205D01*
X152098102Y-99420226D01*
X152298061Y-99460000D01*
X152501939Y-99460000D01*
X152701898Y-99420226D01*
X152890256Y-99342205D01*
X153059774Y-99228937D01*
X153203937Y-99084774D01*
X153317205Y-98915256D01*
X153395226Y-98726898D01*
X153435000Y-98526939D01*
X153435000Y-98323061D01*
X156445000Y-98323061D01*
X156445000Y-98526939D01*
X156484774Y-98726898D01*
X156562795Y-98915256D01*
X156676063Y-99084774D01*
X156820226Y-99228937D01*
X156989744Y-99342205D01*
X157178102Y-99420226D01*
X157378061Y-99460000D01*
X157581939Y-99460000D01*
X157781898Y-99420226D01*
X157970256Y-99342205D01*
X158139774Y-99228937D01*
X158283937Y-99084774D01*
X158368603Y-98958061D01*
X165970000Y-98958061D01*
X165970000Y-99161939D01*
X166009774Y-99361898D01*
X166087795Y-99550256D01*
X166201063Y-99719774D01*
X166345226Y-99863937D01*
X166514744Y-99977205D01*
X166703102Y-100055226D01*
X166903061Y-100095000D01*
X167106939Y-100095000D01*
X167306898Y-100055226D01*
X167495256Y-99977205D01*
X167664774Y-99863937D01*
X167808937Y-99719774D01*
X167875000Y-99620903D01*
X167875000Y-99796939D01*
X167914774Y-99996898D01*
X167992795Y-100185256D01*
X168106063Y-100354774D01*
X168250226Y-100498937D01*
X168419744Y-100612205D01*
X168608102Y-100690226D01*
X168808061Y-100730000D01*
X169011939Y-100730000D01*
X169211898Y-100690226D01*
X169400256Y-100612205D01*
X169569774Y-100498937D01*
X169713937Y-100354774D01*
X169827205Y-100185256D01*
X169905226Y-99996898D01*
X169945000Y-99796939D01*
X169945000Y-99593061D01*
X169905226Y-99393102D01*
X169827205Y-99204744D01*
X169713937Y-99035226D01*
X169569774Y-98891063D01*
X169400256Y-98777795D01*
X169211898Y-98699774D01*
X169011939Y-98660000D01*
X168808061Y-98660000D01*
X168608102Y-98699774D01*
X168419744Y-98777795D01*
X168250226Y-98891063D01*
X168106063Y-99035226D01*
X168040000Y-99134097D01*
X168040000Y-98958061D01*
X168000226Y-98758102D01*
X167922205Y-98569744D01*
X167808937Y-98400226D01*
X167664774Y-98256063D01*
X167495256Y-98142795D01*
X167306898Y-98064774D01*
X167106939Y-98025000D01*
X166903061Y-98025000D01*
X166703102Y-98064774D01*
X166514744Y-98142795D01*
X166345226Y-98256063D01*
X166201063Y-98400226D01*
X166087795Y-98569744D01*
X166009774Y-98758102D01*
X165970000Y-98958061D01*
X158368603Y-98958061D01*
X158397205Y-98915256D01*
X158475226Y-98726898D01*
X158515000Y-98526939D01*
X158515000Y-98323061D01*
X158475226Y-98123102D01*
X158397205Y-97934744D01*
X158283937Y-97765226D01*
X158139774Y-97621063D01*
X157970256Y-97507795D01*
X157781898Y-97429774D01*
X157581939Y-97390000D01*
X157378061Y-97390000D01*
X157178102Y-97429774D01*
X156989744Y-97507795D01*
X156820226Y-97621063D01*
X156676063Y-97765226D01*
X156562795Y-97934744D01*
X156484774Y-98123102D01*
X156445000Y-98323061D01*
X153435000Y-98323061D01*
X153395226Y-98123102D01*
X153317205Y-97934744D01*
X153203937Y-97765226D01*
X153059774Y-97621063D01*
X152890256Y-97507795D01*
X152701898Y-97429774D01*
X152501939Y-97390000D01*
X152298061Y-97390000D01*
X152098102Y-97429774D01*
X151909744Y-97507795D01*
X151740226Y-97621063D01*
X151596063Y-97765226D01*
X151482795Y-97934744D01*
X151404774Y-98123102D01*
X151365000Y-98323061D01*
X130937000Y-98323061D01*
X130937000Y-95597071D01*
X131865990Y-95597071D01*
X131865990Y-95800949D01*
X131905764Y-96000908D01*
X131983785Y-96189266D01*
X132097053Y-96358784D01*
X132241216Y-96502947D01*
X132410734Y-96616215D01*
X132599092Y-96694236D01*
X132799051Y-96734010D01*
X133002929Y-96734010D01*
X133202888Y-96694236D01*
X133391246Y-96616215D01*
X133560764Y-96502947D01*
X133704927Y-96358784D01*
X133818195Y-96189266D01*
X133896216Y-96000908D01*
X133935990Y-95800949D01*
X133935990Y-95597071D01*
X133896216Y-95397112D01*
X133861401Y-95313061D01*
X142475000Y-95313061D01*
X142475000Y-95516939D01*
X142514774Y-95716898D01*
X142592795Y-95905256D01*
X142706063Y-96074774D01*
X142850226Y-96218937D01*
X143019744Y-96332205D01*
X143208102Y-96410226D01*
X143408061Y-96450000D01*
X143611939Y-96450000D01*
X143811898Y-96410226D01*
X144000256Y-96332205D01*
X144169774Y-96218937D01*
X144313937Y-96074774D01*
X144427205Y-95905256D01*
X144477820Y-95783061D01*
X161525000Y-95783061D01*
X161525000Y-95986939D01*
X161564774Y-96186898D01*
X161642795Y-96375256D01*
X161756063Y-96544774D01*
X161900226Y-96688937D01*
X162069744Y-96802205D01*
X162258102Y-96880226D01*
X162458061Y-96920000D01*
X162661939Y-96920000D01*
X162861898Y-96880226D01*
X163050256Y-96802205D01*
X163219774Y-96688937D01*
X163363937Y-96544774D01*
X163477205Y-96375256D01*
X163555226Y-96186898D01*
X163595000Y-95986939D01*
X163595000Y-95783061D01*
X163555226Y-95583102D01*
X163477205Y-95394744D01*
X163363937Y-95225226D01*
X163219774Y-95081063D01*
X163050256Y-94967795D01*
X162861898Y-94889774D01*
X162661939Y-94850000D01*
X162458061Y-94850000D01*
X162258102Y-94889774D01*
X162069744Y-94967795D01*
X161900226Y-95081063D01*
X161756063Y-95225226D01*
X161642795Y-95394744D01*
X161564774Y-95583102D01*
X161525000Y-95783061D01*
X144477820Y-95783061D01*
X144505226Y-95716898D01*
X144545000Y-95516939D01*
X144545000Y-95313061D01*
X144505226Y-95113102D01*
X144427205Y-94924744D01*
X144313937Y-94755226D01*
X144169774Y-94611063D01*
X144023104Y-94513061D01*
X152635000Y-94513061D01*
X152635000Y-94716939D01*
X152674774Y-94916898D01*
X152752795Y-95105256D01*
X152866063Y-95274774D01*
X153010226Y-95418937D01*
X153179744Y-95532205D01*
X153368102Y-95610226D01*
X153568061Y-95650000D01*
X153771939Y-95650000D01*
X153971898Y-95610226D01*
X154160256Y-95532205D01*
X154329774Y-95418937D01*
X154473937Y-95274774D01*
X154587205Y-95105256D01*
X154665226Y-94916898D01*
X154705000Y-94716939D01*
X154705000Y-94513061D01*
X154665226Y-94313102D01*
X154587205Y-94124744D01*
X154473937Y-93955226D01*
X154329774Y-93811063D01*
X154160256Y-93697795D01*
X153971898Y-93619774D01*
X153771939Y-93580000D01*
X153568061Y-93580000D01*
X153368102Y-93619774D01*
X153179744Y-93697795D01*
X153010226Y-93811063D01*
X152866063Y-93955226D01*
X152752795Y-94124744D01*
X152674774Y-94313102D01*
X152635000Y-94513061D01*
X144023104Y-94513061D01*
X144000256Y-94497795D01*
X143811898Y-94419774D01*
X143611939Y-94380000D01*
X143408061Y-94380000D01*
X143208102Y-94419774D01*
X143019744Y-94497795D01*
X142850226Y-94611063D01*
X142706063Y-94755226D01*
X142592795Y-94924744D01*
X142514774Y-95113102D01*
X142475000Y-95313061D01*
X133861401Y-95313061D01*
X133818195Y-95208754D01*
X133704927Y-95039236D01*
X133560764Y-94895073D01*
X133391246Y-94781805D01*
X133202888Y-94703784D01*
X133002929Y-94664010D01*
X132799051Y-94664010D01*
X132599092Y-94703784D01*
X132410734Y-94781805D01*
X132241216Y-94895073D01*
X132097053Y-95039236D01*
X131983785Y-95208754D01*
X131905764Y-95397112D01*
X131865990Y-95597071D01*
X130937000Y-95597071D01*
X130937000Y-93243061D01*
X136125000Y-93243061D01*
X136125000Y-93446939D01*
X136164774Y-93646898D01*
X136242795Y-93835256D01*
X136356063Y-94004774D01*
X136500226Y-94148937D01*
X136669744Y-94262205D01*
X136858102Y-94340226D01*
X137058061Y-94380000D01*
X137261939Y-94380000D01*
X137461898Y-94340226D01*
X137650256Y-94262205D01*
X137819774Y-94148937D01*
X137963937Y-94004774D01*
X138077205Y-93835256D01*
X138155226Y-93646898D01*
X138195000Y-93446939D01*
X138195000Y-93243061D01*
X145015000Y-93243061D01*
X145015000Y-93446939D01*
X145054774Y-93646898D01*
X145132795Y-93835256D01*
X145246063Y-94004774D01*
X145390226Y-94148937D01*
X145559744Y-94262205D01*
X145748102Y-94340226D01*
X145948061Y-94380000D01*
X146151939Y-94380000D01*
X146351898Y-94340226D01*
X146540256Y-94262205D01*
X146709774Y-94148937D01*
X146853937Y-94004774D01*
X146967205Y-93835256D01*
X147045226Y-93646898D01*
X147085000Y-93446939D01*
X147085000Y-93243061D01*
X160255000Y-93243061D01*
X160255000Y-93446939D01*
X160294774Y-93646898D01*
X160372795Y-93835256D01*
X160486063Y-94004774D01*
X160630226Y-94148937D01*
X160799744Y-94262205D01*
X160988102Y-94340226D01*
X161188061Y-94380000D01*
X161391939Y-94380000D01*
X161591898Y-94340226D01*
X161780256Y-94262205D01*
X161949774Y-94148937D01*
X162093937Y-94004774D01*
X162207205Y-93835256D01*
X162285226Y-93646898D01*
X162325000Y-93446939D01*
X162325000Y-93243061D01*
X162285226Y-93043102D01*
X162207205Y-92854744D01*
X162093937Y-92685226D01*
X161949774Y-92541063D01*
X161780256Y-92427795D01*
X161591898Y-92349774D01*
X161391939Y-92310000D01*
X161188061Y-92310000D01*
X160988102Y-92349774D01*
X160799744Y-92427795D01*
X160630226Y-92541063D01*
X160486063Y-92685226D01*
X160372795Y-92854744D01*
X160294774Y-93043102D01*
X160255000Y-93243061D01*
X147085000Y-93243061D01*
X147045226Y-93043102D01*
X146967205Y-92854744D01*
X146853937Y-92685226D01*
X146709774Y-92541063D01*
X146540256Y-92427795D01*
X146351898Y-92349774D01*
X146151939Y-92310000D01*
X145948061Y-92310000D01*
X145748102Y-92349774D01*
X145559744Y-92427795D01*
X145390226Y-92541063D01*
X145246063Y-92685226D01*
X145132795Y-92854744D01*
X145054774Y-93043102D01*
X145015000Y-93243061D01*
X138195000Y-93243061D01*
X138155226Y-93043102D01*
X138077205Y-92854744D01*
X137963937Y-92685226D01*
X137819774Y-92541063D01*
X137650256Y-92427795D01*
X137461898Y-92349774D01*
X137261939Y-92310000D01*
X137058061Y-92310000D01*
X136858102Y-92349774D01*
X136669744Y-92427795D01*
X136500226Y-92541063D01*
X136356063Y-92685226D01*
X136242795Y-92854744D01*
X136164774Y-93043102D01*
X136125000Y-93243061D01*
X130937000Y-93243061D01*
X130937000Y-90703061D01*
X141205000Y-90703061D01*
X141205000Y-90906939D01*
X141244774Y-91106898D01*
X141322795Y-91295256D01*
X141436063Y-91464774D01*
X141580226Y-91608937D01*
X141749744Y-91722205D01*
X141938102Y-91800226D01*
X142138061Y-91840000D01*
X142341939Y-91840000D01*
X142541898Y-91800226D01*
X142730256Y-91722205D01*
X142899774Y-91608937D01*
X143043937Y-91464774D01*
X143157205Y-91295256D01*
X143235226Y-91106898D01*
X143275000Y-90906939D01*
X143275000Y-90703061D01*
X157715000Y-90703061D01*
X157715000Y-90906939D01*
X157754774Y-91106898D01*
X157832795Y-91295256D01*
X157946063Y-91464774D01*
X158090226Y-91608937D01*
X158259744Y-91722205D01*
X158448102Y-91800226D01*
X158648061Y-91840000D01*
X158851939Y-91840000D01*
X159051898Y-91800226D01*
X159240256Y-91722205D01*
X159409774Y-91608937D01*
X159553937Y-91464774D01*
X159667205Y-91295256D01*
X159745226Y-91106898D01*
X159785000Y-90906939D01*
X159785000Y-90703061D01*
X159745226Y-90503102D01*
X159667205Y-90314744D01*
X159553937Y-90145226D01*
X159409774Y-90001063D01*
X159240256Y-89887795D01*
X159051898Y-89809774D01*
X158851939Y-89770000D01*
X158648061Y-89770000D01*
X158448102Y-89809774D01*
X158259744Y-89887795D01*
X158090226Y-90001063D01*
X157946063Y-90145226D01*
X157832795Y-90314744D01*
X157754774Y-90503102D01*
X157715000Y-90703061D01*
X143275000Y-90703061D01*
X143235226Y-90503102D01*
X143157205Y-90314744D01*
X143043937Y-90145226D01*
X142899774Y-90001063D01*
X142730256Y-89887795D01*
X142541898Y-89809774D01*
X142341939Y-89770000D01*
X142138061Y-89770000D01*
X141938102Y-89809774D01*
X141749744Y-89887795D01*
X141580226Y-90001063D01*
X141436063Y-90145226D01*
X141322795Y-90314744D01*
X141244774Y-90503102D01*
X141205000Y-90703061D01*
X130937000Y-90703061D01*
X130937000Y-89433061D01*
X146920000Y-89433061D01*
X146920000Y-89636939D01*
X146959774Y-89836898D01*
X147037795Y-90025256D01*
X147151063Y-90194774D01*
X147295226Y-90338937D01*
X147464744Y-90452205D01*
X147653102Y-90530226D01*
X147853061Y-90570000D01*
X148056939Y-90570000D01*
X148256898Y-90530226D01*
X148445256Y-90452205D01*
X148614774Y-90338937D01*
X148758937Y-90194774D01*
X148872205Y-90025256D01*
X148950226Y-89836898D01*
X148990000Y-89636939D01*
X148990000Y-89433061D01*
X148950226Y-89233102D01*
X148872205Y-89044744D01*
X148758937Y-88875226D01*
X148614774Y-88731063D01*
X148445256Y-88617795D01*
X148256898Y-88539774D01*
X148056939Y-88500000D01*
X147853061Y-88500000D01*
X147653102Y-88539774D01*
X147464744Y-88617795D01*
X147295226Y-88731063D01*
X147151063Y-88875226D01*
X147037795Y-89044744D01*
X146959774Y-89233102D01*
X146920000Y-89433061D01*
X130937000Y-89433061D01*
X130937000Y-88163061D01*
X162795000Y-88163061D01*
X162795000Y-88366939D01*
X162834774Y-88566898D01*
X162912795Y-88755256D01*
X163026063Y-88924774D01*
X163170226Y-89068937D01*
X163339744Y-89182205D01*
X163528102Y-89260226D01*
X163728061Y-89300000D01*
X163931939Y-89300000D01*
X164131898Y-89260226D01*
X164320256Y-89182205D01*
X164489774Y-89068937D01*
X164633937Y-88924774D01*
X164747205Y-88755256D01*
X164825226Y-88566898D01*
X164865000Y-88366939D01*
X164865000Y-88163061D01*
X164825226Y-87963102D01*
X164747205Y-87774744D01*
X164633937Y-87605226D01*
X164489774Y-87461063D01*
X164320256Y-87347795D01*
X164131898Y-87269774D01*
X163931939Y-87230000D01*
X163728061Y-87230000D01*
X163528102Y-87269774D01*
X163339744Y-87347795D01*
X163170226Y-87461063D01*
X163026063Y-87605226D01*
X162912795Y-87774744D01*
X162834774Y-87963102D01*
X162795000Y-88163061D01*
X130937000Y-88163061D01*
X130937000Y-86893061D01*
X155175000Y-86893061D01*
X155175000Y-87096939D01*
X155214774Y-87296898D01*
X155292795Y-87485256D01*
X155406063Y-87654774D01*
X155550226Y-87798937D01*
X155719744Y-87912205D01*
X155908102Y-87990226D01*
X156108061Y-88030000D01*
X156311939Y-88030000D01*
X156511898Y-87990226D01*
X156700256Y-87912205D01*
X156869774Y-87798937D01*
X157013937Y-87654774D01*
X157127205Y-87485256D01*
X157205226Y-87296898D01*
X157245000Y-87096939D01*
X157245000Y-86893061D01*
X157205226Y-86693102D01*
X157127205Y-86504744D01*
X157013937Y-86335226D01*
X156869774Y-86191063D01*
X156700256Y-86077795D01*
X156511898Y-85999774D01*
X156311939Y-85960000D01*
X156108061Y-85960000D01*
X155908102Y-85999774D01*
X155719744Y-86077795D01*
X155550226Y-86191063D01*
X155406063Y-86335226D01*
X155292795Y-86504744D01*
X155214774Y-86693102D01*
X155175000Y-86893061D01*
X130937000Y-86893061D01*
X130937000Y-84353061D01*
X149460000Y-84353061D01*
X149460000Y-84556939D01*
X149499774Y-84756898D01*
X149577795Y-84945256D01*
X149691063Y-85114774D01*
X149835226Y-85258937D01*
X150004744Y-85372205D01*
X150193102Y-85450226D01*
X150393061Y-85490000D01*
X150596939Y-85490000D01*
X150796898Y-85450226D01*
X150985256Y-85372205D01*
X151154774Y-85258937D01*
X151298937Y-85114774D01*
X151412205Y-84945256D01*
X151490226Y-84756898D01*
X151530000Y-84556939D01*
X151530000Y-84353061D01*
X151490226Y-84153102D01*
X151412205Y-83964744D01*
X151298937Y-83795226D01*
X151154774Y-83651063D01*
X150985256Y-83537795D01*
X150796898Y-83459774D01*
X150596939Y-83420000D01*
X150393061Y-83420000D01*
X150193102Y-83459774D01*
X150004744Y-83537795D01*
X149835226Y-83651063D01*
X149691063Y-83795226D01*
X149577795Y-83964744D01*
X149499774Y-84153102D01*
X149460000Y-84353061D01*
X130937000Y-84353061D01*
X130937000Y-83083061D01*
X163175000Y-83083061D01*
X163175000Y-83286939D01*
X163214774Y-83486898D01*
X163292795Y-83675256D01*
X163406063Y-83844774D01*
X163550226Y-83988937D01*
X163719744Y-84102205D01*
X163908102Y-84180226D01*
X164108061Y-84220000D01*
X164311939Y-84220000D01*
X164511898Y-84180226D01*
X164700256Y-84102205D01*
X164869774Y-83988937D01*
X165013937Y-83844774D01*
X165127205Y-83675256D01*
X165205226Y-83486898D01*
X165245000Y-83286939D01*
X165245000Y-83083061D01*
X165205226Y-82883102D01*
X165127205Y-82694744D01*
X165013937Y-82525226D01*
X164869774Y-82381063D01*
X164700256Y-82267795D01*
X164511898Y-82189774D01*
X164311939Y-82150000D01*
X164108061Y-82150000D01*
X163908102Y-82189774D01*
X163719744Y-82267795D01*
X163550226Y-82381063D01*
X163406063Y-82525226D01*
X163292795Y-82694744D01*
X163214774Y-82883102D01*
X163175000Y-83083061D01*
X130937000Y-83083061D01*
X130937000Y-78525000D01*
X133766928Y-78525000D01*
X133766928Y-80225000D01*
X133779188Y-80349482D01*
X133815498Y-80469180D01*
X133874463Y-80579494D01*
X133953815Y-80676185D01*
X134050506Y-80755537D01*
X134160820Y-80814502D01*
X134280518Y-80850812D01*
X134405000Y-80863072D01*
X136105000Y-80863072D01*
X136229482Y-80850812D01*
X136349180Y-80814502D01*
X136459494Y-80755537D01*
X136556185Y-80676185D01*
X136635537Y-80579494D01*
X136694502Y-80469180D01*
X136716513Y-80396620D01*
X136848368Y-80528475D01*
X137091589Y-80690990D01*
X137361842Y-80802932D01*
X137648740Y-80860000D01*
X137941260Y-80860000D01*
X138228158Y-80802932D01*
X138498411Y-80690990D01*
X138741632Y-80528475D01*
X138948475Y-80321632D01*
X139065000Y-80147240D01*
X139181525Y-80321632D01*
X139388368Y-80528475D01*
X139631589Y-80690990D01*
X139901842Y-80802932D01*
X140188740Y-80860000D01*
X140481260Y-80860000D01*
X140768158Y-80802932D01*
X141038411Y-80690990D01*
X141281632Y-80528475D01*
X141488475Y-80321632D01*
X141605000Y-80147240D01*
X141721525Y-80321632D01*
X141928368Y-80528475D01*
X142171589Y-80690990D01*
X142441842Y-80802932D01*
X142728740Y-80860000D01*
X143021260Y-80860000D01*
X143308158Y-80802932D01*
X143578411Y-80690990D01*
X143821632Y-80528475D01*
X144028475Y-80321632D01*
X144145000Y-80147240D01*
X144261525Y-80321632D01*
X144468368Y-80528475D01*
X144711589Y-80690990D01*
X144981842Y-80802932D01*
X145268740Y-80860000D01*
X145561260Y-80860000D01*
X145848158Y-80802932D01*
X146118411Y-80690990D01*
X146361632Y-80528475D01*
X146568475Y-80321632D01*
X146685000Y-80147240D01*
X146801525Y-80321632D01*
X147008368Y-80528475D01*
X147251589Y-80690990D01*
X147521842Y-80802932D01*
X147808740Y-80860000D01*
X148101260Y-80860000D01*
X148388158Y-80802932D01*
X148658411Y-80690990D01*
X148901632Y-80528475D01*
X149108475Y-80321632D01*
X149270990Y-80078411D01*
X149382932Y-79808158D01*
X149440000Y-79521260D01*
X149440000Y-79228740D01*
X149382932Y-78941842D01*
X149270990Y-78671589D01*
X149173043Y-78525000D01*
X151546928Y-78525000D01*
X151546928Y-80225000D01*
X151559188Y-80349482D01*
X151595498Y-80469180D01*
X151654463Y-80579494D01*
X151733815Y-80676185D01*
X151830506Y-80755537D01*
X151940820Y-80814502D01*
X152060518Y-80850812D01*
X152185000Y-80863072D01*
X153885000Y-80863072D01*
X154009482Y-80850812D01*
X154129180Y-80814502D01*
X154239494Y-80755537D01*
X154336185Y-80676185D01*
X154415537Y-80579494D01*
X154474502Y-80469180D01*
X154496513Y-80396620D01*
X154628368Y-80528475D01*
X154871589Y-80690990D01*
X155141842Y-80802932D01*
X155428740Y-80860000D01*
X155721260Y-80860000D01*
X156008158Y-80802932D01*
X156278411Y-80690990D01*
X156521632Y-80528475D01*
X156728475Y-80321632D01*
X156845000Y-80147240D01*
X156961525Y-80321632D01*
X157168368Y-80528475D01*
X157411589Y-80690990D01*
X157681842Y-80802932D01*
X157968740Y-80860000D01*
X158261260Y-80860000D01*
X158548158Y-80802932D01*
X158818411Y-80690990D01*
X159061632Y-80528475D01*
X159268475Y-80321632D01*
X159385000Y-80147240D01*
X159501525Y-80321632D01*
X159708368Y-80528475D01*
X159951589Y-80690990D01*
X160221842Y-80802932D01*
X160508740Y-80860000D01*
X160801260Y-80860000D01*
X161088158Y-80802932D01*
X161358411Y-80690990D01*
X161601632Y-80528475D01*
X161808475Y-80321632D01*
X161925000Y-80147240D01*
X162041525Y-80321632D01*
X162248368Y-80528475D01*
X162491589Y-80690990D01*
X162761842Y-80802932D01*
X163048740Y-80860000D01*
X163341260Y-80860000D01*
X163628158Y-80802932D01*
X163898411Y-80690990D01*
X164141632Y-80528475D01*
X164348475Y-80321632D01*
X164465000Y-80147240D01*
X164581525Y-80321632D01*
X164788368Y-80528475D01*
X165031589Y-80690990D01*
X165301842Y-80802932D01*
X165588740Y-80860000D01*
X165881260Y-80860000D01*
X166168158Y-80802932D01*
X166438411Y-80690990D01*
X166681632Y-80528475D01*
X166888475Y-80321632D01*
X167050990Y-80078411D01*
X167162932Y-79808158D01*
X167220000Y-79521260D01*
X167220000Y-79228740D01*
X167162932Y-78941842D01*
X167050990Y-78671589D01*
X166888475Y-78428368D01*
X166681632Y-78221525D01*
X166505594Y-78103900D01*
X166735269Y-77932588D01*
X166930178Y-77716355D01*
X167079157Y-77466252D01*
X167176481Y-77191891D01*
X167055814Y-76962000D01*
X165862000Y-76962000D01*
X165862000Y-76982000D01*
X165608000Y-76982000D01*
X165608000Y-76962000D01*
X163322000Y-76962000D01*
X163322000Y-76982000D01*
X163068000Y-76982000D01*
X163068000Y-76962000D01*
X160782000Y-76962000D01*
X160782000Y-76982000D01*
X160528000Y-76982000D01*
X160528000Y-76962000D01*
X158242000Y-76962000D01*
X158242000Y-76982000D01*
X157988000Y-76982000D01*
X157988000Y-76962000D01*
X155702000Y-76962000D01*
X155702000Y-76982000D01*
X155448000Y-76982000D01*
X155448000Y-76962000D01*
X153162000Y-76962000D01*
X153162000Y-76982000D01*
X152908000Y-76982000D01*
X152908000Y-76962000D01*
X151714186Y-76962000D01*
X151593519Y-77191891D01*
X151690843Y-77466252D01*
X151839822Y-77716355D01*
X152016626Y-77912502D01*
X151940820Y-77935498D01*
X151830506Y-77994463D01*
X151733815Y-78073815D01*
X151654463Y-78170506D01*
X151595498Y-78280820D01*
X151559188Y-78400518D01*
X151546928Y-78525000D01*
X149173043Y-78525000D01*
X149108475Y-78428368D01*
X148901632Y-78221525D01*
X148725594Y-78103900D01*
X148955269Y-77932588D01*
X149150178Y-77716355D01*
X149299157Y-77466252D01*
X149396481Y-77191891D01*
X149275814Y-76962000D01*
X148082000Y-76962000D01*
X148082000Y-76982000D01*
X147828000Y-76982000D01*
X147828000Y-76962000D01*
X145542000Y-76962000D01*
X145542000Y-76982000D01*
X145288000Y-76982000D01*
X145288000Y-76962000D01*
X143002000Y-76962000D01*
X143002000Y-76982000D01*
X142748000Y-76982000D01*
X142748000Y-76962000D01*
X140462000Y-76962000D01*
X140462000Y-76982000D01*
X140208000Y-76982000D01*
X140208000Y-76962000D01*
X137922000Y-76962000D01*
X137922000Y-76982000D01*
X137668000Y-76982000D01*
X137668000Y-76962000D01*
X135382000Y-76962000D01*
X135382000Y-76982000D01*
X135128000Y-76982000D01*
X135128000Y-76962000D01*
X133934186Y-76962000D01*
X133813519Y-77191891D01*
X133910843Y-77466252D01*
X134059822Y-77716355D01*
X134236626Y-77912502D01*
X134160820Y-77935498D01*
X134050506Y-77994463D01*
X133953815Y-78073815D01*
X133874463Y-78170506D01*
X133815498Y-78280820D01*
X133779188Y-78400518D01*
X133766928Y-78525000D01*
X130937000Y-78525000D01*
X130937000Y-76478109D01*
X133813519Y-76478109D01*
X133934186Y-76708000D01*
X135128000Y-76708000D01*
X135128000Y-75514845D01*
X135382000Y-75514845D01*
X135382000Y-76708000D01*
X137668000Y-76708000D01*
X137668000Y-75514845D01*
X137922000Y-75514845D01*
X137922000Y-76708000D01*
X140208000Y-76708000D01*
X140208000Y-75514845D01*
X140462000Y-75514845D01*
X140462000Y-76708000D01*
X142748000Y-76708000D01*
X142748000Y-75514845D01*
X143002000Y-75514845D01*
X143002000Y-76708000D01*
X145288000Y-76708000D01*
X145288000Y-75514845D01*
X145542000Y-75514845D01*
X145542000Y-76708000D01*
X147828000Y-76708000D01*
X147828000Y-75514845D01*
X148082000Y-75514845D01*
X148082000Y-76708000D01*
X149275814Y-76708000D01*
X149396481Y-76478109D01*
X151593519Y-76478109D01*
X151714186Y-76708000D01*
X152908000Y-76708000D01*
X152908000Y-75514845D01*
X153162000Y-75514845D01*
X153162000Y-76708000D01*
X155448000Y-76708000D01*
X155448000Y-75514845D01*
X155702000Y-75514845D01*
X155702000Y-76708000D01*
X157988000Y-76708000D01*
X157988000Y-75514845D01*
X158242000Y-75514845D01*
X158242000Y-76708000D01*
X160528000Y-76708000D01*
X160528000Y-75514845D01*
X160782000Y-75514845D01*
X160782000Y-76708000D01*
X163068000Y-76708000D01*
X163068000Y-75514845D01*
X163322000Y-75514845D01*
X163322000Y-76708000D01*
X165608000Y-76708000D01*
X165608000Y-75514845D01*
X165862000Y-75514845D01*
X165862000Y-76708000D01*
X167055814Y-76708000D01*
X167176481Y-76478109D01*
X167079157Y-76203748D01*
X166930178Y-75953645D01*
X166735269Y-75737412D01*
X166501920Y-75563359D01*
X166239099Y-75438175D01*
X166091890Y-75393524D01*
X165862000Y-75514845D01*
X165608000Y-75514845D01*
X165378110Y-75393524D01*
X165230901Y-75438175D01*
X164968080Y-75563359D01*
X164734731Y-75737412D01*
X164539822Y-75953645D01*
X164465000Y-76079255D01*
X164390178Y-75953645D01*
X164195269Y-75737412D01*
X163961920Y-75563359D01*
X163699099Y-75438175D01*
X163551890Y-75393524D01*
X163322000Y-75514845D01*
X163068000Y-75514845D01*
X162838110Y-75393524D01*
X162690901Y-75438175D01*
X162428080Y-75563359D01*
X162194731Y-75737412D01*
X161999822Y-75953645D01*
X161925000Y-76079255D01*
X161850178Y-75953645D01*
X161655269Y-75737412D01*
X161421920Y-75563359D01*
X161159099Y-75438175D01*
X161011890Y-75393524D01*
X160782000Y-75514845D01*
X160528000Y-75514845D01*
X160298110Y-75393524D01*
X160150901Y-75438175D01*
X159888080Y-75563359D01*
X159654731Y-75737412D01*
X159459822Y-75953645D01*
X159385000Y-76079255D01*
X159310178Y-75953645D01*
X159115269Y-75737412D01*
X158881920Y-75563359D01*
X158619099Y-75438175D01*
X158471890Y-75393524D01*
X158242000Y-75514845D01*
X157988000Y-75514845D01*
X157758110Y-75393524D01*
X157610901Y-75438175D01*
X157348080Y-75563359D01*
X157114731Y-75737412D01*
X156919822Y-75953645D01*
X156845000Y-76079255D01*
X156770178Y-75953645D01*
X156575269Y-75737412D01*
X156341920Y-75563359D01*
X156079099Y-75438175D01*
X155931890Y-75393524D01*
X155702000Y-75514845D01*
X155448000Y-75514845D01*
X155218110Y-75393524D01*
X155070901Y-75438175D01*
X154808080Y-75563359D01*
X154574731Y-75737412D01*
X154379822Y-75953645D01*
X154305000Y-76079255D01*
X154230178Y-75953645D01*
X154035269Y-75737412D01*
X153801920Y-75563359D01*
X153539099Y-75438175D01*
X153391890Y-75393524D01*
X153162000Y-75514845D01*
X152908000Y-75514845D01*
X152678110Y-75393524D01*
X152530901Y-75438175D01*
X152268080Y-75563359D01*
X152034731Y-75737412D01*
X151839822Y-75953645D01*
X151690843Y-76203748D01*
X151593519Y-76478109D01*
X149396481Y-76478109D01*
X149299157Y-76203748D01*
X149150178Y-75953645D01*
X148955269Y-75737412D01*
X148721920Y-75563359D01*
X148459099Y-75438175D01*
X148311890Y-75393524D01*
X148082000Y-75514845D01*
X147828000Y-75514845D01*
X147598110Y-75393524D01*
X147450901Y-75438175D01*
X147188080Y-75563359D01*
X146954731Y-75737412D01*
X146759822Y-75953645D01*
X146685000Y-76079255D01*
X146610178Y-75953645D01*
X146415269Y-75737412D01*
X146181920Y-75563359D01*
X145919099Y-75438175D01*
X145771890Y-75393524D01*
X145542000Y-75514845D01*
X145288000Y-75514845D01*
X145058110Y-75393524D01*
X144910901Y-75438175D01*
X144648080Y-75563359D01*
X144414731Y-75737412D01*
X144219822Y-75953645D01*
X144145000Y-76079255D01*
X144070178Y-75953645D01*
X143875269Y-75737412D01*
X143641920Y-75563359D01*
X143379099Y-75438175D01*
X143231890Y-75393524D01*
X143002000Y-75514845D01*
X142748000Y-75514845D01*
X142518110Y-75393524D01*
X142370901Y-75438175D01*
X142108080Y-75563359D01*
X141874731Y-75737412D01*
X141679822Y-75953645D01*
X141605000Y-76079255D01*
X141530178Y-75953645D01*
X141335269Y-75737412D01*
X141101920Y-75563359D01*
X140839099Y-75438175D01*
X140691890Y-75393524D01*
X140462000Y-75514845D01*
X140208000Y-75514845D01*
X139978110Y-75393524D01*
X139830901Y-75438175D01*
X139568080Y-75563359D01*
X139334731Y-75737412D01*
X139139822Y-75953645D01*
X139065000Y-76079255D01*
X138990178Y-75953645D01*
X138795269Y-75737412D01*
X138561920Y-75563359D01*
X138299099Y-75438175D01*
X138151890Y-75393524D01*
X137922000Y-75514845D01*
X137668000Y-75514845D01*
X137438110Y-75393524D01*
X137290901Y-75438175D01*
X137028080Y-75563359D01*
X136794731Y-75737412D01*
X136599822Y-75953645D01*
X136525000Y-76079255D01*
X136450178Y-75953645D01*
X136255269Y-75737412D01*
X136021920Y-75563359D01*
X135759099Y-75438175D01*
X135611890Y-75393524D01*
X135382000Y-75514845D01*
X135128000Y-75514845D01*
X134898110Y-75393524D01*
X134750901Y-75438175D01*
X134488080Y-75563359D01*
X134254731Y-75737412D01*
X134059822Y-75953645D01*
X133910843Y-76203748D01*
X133813519Y-76478109D01*
X130937000Y-76478109D01*
X130937000Y-73152000D01*
X170053000Y-73152000D01*
X170053000Y-141478000D01*
G37*
%TD.AperFunction*%
%TD*%
M02*
